<?xml version="1.0" encoding="UTF-8"?>
<svg version="1.1" xmlns="http://www.w3.org/2000/svg" width="57" height="57">
<path d="M0 0 C7.14833834 4.27935938 12.92812236 10.53011673 15.09765625 18.68359375 C16.67793331 28.02717365 15.39466175 35.74233715 10.40234375 43.84375 C5.81021731 49.94582988 -1.10634782 53.66025562 -8.5 55.0625 C-17.41285378 56.21354918 -25.3970866 53.75455404 -32.67578125 48.48828125 C-39.35859415 42.34925184 -41.7128272 35.71704827 -42.125 26.75 C-41.85524966 18.07448097 -39.48658222 11.04908222 -33.2734375 4.8359375 C-23.98615377 -2.71192185 -11.1969211 -5.04993331 0 0 Z M-30.5 10.0625 C-34.62679479 16.52234071 -37.41383929 22.22202374 -36.5 30.0625 C-34.63182565 37.67798778 -31.06676118 42.75803084 -24.5 47.0625 C-18.48731738 49.99024415 -11.62797144 50.16422211 -5.1875 48.4453125 C0.94307516 45.73923831 5.77900187 40.64263658 8.66796875 34.6328125 C10.74187774 28.22608894 10.24347685 21.86508981 7.5 15.75 C4.0137109 9.55543547 -0.54704618 6.18258593 -7.125 3.6875 C-15.5911579 2.11969298 -24.36152719 3.58300092 -30.5 10.0625 Z " fill="#151514" transform="translate(41.5,1.9375)"/>
<path d="M0 0 C2.1015625 -0.35546875 2.1015625 -0.35546875 5 0 C7.3612969 1.83688977 9.31019207 3.5654745 11.375 5.6875 C11.93316406 6.21794922 12.49132813 6.74839844 13.06640625 7.29492188 C15.35740724 9.60006485 16.92983149 11.18476955 17.21484375 14.49609375 C15.46827329 18.09593834 13.02658694 20.59289592 10.1875 23.375 C9.65318359 23.93316406 9.11886719 24.49132812 8.56835938 25.06640625 C6.98046875 26.6484375 6.98046875 26.6484375 4 29 C1.8137207 28.64697266 1.8137207 28.64697266 0 28 C0.48713098 23.58489226 1.85053197 21.69553355 5.0625 18.6875 C5.79597656 17.99011719 6.52945312 17.29273437 7.28515625 16.57421875 C8.13400391 15.79498047 8.13400391 15.79498047 9 15 C8.60167969 14.54109375 8.20335937 14.0821875 7.79296875 13.609375 C6.18553792 11.74772761 4.59164759 9.87514716 3 8 C2.38125 7.278125 1.7625 6.55625 1.125 5.8125 C0 4 0 4 0 0 Z " fill="#151514" transform="translate(21,14)"/>
</svg>
