<?xml version="1.0" encoding="UTF-8"?>
<svg version="1.1" xmlns="http://www.w3.org/2000/svg" width="44" height="44">
<path d="M0 0 C5.68086161 3.3375062 9.59227713 8.19149701 11.625 14.4375 C12.49609977 21.78107361 12.21659328 28.42278132 7.625 34.4375 C3.35374389 38.97191406 -0.88433979 42.02343548 -7.20703125 42.7734375 C-14.87832885 42.87397875 -20.4177899 42.16505058 -26.125 36.7890625 C-31.59114137 30.77105109 -32.85183148 25.50692078 -32.68359375 17.44140625 C-31.95806769 10.37900705 -28.59566441 6.10106812 -23.25390625 1.6640625 C-16.48277267 -2.75617855 -7.39669183 -3.32067283 0 0 Z M-25.375 10.4375 C-28.37432969 15.09163228 -29.16595201 19.03085541 -28.375 24.4375 C-26.21102809 30.24605617 -22.73721668 33.91518259 -17.5625 37.25 C-12.40129492 39.17280189 -8.34870508 39.17280189 -3.1875 37.25 C2.42213954 33.63489897 5.71822246 29.89935723 7.625 23.4375 C7.87574962 17.11860956 6.89751793 12.28738522 2.625 7.4375 C-7.4557988 -0.17453175 -17.12901909 0.854333 -25.375 10.4375 Z " fill="#151514" transform="translate(32.375,1.5625)"/>
<path d="M0 0 C-0.57575664 3.35250701 -1.59306263 4.93818629 -4.0625 7.25 C-4.88427734 8.03117187 -4.88427734 8.03117187 -5.72265625 8.828125 C-6.14417969 9.21484375 -6.56570312 9.6015625 -7 10 C-5.82633684 12.88080957 -4.64907259 14.34257199 -2.375 16.5625 C0 19 0 19 0 22 C-4.68191549 21.54261927 -6.63104174 19.80889606 -9.8125 16.4375 C-10.60269531 15.61121094 -11.39289062 14.78492188 -12.20703125 13.93359375 C-12.79871094 13.29550781 -13.39039063 12.65742188 -14 12 C-12.53823872 8.65452573 -10.67661689 6.3497606 -8.125 3.75 C-7.44695313 3.04359375 -6.76890625 2.3371875 -6.0703125 1.609375 C-4 0 -4 0 0 0 Z " fill="#151514" transform="translate(28,11)"/>
</svg>
