<svg width="588" height="582" viewBox="0 0 588 582" fill="none" xmlns="http://www.w3.org/2000/svg">
<g clip-path="url(#clip0_110_11)">
<path d="M396 390C459.36 390 522.72 390 588 390C588.083 410.584 588.165 431.167 588.25 452.375C588.286 458.841 588.323 465.308 588.36 471.97C588.378 479.95 588.378 479.95 588.382 483.703C588.389 486.961 588.412 490.219 588.439 493.477C588.605 517.608 586.775 539.174 570 558C569.43 558.663 568.86 559.325 568.273 560.008C556.562 572.716 538.614 581.343 521.263 582.123C520.324 582.122 519.386 582.121 518.419 582.12C517.336 582.122 516.253 582.123 515.137 582.124C513.96 582.121 512.782 582.117 511.569 582.114C510.299 582.114 509.03 582.114 507.722 582.114C504.3 582.114 500.877 582.108 497.455 582.101C494.239 582.096 491.023 582.095 487.807 582.095C478.413 582.089 469.019 582.075 459.625 582.062C438.629 582.042 417.632 582.021 396 582C396 518.64 396 455.28 396 390ZM464.25 439.062C461.581 441.361 460.632 442.523 460 446C461.823 450.824 464.127 455.129 466.781 459.559C467.147 460.172 467.513 460.786 467.89 461.418C469.089 463.427 470.295 465.432 471.5 467.438C472.345 468.85 473.19 470.264 474.035 471.677C475.35 473.878 476.665 476.078 477.982 478.278C481.06 483.419 484.118 488.571 487.164 493.73C488.005 495.152 488.845 496.574 489.686 497.996C490.886 500.028 492.087 502.06 493.284 504.093C497.387 511.055 501.549 517.975 505.867 524.805C506.237 525.398 506.607 525.992 506.988 526.604C508.823 529.474 510.116 531.077 513 533C516.616 533.462 518.336 533.454 521.375 531.375C523.501 528.268 523.361 526.729 523 523C521.953 520.631 520.887 518.578 519.562 516.375C519.17 515.7 518.777 515.024 518.373 514.328C516.934 511.874 515.47 509.436 514 507C513.41 506.022 512.82 505.044 512.211 504.036C509.467 499.499 506.717 494.967 503.952 490.442C499.874 483.762 495.835 477.062 491.852 470.324C491.425 469.602 490.997 468.88 490.558 468.136C488.478 464.618 486.403 461.096 484.333 457.572C478.658 446.539 478.658 446.539 470 438.375C466.982 437.757 466.982 437.757 464.25 439.062Z" fill="#595858" fill-opacity="0.47"/>
</g>
<g clip-path="url(#clip1_110_11)">
<path d="M400.196 -0.138885C401.886 -0.147451 401.886 -0.147451 403.611 -0.156189C404.858 -0.157307 406.106 -0.158425 407.392 -0.159576C408.697 -0.164541 410.003 -0.169506 411.348 -0.174622C414.944 -0.187778 418.54 -0.194198 422.136 -0.198632C424.386 -0.201562 426.635 -0.205667 428.885 -0.210136C435.934 -0.223829 442.982 -0.233483 450.031 -0.237338C458.148 -0.241803 466.265 -0.259267 474.383 -0.288339C480.665 -0.31005 486.947 -0.320048 493.229 -0.321379C496.976 -0.322422 500.723 -0.328213 504.469 -0.346199C508.005 -0.362839 511.541 -0.364759 515.077 -0.35606C516.973 -0.354938 518.868 -0.368538 520.763 -0.382812C540.706 -0.287128 555.935 7.29126 570 21.0016C583.69 35.2156 588.486 52.3833 588.388 71.7464C588.396 73.7049 588.396 73.7049 588.404 75.703C588.418 79.2395 588.413 82.7758 588.403 86.3123C588.395 90.0269 588.402 93.7415 588.407 97.4561C588.413 103.679 588.405 109.901 588.391 116.123C588.375 123.319 588.38 130.514 588.397 137.71C588.41 143.904 588.412 150.098 588.404 156.292C588.4 159.985 588.399 163.678 588.409 167.371C588.419 171.474 588.405 175.577 588.388 179.68C588.394 180.905 588.4 182.131 588.407 183.393C588.394 185.06 588.394 185.06 588.381 186.761C588.38 187.731 588.379 188.7 588.378 189.699C588.253 190.459 588.128 191.219 588 192.002C584.368 194.423 581.718 194.281 577.522 194.256C576.37 194.26 576.37 194.26 575.194 194.265C572.613 194.273 570.031 194.267 567.449 194.26C565.601 194.263 563.754 194.267 561.906 194.271C556.881 194.28 551.857 194.277 546.832 194.27C541.58 194.265 536.329 194.27 531.077 194.273C522.257 194.277 513.436 194.272 504.616 194.262C494.41 194.251 484.204 194.255 473.998 194.266C465.245 194.275 456.492 194.276 447.738 194.271C442.506 194.268 437.274 194.268 432.042 194.274C427.124 194.28 422.206 194.276 417.288 194.264C415.48 194.262 413.672 194.262 411.864 194.267C409.402 194.272 406.94 194.266 404.478 194.256C403.397 194.262 403.397 194.262 402.294 194.269C398.633 194.24 397.135 194.092 394 192.002C393.703 189.428 393.604 187.093 393.632 184.517C393.629 183.736 393.626 182.955 393.623 182.15C393.615 179.519 393.63 176.888 393.644 174.257C393.643 172.377 393.641 170.496 393.637 168.616C393.632 163.498 393.646 158.381 393.663 153.263C393.678 147.919 393.677 142.574 393.678 137.229C393.681 128.253 393.696 119.277 393.719 110.302C393.748 98.7644 393.758 87.2272 393.762 75.69C393.766 65.7913 393.779 55.8926 393.793 45.9939C393.797 42.8021 393.8 39.6103 393.803 36.4186C393.807 31.4126 393.818 26.4067 393.832 21.4008C393.837 19.558 393.839 17.7153 393.84 15.8725C393.842 13.3681 393.85 10.8638 393.86 8.35945C393.858 7.25111 393.858 7.25111 393.857 6.12038C393.892 0.0961461 394.273 -0.121001 400.196 -0.138885ZM445 99.0016C443.581 102.352 443.581 102.352 444 106.002C446.727 109.676 448.237 110.874 452.795 111.636C454.293 111.666 455.792 111.668 457.291 111.649C458.113 111.657 458.935 111.666 459.781 111.675C462.49 111.697 465.197 111.683 467.906 111.666C469.793 111.669 471.679 111.674 473.566 111.68C477.517 111.687 481.467 111.677 485.418 111.653C490.48 111.625 495.539 111.641 500.601 111.671C504.495 111.689 508.39 111.684 512.285 111.671C514.151 111.667 516.017 111.671 517.883 111.683C520.492 111.696 523.1 111.676 525.709 111.649C526.478 111.659 527.247 111.669 528.039 111.679C532.02 111.601 533.837 111.128 537.018 108.656C539.312 106.136 539.312 106.136 539 102.877C537.724 99.208 536.431 97.7172 533 96.0016C530.438 95.893 527.903 95.8442 525.341 95.8404C524.155 95.833 524.155 95.833 522.946 95.8254C520.323 95.8107 517.701 95.804 515.078 95.7984C513.257 95.7927 511.436 95.7869 509.614 95.7812C505.791 95.7706 501.968 95.7648 498.145 95.7613C493.251 95.7558 488.357 95.7318 483.464 95.7034C479.699 95.6847 475.935 95.6795 472.17 95.678C470.367 95.675 468.563 95.6669 466.759 95.6538C464.232 95.6367 461.705 95.6386 459.177 95.6451C458.064 95.6313 458.064 95.6313 456.928 95.6172C452.233 95.6548 448.937 96.4079 445 99.0016Z" fill="#595858" fill-opacity="0.47"/>
</g>
<g clip-path="url(#clip2_110_11)">
<path d="M261.279 193.887C262.62 193.888 263.961 193.887 265.302 193.887C268.925 193.887 272.549 193.892 276.172 193.899C279.965 193.906 283.758 193.906 287.551 193.907C294.726 193.911 301.901 193.919 309.076 193.929C317.248 193.94 325.42 193.945 333.591 193.95C350.394 193.961 367.197 193.978 384 194.001C384.07 219 384.123 243.999 384.155 268.998C384.171 280.605 384.192 292.212 384.226 303.819C384.256 313.932 384.276 324.045 384.282 334.158C384.286 339.516 384.295 344.874 384.317 350.232C384.337 355.27 384.344 360.307 384.339 365.346C384.34 367.199 384.346 369.053 384.358 370.906C384.372 373.428 384.369 375.949 384.361 378.471C384.369 379.212 384.378 379.954 384.387 380.717C384.369 382.756 384.369 382.756 384 386.001C380.374 388.418 377.742 388.278 373.553 388.248C372.406 388.252 372.406 388.252 371.236 388.255C368.666 388.261 366.095 388.252 363.525 388.244C361.686 388.245 359.846 388.247 358.007 388.249C353.005 388.254 348.003 388.247 343.001 388.237C337.774 388.228 332.547 388.229 327.321 388.23C318.543 388.229 309.766 388.22 300.988 388.207C290.829 388.191 280.67 388.186 270.51 388.186C260.751 388.187 250.991 388.182 241.231 388.174C237.071 388.17 232.911 388.168 228.751 388.168C223.857 388.167 218.963 388.161 214.068 388.15C212.268 388.148 210.468 388.146 208.667 388.147C206.218 388.147 203.769 388.142 201.32 388.135C200.24 388.137 200.24 388.137 199.139 388.139C194.228 388.115 194.228 388.115 192 387.001C191.93 369.215 191.877 351.429 191.845 333.644C191.829 325.384 191.808 317.125 191.774 308.866C191.744 301.663 191.724 294.46 191.718 287.256C191.714 283.446 191.705 279.637 191.683 275.827C191.662 272.231 191.656 268.637 191.661 265.041C191.659 263.111 191.643 261.181 191.627 259.252C191.695 239.743 199.504 225.866 212.625 211.938C226.94 197.949 241.995 193.832 261.279 193.887ZM289 246.001C287.857 248.287 287.879 249.544 287.886 252.083C287.887 252.924 287.887 253.765 287.887 254.631C287.892 255.539 287.897 256.448 287.902 257.384C287.904 258.778 287.904 258.778 287.907 260.2C287.912 263.175 287.925 266.151 287.937 269.126C287.942 271.14 287.947 273.154 287.951 275.169C287.962 280.113 287.979 285.057 288 290.001C286.784 289.985 285.568 289.969 284.316 289.953C279.796 289.899 275.277 289.864 270.758 289.836C268.803 289.821 266.849 289.8 264.894 289.774C262.082 289.738 259.27 289.721 256.457 289.708C255.586 289.692 254.715 289.677 253.818 289.661C249.056 289.66 245.835 289.853 242 293.001C239.697 295.817 239.697 295.817 240.125 299.001C240.759 301.962 240.759 301.962 242.456 303.656C246.381 305.731 250.201 305.481 254.578 305.513C255.968 305.539 255.968 305.539 257.386 305.567C260.341 305.621 263.295 305.655 266.25 305.688C268.255 305.721 270.26 305.756 272.266 305.792C277.177 305.877 282.088 305.944 287 306.001C287.015 307.217 287.029 308.432 287.044 309.685C287.102 314.205 287.179 318.724 287.262 323.243C287.296 325.198 287.324 327.152 287.346 329.107C287.38 331.919 287.432 334.731 287.488 337.544C287.495 338.415 287.501 339.286 287.508 340.183C287.622 344.912 287.907 348.173 291 352.001C293.875 353.438 295.819 353.383 299 353.001C302.185 350.148 303.252 347.846 303.53 343.685C303.564 341.983 303.578 340.281 303.574 338.579C303.588 337.678 303.603 336.778 303.617 335.85C303.659 332.983 303.674 330.118 303.687 327.251C303.716 324.37 303.751 321.49 303.79 318.609C303.813 316.818 303.828 315.028 303.837 313.237C303.89 307.11 303.89 307.11 305 306.001C308.054 305.902 311.09 305.864 314.145 305.86C316.037 305.842 317.93 305.822 319.822 305.802C322.818 305.773 325.813 305.751 328.809 305.75C331.692 305.747 334.574 305.712 337.457 305.673C338.352 305.68 339.247 305.687 340.169 305.694C345.379 305.611 345.379 305.611 349.592 302.685C351.272 299.971 351.272 299.971 351.062 296.376C350.32 292.971 350.32 292.971 348.025 291.322C343.829 289.49 340.076 289.522 335.543 289.489C334.188 289.462 334.188 289.462 332.807 289.435C329.934 289.381 327.061 289.347 324.187 289.313C322.235 289.28 320.282 289.246 318.33 289.21C313.553 289.125 308.777 289.058 304 289.001C303.991 287.749 303.981 286.498 303.972 285.209C303.932 280.564 303.866 275.92 303.792 271.276C303.764 269.267 303.743 267.257 303.729 265.247C303.708 262.357 303.661 259.468 303.609 256.579C303.608 255.681 303.607 254.783 303.606 253.858C303.521 248.801 303.521 248.801 301.114 244.465C295.969 240.902 293.392 241.731 289 246.001Z" fill="#595858" fill-opacity="0.47"/>
</g>
<g clip-path="url(#clip3_110_11)">
<path d="M69.279 387.887C70.6199 387.888 71.9609 387.887 73.3018 387.887C76.9252 387.887 80.5486 387.892 84.1721 387.899C87.9651 387.906 91.758 387.906 95.551 387.907C102.726 387.911 109.901 387.919 117.076 387.929C125.248 387.94 133.42 387.945 141.591 387.95C158.394 387.961 175.197 387.978 192 388.001C192.07 413 192.123 437.999 192.155 462.998C192.171 474.605 192.192 486.212 192.226 497.819C192.256 507.932 192.276 518.045 192.282 528.158C192.286 533.516 192.295 538.874 192.317 544.232C192.337 549.27 192.344 554.307 192.339 559.346C192.34 561.199 192.346 563.053 192.358 564.906C192.372 567.428 192.369 569.949 192.361 572.471C192.369 573.212 192.378 573.954 192.387 574.717C192.369 576.756 192.369 576.756 192 580.001C188.374 582.418 185.742 582.278 181.553 582.248C180.406 582.252 180.406 582.252 179.236 582.255C176.666 582.261 174.095 582.252 171.525 582.244C169.686 582.245 167.846 582.247 166.007 582.249C161.005 582.254 156.003 582.247 151.001 582.237C145.774 582.228 140.547 582.229 135.321 582.23C126.543 582.229 117.766 582.22 108.988 582.207C98.8291 582.191 88.6698 582.186 78.5104 582.186C68.7506 582.187 58.9908 582.182 49.2309 582.174C45.0711 582.17 40.9112 582.168 36.7514 582.168C31.857 582.167 26.9627 582.161 22.0684 582.15C20.268 582.148 18.4676 582.146 16.6672 582.147C14.2179 582.147 11.7688 582.142 9.31953 582.135C8.23993 582.137 8.23993 582.137 7.13852 582.139C2.22833 582.115 2.22833 582.115 -3.05176e-05 581.001C-0.0702782 563.215 -0.123093 545.429 -0.155464 527.644C-0.170898 519.384 -0.191923 511.125 -0.226349 502.866C-0.256359 495.663 -0.27563 488.46 -0.282295 481.256C-0.286188 477.446 -0.295265 473.637 -0.317223 469.827C-0.337772 466.231 -0.34383 462.637 -0.339355 459.041C-0.340558 457.111 -0.356601 455.181 -0.373291 453.252C-0.304974 433.743 7.50381 419.866 20.625 405.938C34.9403 391.949 49.9949 387.832 69.279 387.887ZM97 440.001C95.8568 442.287 95.8788 443.544 95.8864 446.083C95.8865 446.924 95.8866 447.765 95.8867 448.631C95.8918 449.539 95.897 450.448 95.9023 451.384C95.9044 452.778 95.9044 452.778 95.9066 454.2C95.9122 457.175 95.9248 460.151 95.9375 463.126C95.9425 465.14 95.947 467.154 95.9511 469.169C95.9622 474.113 95.9795 479.057 96 484.001C94.7841 483.985 93.5683 483.969 92.3156 483.953C87.7963 483.899 83.2771 483.864 78.7575 483.836C76.8031 483.821 74.8486 483.8 72.8943 483.774C70.0818 483.738 67.2697 483.721 64.457 483.708C63.586 483.692 62.715 483.677 61.8176 483.661C57.0562 483.66 53.8354 483.853 50 487.001C47.6974 489.817 47.6974 489.817 48.125 493.001C48.7589 495.962 48.7589 495.962 50.456 497.656C54.3812 499.731 58.2007 499.481 62.5781 499.513C63.968 499.539 63.968 499.539 65.3859 499.567C68.3405 499.621 71.295 499.655 74.25 499.688C76.2552 499.721 78.2604 499.756 80.2656 499.792C85.1769 499.877 90.0882 499.944 95 500.001C95.0146 501.217 95.0291 502.432 95.0442 503.685C95.1022 508.205 95.1795 512.724 95.2624 517.243C95.2956 519.198 95.3237 521.152 95.3464 523.107C95.38 525.919 95.4323 528.731 95.4883 531.544C95.4946 532.415 95.501 533.286 95.5076 534.183C95.6217 538.912 95.9073 542.173 99 546.001C101.875 547.438 103.819 547.383 107 547.001C110.185 544.148 111.252 541.846 111.53 537.685C111.564 535.983 111.578 534.281 111.574 532.579C111.588 531.678 111.603 530.778 111.617 529.85C111.659 526.983 111.674 524.118 111.687 521.251C111.716 518.37 111.751 515.49 111.79 512.609C111.813 510.818 111.828 509.028 111.837 507.237C111.89 501.11 111.89 501.11 113 500.001C116.054 499.902 119.09 499.864 122.145 499.86C124.037 499.842 125.93 499.822 127.822 499.802C130.818 499.773 133.813 499.751 136.809 499.75C139.692 499.747 142.574 499.712 145.457 499.673C146.352 499.68 147.247 499.687 148.169 499.694C153.379 499.611 153.379 499.611 157.592 496.685C159.272 493.971 159.272 493.971 159.062 490.376C158.32 486.971 158.32 486.971 156.025 485.322C151.829 483.49 148.076 483.522 143.543 483.489C142.188 483.462 142.188 483.462 140.807 483.435C137.934 483.381 135.061 483.347 132.187 483.313C130.235 483.28 128.282 483.246 126.33 483.21C121.553 483.125 116.777 483.058 112 483.001C111.991 481.749 111.981 480.498 111.972 479.209C111.932 474.564 111.866 469.92 111.792 465.276C111.764 463.267 111.743 461.257 111.729 459.247C111.708 456.357 111.661 453.468 111.609 450.579C111.608 449.681 111.607 448.783 111.606 447.858C111.521 442.801 111.521 442.801 109.114 438.465C103.969 434.902 101.392 435.731 97 440.001Z" fill="#595858" fill-opacity="0.53"/>
</g>
<defs>
<clipPath id="clip0_110_11">
<rect width="192" height="192" fill="white" transform="translate(396 390)"/>
</clipPath>
<clipPath id="clip1_110_11">
<rect width="194" height="194" fill="white" transform="translate(394)"/>
</clipPath>
<clipPath id="clip2_110_11">
<rect width="192" height="194" fill="white" transform="translate(192 194)"/>
</clipPath>
<clipPath id="clip3_110_11">
<rect width="192" height="194" fill="white" transform="translate(0 388)"/>
</clipPath>
</defs>
</svg>
