<svg width="541" height="511" viewBox="0 0 541 511" fill="none" xmlns="http://www.w3.org/2000/svg">
<path d="M540.395 238.281C540.663 242.079 540.843 245.901 540.933 249.743L539.933 249.766C539.978 251.672 540 253.584 540 255.5C540 257.416 539.978 259.328 539.933 261.234L540.933 261.257C540.843 265.099 540.663 268.92 540.395 272.719L539.398 272.649C539.129 276.464 538.771 280.257 538.326 284.025L539.319 284.142C538.869 287.954 538.33 291.741 537.704 295.501L536.718 295.337C536.09 299.107 535.375 302.85 534.574 306.563L535.552 306.773C534.743 310.525 533.846 314.246 532.865 317.936L531.899 317.679C530.917 321.37 529.851 325.03 528.701 328.655L529.654 328.957C528.495 332.611 527.251 336.23 525.925 339.813L524.988 339.466C523.664 343.045 522.257 346.587 520.771 350.091L521.692 350.482C520.196 354.008 518.62 357.494 516.964 360.94L516.063 360.508C514.412 363.945 512.683 367.341 510.877 370.695L511.758 371.169C509.943 374.539 508.052 377.865 506.086 381.147L505.228 380.633C503.269 383.902 501.237 387.127 499.131 390.304L499.965 390.856C497.852 394.045 495.667 397.187 493.411 400.279L492.603 399.69C490.358 402.768 488.043 405.797 485.661 408.775L486.441 409.4C484.052 412.386 481.596 415.32 479.073 418.202L478.321 417.543C475.813 420.409 473.239 423.222 470.603 425.979L471.326 426.671C468.685 429.433 465.981 432.141 463.216 434.792L462.524 434.07C459.776 436.705 456.968 439.283 454.102 441.804L454.762 442.555C451.893 445.077 448.965 447.542 445.982 449.946L445.354 449.168C442.391 451.556 439.372 453.885 436.3 456.152L436.894 456.956C433.82 459.224 430.694 461.431 427.516 463.574L426.957 462.745C423.802 464.873 420.597 466.938 417.343 468.939L417.866 469.79C414.613 471.791 411.311 473.726 407.963 475.596L407.476 474.723C404.154 476.578 400.786 478.368 397.375 480.09L397.825 480.983C394.417 482.703 390.964 484.357 387.47 485.943L387.057 485.032C383.594 486.603 380.091 488.106 376.548 489.539L376.923 490.466C373.387 491.897 369.812 493.259 366.2 494.55L365.863 493.608C362.284 494.887 358.669 496.096 355.019 497.233L355.316 498.188C351.675 499.323 348 500.387 344.292 501.377L344.034 500.411C340.362 501.392 336.659 502.302 332.926 503.138L333.145 504.114C329.423 504.947 325.672 505.708 321.893 506.395L321.714 505.411C317.975 506.09 314.208 506.696 310.415 507.228L310.554 508.218C306.78 508.747 302.98 509.203 299.156 509.583L299.057 508.588C295.282 508.964 291.483 509.266 287.663 509.492L287.722 510.491C283.922 510.716 280.1 510.867 276.259 510.943L276.239 509.943C274.331 509.981 272.418 510 270.5 510C268.582 510 266.669 509.981 264.761 509.943L264.741 510.943C260.9 510.867 257.078 510.716 253.278 510.491L253.337 509.492C249.517 509.266 245.718 508.964 241.943 508.588L241.844 509.583C238.02 509.203 234.22 508.747 230.446 508.218L230.585 507.228C226.792 506.696 223.025 506.09 219.286 505.411L219.107 506.395C215.328 505.708 211.577 504.947 207.856 504.114L208.074 503.138C204.341 502.302 200.638 501.392 196.966 500.411L196.708 501.377C193 500.387 189.325 499.323 185.684 498.188L185.981 497.233C182.331 496.096 178.716 494.887 175.137 493.608L174.801 494.55C171.188 493.259 167.613 491.897 164.077 490.466L164.452 489.539C160.909 488.106 157.406 486.603 153.943 485.032L153.53 485.943C150.036 484.357 146.584 482.703 143.175 480.983L143.625 480.09C140.214 478.368 136.846 476.578 133.524 474.723L133.037 475.596C129.689 473.726 126.387 471.791 123.134 469.79L123.657 468.939C120.403 466.938 117.198 464.873 114.043 462.745L113.484 463.574C110.306 461.431 107.18 459.224 104.106 456.956L104.7 456.152C101.628 453.885 98.6089 451.556 95.6456 449.168L95.0181 449.946C92.0347 447.542 89.1073 445.077 86.2381 442.555L86.8984 441.804C84.0321 439.283 81.224 436.705 78.4763 434.07L77.7842 434.792C75.0194 432.141 72.3155 429.433 69.6745 426.671L70.3974 425.98C67.7609 423.222 65.1875 420.409 62.6792 417.543L61.9268 418.202C59.4043 415.32 56.9475 412.386 54.5586 409.4L55.3394 408.775C52.9567 405.797 50.6418 402.768 48.3968 399.69L47.5889 400.279C45.3333 397.187 43.148 394.045 41.0351 390.856L41.8687 390.304C39.7635 387.127 37.7305 383.902 35.772 380.633L34.9141 381.147C32.9482 377.865 31.0569 374.539 29.2424 371.169L30.1228 370.695C28.3171 367.341 26.5877 363.945 24.9369 360.508L24.0355 360.94C22.3804 357.494 20.804 354.008 19.3083 350.482L20.2289 350.091C18.7426 346.587 17.3363 343.045 16.0124 339.466L15.0745 339.813C13.749 336.23 12.5055 332.611 11.3463 328.957L12.2995 328.655C11.1494 325.03 10.0825 321.37 9.10104 317.679L8.13462 317.936C7.15354 314.247 6.25742 310.525 5.44833 306.773L6.42585 306.563C5.62504 302.85 4.90984 299.107 4.28228 295.337L3.29586 295.501C2.66998 291.741 2.13091 287.954 1.68066 284.142L2.67376 284.025C2.2288 280.257 1.87093 276.464 1.60211 272.649L0.604582 272.719C0.336974 268.921 0.157252 265.099 0.0673197 261.257L1.06705 261.234C1.02243 259.328 1 257.416 1 255.5C1 253.584 1.02243 251.672 1.06704 249.766L0.0673183 249.743C0.15725 245.901 0.336971 242.08 0.604578 238.281L1.60211 238.351C1.87093 234.536 2.22879 230.743 2.67376 226.975L1.68066 226.858C2.13091 223.046 2.66997 219.259 3.29585 215.499L4.28228 215.663C4.90983 211.893 5.62503 208.15 6.42585 204.437L5.44832 204.227C6.25741 200.475 7.15354 196.754 8.13461 193.064L9.10103 193.321C10.0825 189.63 11.1494 185.97 12.2995 182.345L11.3463 182.043C12.5055 178.389 13.749 174.77 15.0745 171.187L16.0124 171.534C17.3363 167.955 18.7426 164.413 20.2289 160.909L19.3083 160.518C20.804 156.993 22.3804 153.506 24.0355 150.06L24.9369 150.492C26.5877 147.055 28.3171 143.659 30.1228 140.305L29.2423 139.831C31.0569 136.461 32.9482 133.135 34.9141 129.853L35.7719 130.367C37.7305 127.098 39.7635 123.873 41.8687 120.696L41.0351 120.144C43.148 116.955 45.3333 113.813 47.5889 110.721L48.3968 111.31C50.6418 108.232 52.9567 105.203 55.3394 102.225L54.5585 101.6C56.9475 98.6144 59.4043 95.6796 61.9268 92.7979L62.6792 93.4566C65.1874 90.5912 67.7609 87.7785 70.3974 85.0205L69.6745 84.3295C72.3154 81.5669 75.0194 78.859 77.7842 76.2079L78.4763 76.9297C81.224 74.295 84.032 71.7166 86.8984 69.1964L86.2381 68.4454C89.1073 65.9226 92.0347 63.458 95.0181 61.0536L95.6456 61.8322C98.6089 59.444 101.628 57.1154 104.7 54.8483L104.106 54.0436C107.18 51.7756 110.306 49.569 113.484 47.4257L114.043 48.2548C117.198 46.1271 120.403 44.062 123.657 42.0614L123.134 41.2095C126.387 39.2094 129.689 37.2736 133.037 35.404L133.524 36.2771C136.846 34.4221 140.214 32.6325 143.625 30.9102L143.175 30.0175C146.584 28.2966 150.036 26.6426 153.53 25.0575L153.943 25.9681C157.406 24.3972 160.909 22.8942 164.452 21.4607L164.077 20.5337C167.613 19.1028 171.188 17.7411 174.8 16.4503L175.137 17.392C178.716 16.1131 182.331 14.904 185.981 13.7666L185.684 12.8119C189.325 11.6772 193 10.6135 196.708 9.62269L196.966 10.5888C200.638 9.60773 204.341 8.69829 208.074 7.86218L207.855 6.88636C211.577 6.05289 215.328 5.29203 219.107 4.60547L219.286 5.58937C223.025 4.91006 226.792 4.30373 230.585 3.77201L230.446 2.7817C234.22 2.25254 238.02 1.79702 241.844 1.41674L241.943 2.41183C245.718 2.03634 249.517 1.73446 253.337 1.50774L253.278 0.509495C257.078 0.283948 260.9 0.132528 264.741 0.0567493L264.761 1.05655C266.669 1.01891 268.582 1 270.5 1C272.418 1 274.331 1.01891 276.239 1.05655L276.259 0.0567487C280.1 0.132527 283.922 0.283947 287.722 0.509494L287.663 1.50774C291.483 1.73446 295.282 2.03634 299.057 2.41182L299.156 1.41674C302.98 1.79701 306.78 2.25253 310.554 2.78169L310.415 3.77201C314.208 4.30373 317.975 4.91006 321.714 5.58937L321.893 4.60547C325.672 5.29203 329.423 6.05288 333.145 6.88635L332.926 7.86218C336.659 8.69828 340.362 9.60772 344.034 10.5888L344.292 9.62269C348 10.6135 351.675 11.6771 355.316 12.8119L355.019 13.7666C358.669 14.904 362.284 16.1131 365.863 17.392L366.199 16.4503C369.812 17.7411 373.387 19.1028 376.923 20.5337L376.548 21.4607C380.091 22.8941 383.594 24.3972 387.057 25.9681L387.47 25.0575C390.964 26.6426 394.416 28.2966 397.825 30.0175L397.375 30.9102C400.786 32.6325 404.154 34.4221 407.476 36.2771L407.963 35.404C411.311 37.2736 414.613 39.2094 417.866 41.2095L417.343 42.0614C420.597 44.062 423.802 46.127 426.957 48.2548L427.516 47.4257C430.694 49.569 433.82 51.7756 436.894 54.0436L436.3 54.8482C439.372 57.1153 442.391 59.444 445.354 61.8322L445.982 61.0536C448.965 63.458 451.893 65.9226 454.762 68.4453L454.102 69.1964C456.968 71.7165 459.776 74.295 462.524 76.9297L463.216 76.2079C465.981 78.859 468.685 81.5669 471.325 84.3295L470.603 85.0205C473.239 87.7785 475.813 90.5912 478.321 93.4566L479.073 92.7979C481.596 95.6796 484.052 98.6144 486.441 101.6L485.661 102.225C488.043 105.203 490.358 108.232 492.603 111.31L493.411 110.721C495.667 113.813 497.852 116.955 499.965 120.144L499.131 120.696C501.236 123.873 503.269 127.098 505.228 130.367L506.086 129.853C508.052 133.135 509.943 136.461 511.758 139.831L510.877 140.305C512.683 143.659 514.412 147.055 516.063 150.492L516.964 150.06C518.62 153.506 520.196 156.992 521.692 160.518L520.771 160.909C522.257 164.413 523.664 167.955 524.988 171.533L525.925 171.187C527.251 174.77 528.494 178.389 529.654 182.043L528.701 182.345C529.851 185.97 530.917 189.63 531.899 193.321L532.865 193.064C533.846 196.754 534.743 200.475 535.552 204.227L534.574 204.437C535.375 208.15 536.09 211.893 536.718 215.663L537.704 215.499C538.33 219.259 538.869 223.046 539.319 226.858L538.326 226.975C538.771 230.743 539.129 234.536 539.398 238.351L540.395 238.281Z" stroke="black" stroke-width="2" stroke-dasharray="12 12 12 12"/>
</svg>
