<svg width="588" height="580" viewBox="0 0 588 580" fill="none" xmlns="http://www.w3.org/2000/svg">
<g clip-path="url(#clip0_23_481)">
<path d="M400.196 385.861C401.886 385.853 401.886 385.853 403.611 385.844C404.858 385.843 406.106 385.842 407.392 385.84C408.697 385.835 410.003 385.83 411.348 385.825C414.944 385.812 418.54 385.806 422.136 385.801C424.386 385.798 426.635 385.794 428.885 385.79C435.934 385.776 442.982 385.767 450.031 385.763C458.148 385.758 466.265 385.741 474.383 385.712C480.665 385.69 486.947 385.68 493.229 385.679C496.976 385.678 500.723 385.672 504.469 385.654C508.005 385.637 511.541 385.635 515.077 385.644C516.973 385.645 518.868 385.631 520.763 385.617C540.706 385.713 555.935 393.291 570 407.002C583.69 421.216 588.486 438.383 588.388 457.746C588.396 459.705 588.396 459.705 588.404 461.703C588.418 465.24 588.413 468.776 588.403 472.312C588.395 476.027 588.402 479.741 588.407 483.456C588.413 489.679 588.405 495.901 588.391 502.123C588.375 509.319 588.38 516.514 588.397 523.71C588.41 529.904 588.412 536.098 588.404 542.292C588.4 545.985 588.399 549.678 588.409 553.371C588.419 557.474 588.405 561.577 588.388 565.68C588.394 566.905 588.4 568.131 588.407 569.393C588.394 571.06 588.394 571.06 588.381 572.761C588.38 573.731 588.379 574.7 588.378 575.699C588.253 576.459 588.128 577.219 588 578.002C584.368 580.423 581.718 580.281 577.522 580.256C576.37 580.26 576.37 580.26 575.194 580.265C572.613 580.273 570.031 580.267 567.449 580.26C565.601 580.263 563.754 580.267 561.906 580.271C556.881 580.28 551.857 580.277 546.832 580.27C541.58 580.265 536.329 580.27 531.077 580.273C522.257 580.277 513.436 580.272 504.616 580.262C494.41 580.251 484.204 580.255 473.998 580.266C465.245 580.275 456.492 580.276 447.738 580.271C442.506 580.268 437.274 580.268 432.042 580.274C427.124 580.28 422.206 580.276 417.288 580.264C415.48 580.262 413.672 580.262 411.864 580.267C409.402 580.272 406.94 580.266 404.478 580.256C403.397 580.262 403.397 580.262 402.294 580.269C398.633 580.24 397.135 580.092 394 578.002C393.703 575.428 393.604 573.093 393.632 570.517C393.629 569.736 393.626 568.955 393.623 568.15C393.615 565.519 393.63 562.888 393.644 560.257C393.643 558.377 393.641 556.496 393.637 554.616C393.632 549.498 393.646 544.381 393.663 539.263C393.678 533.919 393.677 528.574 393.678 523.229C393.681 514.253 393.696 505.277 393.719 496.302C393.748 484.764 393.758 473.227 393.762 461.69C393.766 451.791 393.779 441.893 393.793 431.994C393.797 428.802 393.8 425.61 393.803 422.419C393.807 417.413 393.818 412.407 393.832 407.401C393.837 405.558 393.839 403.715 393.84 401.873C393.842 399.368 393.85 396.864 393.86 394.359C393.858 393.251 393.858 393.251 393.857 392.12C393.892 386.096 394.273 385.879 400.196 385.861ZM445 485.002C443.581 488.352 443.581 488.352 444 492.002C446.727 495.676 448.237 496.874 452.795 497.636C454.293 497.666 455.792 497.668 457.291 497.649C458.113 497.657 458.935 497.666 459.781 497.675C462.49 497.697 465.197 497.683 467.906 497.666C469.793 497.669 471.679 497.674 473.566 497.68C477.517 497.687 481.467 497.677 485.418 497.653C490.48 497.625 495.539 497.641 500.601 497.671C504.495 497.689 508.39 497.684 512.285 497.671C514.151 497.667 516.017 497.671 517.883 497.683C520.492 497.696 523.1 497.676 525.709 497.649C526.478 497.659 527.247 497.669 528.039 497.679C532.02 497.601 533.837 497.128 537.018 494.656C539.312 492.136 539.312 492.136 539 488.877C537.724 485.208 536.431 483.717 533 482.002C530.438 481.893 527.903 481.844 525.341 481.84C524.155 481.833 524.155 481.833 522.946 481.825C520.323 481.811 517.701 481.804 515.078 481.798C513.257 481.793 511.436 481.787 509.614 481.781C505.791 481.771 501.968 481.765 498.145 481.761C493.251 481.756 488.357 481.732 483.464 481.703C479.699 481.685 475.935 481.68 472.17 481.678C470.367 481.675 468.563 481.667 466.759 481.654C464.232 481.637 461.705 481.639 459.177 481.645C458.064 481.631 458.064 481.631 456.928 481.617C452.233 481.655 448.937 482.408 445 485.002Z" fill="#595858" fill-opacity="0.47"/>
</g>
<g clip-path="url(#clip1_23_481)">
<path d="M0 0C63.36 0 126.72 0 192 0C192.083 20.5837 192.165 41.1675 192.25 62.375C192.286 68.8414 192.323 75.3078 192.36 81.9702C192.378 89.9504 192.378 89.9504 192.382 93.7025C192.389 96.9609 192.412 100.219 192.439 103.477C192.605 127.608 190.775 149.174 174 168C173.43 168.663 172.86 169.325 172.273 170.008C160.562 182.716 142.614 191.343 125.263 192.123C124.324 192.122 123.386 192.121 122.419 192.12C121.336 192.122 120.253 192.123 119.137 192.124C117.96 192.121 116.782 192.117 115.569 192.114C114.299 192.114 113.03 192.114 111.722 192.114C108.3 192.114 104.877 192.108 101.455 192.101C98.239 192.096 95.0232 192.095 91.8074 192.095C82.4132 192.089 73.0191 192.075 63.625 192.062C42.6287 192.042 21.6325 192.021 0 192C0 128.64 0 65.28 0 0ZM68.25 49.0625C65.5813 51.3605 64.6322 52.523 64 56C65.8226 60.8242 68.1268 65.129 70.7812 69.5586C71.1472 70.1723 71.5132 70.786 71.8903 71.4183C73.0895 73.4271 74.2947 75.4323 75.5 77.4375C76.3453 78.8505 77.1902 80.2637 78.0347 81.6772C79.3496 83.8779 80.6649 86.0783 81.9819 88.2776C85.0598 93.4185 88.1177 98.5709 91.1641 103.73C92.0045 105.152 92.845 106.574 93.6855 107.996C94.8864 110.028 96.0866 112.06 97.2844 114.093C101.387 121.055 105.549 127.975 109.867 134.805C110.237 135.398 110.607 135.992 110.988 136.604C112.823 139.474 114.116 141.077 117 143C120.616 143.462 122.336 143.454 125.375 141.375C127.501 138.268 127.361 136.729 127 133C125.953 130.631 124.887 128.578 123.562 126.375C123.17 125.7 122.777 125.024 122.373 124.328C120.934 121.874 119.47 119.436 118 117C117.41 116.022 116.82 115.044 116.211 114.036C113.467 109.499 110.717 104.967 107.952 100.442C103.874 93.7623 99.8345 87.0616 95.8516 80.3242C95.4245 79.6022 94.9975 78.8802 94.5575 78.1363C92.4778 74.6177 90.4027 71.0965 88.3325 67.5723C82.6583 56.5386 82.6583 56.5386 74 48.375C70.9825 47.7575 70.9825 47.7575 68.25 49.0625Z" fill="#595858" fill-opacity="0.47"/>
</g>
<g clip-path="url(#clip2_23_481)">
<path d="M271.279 191.887C272.62 191.888 273.961 191.887 275.302 191.887C278.925 191.887 282.549 191.892 286.172 191.899C289.965 191.906 293.758 191.906 297.551 191.907C304.726 191.911 311.901 191.919 319.076 191.929C327.248 191.94 335.42 191.945 343.591 191.95C360.394 191.961 377.197 191.978 394 192.001C394.07 217 394.123 241.999 394.155 266.998C394.171 278.605 394.192 290.212 394.226 301.819C394.256 311.932 394.276 322.045 394.282 332.158C394.286 337.516 394.295 342.874 394.317 348.232C394.337 353.27 394.344 358.307 394.339 363.346C394.34 365.199 394.346 367.053 394.358 368.906C394.372 371.428 394.369 373.949 394.361 376.471C394.369 377.212 394.378 377.954 394.387 378.717C394.369 380.756 394.369 380.756 394 384.001C390.374 386.418 387.742 386.278 383.553 386.248C382.406 386.252 382.406 386.252 381.236 386.255C378.666 386.261 376.095 386.252 373.525 386.244C371.686 386.245 369.846 386.247 368.007 386.249C363.005 386.254 358.003 386.247 353.001 386.237C347.774 386.228 342.547 386.229 337.321 386.23C328.543 386.229 319.766 386.22 310.988 386.207C300.829 386.191 290.67 386.186 280.51 386.186C270.751 386.187 260.991 386.182 251.231 386.174C247.071 386.17 242.911 386.168 238.751 386.168C233.857 386.167 228.963 386.161 224.068 386.15C222.268 386.148 220.468 386.146 218.667 386.147C216.218 386.147 213.769 386.142 211.32 386.135C210.24 386.137 210.24 386.137 209.139 386.139C204.228 386.115 204.228 386.115 202 385.001C201.93 367.215 201.877 349.429 201.845 331.644C201.829 323.384 201.808 315.125 201.774 306.866C201.744 299.663 201.724 292.46 201.718 285.256C201.714 281.446 201.705 277.637 201.683 273.827C201.662 270.231 201.656 266.637 201.661 263.041C201.659 261.111 201.643 259.181 201.627 257.252C201.695 237.743 209.504 223.866 222.625 209.938C236.94 195.949 251.995 191.832 271.279 191.887ZM299 244.001C297.857 246.287 297.879 247.544 297.886 250.083C297.887 250.924 297.887 251.765 297.887 252.631C297.892 253.539 297.897 254.448 297.902 255.384C297.904 256.778 297.904 256.778 297.907 258.2C297.912 261.175 297.925 264.151 297.937 267.126C297.942 269.14 297.947 271.154 297.951 273.169C297.962 278.113 297.979 283.057 298 288.001C296.784 287.985 295.568 287.969 294.316 287.953C289.796 287.899 285.277 287.864 280.758 287.836C278.803 287.821 276.849 287.8 274.894 287.774C272.082 287.738 269.27 287.721 266.457 287.708C265.586 287.692 264.715 287.677 263.818 287.661C259.056 287.66 255.835 287.853 252 291.001C249.697 293.817 249.697 293.817 250.125 297.001C250.759 299.962 250.759 299.962 252.456 301.656C256.381 303.731 260.201 303.481 264.578 303.513C265.968 303.539 265.968 303.539 267.386 303.567C270.341 303.621 273.295 303.655 276.25 303.688C278.255 303.721 280.26 303.756 282.266 303.792C287.177 303.877 292.088 303.944 297 304.001C297.015 305.217 297.029 306.432 297.044 307.685C297.102 312.205 297.179 316.724 297.262 321.243C297.296 323.198 297.324 325.152 297.346 327.107C297.38 329.919 297.432 332.731 297.488 335.544C297.495 336.415 297.501 337.286 297.508 338.183C297.622 342.912 297.907 346.173 301 350.001C303.875 351.438 305.819 351.383 309 351.001C312.185 348.148 313.252 345.846 313.53 341.685C313.564 339.983 313.578 338.281 313.574 336.579C313.588 335.678 313.603 334.778 313.617 333.85C313.659 330.983 313.674 328.118 313.687 325.251C313.716 322.37 313.751 319.49 313.79 316.609C313.813 314.818 313.828 313.028 313.837 311.237C313.89 305.11 313.89 305.11 315 304.001C318.054 303.902 321.09 303.864 324.145 303.86C326.037 303.842 327.93 303.822 329.822 303.802C332.818 303.773 335.813 303.751 338.809 303.75C341.692 303.747 344.574 303.712 347.457 303.673C348.352 303.68 349.247 303.687 350.169 303.694C355.379 303.611 355.379 303.611 359.592 300.685C361.272 297.971 361.272 297.971 361.062 294.376C360.32 290.971 360.32 290.971 358.025 289.322C353.829 287.49 350.076 287.522 345.543 287.489C344.188 287.462 344.188 287.462 342.807 287.435C339.934 287.381 337.061 287.347 334.187 287.313C332.235 287.28 330.282 287.246 328.33 287.21C323.553 287.125 318.777 287.058 314 287.001C313.991 285.749 313.981 284.498 313.972 283.209C313.932 278.564 313.866 273.92 313.792 269.276C313.764 267.267 313.743 265.257 313.729 263.247C313.708 260.357 313.661 257.468 313.609 254.579C313.608 253.681 313.607 252.783 313.606 251.858C313.521 246.801 313.521 246.801 311.114 242.465C305.969 238.902 303.392 239.731 299 244.001Z" fill="#595858" fill-opacity="0.47"/>
</g>
<g clip-path="url(#clip3_23_481)">
<path d="M586.863 193.415C523.177 192.727 459.49 192.038 393.874 191.329C392.734 187.779 392.808 184.594 392.86 180.915C392.866 180.155 392.873 179.395 392.88 178.612C392.903 176.058 392.934 173.504 392.965 170.95C392.983 169.122 393.001 167.294 393.019 165.466C393.068 160.496 393.124 155.525 393.181 150.554C393.239 145.359 393.293 140.164 393.348 134.968C393.44 126.243 393.537 117.517 393.636 108.792C393.751 98.6956 393.858 88.5993 393.962 78.503C394.051 69.8435 394.144 61.1841 394.24 52.5247C394.298 47.3489 394.354 42.1731 394.407 36.9972C394.456 32.1318 394.511 27.2665 394.569 22.4013C394.59 20.6127 394.609 18.8241 394.626 17.0355C394.65 14.5999 394.68 12.1644 394.711 9.7288C394.716 9.01588 394.722 8.30297 394.728 7.56845C394.772 4.53781 394.952 2.23029 395.95 -0.660264C413.605 -0.539596 431.26 -0.401501 448.915 -0.242954C457.113 -0.169731 465.312 -0.102091 473.51 -0.047861C480.661 -0.000549768 487.811 0.0574936 494.961 0.128151C498.743 0.165155 502.525 0.196991 506.307 0.215929C509.876 0.23397 513.444 0.266496 517.013 0.309561C518.928 0.329074 520.844 0.333748 522.76 0.337773C541.581 0.607701 556.795 7.82222 569.85 21.1472C583.734 35.9918 588.745 51.0945 588.413 71.0447C588.398 72.4075 588.383 73.7704 588.37 75.1332C588.331 78.7541 588.28 82.3747 588.227 85.9954C588.179 89.4038 588.141 92.8123 588.103 96.2208C587.985 106.163 587.85 116.104 587.716 126.046C587.435 148.278 587.153 170.51 586.863 193.415ZM519.147 143.68C522.094 141.117 522.918 139.604 523.483 135.727C521.09 130.79 518.15 126.713 514.562 122.567C510.492 117.759 506.551 112.877 502.72 107.876C502.262 107.279 501.804 106.682 501.331 106.067C495.847 98.8838 495.847 98.8838 496.083 96.0102C497.053 93.0951 498.229 91.4813 500.235 89.1602C500.957 88.3094 501.679 87.4586 502.423 86.5821C502.833 86.1054 503.244 85.6286 503.666 85.1375C506.417 81.9222 509.115 78.662 511.822 75.4096C512.652 74.4212 512.652 74.4212 513.499 73.4128C520.952 65.4622 520.952 65.4622 524.348 55.7314C522.637 52.0001 522.637 52.0001 519.413 49.6777C516.469 49.097 514.407 48.9481 511.84 50.6662C502.033 59.8471 494.154 71.6481 486.058 82.319C482.703 81.7182 481.325 80.826 479.255 78.1397C478.745 77.4865 478.234 76.8334 477.708 76.1604C477.172 75.4551 476.637 74.7498 476.085 74.0231C475.526 73.3047 474.968 72.5862 474.392 71.846C471.602 68.2486 468.851 64.6214 466.096 60.9964C465.608 60.3552 465.119 59.7139 464.616 59.0533C463.693 57.8391 462.775 56.6211 461.863 55.3988C459.845 52.7268 458.214 50.8942 455.417 48.9857C451.807 48.4851 450.086 48.4739 447.025 50.52C444.865 53.6052 444.929 55.1486 445.309 58.877C446.989 61.8844 446.989 61.8844 449.433 64.7969C449.867 65.349 450.301 65.9011 450.748 66.4699C452.207 68.3198 453.687 70.1519 455.168 71.9843C456.851 74.0944 458.53 76.2074 460.209 78.3209C461.302 79.6938 462.399 81.0637 463.5 82.43C465.014 84.3156 466.505 86.2187 467.994 88.124C468.505 88.7422 469.016 89.3603 469.542 89.9973C470.966 91.8204 470.966 91.8204 472.918 95.1776C472.249 100.041 467.911 103.955 464.784 107.59C463.593 109 462.403 110.41 461.214 111.822C460.622 112.524 460.029 113.226 459.419 113.949C456.891 116.973 454.429 120.045 451.99 123.14C450.81 124.634 450.81 124.634 449.606 126.158C445.585 131.292 445.585 131.292 444.459 137.497C445.137 140.958 445.137 140.958 447.588 142.969C451.297 144.25 452.827 143.497 456.411 142.002C458.712 140.126 458.712 140.126 460.708 137.736C461.482 136.853 462.256 135.971 463.053 135.062C468.051 129.058 472.899 122.938 477.546 116.659C478.074 115.945 478.603 115.231 479.147 114.496C479.586 113.887 480.024 113.278 480.476 112.651C481.745 111.274 481.745 111.274 484.756 110.307C491.392 118.205 497.84 126.213 504.086 134.423C504.87 135.453 505.654 136.482 506.462 137.543C507.156 138.479 507.85 139.414 508.565 140.378C511.614 144.03 514.598 145.279 519.147 143.68Z" fill="#595858" fill-opacity="0.47"/>
</g>
<defs>
<clipPath id="clip0_23_481">
<rect width="194" height="194" fill="white" transform="translate(394 386)"/>
</clipPath>
<clipPath id="clip1_23_481">
<rect width="192" height="192" fill="white"/>
</clipPath>
<clipPath id="clip2_23_481">
<rect width="192" height="194" fill="white" transform="translate(202 192)"/>
</clipPath>
<clipPath id="clip3_23_481">
<rect width="194" height="192" fill="white" transform="translate(394)"/>
</clipPath>
</defs>
</svg>
