<svg width="290" height="31" viewBox="0 0 290 31" fill="none" xmlns="http://www.w3.org/2000/svg">
<path d="M27.0163 11.0938H20.7947C20.6811 10.2888 20.4491 9.57386 20.0987 8.94886C19.7483 8.31439 19.2985 7.77462 18.7493 7.32955C18.2 6.88447 17.5656 6.54356 16.8459 6.30682C16.1357 6.07008 15.3639 5.9517 14.5305 5.9517C13.0249 5.9517 11.7133 6.32576 10.5959 7.07386C9.47846 7.8125 8.61198 8.89205 7.99645 10.3125C7.38092 11.7235 7.07315 13.4375 7.07315 15.4545C7.07315 17.5284 7.38092 19.2708 7.99645 20.6818C8.62145 22.0928 9.49266 23.1581 10.6101 23.8778C11.7275 24.5975 13.0201 24.9574 14.4879 24.9574C15.3118 24.9574 16.0741 24.8485 16.7749 24.6307C17.4851 24.4129 18.1148 24.0956 18.6641 23.679C19.2133 23.2528 19.6679 22.7367 20.0277 22.1307C20.397 21.5246 20.6527 20.8333 20.7947 20.0568L27.0163 20.0852C26.8554 21.4205 26.4529 22.7083 25.8089 23.9489C25.1745 25.1799 24.3175 26.2831 23.2379 27.2585C22.1679 28.2244 20.8894 28.9915 19.4027 29.5597C17.9254 30.1184 16.254 30.3977 14.3885 30.3977C11.7938 30.3977 9.47372 29.8106 7.42827 28.6364C5.39228 27.4621 3.78243 25.7623 2.59872 23.5369C1.42448 21.3116 0.837358 18.6174 0.837358 15.4545C0.837358 12.2822 1.43395 9.58333 2.62713 7.35795C3.82031 5.13258 5.43963 3.4375 7.48509 2.27273C9.53054 1.09848 11.8317 0.511363 14.3885 0.511363C16.0741 0.511363 17.6366 0.748105 19.076 1.22159C20.5249 1.69508 21.808 2.38636 22.9254 3.29545C24.0429 4.19507 24.9519 5.29829 25.6527 6.60511C26.3629 7.91193 26.8175 9.40814 27.0163 11.0938ZM31.4268 30V0.90909H51.0291V5.98011H37.5774V12.9119H50.0206V17.983H37.5774V24.929H51.0859V30H31.4268ZM80.2514 0.90909V30H74.9389L62.2827 11.6903H62.0696V30H55.919V0.90909H61.3168L73.8736 19.2045H74.1293V0.90909H80.2514ZM90.3473 30H83.7564L93.799 0.90909H101.725L111.754 30H105.163L97.8757 7.55682H97.6484L90.3473 30ZM89.9354 18.5653H105.504V23.3665H89.9354V18.5653ZM135.749 30.6392C133.305 30.6297 131.203 30.0284 129.442 28.8352C127.69 27.642 126.34 25.9138 125.393 23.6506C124.456 21.3873 123.992 18.6648 124.001 15.483C124.001 12.3106 124.47 9.60701 125.408 7.37216C126.355 5.13731 127.704 3.4375 129.456 2.27273C131.217 1.09848 133.315 0.511363 135.749 0.511363C138.182 0.511363 140.275 1.09848 142.027 2.27273C143.788 3.44697 145.143 5.15151 146.089 7.38636C147.036 9.61174 147.505 12.3106 147.496 15.483C147.496 18.6742 147.022 21.4015 146.075 23.6648C145.138 25.928 143.793 27.6562 142.041 28.8494C140.289 30.0426 138.192 30.6392 135.749 30.6392ZM135.749 25.5398C137.415 25.5398 138.746 24.7017 139.74 23.0256C140.734 21.3494 141.227 18.8352 141.217 15.483C141.217 13.2765 140.99 11.4394 140.536 9.97159C140.09 8.50379 139.456 7.40057 138.632 6.66193C137.818 5.9233 136.857 5.55398 135.749 5.55398C134.091 5.55398 132.766 6.38258 131.771 8.03977C130.777 9.69697 130.275 12.178 130.266 15.483C130.266 17.7178 130.488 19.5833 130.933 21.0795C131.388 22.5663 132.027 23.6837 132.851 24.4318C133.675 25.1705 134.641 25.5398 135.749 25.5398ZM154.303 30.3693C153.366 30.3693 152.561 30.0379 151.888 29.375C151.226 28.7027 150.894 27.8977 150.894 26.9602C150.894 26.0322 151.226 25.2367 151.888 24.5739C152.561 23.911 153.366 23.5795 154.303 23.5795C155.212 23.5795 156.008 23.911 156.69 24.5739C157.371 25.2367 157.712 26.0322 157.712 26.9602C157.712 27.5852 157.551 28.1581 157.229 28.679C156.917 29.1903 156.505 29.6023 155.994 29.9148C155.482 30.2178 154.919 30.3693 154.303 30.3693ZM172.858 30.6392C170.415 30.6297 168.313 30.0284 166.551 28.8352C164.799 27.642 163.45 25.9138 162.503 23.6506C161.565 21.3873 161.101 18.6648 161.111 15.483C161.111 12.3106 161.58 9.60701 162.517 7.37216C163.464 5.13731 164.813 3.4375 166.565 2.27273C168.327 1.09848 170.424 0.511363 172.858 0.511363C175.292 0.511363 177.384 1.09848 179.136 2.27273C180.898 3.44697 182.252 5.15151 183.199 7.38636C184.146 9.61174 184.615 12.3106 184.605 15.483C184.605 18.6742 184.132 21.4015 183.185 23.6648C182.247 25.928 180.902 27.6562 179.151 28.8494C177.399 30.0426 175.301 30.6392 172.858 30.6392ZM172.858 25.5398C174.525 25.5398 175.855 24.7017 176.849 23.0256C177.844 21.3494 178.336 18.8352 178.327 15.483C178.327 13.2765 178.099 11.4394 177.645 9.97159C177.2 8.50379 176.565 7.40057 175.741 6.66193C174.927 5.9233 173.966 5.55398 172.858 5.55398C171.201 5.55398 169.875 6.38258 168.881 8.03977C167.886 9.69697 167.384 12.178 167.375 15.483C167.375 17.7178 167.598 19.5833 168.043 21.0795C168.497 22.5663 169.136 23.6837 169.96 24.4318C170.784 25.1705 171.75 25.5398 172.858 25.5398ZM200.397 30.6392C197.954 30.6297 195.852 30.0284 194.09 28.8352C192.338 27.642 190.989 25.9138 190.042 23.6506C189.104 21.3873 188.64 18.6648 188.65 15.483C188.65 12.3106 189.119 9.60701 190.056 7.37216C191.003 5.13731 192.353 3.4375 194.104 2.27273C195.866 1.09848 197.963 0.511363 200.397 0.511363C202.831 0.511363 204.924 1.09848 206.675 2.27273C208.437 3.44697 209.791 5.15151 210.738 7.38636C211.685 9.61174 212.154 12.3106 212.144 15.483C212.144 18.6742 211.671 21.4015 210.724 23.6648C209.786 25.928 208.442 27.6562 206.69 28.8494C204.938 30.0426 202.84 30.6392 200.397 30.6392ZM200.397 25.5398C202.064 25.5398 203.394 24.7017 204.388 23.0256C205.383 21.3494 205.875 18.8352 205.866 15.483C205.866 13.2765 205.638 11.4394 205.184 9.97159C204.739 8.50379 204.104 7.40057 203.281 6.66193C202.466 5.9233 201.505 5.55398 200.397 5.55398C198.74 5.55398 197.414 6.38258 196.42 8.03977C195.425 9.69697 194.924 12.178 194.914 15.483C194.914 17.7178 195.137 19.5833 195.582 21.0795C196.036 22.5663 196.675 23.6837 197.499 24.4318C198.323 25.1705 199.289 25.5398 200.397 25.5398ZM216.7 30V0.90909H228.178C230.384 0.90909 232.264 1.33049 233.817 2.1733C235.37 3.00663 236.554 4.16667 237.368 5.65341C238.192 7.13068 238.604 8.83523 238.604 10.767C238.604 12.6989 238.187 14.4034 237.354 15.8807C236.52 17.358 235.313 18.5085 233.732 19.3324C232.16 20.1562 230.256 20.5682 228.021 20.5682H220.706V15.6392H227.027C228.211 15.6392 229.186 15.4356 229.953 15.0284C230.73 14.6117 231.307 14.0388 231.686 13.3097C232.074 12.571 232.268 11.7235 232.268 10.767C232.268 9.80114 232.074 8.95833 231.686 8.23864C231.307 7.50947 230.73 6.94602 229.953 6.5483C229.177 6.1411 228.192 5.9375 226.999 5.9375H222.851V30H216.7ZM242.599 30V0.90909H248.749V24.929H261.221V30H242.599ZM289.626 0.90909V30H284.314L271.658 11.6903H271.445V30H265.294V0.90909H270.692L283.249 19.2045H283.504V0.90909H289.626Z" fill="black"/>
</svg>
