<svg width="168" height="154" viewBox="0 0 168 154" fill="none" xmlns="http://www.w3.org/2000/svg">
<path d="M100.095 1.55062C101.127 1.80957 102.16 2.06852 103.224 2.33531C110.33 4.11802 117.412 5.99538 124.487 7.89814C128.061 8.85873 131.638 9.80469 135.225 10.7183C138.72 11.609 142.204 12.5355 145.682 13.4875C147.001 13.8419 148.324 14.1836 149.65 14.5118C159.956 17.0775 159.956 17.0775 162.747 20.6885C163.775 22.9684 164.464 25.1348 165.095 27.5506C165.691 28.9706 166.295 30.3874 166.907 31.8006C168.07 35.4717 168.41 37.0088 167.095 40.5506C166.435 41.5406 165.775 42.5306 165.095 43.5506C164.105 43.5506 163.115 43.5506 162.095 43.5506C161.851 44.2764 161.607 45.0021 161.356 45.7498C159.939 48.895 158.263 50.8527 155.907 53.3631C155.096 54.2384 154.285 55.1137 153.45 56.0155C152.673 56.8521 151.895 57.6887 151.095 58.5506C149.964 59.8371 148.838 61.1283 147.72 62.4256C145.229 65.2915 142.677 68.0916 140.094 70.8748C135.597 75.7279 131.325 80.6611 127.239 85.8709C124.675 89.0746 122.021 92.1906 119.345 95.3006C118.836 95.8912 118.328 96.4819 117.805 97.0904C116.236 98.9114 114.665 100.731 113.095 102.551C104.777 112.186 104.777 112.186 96.6571 121.988C91.9755 127.749 87.1358 133.363 82.2352 138.937C80.293 141.15 78.4064 143.387 76.5789 145.695C75.8416 146.596 75.1043 147.497 74.3446 148.426C73.731 149.207 73.1174 149.988 72.4852 150.793C68.9108 153.421 65.4805 153.664 61.0946 153.551C57.6734 152.696 54.5782 151.321 51.3797 149.851C50.4839 149.46 49.5882 149.068 48.6652 148.665C45.8202 147.417 42.9888 146.141 40.1571 144.863C38.2601 144.023 36.3624 143.185 34.4637 142.349C31.7727 141.164 29.0831 139.977 26.4003 138.774C21.3847 136.527 16.3405 134.439 11.1987 132.497C8.21114 131.153 6.50396 129.386 4.53207 126.801C3.89141 126.001 3.25075 125.202 2.59067 124.379C0.693568 120.793 -0.327921 117.59 0.0945748 113.551C1.40339 110.671 3.25929 108.404 5.28207 105.988C6.09878 104.959 6.09878 104.959 6.93198 103.909C8.63326 101.773 10.3627 99.6619 12.0946 97.5506C13.1374 96.2479 14.1779 94.9433 15.2157 93.6366C17.208 91.1305 19.2097 88.6325 21.2196 86.1405C25.6069 80.6842 29.8447 75.114 34.0946 69.5506C35.6769 67.4873 37.2602 65.4248 38.8446 63.3631C39.2433 62.8439 39.642 62.3248 40.0528 61.7899C42.5763 58.5089 45.1143 55.2395 47.661 51.9764C48.2807 51.1819 48.9004 50.3875 49.5389 49.5689C50.7531 48.0134 51.9685 46.4588 53.1854 44.9054C55.847 41.4955 58.4394 38.0785 60.8875 34.5116C61.6159 33.5344 62.3442 32.5573 63.0946 31.5506C63.7546 31.5506 64.4146 31.5506 65.0946 31.5506C65.3086 30.8739 65.5225 30.1971 65.743 29.4998C67.5235 25.6147 70.0086 22.6422 72.7196 19.3631C73.8058 18.0326 74.8917 16.7019 75.9774 15.3709C76.7745 14.3988 76.7745 14.3988 77.5877 13.4071C80.2507 10.1263 82.811 6.76392 85.3758 3.40608C89.9906 -1.57579 94.0791 -0.0717252 100.095 1.55062Z" fill="#2B2C2C"/>
<path d="M100.095 1.55063C101.129 1.80826 102.163 2.06589 103.229 2.33133C110.332 4.12395 117.413 5.99571 124.487 7.89816C128.061 8.85875 131.638 9.8047 135.225 10.7184C138.72 11.609 142.204 12.5355 145.682 13.4875C147.001 13.8419 148.324 14.1836 149.65 14.5119C159.956 17.0776 159.956 17.0776 162.747 20.6885C163.775 22.9685 164.464 25.1348 165.095 27.5506C165.691 28.9706 166.295 30.3874 166.907 31.8006C168.07 35.4717 168.41 37.0088 167.095 40.5506C166.435 41.5406 165.775 42.5306 165.095 43.5506C164.105 43.5506 163.115 43.5506 162.095 43.5506C161.851 44.2764 161.607 45.0021 161.356 45.7498C159.939 48.895 158.263 50.8527 155.907 53.3631C155.096 54.2384 154.285 55.1137 153.45 56.0155C152.673 56.8521 151.895 57.6887 151.095 58.5506C149.964 59.8371 148.838 61.1284 147.72 62.4256C145.229 65.2915 142.677 68.0916 140.094 70.8748C135.597 75.7279 131.325 80.6612 127.239 85.8709C124.675 89.0746 122.021 92.1906 119.345 95.3006C118.836 95.8913 118.328 96.4819 117.805 97.0904C116.236 98.9114 114.665 100.731 113.095 102.551C104.777 112.186 104.777 112.186 96.6571 121.988C91.9755 127.749 87.1358 133.363 82.2352 138.937C80.293 141.15 78.4064 143.387 76.5789 145.695C75.8416 146.596 75.1043 147.497 74.3446 148.426C73.731 149.207 73.1174 149.988 72.4852 150.793C68.9108 153.421 65.4805 153.664 61.0946 153.551C57.6734 152.696 54.5782 151.321 51.3797 149.851C50.4839 149.46 49.5882 149.068 48.6652 148.665C45.8202 147.417 42.9888 146.141 40.1571 144.863C38.2601 144.023 36.3624 143.185 34.4637 142.349C31.7727 141.164 29.0831 139.977 26.4003 138.774C21.3846 136.527 16.3429 134.448 11.1922 132.529C8.23594 131.15 6.71165 129.344 5.09457 126.551C5.09457 125.891 5.09457 125.231 5.09457 124.551C11.9458 126.452 18.4056 128.809 24.9071 131.676C25.8007 132.061 26.6944 132.446 27.6151 132.843C32.3734 134.898 37.1021 137.006 41.8094 139.176C42.7371 139.594 43.6649 140.013 44.6207 140.445C46.3893 141.244 48.1505 142.06 49.9024 142.895C55.8314 145.551 59.702 145.77 66.0946 144.551C65.7646 143.561 65.4346 142.571 65.0946 141.551C66.2931 139.839 66.2931 139.839 68.1141 137.953C72.1165 133.606 75.4458 128.982 78.7821 124.113C80.0136 122.336 81.2453 120.558 82.4774 118.781C83.0861 117.9 83.6949 117.019 84.3221 116.111C86.9134 112.368 89.5314 108.644 92.1571 104.926C92.6406 104.24 93.1242 103.554 93.6224 102.848C97.2618 97.6997 100.954 92.5911 104.657 87.4881C109.291 81.102 113.812 74.6504 118.258 68.1324C122.092 62.5213 126.054 57.0152 130.095 51.5506C128.033 50.9017 125.97 50.2566 123.907 49.6131C122.184 49.0737 122.184 49.0737 120.427 48.5233C117.65 47.7126 114.928 47.1073 112.095 46.5506C110.746 45.9159 109.41 45.2521 108.095 44.5506C106.61 44.0556 106.61 44.0556 105.095 43.5506C103.981 43.035 102.867 42.5194 101.72 41.9881C98.3443 40.6497 96.6109 40.3606 93.0946 40.5506C90.8598 40.1443 89.1778 39.5936 87.1571 38.5506C85.0602 37.4217 85.0602 37.4217 82.4071 37.0506C81.6439 36.8856 80.8808 36.7206 80.0946 36.5506C79.7646 35.8906 79.4346 35.2306 79.0946 34.5506C77.1364 33.9738 75.1513 33.4869 73.1571 33.0506C67.3129 31.7689 67.3129 31.7689 65.0946 29.5506C67.4431 26.4838 69.796 23.4204 72.1571 20.3631C74.1285 17.8103 76.0844 15.2466 78.0321 12.6756C78.9901 11.4254 79.9484 10.1754 80.9071 8.92563C81.3503 8.33443 81.7935 7.74324 82.2501 7.13413C88.0743 -0.406364 91.2105 -0.692011 100.095 1.55063Z" fill="#303030"/>
<path d="M40.0946 70.5506C47.124 72.5847 54.0275 74.8736 60.9149 77.3436C61.8996 77.6945 62.8842 78.0454 63.8987 78.4069C67.0065 79.515 70.1131 80.6265 73.2196 81.7381C75.3419 82.4955 77.4643 83.2527 79.5868 84.0096C84.757 85.854 89.9262 87.7012 95.0946 89.5506C90.9369 90.866 88.2066 89.8949 84.0946 88.5506C82.6339 91.198 82.0946 92.4451 82.0946 95.5506C84.4046 95.8806 86.7146 96.2106 89.0946 96.5506C89.0946 100.322 87.9613 101.519 85.7821 104.551C85.1672 105.417 84.5523 106.283 83.9188 107.176C82.4044 109.147 80.86 110.816 79.0946 112.551C78.6408 113.314 78.1871 114.077 77.7196 114.863C75.8 118.038 73.4677 120.703 71.0946 123.551C70.5377 124.499 69.9808 125.448 69.4071 126.426C68.9739 127.127 68.5408 127.828 68.0946 128.551C67.4346 128.551 66.7746 128.551 66.0946 128.551C65.9502 129.169 65.8058 129.788 65.6571 130.426C65.0946 132.551 65.0946 132.551 64.0946 134.551C57.4821 132.728 51.2894 130.498 45.0946 127.551C46.0846 125.571 47.0746 123.591 48.0946 121.551C46.1146 124.026 46.1146 124.026 44.0946 126.551C40.6571 125.738 40.6571 125.738 37.0946 124.551C36.7646 123.561 36.4346 122.571 36.0946 121.551C35.2645 121.854 35.2645 121.854 34.4176 122.163C31.3776 122.67 29.7634 121.922 26.9266 120.75C25.9514 120.35 24.9763 119.949 23.9715 119.537C22.4546 118.894 22.4546 118.894 20.9071 118.238C19.8842 117.821 18.8613 117.404 17.8075 116.974C10.2302 113.822 10.2302 113.822 9.09457 111.551C15.448 103.026 21.8817 94.5646 28.3329 86.1143C32.278 80.9446 36.2011 75.7595 40.0946 70.5506Z" fill="#4B4F5C"/>
<path d="M42.0946 82.5506C43.4083 83.0264 44.7205 83.5064 46.0321 83.9881C46.763 84.2549 47.4939 84.5218 48.2469 84.7967C50.0946 85.5506 50.0946 85.5506 51.0946 86.5506C52.4558 86.7672 52.4558 86.7672 53.8446 86.9881C56.8985 87.5167 59.2581 88.3451 62.0946 89.5506C64.0908 90.2286 66.09 90.8979 68.0946 91.5506C67.7646 92.2931 67.4346 93.0356 67.0946 93.8006C65.8667 96.6894 65.8667 96.6894 66.0946 100.551C68.4046 101.211 70.7146 101.871 73.0946 102.551C73.5483 101.891 74.0021 101.231 74.4696 100.551C75.0058 99.8906 75.5421 99.2306 76.0946 98.5506C76.7546 98.5506 77.4146 98.5506 78.0946 98.5506C78.0946 97.8906 78.0946 97.2306 78.0946 96.5506C82.0546 96.5506 86.0146 96.5506 90.0946 96.5506C86.7026 103.335 82.2447 112.136 75.0946 115.488C72.4012 115.572 70.5059 114.689 68.0946 113.551C68.0946 112.561 68.0946 111.571 68.0946 110.551C67.3727 110.757 66.6508 110.963 65.9071 111.176C62.6482 111.61 61.0115 110.967 58.0946 109.551C58.0946 108.891 58.0946 108.231 58.0946 107.551C56.7746 107.881 55.4546 108.211 54.0946 108.551C54.7546 109.211 55.4146 109.871 56.0946 110.551C54.4446 112.861 52.7946 115.171 51.0946 117.551C44.3446 115.801 44.3446 115.801 42.0946 113.551C41.1252 113.406 40.1558 113.262 39.1571 113.113C36.0946 112.551 36.0946 112.551 34.6571 111.051C32.218 108.709 29.3615 108.966 26.0946 108.551C25.4346 107.891 24.7746 107.231 24.0946 106.551C24.8528 105.376 25.6267 104.211 26.4071 103.051C26.8363 102.401 27.2656 101.751 27.7079 101.082C28.1655 100.577 28.6231 100.071 29.0946 99.5506C30.0846 99.5506 31.0746 99.5506 32.0946 99.5506C32.0946 98.5606 32.0946 97.5706 32.0946 96.5506C33.7635 93.3718 35.5819 91.0633 38.0946 88.5506C39.4547 86.5687 40.7925 84.5711 42.0946 82.5506Z" fill="#57565B"/>
<path d="M59.0946 51.5506C68.2224 54.1963 77.203 57.2489 86.1942 60.3221C91.828 62.2233 97.3528 64.0006 103.208 65.0738C105.359 65.6175 107.146 66.4996 109.095 67.5506C107.653 71.7021 105.594 74.8504 102.97 78.3631C102.245 79.3389 101.521 80.3147 100.774 81.3201C100.22 82.0562 99.6657 82.7922 99.0946 83.5506C93.4974 82.8662 88.4581 81.0781 83.1727 79.2068C81.7609 78.7131 81.7609 78.7131 80.3206 78.2094C78.3397 77.5157 76.3596 76.8196 74.3802 76.1214C71.3427 75.0499 68.3029 73.9852 65.2625 72.9217C63.3366 72.2463 61.4108 71.5705 59.4852 70.8943C58.5738 70.5745 57.6623 70.2547 56.7233 69.9252C55.8819 69.6282 55.0405 69.3312 54.1737 69.0252C53.4323 68.764 52.691 68.5027 51.9272 68.2336C50.0946 67.5506 50.0946 67.5506 48.0946 66.5506C49.6498 63.0574 51.7489 60.3219 54.1571 57.3631C54.8699 56.4827 55.5828 55.6022 56.3172 54.6951C57.2096 53.6184 58.1057 52.5395 59.0946 51.5506Z" fill="#3B3B3B"/>
<path d="M35.0946 91.5506C40.633 92.166 40.633 92.166 42.9696 94.1131C43.5264 94.8247 43.5264 94.8247 44.0946 95.5506C45.0846 95.2206 46.0746 94.8906 47.0946 94.5506C50.2821 95.9881 50.2821 95.9881 53.0946 97.5506C53.0946 98.2106 53.0946 98.8706 53.0946 99.5506C56.0646 99.8806 59.0346 100.211 62.0946 100.551C60.927 103.874 59.9451 106.384 57.0946 108.551C56.1046 108.551 55.1146 108.551 54.0946 108.551C54.7546 109.211 55.4146 109.871 56.0946 110.551C54.4446 112.861 52.7946 115.171 51.0946 117.551C44.3446 115.801 44.3446 115.801 42.0946 113.551C41.1252 113.406 40.1558 113.262 39.1571 113.113C36.0946 112.551 36.0946 112.551 34.6571 111.051C32.218 108.709 29.3615 108.966 26.0946 108.551C25.4346 107.891 24.7746 107.231 24.0946 106.551C24.8528 105.376 25.6267 104.211 26.4071 103.051C26.8363 102.401 27.2656 101.751 27.7079 101.082C28.3943 100.324 28.3943 100.324 29.0946 99.5506C30.0846 99.5506 31.0746 99.5506 32.0946 99.5506C32.0946 98.5606 32.0946 97.5706 32.0946 96.5506C33.0418 94.8534 34.0369 93.1813 35.0946 91.5506Z" fill="#94898D"/>
<path d="M59.0946 105.551C59.4246 106.871 59.7546 108.191 60.0946 109.551C64.7097 110.593 64.7097 110.593 69.0946 109.551C68.7646 110.871 68.4346 112.191 68.0946 113.551C69.3733 113.736 70.6521 113.922 71.9696 114.113C72.6889 114.218 73.4082 114.322 74.1493 114.43C76.176 114.719 76.176 114.719 78.0946 113.551C76.44 117.461 73.8016 120.315 71.0946 123.551C70.5377 124.499 69.9808 125.448 69.4071 126.426C68.9739 127.127 68.5408 127.828 68.0946 128.551C67.4346 128.551 66.7746 128.551 66.0946 128.551C65.9502 129.169 65.8058 129.788 65.6571 130.426C65.0946 132.551 65.0946 132.551 64.0946 134.551C57.4821 132.728 51.2894 130.498 45.0946 127.551C45.5896 126.808 46.0846 126.066 46.5946 125.301C48.4138 122.487 48.4138 122.487 48.0946 118.551C46.393 118.117 46.393 118.117 44.6571 117.676C43.4814 117.304 42.3058 116.933 41.0946 116.551C40.7646 115.891 40.4346 115.231 40.0946 114.551C38.1157 113.824 36.115 113.152 34.0946 112.551C37.2446 110.976 39.73 111.842 43.0946 112.551C44.7196 114.051 44.7196 114.051 46.0946 115.551C48.7007 116.273 48.7007 116.273 51.0946 116.551C52.4146 114.571 53.7346 112.591 55.0946 110.551C54.1046 109.561 53.1146 108.571 52.0946 107.551C52.8783 107.592 53.6621 107.633 54.4696 107.676C57.2557 107.838 57.2557 107.838 59.0946 105.551Z" fill="#4E5152"/>
<path d="M59.0946 51.5506C68.2224 54.1963 77.203 57.2489 86.1942 60.3221C91.828 62.2233 97.3528 64.0006 103.208 65.0738C105.359 65.6175 107.146 66.4996 109.095 67.5506C107.653 71.7021 105.594 74.8504 102.97 78.3631C102.245 79.3389 101.521 80.3147 100.774 81.3201C100.22 82.0562 99.6657 82.7922 99.0946 83.5506C94.9015 82.9596 91.178 81.9846 87.2196 80.4881C86.2528 80.1259 85.286 79.7636 84.2899 79.3904C83.5654 79.1133 82.841 78.8361 82.0946 78.5506C83.0846 78.2206 84.0746 77.8906 85.0946 77.5506C86.4355 76.8993 87.7705 76.2355 89.0946 75.5506C89.0946 74.5606 89.0946 73.5706 89.0946 72.5506C91.4046 73.2106 93.7146 73.8706 96.0946 74.5506C95.4346 75.5406 94.7746 76.5306 94.0946 77.5506C94.4246 77.8806 94.7546 78.2106 95.0946 78.5506C95.9336 77.4299 96.7657 76.3039 97.5946 75.1756C98.0586 74.5491 98.5227 73.9226 99.0008 73.2772C100.273 71.6097 100.273 71.6097 100.095 69.5506C86.2346 64.9306 72.3746 60.3106 58.0946 55.5506C58.4246 54.2306 58.7546 52.9106 59.0946 51.5506Z" fill="#4F4F4F"/>
<path d="M52.0946 76.5506C57.8446 77.3006 57.8446 77.3006 60.0946 79.5506C58.7746 80.8706 57.4546 82.1906 56.0946 83.5506C57.4146 84.2106 58.7346 84.8706 60.0946 85.5506C60.6102 84.87 61.1258 84.1894 61.6571 83.4881C64.0946 81.5506 64.0946 81.5506 67.8446 81.8006C68.9171 82.0481 69.9896 82.2956 71.0946 82.5506C70.4346 83.2106 69.7746 83.8706 69.0946 84.5506C66.9696 84.1756 66.9696 84.1756 65.0946 83.5506C64.7646 85.2006 64.4346 86.8506 64.0946 88.5506C67.8905 88.0083 69.5667 86.3493 72.0946 83.5506C73.0846 83.8806 74.0746 84.2106 75.0946 84.5506C74.1046 86.8606 73.1146 89.1706 72.0946 91.5506C72.8577 91.695 73.6208 91.8394 74.4071 91.9881C77.0946 92.5506 77.0946 92.5506 80.0946 93.5506C80.5896 92.0656 80.5896 92.0656 81.0946 90.5506C82.0946 92.5506 82.0946 92.5506 82.0946 95.5506C80.7746 95.8806 79.4546 96.2106 78.0946 96.5506C78.0946 97.2106 78.0946 97.8706 78.0946 98.5506C76.8049 99.9262 75.4677 101.258 74.0946 102.551C73.4346 103.211 72.7746 103.871 72.0946 104.551C72.0946 103.891 72.0946 103.231 72.0946 102.551C70.1146 102.221 68.1346 101.891 66.0946 101.551C65.0311 98.1667 64.8801 96.9701 66.5321 93.7381C67.0477 93.0162 67.5633 92.2944 68.0946 91.5506C65.1246 91.2206 62.1546 90.8906 59.0946 90.5506C59.0946 89.8906 59.0946 89.2306 59.0946 88.5506C57.1764 88.2722 57.1764 88.2722 55.2196 87.9881C54.5003 87.8837 53.781 87.7793 53.0399 87.6717C51.0132 87.3822 51.0132 87.3822 49.0946 88.5506C49.0946 86.5706 49.0946 84.5906 49.0946 82.5506C48.4346 82.5506 47.7746 82.5506 47.0946 82.5506C47.0946 81.2306 47.0946 79.9106 47.0946 78.5506C48.0846 78.5506 49.0746 78.5506 50.0946 78.5506C50.0946 79.2106 50.0946 79.8706 50.0946 80.5506C50.7546 80.5506 51.4146 80.5506 52.0946 80.5506C52.0946 79.2306 52.0946 77.9106 52.0946 76.5506Z" fill="#4A4E5C"/>
<path d="M23.0946 108.551C25.4046 109.211 27.7146 109.871 30.0946 110.551C30.0946 111.541 30.0946 112.531 30.0946 113.551C30.605 113.335 31.1155 113.12 31.6414 112.898C35.219 112.391 38.0638 113.711 41.3446 114.988C41.9943 115.231 42.6439 115.474 43.3133 115.724C44.9107 116.323 46.5032 116.936 48.0946 117.551C48.0946 122.232 47.0981 123.172 44.0946 126.551C40.6571 125.738 40.6571 125.738 37.0946 124.551C36.7646 123.561 36.4346 122.571 36.0946 121.551C35.5841 121.776 35.0736 122.002 34.5477 122.234C30.8805 122.707 28.0964 121.123 24.8446 119.613C24.1949 119.322 23.5452 119.032 22.8758 118.732C21.2774 118.015 19.6853 117.284 18.0946 116.551C19.3579 113.195 20.3537 110.918 23.0946 108.551Z" fill="#929699"/>
<path d="M21.0946 95.5506C24.3477 96.1374 27.3281 96.9128 30.4071 98.1131C31.6239 98.5875 32.8408 99.0619 34.0946 99.5506C33.1046 99.8806 32.1146 100.211 31.0946 100.551C30.4346 100.221 29.7746 99.8906 29.0946 99.5506C28.8058 100.334 28.5171 101.118 28.2196 101.926C27.0946 104.551 27.0946 104.551 25.0946 106.551C28.2296 108.408 30.4693 108.752 34.0946 108.551C34.0946 110.531 34.0946 112.511 34.0946 114.551C32.4446 114.881 30.7946 115.211 29.0946 115.551C29.4246 114.231 29.7546 112.911 30.0946 111.551C27.7846 110.891 25.4746 110.231 23.0946 109.551C20.6196 113.016 20.6196 113.016 18.0946 116.551C13.6396 114.571 13.6396 114.571 9.09457 112.551C12.3721 106.269 16.5809 100.995 21.0946 95.5506Z" fill="#4E5360"/>
<path d="M50.0946 74.5506C56.2193 75.7699 61.9949 77.4249 67.8485 79.5897C68.6348 79.8754 69.4211 80.1611 70.2313 80.4555C72.7085 81.357 75.1828 82.2661 77.6571 83.1756C79.3502 83.7933 81.0436 84.4105 82.7372 85.0272C86.8585 86.5291 90.9772 88.0379 95.0946 89.5506C90.9369 90.866 88.2066 89.8949 84.0946 88.5506C83.7646 89.5406 83.4346 90.5306 83.0946 91.5506C82.4346 91.5506 81.7746 91.5506 81.0946 91.5506C80.7646 92.2106 80.4346 92.8706 80.0946 93.5506C77.4279 92.8839 74.7612 92.2173 72.0946 91.5506C72.6704 89.165 73.3168 86.8838 74.0946 84.5506C73.4346 84.2206 72.7746 83.8906 72.0946 83.5506C71.7852 84.1694 71.4758 84.7881 71.1571 85.4256C70.4696 86.8006 69.7821 88.1756 69.0946 89.5506C66.6196 89.0556 66.6196 89.0556 64.0946 88.5506C64.4246 86.9006 64.7546 85.2506 65.0946 83.5506C66.7446 83.5506 68.3946 83.5506 70.0946 83.5506C67.1797 82.7409 65.6334 82.3322 62.7821 83.4881C62.2252 83.8387 61.6683 84.1894 61.0946 84.5506C61.0946 85.2106 61.0946 85.8706 61.0946 86.5506C58.7846 85.8906 56.4746 85.2306 54.0946 84.5506C54.7546 84.2206 55.4146 83.8906 56.0946 83.5506C56.8162 81.907 57.4881 80.2401 58.0946 78.5506C56.4446 78.2206 54.7946 77.8906 53.0946 77.5506C52.7646 78.5406 52.4346 79.5306 52.0946 80.5506C51.4346 80.5506 50.7746 80.5506 50.0946 80.5506C50.0946 79.8906 50.0946 79.2306 50.0946 78.5506C49.4346 78.2206 48.7746 77.8906 48.0946 77.5506C48.7546 76.5606 49.4146 75.5706 50.0946 74.5506Z" fill="#71757E"/>
<path d="M50.0946 119.551C54.5845 120.137 58.32 121.315 62.4696 123.113C63.5292 123.568 64.5888 124.023 65.6805 124.492C66.4772 124.841 67.2738 125.191 68.0946 125.551C68.0946 126.541 68.0946 127.531 68.0946 128.551C67.4346 128.551 66.7746 128.551 66.0946 128.551C65.9502 129.169 65.8058 129.788 65.6571 130.426C65.0946 132.551 65.0946 132.551 64.0946 134.551C57.4638 132.723 51.3263 130.465 45.0946 127.551C46.7446 124.911 48.3946 122.271 50.0946 119.551Z" fill="#19973F"/>
<path d="M59.0946 51.5506C68.5931 54.2386 77.892 57.5187 87.2196 60.7381C88.8601 61.3027 90.5008 61.8672 92.1414 62.4315C96.1265 63.8025 100.111 65.1759 104.095 66.5506C103.765 67.5406 103.435 68.5306 103.095 69.5506C97.0262 68.3144 91.2012 66.7246 85.3407 64.7303C84.5543 64.4668 83.768 64.2032 82.9579 63.9317C80.4811 63.1006 78.0066 62.2632 75.5321 61.4256C73.8389 60.8562 72.1455 60.2872 70.452 59.7186C66.3312 58.334 62.2124 56.9439 58.0946 55.5506C58.4246 54.2306 58.7546 52.9106 59.0946 51.5506Z" fill="#E7E7E7"/>
<path d="M147.095 15.5506C152.32 16.0949 157.537 16.7807 162.095 19.5506C163.891 21.995 164.757 24.5473 165.657 27.4256C166.045 28.4871 166.045 28.4871 166.44 29.5701C167.804 33.5408 168.564 36.5478 167.095 40.5506C166.435 41.2106 165.775 41.8706 165.095 42.5506C161.63 34.1356 161.63 34.1356 158.095 25.5506C151.028 26.4893 151.028 26.4893 146.095 30.5506C147.568 25.5414 150.37 23.0325 154.095 19.5506C151.785 18.5606 149.475 17.5706 147.095 16.5506C147.095 16.2206 147.095 15.8906 147.095 15.5506Z" fill="#3B3B3B"/>
<path d="M35.0946 91.5506C40.633 92.166 40.633 92.166 42.9696 94.1131C43.5264 94.8247 43.5264 94.8247 44.0946 95.5506C45.0846 95.2206 46.0746 94.8906 47.0946 94.5506C50.2821 95.9881 50.2821 95.9881 53.0946 97.5506C51.4446 100.191 49.7946 102.831 48.0946 105.551C46.7539 104.932 45.4133 104.313 44.0321 103.676C40.0973 101.92 36.2648 100.615 32.0946 99.5506C32.0946 95.9749 33.183 94.4977 35.0946 91.5506Z" fill="#968D92"/>
<path d="M4.09457 121.551C10.0493 123.456 15.8425 125.59 21.6024 128.019C22.757 128.502 22.757 128.502 23.9349 128.994C26.3644 130.01 28.792 131.03 31.2196 132.051C32.8536 132.734 34.4877 133.418 36.1219 134.101C39.128 135.359 42.1337 136.618 45.138 137.881C45.8004 138.159 46.4628 138.436 47.1453 138.723C48.4522 139.278 49.7552 139.842 51.0542 140.415C54.8148 142.071 57.9184 142.984 62.0321 143.238C62.9898 143.304 63.9476 143.37 64.9344 143.437C65.6473 143.475 66.3601 143.512 67.0946 143.551C66.7646 144.211 66.4346 144.871 66.0946 145.551C59.2342 147.693 54.0542 145.848 47.8446 142.863C46.0203 142.034 44.1947 141.207 42.368 140.383C41.379 139.931 40.3899 139.479 39.3709 139.014C33.7735 136.514 28.1034 134.19 22.4341 131.859C20.4899 131.059 18.5475 130.255 16.6053 129.45C10.4055 126.853 10.4055 126.853 4.09457 124.551C4.09457 123.561 4.09457 122.571 4.09457 121.551Z" fill="#1C1C1C"/>
<path d="M51.0946 86.5506C55.066 87.1048 58.4123 87.9857 62.0946 89.5506C64.0908 90.2286 66.09 90.8979 68.0946 91.5506C66.9701 94.5226 65.8716 96.885 64.0946 99.5506C59.6396 98.5606 59.6396 98.5606 55.0946 97.5506C55.0946 96.8906 55.0946 96.2306 55.0946 95.5506C54.1046 96.0456 54.1046 96.0456 53.0946 96.5506C50.4696 95.6131 50.4696 95.6131 48.0946 94.5506C48.7222 91.6218 49.6808 89.1897 51.0946 86.5506Z" fill="#A49499"/>
<path d="M29.0946 99.5506C32.5321 100.363 32.5321 100.363 36.0946 101.551C36.4246 102.541 36.7546 103.531 37.0946 104.551C40.103 105.776 40.103 105.776 43.0946 106.551C42.0946 109.551 42.0946 109.551 40.0946 110.551C40.4246 111.211 40.7546 111.871 41.0946 112.551C38.7515 112.295 36.4161 111.958 34.0946 111.551C33.7646 110.891 33.4346 110.231 33.0946 109.551C30.7621 109.211 28.4287 108.878 26.0946 108.551C25.4346 107.891 24.7746 107.231 24.0946 106.551C25.7446 104.241 27.3946 101.931 29.0946 99.5506Z" fill="#A09FA2"/>
<path d="M40.0946 70.5506C41.7444 70.9728 43.3894 71.4139 45.0321 71.8631C46.4069 72.2286 46.4069 72.2286 47.8094 72.6014C48.5635 72.9146 49.3176 73.2279 50.0946 73.5506C50.4246 74.5406 50.7546 75.5306 51.0946 76.5506C50.1046 77.2106 49.1146 77.8706 48.0946 78.5506C47.3707 80.6099 47.3707 80.6099 47.0946 82.5506C47.7546 82.5506 48.4146 82.5506 49.0946 82.5506C49.0946 83.2106 49.0946 83.8706 49.0946 84.5506C44.687 84.0381 41.781 83.0082 38.0946 80.5506C37.4346 80.2206 36.7746 79.8906 36.0946 79.5506C36.6317 75.6837 37.6801 73.58 40.0946 70.5506Z" fill="#4D515D"/>
<path d="M54.0946 123.551C57.0946 123.551 57.0946 123.551 59.5946 124.613C62.1659 125.876 62.1659 125.876 65.0946 124.551C66.0846 124.881 67.0746 125.211 68.0946 125.551C68.0946 126.541 68.0946 127.531 68.0946 128.551C67.4346 128.551 66.7746 128.551 66.0946 128.551C65.9502 129.169 65.8058 129.788 65.6571 130.426C65.0946 132.551 65.0946 132.551 64.0946 134.551C62.4446 134.221 60.7946 133.891 59.0946 133.551C59.0946 132.561 59.0946 131.571 59.0946 130.551C58.3521 130.447 57.6096 130.344 56.8446 130.238C53.9244 129.508 52.3627 128.483 50.0946 126.551C52.4046 126.881 54.7146 127.211 57.0946 127.551C56.1046 127.221 55.1146 126.891 54.0946 126.551C54.0946 125.561 54.0946 124.571 54.0946 123.551Z" fill="#37A556"/>
<path d="M68.0946 90.5506C69.4149 91.116 70.7257 91.7037 72.0321 92.3006C72.763 92.6255 73.4939 92.9503 74.2469 93.285C76.0946 94.5506 76.0946 94.5506 76.9696 96.4881C77.1764 99.9012 75.0692 101.918 73.0946 104.551C72.7646 103.891 72.4346 103.231 72.0946 102.551C69.0652 101.893 69.0652 101.893 66.0946 101.551C64.9451 97.9977 65.0077 96.7508 66.5321 93.2381C67.0477 92.3512 67.5633 91.4644 68.0946 90.5506Z" fill="#4F5461"/>
<path d="M66.0946 114.551C71.8446 115.426 71.8446 115.426 74.0946 116.551C73.4953 119.907 72.2483 121.929 70.0946 124.551C66.9717 124.065 64.0988 123.552 61.0946 122.551C62.4661 119.597 64.0832 117.111 66.0946 114.551Z" fill="#EBB128"/>
<path d="M70.0946 103.551C70.0946 107.819 69.7184 108.489 67.0946 111.551C60.3446 110.801 60.3446 110.801 58.0946 108.551C61.4774 101.324 62.4971 101.159 70.0946 103.551Z" fill="#D9951A"/>
<path d="M41.0946 115.551C43.4046 116.211 45.7146 116.871 48.0946 117.551C48.0946 122.232 47.0981 123.172 44.0946 126.551C41.7429 125.952 39.4086 125.281 37.0946 124.551C36.7646 123.891 36.4346 123.231 36.0946 122.551C37.7446 120.241 39.3946 117.931 41.0946 115.551Z" fill="#E6AD2D"/>
<path d="M72.0946 105.551C76.5496 106.541 76.5496 106.541 81.0946 107.551C78.9225 113.733 78.9225 113.733 76.0946 115.551C73.0968 115.306 70.7878 114.897 68.0946 113.551C69.2191 110.579 70.3175 108.216 72.0946 105.551Z" fill="#E4A31B"/>
<path d="M47.0946 107.551C53.8446 108.301 53.8446 108.301 56.0946 110.551C54.4446 112.861 52.7946 115.171 51.0946 117.551C48.7846 116.891 46.4746 116.231 44.0946 115.551C44.0946 111.282 44.4707 110.612 47.0946 107.551Z" fill="#A09497"/>
<path d="M84.0946 88.5506C90.8446 89.4256 90.8446 89.4256 93.0946 90.5506C91.8908 93.0442 90.6403 95.232 89.0946 97.5506C82.3446 96.8006 82.3446 96.8006 80.0946 94.5506C81.4146 92.5706 82.7346 90.5906 84.0946 88.5506Z" fill="#E73D40"/>
<path d="M42.0946 82.5506C44.7346 83.5406 47.3746 84.5306 50.0946 85.5506C48.7746 87.8606 47.4546 90.1706 46.0946 92.5506C39.3446 91.8006 39.3446 91.8006 37.0946 89.5506C38.7446 87.2406 40.3946 84.9306 42.0946 82.5506Z" fill="#A39B9E"/>
<path d="M55.2977 99.5194C57.5871 99.7785 59.8327 100.114 62.0946 100.551C60.9088 103.926 59.8188 106.198 57.0946 108.551C54.7846 107.891 52.4746 107.231 50.0946 106.551C50.0946 103.551 50.0946 103.551 51.0321 101.301C53.0946 99.5506 53.0946 99.5506 55.2977 99.5194Z" fill="#A8ABAF"/>
<path d="M57.0946 53.5506C57.0946 54.5406 57.0946 55.5306 57.0946 56.5506C57.7633 59.6639 57.7633 59.6639 60.1571 60.7381C60.7964 61.0062 61.4358 61.2743 62.0946 61.5506C60.0946 62.2173 58.0946 62.8839 56.0946 63.5506C56.4246 64.8706 56.7546 66.1906 57.0946 67.5506C54.3063 68.5833 53.2268 68.5957 50.3446 67.6131C49.6021 67.2625 48.8596 66.9118 48.0946 66.5506C49.5853 63.2679 51.4808 60.6198 53.7196 57.8006C54.3512 57.0014 54.9829 56.2022 55.6336 55.3787C56.1157 54.7754 56.5979 54.1722 57.0946 53.5506Z" fill="#545455"/>
<path d="M50.0946 74.5506C54.9309 75.5411 59.5708 76.5076 64.0946 78.5506C63.467 81.4794 62.5083 83.9116 61.0946 86.5506C58.7846 85.8906 56.4746 85.2306 54.0946 84.5506C54.7546 84.2206 55.4146 83.8906 56.0946 83.5506C56.8162 81.907 57.4881 80.2401 58.0946 78.5506C56.4446 78.2206 54.7946 77.8906 53.0946 77.5506C52.7646 78.5406 52.4346 79.5306 52.0946 80.5506C51.4346 80.5506 50.7746 80.5506 50.0946 80.5506C50.0946 79.8906 50.0946 79.2306 50.0946 78.5506C49.4346 78.2206 48.7746 77.8906 48.0946 77.5506C48.7546 76.5606 49.4146 75.5706 50.0946 74.5506Z" fill="#5C616D"/>
<path d="M52.0946 76.5506C57.8446 77.3006 57.8446 77.3006 60.0946 79.5506C59.4346 80.1694 58.7746 80.7881 58.0946 81.4256C55.8661 83.307 55.8661 83.307 56.0946 85.5506C55.3108 85.86 54.5271 86.1694 53.7196 86.4881C51.1713 87.4794 51.1713 87.4794 49.0946 88.5506C49.0946 86.5706 49.0946 84.5906 49.0946 82.5506C48.4346 82.5506 47.7746 82.5506 47.0946 82.5506C47.0946 81.2306 47.0946 79.9106 47.0946 78.5506C48.0846 78.5506 49.0746 78.5506 50.0946 78.5506C50.0946 79.2106 50.0946 79.8706 50.0946 80.5506C50.7546 80.5506 51.4146 80.5506 52.0946 80.5506C52.0946 79.2306 52.0946 77.9106 52.0946 76.5506Z" fill="#515562"/>
<path d="M22.0946 122.551C23.5332 122.638 24.9705 122.746 26.4071 122.863C27.2076 122.921 28.0081 122.979 28.8329 123.039C31.5319 123.65 32.2304 124.57 34.0946 126.551C36.3548 127.755 36.3548 127.755 38.7821 128.738C39.5903 129.082 40.3986 129.426 41.2313 129.781C41.8462 130.035 42.4611 130.289 43.0946 130.551C42.7646 131.211 42.4346 131.871 42.0946 132.551C37.0698 131.932 32.8474 130.421 28.2196 128.488C27.5312 128.206 26.8429 127.925 26.1336 127.635C24.4517 126.945 22.7728 126.249 21.0946 125.551C21.4246 124.561 21.7546 123.571 22.0946 122.551Z" fill="#989898"/>
<path d="M84.0946 60.5506C91.0523 61.9193 97.4806 64.0039 104.095 66.5506C103.765 67.5406 103.435 68.5306 103.095 69.5506C96.1368 68.1819 89.7085 66.0973 83.0946 63.5506C83.4246 62.5606 83.7546 61.5706 84.0946 60.5506Z" fill="#ECECEB"/>
<path d="M26.0946 89.5506C29.9266 89.9649 32.1748 91.0634 35.0946 93.5506C33.7746 95.2006 32.4546 96.8506 31.0946 98.5506C28.1246 97.5606 25.1546 96.5706 22.0946 95.5506C24.9696 90.6756 24.9696 90.6756 26.0946 89.5506Z" fill="#4F5460"/>
<path d="M147.095 15.5506C152.549 16.1188 157.005 17.497 162.095 19.5506C160.657 22.4257 158.61 23.0162 155.782 24.4881C152.32 26.2955 149.154 28.1163 146.095 30.5506C147.568 25.5414 150.37 23.0325 154.095 19.5506C151.785 18.5606 149.475 17.5706 147.095 16.5506C147.095 16.2206 147.095 15.8906 147.095 15.5506Z" fill="#454341"/>
<path d="M68.0946 91.5506C66.9701 94.5225 65.8716 96.885 64.0946 99.5506C59.6396 98.5606 59.6396 98.5606 55.0946 97.5506C59.0485 91.6197 61.0156 90.8307 68.0946 91.5506Z" fill="#ABADB1"/>
<path d="M153.095 24.5506C154.745 24.5506 156.395 24.5506 158.095 24.5506C161.46 30.6112 163.708 35.5901 164.095 42.5506C163.435 42.5506 162.775 42.5506 162.095 42.5506C161.497 40.9786 161.497 40.9786 160.888 39.3748C160.353 37.9957 159.818 36.6169 159.282 35.2381C158.891 34.2027 158.891 34.2027 158.491 33.1463C156.598 28.2891 156.598 28.2891 153.095 24.5506Z" fill="#4B240E"/>
<path d="M89.0946 72.5506C91.4046 73.2106 93.7146 73.8706 96.0946 74.5506C95.1046 76.8606 94.1146 79.1706 93.0946 81.5506C91.6344 81.2682 90.1765 80.9743 88.7196 80.6756C87.9075 80.5132 87.0954 80.3508 86.2586 80.1834C84.0946 79.5506 84.0946 79.5506 82.0946 77.5506C82.8783 77.5919 83.6621 77.6331 84.4696 77.6756C87.2557 77.8379 87.2557 77.8379 89.0946 75.5506C89.0946 74.5606 89.0946 73.5706 89.0946 72.5506Z" fill="#575757"/>
<path d="M40.0946 70.5506C43.3946 71.5406 46.6946 72.5306 50.0946 73.5506C49.1046 73.8806 48.1146 74.2106 47.0946 74.5506C46.7646 75.5406 46.4346 76.5306 46.0946 77.5506C45.4346 77.5506 44.7746 77.5506 44.0946 77.5506C43.7646 78.2106 43.4346 78.8706 43.0946 79.5506C40.1246 79.0556 40.1246 79.0556 37.0946 78.5506C38.0946 76.5506 38.0946 76.5506 41.0946 75.5506C40.4346 75.2206 39.7746 74.8906 39.0946 74.5506C39.4246 73.2306 39.7546 71.9106 40.0946 70.5506Z" fill="#71747E"/>
<path d="M79.0946 54.5506C79.9402 55.19 80.7858 55.8293 81.6571 56.4881C85.014 58.7527 88.0663 59.1633 92.0946 59.5506C92.7546 59.8806 93.4146 60.2106 94.0946 60.5506C94.0946 61.2106 94.0946 61.8706 94.0946 62.5506C95.4146 62.8806 96.7346 63.2106 98.0946 63.5506C96.0946 64.5506 96.0946 64.5506 93.9398 64.0215C92.6358 63.5738 92.6358 63.5738 91.3055 63.117C90.3645 62.798 89.4235 62.4789 88.4539 62.1502C87.4691 61.808 86.4843 61.4657 85.4696 61.1131C84.477 60.7747 83.4844 60.4363 82.4618 60.0877C80.0037 59.2486 77.5482 58.4027 75.0946 57.5506C76.4146 56.5606 77.7346 55.5706 79.0946 54.5506Z" fill="#424244"/>
<path d="M29.0946 84.5506C29.4246 85.2106 29.7546 85.8706 30.0946 86.5506C32.1398 87.1457 34.1879 87.5053 36.2821 87.8905C36.8802 88.1083 37.4783 88.3262 38.0946 88.5506C38.4246 89.5406 38.7546 90.5306 39.0946 91.5506C33.6456 92.7494 30.8729 92.4642 26.0946 89.5506C27.0846 87.9006 28.0746 86.2506 29.0946 84.5506Z" fill="#494E5B"/>
<path d="M80.0946 98.5506C81.4146 98.8806 82.7346 99.2106 84.0946 99.5506C84.7821 101.863 84.7821 101.863 85.0946 104.551C83.6571 106.363 83.6571 106.363 82.0946 107.551C79.6196 106.561 79.6196 106.561 77.0946 105.551C77.7074 102.589 78.3483 101.17 80.0946 98.5506Z" fill="#858993"/>
<path d="M92.0946 59.5506C99.0523 60.9193 105.481 63.0039 112.095 65.5506C111.765 66.2106 111.435 66.8706 111.095 67.5506C109.01 67.0987 106.927 66.6388 104.845 66.1756C103.684 65.9204 102.524 65.6651 101.329 65.4022C98.634 64.6926 96.4993 63.9196 94.0946 62.5506C94.0946 61.8906 94.0946 61.2306 94.0946 60.5506C93.4346 60.2206 92.7746 59.8906 92.0946 59.5506Z" fill="#242426"/>
<path d="M25.2821 108.863C25.8802 109.09 26.4783 109.317 27.0946 109.551C26.8446 111.926 26.8446 111.926 26.0946 114.551C23.1965 116.649 21.8108 116.551 18.0946 116.551C21.01 108.253 21.01 108.253 25.2821 108.863Z" fill="#A5A6AA"/>
<path d="M53.0946 98.5506C51.4446 100.861 49.7946 103.171 48.0946 105.551C46.7746 104.891 45.4546 104.231 44.0946 103.551C44.0946 102.561 44.0946 101.571 44.0946 100.551C44.7546 100.551 45.4146 100.551 46.0946 100.551C46.0946 99.5606 46.0946 98.5706 46.0946 97.5506C49.5804 96.3486 49.7745 96.3372 53.0946 98.5506Z" fill="#A7ACAE"/>
<path d="M81.0946 86.5506C86.0655 86.9622 90.5397 87.3466 95.0946 89.5506C91.0926 91.1514 88.049 89.8434 84.0946 88.5506C83.7646 89.5406 83.4346 90.5306 83.0946 91.5506C82.1046 91.2206 81.1146 90.8906 80.0946 90.5506C80.4246 89.2306 80.7546 87.9106 81.0946 86.5506ZM76.0946 90.5506C77.4146 90.5506 78.7346 90.5506 80.0946 90.5506C80.0946 91.5406 80.0946 92.5306 80.0946 93.5506C78.7746 93.2206 77.4546 92.8906 76.0946 92.5506C76.0946 91.8906 76.0946 91.2306 76.0946 90.5506Z" fill="#716970"/>
<path d="M35.0946 92.5506C36.4146 93.2106 37.7346 93.8706 39.0946 94.5506C38.4346 95.8706 37.7746 97.1906 37.0946 98.5506C37.7546 98.8806 38.4146 99.2106 39.0946 99.5506C39.0946 100.211 39.0946 100.871 39.0946 101.551C36.7846 100.891 34.4746 100.231 32.0946 99.5506C32.0946 96.0335 32.919 95.1794 35.0946 92.5506Z" fill="#A8ACB0"/>
<path d="M34.0946 100.551C36.0746 100.551 38.0546 100.551 40.0946 100.551C40.0946 101.211 40.0946 101.871 40.0946 102.551C43.3816 103.835 43.3816 103.835 47.0946 104.551C49.536 103.327 49.536 103.327 51.0946 101.551C50.7852 102.479 50.7852 102.479 50.4696 103.426C50.3458 104.127 50.2221 104.828 50.0946 105.551C50.7546 106.211 51.4146 106.871 52.0946 107.551C50.1146 107.881 48.1346 108.211 46.0946 108.551C46.0946 107.561 46.0946 106.571 46.0946 105.551C45.4797 105.525 44.8648 105.499 44.2313 105.472C37.5474 105.003 37.5474 105.003 35.0321 102.488C34.7227 101.849 34.4133 101.209 34.0946 100.551Z" fill="#4C515A"/>
<path d="M56.0946 110.551C53.6196 114.016 53.6196 114.016 51.0946 117.551C50.1046 117.221 49.1146 116.891 48.0946 116.551C47.2821 114.613 47.2821 114.613 47.0946 112.551C50.1319 109.513 52.0324 109.197 56.0946 110.551Z" fill="#A6AAAE"/>
<path d="M27.0946 110.551C28.4146 110.881 29.7346 111.211 31.0946 111.551C27.8027 117.281 27.8027 117.281 24.4696 118.551C23.6858 118.551 22.9021 118.551 22.0946 118.551C21.4346 117.891 20.7746 117.231 20.0946 116.551C20.7546 116.551 21.4146 116.551 22.0946 116.551C22.4246 115.891 22.7546 115.231 23.0946 114.551C23.7546 114.551 24.4146 114.551 25.0946 114.551C25.7546 113.231 26.4146 111.911 27.0946 110.551Z" fill="#989CA0"/>
<path d="M35.0946 91.5506C40.8446 92.4256 40.8446 92.4256 43.0946 93.5506C42.5309 96.8202 41.595 98.3764 39.0946 100.551C37.7746 99.8906 36.4546 99.2306 35.0946 98.5506C36.0846 97.8906 37.0746 97.2306 38.0946 96.5506C38.3207 94.427 38.3207 94.427 36.5946 92.9256C36.0996 92.4719 35.6046 92.0181 35.0946 91.5506Z" fill="#A29194"/>
<path d="M66.0946 114.551C69.0646 115.046 69.0646 115.046 72.0946 115.551C71.7646 116.211 71.4346 116.871 71.0946 117.551C68.5321 118.176 68.5321 118.176 66.0946 118.551C66.0946 120.201 66.0946 121.851 66.0946 123.551C64.4446 123.221 62.7946 122.891 61.0946 122.551C62.4661 119.597 64.0832 117.111 66.0946 114.551Z" fill="#E49E13"/>
<path d="M62.0946 104.551C65.0321 105.363 65.0321 105.363 68.0946 106.551C68.4246 107.541 68.7546 108.531 69.0946 109.551C68.4346 110.211 67.7746 110.871 67.0946 111.551C63.9696 111.176 63.9696 111.176 61.0946 110.551C61.4246 108.571 61.7546 106.591 62.0946 104.551Z" fill="#EBB847"/>
<path d="M52.0946 85.5506C55.7246 85.5506 59.3546 85.5506 63.0946 85.5506C63.0946 86.8706 63.0946 88.1906 63.0946 89.5506C64.7446 89.8806 66.3946 90.2106 68.0946 90.5506C64.6163 91.71 62.6356 91.2588 59.0946 90.5506C59.0946 89.8906 59.0946 89.2306 59.0946 88.5506C56.7846 87.8906 54.4746 87.2306 52.0946 86.5506C52.0946 86.2206 52.0946 85.8906 52.0946 85.5506Z" fill="#454B57"/>
<path d="M70.0946 108.551C72.8068 110.163 75.4681 111.8 78.0946 113.551C77.4346 114.211 76.7746 114.871 76.0946 115.551C73.152 115.244 70.7492 114.878 68.0946 113.551C68.7546 111.901 69.4146 110.251 70.0946 108.551Z" fill="#E9A70F"/>
<path d="M50.0946 87.5506C51.4146 87.8806 52.7346 88.2106 54.0946 88.5506C53.9296 89.3137 53.7646 90.0769 53.5946 90.8631C53.0031 93.5866 53.0031 93.5866 53.0946 96.5506C50.6196 95.5606 50.6196 95.5606 48.0946 94.5506C48.6704 92.165 49.3168 89.8838 50.0946 87.5506Z" fill="#AEB1B4"/>
<path d="M147.095 15.5506C152.549 16.1188 157.005 17.497 162.095 19.5506C161.765 20.2106 161.435 20.8706 161.095 21.5506C158.455 21.5506 155.815 21.5506 153.095 21.5506C153.095 20.5606 153.095 19.5706 153.095 18.5506C151.115 17.8906 149.135 17.2306 147.095 16.5506C147.095 16.2206 147.095 15.8906 147.095 15.5506Z" fill="#4F4F4F"/>
<path d="M41.0946 115.551C43.4046 116.211 45.7146 116.871 48.0946 117.551C48.0946 118.871 48.0946 120.191 48.0946 121.551C45.4279 120.884 42.7612 120.217 40.0946 119.551C40.4246 118.231 40.7546 116.911 41.0946 115.551Z" fill="#E79C16"/>
<path d="M59.0946 105.551C59.1771 106.169 59.2596 106.788 59.3446 107.426C59.9072 109.735 59.9072 109.735 62.1571 110.801C62.7964 111.048 63.4358 111.296 64.0946 111.551C60.453 112.764 59.7629 112.218 56.4071 110.613C55.5988 110.233 54.7906 109.853 53.9579 109.461C53.343 109.16 52.7281 108.86 52.0946 108.551C53.0846 108.221 54.0746 107.891 55.0946 107.551C56.4355 106.899 57.7705 106.235 59.0946 105.551ZM59.0946 112.551C59.7546 112.551 60.4146 112.551 61.0946 112.551C61.0946 113.541 61.0946 114.531 61.0946 115.551C59.7746 115.881 58.4546 116.211 57.0946 116.551C57.7546 115.231 58.4146 113.911 59.0946 112.551Z" fill="#5C4949"/>
<path d="M84.0946 88.5506C90.8446 89.4256 90.8446 89.4256 93.0946 90.5506C92.4346 91.8706 91.7746 93.1906 91.0946 94.5506C90.7646 93.8906 90.4346 93.2306 90.0946 92.5506C88.7746 92.5506 87.4546 92.5506 86.0946 92.5506C85.7646 93.2106 85.4346 93.8706 85.0946 94.5506C84.7646 92.5706 84.4346 90.5906 84.0946 88.5506Z" fill="#EA2E30"/>
<path d="M84.0946 59.5506C84.0946 60.2106 84.0946 60.8706 84.0946 61.5506C84.7546 61.8806 85.4146 62.2106 86.0946 62.5506C82.2882 64.0146 79.7472 63.174 76.0946 61.5506C75.7646 60.5606 75.4346 59.5706 75.0946 58.5506C78.2952 56.9503 80.8173 58.5189 84.0946 59.5506Z" fill="#B2B2B2"/>
<path d="M43.0946 85.5506C45.4046 85.5506 47.7146 85.5506 50.0946 85.5506C48.7746 87.8606 47.4546 90.1706 46.0946 92.5506C45.4346 92.2206 44.7746 91.8906 44.0946 91.5506C44.0946 90.8906 44.0946 90.2306 44.0946 89.5506C43.4346 89.2206 42.7746 88.8906 42.0946 88.5506C42.4246 87.5606 42.7546 86.5706 43.0946 85.5506Z" fill="#A7ABAE"/>
<path d="M34.0946 81.5506C36.2821 81.8631 36.2821 81.8631 38.0946 82.5506C37.7646 84.5306 37.4346 86.5106 37.0946 88.5506C34.7846 87.8906 32.4746 87.2306 30.0946 86.5506C31.2034 84.3329 32.1364 83.0736 34.0946 81.5506Z" fill="#707480"/>
<path d="M22.0946 122.551C25.0646 122.881 28.0346 123.211 31.0946 123.551C30.4346 125.201 29.7746 126.851 29.0946 128.551C26.4546 127.561 23.8146 126.571 21.0946 125.551C21.4246 124.561 21.7546 123.571 22.0946 122.551Z" fill="#747474"/>
<path d="M53.0946 99.5506C54.4146 100.211 55.7346 100.871 57.0946 101.551C56.1046 102.046 56.1046 102.046 55.0946 102.551C54.373 104.194 53.7011 105.861 53.0946 107.551C51.7746 106.891 50.4546 106.231 49.0946 105.551C50.4146 103.571 51.7346 101.591 53.0946 99.5506Z" fill="#9DA0A3"/>
<path d="M64.0946 91.5506C65.4146 91.5506 66.7346 91.5506 68.0946 91.5506C66.9088 94.9257 65.8188 97.1978 63.0946 99.5506C63.0946 98.8906 63.0946 98.2306 63.0946 97.5506C62.4346 97.2206 61.7746 96.8906 61.0946 96.5506C62.3446 94.0506 62.3446 94.0506 64.0946 91.5506Z" fill="#9EA2A7"/>
<path d="M50.0946 74.5506C51.5547 74.833 53.0127 75.1269 54.4696 75.4256C55.2817 75.588 56.0938 75.7505 56.9305 75.9178C59.0946 76.5506 59.0946 76.5506 61.0946 78.5506C58.4546 78.2206 55.8146 77.8906 53.0946 77.5506C52.7646 78.5406 52.4346 79.5306 52.0946 80.5506C51.4346 80.5506 50.7746 80.5506 50.0946 80.5506C50.0946 79.8906 50.0946 79.2306 50.0946 78.5506C49.4346 78.2206 48.7746 77.8906 48.0946 77.5506C48.7546 76.5606 49.4146 75.5706 50.0946 74.5506Z" fill="#8B8E95"/>
<path d="M31.1571 108.488C32.6111 108.519 32.6111 108.519 34.0946 108.551C34.0946 110.531 34.0946 112.511 34.0946 114.551C32.4446 114.881 30.7946 115.211 29.0946 115.551C29.4246 114.231 29.7546 112.911 30.0946 111.551C29.1046 110.891 28.1146 110.231 27.0946 109.551C28.0946 108.551 28.0946 108.551 31.1571 108.488Z" fill="#65626B"/>
<path d="M20.0946 99.5506C21.7446 99.8806 23.3946 100.211 25.0946 100.551C24.1046 102.036 24.1046 102.036 23.0946 103.551C19.4696 104.238 19.4696 104.238 16.0946 104.551C17.4146 102.901 18.7346 101.251 20.0946 99.5506Z" fill="#666A77"/>
<path d="M75.0946 95.5506C74.4346 97.2006 73.7746 98.8506 73.0946 100.551C71.4446 100.551 69.7946 100.551 68.0946 100.551C68.0946 99.5606 68.0946 98.5706 68.0946 97.5506C70.742 96.09 71.9891 95.5506 75.0946 95.5506Z" fill="#C1C1C6"/>
<path d="M28.0946 89.5506C29.4146 90.2106 30.7346 90.8706 32.0946 91.5506C30.7746 93.2006 29.4546 94.8506 28.0946 96.5506C27.1046 96.2206 26.1146 95.8906 25.0946 95.5506C25.4246 94.8906 25.7546 94.2306 26.0946 93.5506C26.7546 93.8806 27.4146 94.2106 28.0946 94.5506C28.0946 93.8906 28.0946 93.2306 28.0946 92.5506C27.4346 92.2206 26.7746 91.8906 26.0946 91.5506C26.7546 90.8906 27.4146 90.2306 28.0946 89.5506Z" fill="#727682"/>
<path d="M83.0946 44.5506C83.4246 45.2106 83.7546 45.8706 84.0946 46.5506C84.9918 46.2103 84.9918 46.2103 85.9071 45.8631C86.9899 45.7084 86.9899 45.7084 88.0946 45.5506C89.8446 46.9881 89.8446 46.9881 91.0946 48.5506C90.7646 49.2106 90.4346 49.8706 90.0946 50.5506C90.7546 50.8806 91.4146 51.2106 92.0946 51.5506C91.1046 51.5506 90.1146 51.5506 89.0946 51.5506C89.0946 50.5606 89.0946 49.5706 89.0946 48.5506C86.7846 48.2206 84.4746 47.8906 82.0946 47.5506C82.4246 46.5606 82.7546 45.5706 83.0946 44.5506Z" fill="#6F6F6F"/>
<path d="M70.0946 52.5506C76.8446 53.3006 76.8446 53.3006 79.0946 55.5506C76.1797 56.3603 74.6334 56.7691 71.7821 55.6131C71.2252 55.2625 70.6683 54.9118 70.0946 54.5506C70.0946 53.8906 70.0946 53.2306 70.0946 52.5506Z" fill="#252527"/>
<path d="M62.7821 89.9256C63.5452 90.1319 64.3083 90.3381 65.0946 90.5506C64.4346 91.2106 63.7746 91.8706 63.0946 92.5506C62.1046 92.2206 61.1146 91.8906 60.0946 91.5506C59.4346 92.8706 58.7746 94.1906 58.0946 95.5506C57.7646 94.2306 57.4346 92.9106 57.0946 91.5506C60.0946 89.5506 60.0946 89.5506 62.7821 89.9256Z" fill="#938187"/>
<path d="M61.0946 77.5506C62.0846 78.2106 63.0746 78.8706 64.0946 79.5506C63.1046 80.0456 63.1046 80.0456 62.0946 80.5506C61.7646 81.5406 61.4346 82.5306 61.0946 83.5506C59.7746 83.2206 58.4546 82.8906 57.0946 82.5506C58.0946 79.5506 58.0946 79.5506 61.0946 77.5506Z" fill="#737780"/>
<path d="M97.0946 78.5506C98.0846 78.5506 99.0746 78.5506 100.095 78.5506C99.7646 80.2006 99.4346 81.8506 99.0946 83.5506C97.7746 83.5506 96.4546 83.5506 95.0946 83.5506C95.9696 79.6756 95.9696 79.6756 97.0946 78.5506Z" fill="#404040"/>
<path d="M57.0946 53.5506C57.0946 57.2448 55.8128 59.329 54.0946 62.5506C53.1046 62.5506 52.1146 62.5506 51.0946 62.5506C52.6217 59.1146 54.6938 56.4315 57.0946 53.5506Z" fill="#5F5F60"/>
<path d="M105.095 14.5506C107.405 14.8806 109.715 15.2106 112.095 15.5506C112.425 16.5406 112.755 17.5306 113.095 18.5506C110.455 17.8906 107.815 17.2306 105.095 16.5506C105.095 15.8906 105.095 15.2306 105.095 14.5506Z" fill="#828282"/>
<path d="M71.0946 108.551C75.8446 109.426 75.8446 109.426 78.0946 110.551C78.0946 111.211 78.0946 111.871 78.0946 112.551C75.1246 112.056 75.1246 112.056 72.0946 111.551C71.7646 110.561 71.4346 109.571 71.0946 108.551Z" fill="#EDBF57"/>
<path d="M50.0946 101.551C50.0946 102.541 50.0946 103.531 50.0946 104.551C51.0846 106.036 51.0846 106.036 52.0946 107.551C50.1146 107.881 48.1346 108.211 46.0946 108.551C46.0946 107.561 46.0946 106.571 46.0946 105.551C46.7546 105.551 47.4146 105.551 48.0946 105.551C48.7546 104.231 49.4146 102.911 50.0946 101.551Z" fill="#545860"/>
<path d="M83.0946 98.5506C85.0746 98.5506 87.0546 98.5506 89.0946 98.5506C87.7746 100.201 86.4546 101.851 85.0946 103.551C84.4346 102.891 83.7746 102.231 83.0946 101.551C83.0946 100.561 83.0946 99.5706 83.0946 98.5506Z" fill="#4D5462"/>
</svg>
