<svg width="158" height="175" viewBox="0 0 158 175" fill="none" xmlns="http://www.w3.org/2000/svg">
<path d="M156.814 0.137616C156.814 8.0853 156.814 16.033 156.814 24.2215C154.223 24.5394 151.632 24.8573 148.963 25.1849C148.904 26.0777 148.844 26.9706 148.783 27.8906C148.701 29.0442 148.619 30.1979 148.534 31.3865C148.414 33.1132 148.414 33.1132 148.292 34.8749C147.982 37.7085 147.982 37.7085 147.001 38.6719C146.879 40.5628 146.826 42.458 146.799 44.3525C146.78 45.5675 146.76 46.7825 146.74 48.0344C146.723 49.3703 146.707 50.7063 146.69 52.0422C146.67 53.4015 146.649 54.7609 146.628 56.1202C146.574 59.7042 146.526 63.2882 146.478 66.8723C146.429 70.527 146.375 74.1817 146.32 77.8364C146.215 85.012 146.115 92.1876 146.019 99.3633C148.286 99.3633 150.553 99.3633 152.888 99.3633C153.212 100.635 153.536 101.907 153.87 103.217C151.927 104.17 151.927 104.17 149.945 105.143C151.24 105.461 152.535 105.779 153.87 106.107C156.415 114.928 158.213 123.907 156.814 133.081C155.006 135.741 153.417 137.516 150.803 139.403C148.823 140.657 148.823 140.657 148.105 142.775C147.001 144.641 147.001 144.641 144.402 145.439C140.591 146.747 137.686 148.736 134.489 151.083C133.263 151.962 132.036 152.84 130.809 153.718C129.664 154.545 128.52 155.373 127.375 156.201C120.405 161.205 113.157 165.657 105.767 170.032C105.023 170.473 104.28 170.913 103.514 171.367C102.841 171.763 102.169 172.159 101.476 172.567C99.9229 173.447 99.9229 173.447 98.9177 174.505C95.8707 174.597 92.8456 174.626 89.7984 174.614C88.8411 174.615 87.8839 174.615 86.8976 174.615C83.7172 174.614 80.5367 174.607 77.3562 174.599C75.1576 174.597 72.9589 174.596 70.7603 174.595C64.9607 174.591 59.1612 174.582 53.3616 174.571C47.4487 174.561 41.5358 174.557 35.6229 174.552C24.0116 174.542 12.4004 174.525 0.789151 174.505C0.611851 169.469 0.483525 164.435 0.39835 159.397C0.362808 157.688 0.314435 155.978 0.25245 154.269C-0.352489 137.149 -0.352489 137.149 5.94097 130.001C8.63794 127.531 11.4382 125.274 14.404 123.123C17.737 120.562 20.4069 117.481 23.1747 114.356C25.7056 111.588 28.0285 109.152 31.209 107.07C30.8852 105.481 30.5613 103.891 30.2277 102.253C51.0026 97.8613 70.6966 94.2875 92.0487 95.5099C93.4155 95.5787 94.7823 95.6464 96.1492 95.7131C120.886 96.9327 120.886 96.9327 132.281 98.3999C132.176 90.6788 132.065 82.9578 131.948 75.2369C131.894 71.6517 131.842 68.0664 131.793 64.4812C131.747 61.0206 131.695 57.5602 131.641 54.0998C131.621 52.7801 131.602 51.4604 131.586 50.1407C131.562 48.2911 131.532 46.4416 131.502 44.5922C131.486 43.5397 131.471 42.4872 131.455 41.4028C131.321 39.0326 130.934 37.0945 130.319 34.8184C130.281 32.5709 130.275 30.3224 130.319 28.0749C128.818 28.0825 128.818 28.0825 127.287 28.0902C123.582 28.1076 119.877 28.1187 116.172 28.1279C114.567 28.1327 112.962 28.1393 111.358 28.1476C109.053 28.1593 106.749 28.1648 104.445 28.169C103.366 28.1765 103.366 28.1765 102.264 28.1841C97.1786 28.1846 97.1786 28.1846 94.9925 27.1116C94.9073 23.7801 94.8548 20.4489 94.8086 17.1168C94.7839 16.168 94.7592 15.2193 94.7338 14.2418C94.7243 13.3352 94.7148 12.4287 94.7051 11.4947C94.6896 10.6572 94.6742 9.81977 94.6583 8.95693C94.7686 8.27191 94.8789 7.58689 94.9925 6.88111C98.7368 4.43056 102.255 4.21369 106.618 3.71257C107.487 3.60838 108.356 3.5042 109.251 3.39685C111.099 3.17767 112.948 2.96253 114.797 2.7511C117.563 2.4325 120.327 2.09511 123.091 1.75575C134.423 0.410489 145.397 -0.0804512 156.814 0.137616Z" fill="#57534C"/>
<path d="M156.814 0.137616C156.814 8.0853 156.814 16.033 156.814 24.2215C152.928 24.6984 152.928 24.6984 148.963 25.1849C148.904 26.0777 148.844 26.9706 148.783 27.8906C148.66 29.621 148.66 29.621 148.534 31.3865C148.414 33.1132 148.414 33.1132 148.292 34.8749C147.982 37.7085 147.982 37.7085 147.001 38.6719C146.879 40.5628 146.826 42.458 146.799 44.3525C146.78 45.5675 146.76 46.7825 146.74 48.0344C146.723 49.3703 146.707 50.7063 146.69 52.0422C146.67 53.4015 146.649 54.7609 146.628 56.1202C146.574 59.7042 146.526 63.2882 146.478 66.8723C146.429 70.527 146.375 74.1817 146.32 77.8364C146.215 85.012 146.115 92.1876 146.019 99.3633C148.286 99.3633 150.553 99.3633 152.888 99.3633C153.212 99.9991 153.536 100.635 153.87 101.29C127.385 111.887 127.385 111.887 123.45 111.887C123.774 113.159 124.097 114.43 124.431 115.74C123.783 115.74 123.136 115.74 122.469 115.74C122.469 114.787 122.469 113.833 122.469 112.85C117.935 112.85 113.401 112.85 108.731 112.85C109.054 113.486 109.378 114.122 109.712 114.777C97.0609 114.22 84.5622 112.96 71.9937 111.465C69.2879 111.148 66.5819 110.833 63.8759 110.517C62.1074 110.31 60.3391 110.103 58.5709 109.894C54.277 109.389 49.9823 108.901 45.6825 108.447C44.8697 108.361 44.0569 108.275 43.2194 108.186C41.6912 108.026 40.1626 107.869 38.6337 107.714C35.6765 107.404 33.0601 107.034 30.2277 106.107C30.2277 104.835 30.2277 103.564 30.2277 102.253C51.0026 97.8613 70.6966 94.2875 92.0487 95.5099C93.4155 95.5787 94.7823 95.6464 96.1492 95.7131C120.886 96.9327 120.886 96.9327 132.281 98.3999C132.176 90.6788 132.065 82.9578 131.948 75.2369C131.894 71.6517 131.842 68.0664 131.793 64.4812C131.747 61.0206 131.695 57.5602 131.641 54.0998C131.621 52.7801 131.602 51.4604 131.586 50.1407C131.562 48.2911 131.532 46.4416 131.502 44.5922C131.479 43.0134 131.479 43.0134 131.455 41.4028C131.321 39.0326 130.934 37.0945 130.319 34.8184C130.281 32.5709 130.275 30.3224 130.319 28.0749C128.818 28.0825 128.818 28.0825 127.287 28.0902C123.582 28.1076 119.877 28.1187 116.172 28.1279C114.567 28.1327 112.962 28.1393 111.358 28.1476C109.053 28.1593 106.749 28.1648 104.445 28.169C103.366 28.1765 103.366 28.1765 102.264 28.1841C97.1786 28.1846 97.1786 28.1846 94.9925 27.1116C94.9073 23.7801 94.8548 20.4489 94.8086 17.1168C94.7839 16.168 94.7592 15.2193 94.7338 14.2418C94.7243 13.3352 94.7148 12.4287 94.7051 11.4947C94.6896 10.6572 94.6742 9.81977 94.6583 8.95693C94.7686 8.27191 94.8789 7.58689 94.9925 6.88111C98.7368 4.43056 102.255 4.21369 106.618 3.71257C107.487 3.60838 108.356 3.5042 109.251 3.39685C111.099 3.17767 112.948 2.96253 114.797 2.7511C117.563 2.4325 120.327 2.09511 123.091 1.75575C134.423 0.410489 145.397 -0.0804512 156.814 0.137616Z" fill="#BAB6B0"/>
<path d="M52.207 108.056C53.1447 108.158 54.0825 108.261 55.0487 108.366C58.0196 108.691 60.9895 109.024 63.9594 109.358C67.851 109.79 71.743 110.218 75.6352 110.645C76.585 110.75 77.5349 110.855 78.5136 110.963C88.2479 112.027 97.9959 112.935 107.749 113.814C108.073 113.178 108.397 112.542 108.731 111.887C115.531 112.364 115.531 112.364 122.469 112.85C122.469 113.804 122.469 114.758 122.469 115.74C124.964 114.841 127.458 113.937 129.951 113.031C130.65 112.779 131.35 112.528 132.071 112.269C135.308 111.088 138.358 109.866 141.443 108.323C144.057 107.07 144.057 107.07 147.001 107.07C147.001 107.706 147.001 108.342 147.001 108.997C143.996 110.242 140.99 111.486 137.985 112.73C137.137 113.081 136.289 113.433 135.415 113.795C133.776 114.473 132.135 115.149 130.494 115.822C128.838 116.505 127.191 117.206 125.547 117.915C123.45 118.63 123.45 118.63 119.525 118.63C118.877 120.856 118.229 123.081 117.562 125.374C116.914 125.374 116.267 125.374 115.6 125.374C115.114 126.805 115.114 126.805 114.618 128.264C112.84 128.451 111.062 128.63 109.283 128.806C108.292 128.906 107.302 129.007 106.281 129.111C105.47 129.149 104.66 129.188 103.824 129.227C103.5 128.909 103.176 128.592 102.843 128.264C101.208 128.225 99.5713 128.223 97.9364 128.264C99.2317 127.946 100.527 127.628 101.862 127.301C101.376 125.393 101.376 125.393 100.88 123.447C102.176 123.447 103.471 123.447 104.805 123.447C105.291 122.017 105.291 122.017 105.787 120.557C103.52 120.557 101.253 120.557 98.9177 120.557C98.432 119.127 98.432 119.127 97.9364 117.667C94.6245 118.809 92.3949 119.859 90.0861 122.484C90.6512 120.186 91.2855 117.988 92.0487 115.74C88.114 119.281 85.7161 122.667 83.2171 127.301C84.2835 127.388 84.2835 127.388 85.3714 127.478C90.2541 127.893 95.0777 128.332 99.899 129.227C99.899 129.863 99.899 130.499 99.899 131.154C100.547 131.472 101.194 131.79 101.862 132.117C101.376 133.548 101.376 133.548 100.88 135.008C96.8917 135.685 93.9715 136.025 90.0861 135.008C87.4548 135.379 87.4548 135.379 85.1797 135.971C85.1797 135.335 85.1797 134.699 85.1797 134.044C84.532 134.044 83.8844 134.044 83.2171 134.044C83.2171 133.408 83.2171 132.773 83.2171 132.117C81.2742 132.117 79.3312 132.117 77.3294 132.117C78.6505 126.022 81.5309 121.744 85.1797 116.704C84.3673 116.657 83.5549 116.611 82.7179 116.563C73.0798 115.956 63.564 114.797 54.0042 113.48C40.9393 110.822 40.9393 110.822 28.568 113.505C27.9621 114.203 27.3561 114.901 26.7319 115.62C25.7889 116.659 25.7889 116.659 24.8268 117.72C23.3153 119.526 23.3153 119.526 22.3774 121.521C23.0062 121.557 23.6349 121.594 24.2827 121.632C33.1706 122.248 41.9116 123.545 50.7032 124.92C53.2445 125.317 55.7873 125.702 58.3304 126.087C59.9602 126.339 61.59 126.592 63.2196 126.845C63.973 126.959 64.7264 127.072 65.5026 127.189C69.3486 127.8 72.8014 128.591 76.3481 130.191C73.1551 132.28 72.8317 132.326 69.2951 131.816C68.5185 131.711 67.7418 131.605 66.9416 131.497C66.1599 131.384 65.3781 131.271 64.5727 131.154C63.1624 130.991 61.7518 130.831 60.3409 130.672C57.7315 130.325 55.3151 129.948 52.7973 129.227C52.7973 129.863 52.7973 130.499 52.7973 131.154C51.8258 130.836 50.8543 130.518 49.8534 130.191C50.5011 130.191 51.1487 130.191 51.816 130.191C51.3303 129.237 51.3303 129.237 50.8347 128.264C48.4292 127.848 48.4292 127.848 45.6216 127.722C42.3293 127.511 39.2914 127.233 36.1154 126.337C36.1154 125.701 36.1154 125.066 36.1154 124.411C35.4475 124.589 34.7796 124.768 34.0915 124.952C30.6474 125.456 27.753 125.002 24.34 124.411C24.34 123.775 24.34 123.139 24.34 122.484C18.3653 126.042 13.9261 129.589 9.62072 135.008C12.0494 135.961 12.0494 135.961 14.5271 136.934C14.851 136.298 15.1748 135.663 15.5084 135.008C16.1561 135.643 16.8037 136.279 17.471 136.934C19.422 137.317 21.3858 137.645 23.3587 137.898C23.3587 138.533 23.3587 139.169 23.3587 139.824C25.3017 139.347 25.3017 139.347 27.2839 138.861C27.2839 139.497 27.2839 140.133 27.2839 140.788C29.2268 140.311 29.2268 140.311 31.209 139.824C31.209 140.46 31.209 141.096 31.209 141.751C33.6377 141.274 33.6377 141.274 36.1154 140.788C36.1154 141.423 36.1154 142.059 36.1154 142.714C37.7345 142.079 39.3537 141.443 41.0219 140.788C41.3457 141.423 41.6695 142.059 42.0031 142.714C44.2813 143.107 46.5729 143.431 48.8721 143.678C48.8721 144.314 48.8721 144.949 48.8721 145.604C51.3008 145.128 51.3008 145.128 53.7786 144.641C53.7786 145.277 53.7786 145.913 53.7786 146.568C56.2072 146.091 56.2072 146.091 58.685 145.604C58.685 146.24 58.685 146.876 58.685 147.531C61.5994 148.167 64.5138 148.803 67.5166 149.458C67.8404 148.504 68.1642 147.55 68.4978 146.568C68.8217 147.522 69.1455 148.475 69.4791 149.458C71.1146 149.779 72.7501 150.1 74.3856 150.421C78.3049 151.191 78.3049 151.191 82.2243 151.96C82.8758 152.088 83.5272 152.216 84.1984 152.348C84.5222 150.758 84.8461 149.169 85.1797 147.531C85.8273 147.849 86.475 148.167 87.1423 148.494C87.1423 149.448 87.1423 150.402 87.1423 151.385C87.7899 151.702 88.4376 152.02 89.1048 152.348C89.5906 151.394 89.5906 151.394 90.0861 150.421C91.5433 151.375 91.5433 151.375 93.03 152.348C93.3538 152.03 93.6776 151.712 94.0113 151.385C94.8006 151.424 95.5899 151.464 96.4031 151.505C97.2329 151.465 98.0627 151.426 98.9177 151.385C99.5653 150.431 100.213 149.477 100.88 148.494C100.233 148.494 99.585 148.494 98.9177 148.494C98.5939 147.859 98.27 147.223 97.9364 146.568C96.3173 146.886 94.6982 147.204 93.03 147.531C92.7062 146.895 92.3823 146.26 92.0487 145.604C90.7534 145.604 89.4581 145.604 88.1235 145.604C88.7394 142.783 89.6801 140.44 91.0674 137.898C92.0389 137.898 93.0104 137.898 94.0113 137.898C94.0113 138.533 94.0113 139.169 94.0113 139.824C93.0398 140.301 93.0398 140.301 92.0487 140.788C91.7249 141.741 91.401 142.695 91.0674 143.678C92.6865 143.36 94.3056 143.042 95.9738 142.714C95.9738 143.35 95.9738 143.986 95.9738 144.641C97.593 144.641 99.2121 144.641 100.88 144.641C100.88 144.005 100.88 143.369 100.88 142.714C102.823 143.191 102.823 143.191 104.805 143.678C104.249 139.699 104.249 139.699 102.843 135.971C103.814 135.017 104.786 134.063 105.787 133.081C104.815 133.081 103.844 133.081 102.843 133.081C102.843 132.445 102.843 131.809 102.843 131.154C106.367 129.957 109.041 130.498 112.656 131.154C110.43 135.626 108.167 140.075 105.862 144.507C104.901 146.381 103.98 148.269 103.065 150.165C102.526 151.203 101.987 152.242 101.432 153.311C100.736 154.712 100.736 154.712 100.025 156.141C97.9364 158.128 97.9364 158.128 94.0918 158.587C88.1057 158.246 82.3022 156.902 76.4708 155.599C75.272 155.338 74.0733 155.078 72.8382 154.809C70.3376 154.264 67.8378 153.716 65.3388 153.164C61.8068 152.387 58.2711 151.63 54.733 150.88C40.5767 147.866 26.5467 144.504 12.5646 140.788C12.5646 141.423 12.5646 142.059 12.5646 142.714C13.3855 142.826 14.2065 142.938 15.0523 143.053C19.3629 143.845 23.4268 145.185 27.5656 146.575C33.2481 148.4 39.0227 149.5 44.8873 150.615C48.8827 151.377 52.8588 152.215 56.8336 153.074C57.4953 153.217 58.1571 153.36 58.8389 153.507C60.8526 153.942 62.866 154.379 64.8794 154.817C80.6069 158.505 80.6069 158.505 96.5871 160.657C97.5915 160.729 98.5959 160.801 99.6307 160.875C100.367 160.922 101.103 160.97 101.862 161.018C101.862 163.561 101.862 166.105 101.862 168.725C103.157 168.407 104.452 168.089 105.787 167.762C104.715 170.917 103.631 171.983 100.788 173.719C97.0784 175.278 93.2144 175.004 89.2414 174.943C88.2834 174.943 87.3255 174.944 86.3385 174.944C83.1843 174.942 80.0311 174.912 76.8771 174.881C74.6855 174.874 72.4938 174.869 70.3021 174.865C64.5428 174.85 58.7839 174.812 53.0247 174.77C47.1443 174.73 41.2638 174.713 35.3833 174.693C23.8517 174.652 12.3205 174.586 0.789151 174.505C0.611851 169.469 0.483525 164.435 0.39835 159.397C0.362808 157.688 0.314435 155.978 0.25245 154.269C-0.352489 137.149 -0.352489 137.149 5.94097 130.001C8.63794 127.531 11.4382 125.274 14.404 123.123C17.737 120.562 20.4069 117.481 23.1747 114.356C31.8172 104.904 40.0921 106.668 52.207 108.056Z" fill="#332F2A"/>
<path d="M156.814 0.137616C156.814 8.0853 156.814 16.033 156.814 24.2215C152.928 24.6984 152.928 24.6984 148.963 25.1849C148.874 26.5242 148.874 26.5242 148.783 27.8906C148.701 29.0442 148.619 30.1979 148.534 31.3865C148.454 32.5377 148.375 33.6888 148.292 34.8749C147.982 37.7085 147.982 37.7085 147.001 38.6719C144.355 38.7424 141.734 38.7609 139.089 38.7321C137.972 38.7256 137.972 38.7256 136.833 38.7189C134.989 38.7075 133.144 38.6902 131.3 38.6719C130.145 35.129 130.284 31.7678 130.319 28.0749C128.818 28.0825 128.818 28.0825 127.287 28.0902C123.582 28.1076 119.877 28.1187 116.172 28.1279C114.567 28.1327 112.962 28.1393 111.358 28.1476C109.053 28.1593 106.749 28.1648 104.445 28.169C103.366 28.1765 103.366 28.1765 102.264 28.1841C97.1786 28.1846 97.1786 28.1846 94.9925 27.1116C94.9073 23.7801 94.8548 20.4489 94.8086 17.1168C94.7839 16.168 94.7592 15.2193 94.7338 14.2418C94.7243 13.3352 94.7148 12.4287 94.7051 11.4947C94.6896 10.6572 94.6742 9.81977 94.6583 8.95693C94.7686 8.27191 94.8789 7.58689 94.9925 6.88111C98.7368 4.43056 102.255 4.21369 106.618 3.71257C107.487 3.60838 108.356 3.5042 109.251 3.39685C111.099 3.17767 112.948 2.96253 114.797 2.7511C117.563 2.4325 120.327 2.09511 123.091 1.75575C134.423 0.410489 145.397 -0.0804512 156.814 0.137616Z" fill="#5B5133"/>
<path d="M132.281 38.6719C136.815 38.6719 141.348 38.6719 146.019 38.6719C146.019 58.7001 146.019 78.7283 146.019 99.3633C148.286 99.3633 150.553 99.3633 152.888 99.3633C153.212 99.9992 153.536 100.635 153.87 101.29C127.385 111.887 127.385 111.887 123.45 111.887C123.774 113.159 124.097 114.43 124.431 115.74C123.783 115.74 123.136 115.74 122.469 115.74C122.469 114.787 122.469 113.833 122.469 112.85C119.878 112.85 117.287 112.85 114.618 112.85C114.294 112.215 113.971 111.579 113.637 110.924C114.912 110.824 116.187 110.725 117.501 110.623C125.47 109.781 125.47 109.781 132.281 106.107C132.374 104.009 132.397 101.907 132.393 99.8072C132.393 99.1493 132.393 98.4914 132.393 97.8136C132.393 95.6295 132.385 93.4455 132.377 91.2614C132.375 89.7508 132.374 88.2403 132.373 86.7298C132.369 82.7466 132.36 78.7635 132.349 74.7804C132.339 70.7189 132.334 66.6574 132.329 62.5959C132.319 54.6212 132.302 46.6466 132.281 38.6719Z" fill="#A39E97"/>
<path d="M24.34 122.484C24.34 123.12 24.34 123.756 24.34 124.411C28.2259 124.411 32.1118 124.411 36.1154 124.411C36.1154 125.046 36.1154 125.682 36.1154 126.337C37.0869 126.019 38.0584 125.701 39.0593 125.374C39.3831 125.692 39.7069 126.01 40.0406 126.337C42.0188 126.563 44.0035 126.736 45.9896 126.879C47.6157 127 47.6157 127 49.2746 127.124C50.1133 127.182 50.9519 127.241 51.816 127.301C52.3017 129.208 52.3017 129.208 52.7973 131.154C52.7973 130.518 52.7973 129.882 52.7973 129.227C53.7688 128.909 54.7402 128.592 55.7411 128.264C56.2269 128.741 56.2269 128.741 56.7224 129.227C58.9471 129.431 61.1768 129.583 63.4074 129.709C70.9673 130.14 70.9673 130.14 74.3856 131.154C74.3856 131.79 74.3856 132.426 74.3856 133.081C76.9761 133.399 79.5667 133.717 82.2358 134.044C82.2358 134.68 82.2358 135.316 82.2358 135.971C81.2644 136.289 80.2929 136.607 79.292 136.934C78.6443 137.888 77.9967 138.842 77.3294 139.824C76.0341 139.188 74.7388 138.553 73.4043 137.898C74.0519 137.898 74.6996 137.898 75.3668 137.898C74.8811 136.467 74.8811 136.467 74.3856 135.008C73.4141 135.325 72.4426 135.643 71.4417 135.971C71.9274 137.401 71.9274 137.401 72.423 138.861C70.8284 139.523 70.8284 139.523 68.4978 139.824C66.5353 138.861 64.5727 137.898 62.6101 136.934C59.9835 136.427 57.4338 136.197 54.7598 135.971C54.2741 134.063 54.2741 134.063 53.7786 132.117C53.7786 135.766 54.196 139.116 54.7598 142.714C56.0551 143.032 57.3504 143.35 58.685 143.678C58.1993 145.108 58.1993 145.108 57.7037 146.568C54.7893 146.25 51.8749 145.932 48.8721 145.604C48.8721 144.969 48.8721 144.333 48.8721 143.678C48.1435 143.876 47.4149 144.075 46.6642 144.28C43.6034 144.69 42.6365 144.208 40.0406 142.714C39.3929 142.714 38.7453 142.714 38.078 142.714C37.4303 142.714 36.7827 142.714 36.1154 142.714C36.1154 142.079 36.1154 141.443 36.1154 140.788C34.4963 141.106 32.8772 141.423 31.209 141.751C31.209 141.115 31.209 140.479 31.209 139.824C29.9137 140.142 28.6184 140.46 27.2839 140.788C27.2839 140.152 27.2839 139.516 27.2839 138.861C25.9886 139.179 24.6933 139.497 23.3587 139.824C23.3587 139.188 23.3587 138.553 23.3587 137.898C22.5087 138.196 22.5087 138.196 21.6415 138.5C18.9115 138.946 17.848 138.281 15.5084 136.934C15.1846 136.934 14.8608 136.934 14.5271 136.934C12.5635 136.619 10.6009 136.299 8.63943 135.971C9.88955 134.007 11.2012 132.08 12.5646 130.191C13.2122 130.191 13.8599 130.191 14.5271 130.191C14.7903 129.615 15.0534 129.038 15.3244 128.445C17.43 124.637 19.6857 122.484 24.34 122.484Z" fill="#625D4E"/>
<path d="M113.637 130.191C114.608 130.509 115.58 130.827 116.581 131.154C117.599 134.152 117.759 136.447 117.873 139.595C117.914 140.672 117.955 141.749 117.997 142.859C118.036 143.984 118.074 145.108 118.114 146.267C118.156 147.402 118.199 148.538 118.242 149.708C118.347 152.515 118.447 155.321 118.543 158.128C119.11 157.79 119.677 157.453 120.261 157.104C122.469 156.201 122.469 156.201 126.394 157.165C119.917 161.298 113.441 165.43 106.768 169.688C106.444 169.053 106.12 168.417 105.787 167.762C104.491 168.08 103.196 168.397 101.862 168.725C101.862 166.182 101.862 163.638 101.862 161.018C101.228 161.061 100.594 161.103 99.9411 161.147C90.0908 161.5 80.9899 159.427 71.4417 157.345C69.7988 156.997 68.1556 156.651 66.5123 156.305C58.766 154.664 51.0501 152.946 43.3795 150.988C41.1094 150.442 38.8491 150.018 36.5447 149.638C28.3699 148.118 20.4587 145.252 12.5646 142.714C12.5646 142.079 12.5646 141.443 12.5646 140.788C19.5092 141.384 26.0678 143.068 32.8036 144.788C47.5846 148.553 62.4248 151.741 77.402 154.664C80.0034 155.184 82.5915 155.742 85.1797 156.322C88.1394 156.978 91.0475 157.484 94.0726 157.767C95.3476 157.886 96.6227 158.005 97.9364 158.128C98.1616 157.517 98.3867 156.906 98.6187 156.277C100.388 152.178 102.516 148.308 104.683 144.4C105.109 143.603 105.535 142.806 105.975 141.984C106.396 141.227 106.817 140.469 107.251 139.689C107.629 138.998 108.007 138.307 108.397 137.596C110.008 135.605 111.118 135.355 113.637 135.008C113.637 133.418 113.637 131.828 113.637 130.191Z" fill="#5E5953"/>
<path d="M51.6397 112.188C52.6059 112.316 53.5722 112.445 54.5677 112.577C57.6173 112.983 60.6657 113.398 63.7141 113.814C65.7967 114.093 67.8793 114.371 69.9621 114.649C75.0356 115.327 80.108 116.013 85.1797 116.704C81.4214 126.015 81.4214 126.015 77.3294 129.227C66.3322 130.39 53.5104 126.615 42.6778 124.832C40.7031 124.511 38.7284 124.191 36.7536 123.871C31.9606 123.093 27.1687 122.309 22.3774 121.521C23.7685 118.712 25.1618 116.398 27.2839 114.055C27.7898 113.463 28.2958 112.872 28.8171 112.263C35.1062 108.741 44.7632 111.238 51.6397 112.188Z" fill="#EDEDED"/>
<path d="M78.3107 127.301C78.3107 130.191 78.3107 130.191 77.3294 132.117C79.2724 132.117 81.2153 132.117 83.2171 132.117C83.2171 132.753 83.2171 133.389 83.2171 134.044C84.5124 134.044 85.8077 134.044 87.1423 134.044C90.8138 134.044 94.2954 134.539 97.9364 135.008C97.9364 136.279 97.9364 137.551 97.9364 138.861C95.6696 138.861 93.4029 138.861 91.0674 138.861C90.4198 140.768 89.7721 142.676 89.1048 144.641C91.1415 145.174 92.8766 145.604 94.9925 145.604C96.3053 145.908 97.6146 146.227 98.9177 146.568C98.9177 147.204 98.9177 147.839 98.9177 148.494C99.5653 148.494 100.213 148.494 100.88 148.494C100.233 149.766 99.585 151.038 98.9177 152.348C97.2986 152.03 95.6794 151.712 94.0113 151.385C93.6874 152.656 93.3636 153.928 93.03 155.238C92.0585 154.92 91.087 154.602 90.0861 154.275C90.7338 154.275 91.3814 154.275 92.0487 154.275C92.0487 153.639 92.0487 153.003 92.0487 152.348C91.0772 152.348 90.1057 152.348 89.1048 152.348C88.1334 152.03 87.1619 151.712 86.161 151.385C86.161 150.431 86.161 149.477 86.161 148.494C85.8372 148.177 85.5133 147.859 85.1797 147.531C85.1797 149.121 85.1797 150.71 85.1797 152.348C81.741 153.473 80.7534 153.069 77.3907 151.987C74.4392 151.051 71.5168 150.159 68.4978 149.458C68.4978 148.822 68.4978 148.186 68.4978 147.531C68.174 148.167 67.8502 148.803 67.5166 149.458C63.1449 148.504 63.1449 148.504 58.685 147.531C58.3612 146.26 58.0373 144.988 57.7037 143.678C56.7322 143.36 55.7608 143.042 54.7598 142.714C54.436 140.489 54.1122 138.264 53.7786 135.971C52.8071 135.653 51.8356 135.335 50.8347 135.008C51.4823 135.008 52.13 135.008 52.7973 135.008C53.1211 133.736 53.4449 132.464 53.7786 131.154C55.0739 131.472 56.3692 131.79 57.7037 132.117C57.3799 132.753 57.0561 133.389 56.7224 134.044C56.0748 134.044 55.4271 134.044 54.7598 134.044C54.7598 134.68 54.7598 135.316 54.7598 135.971C55.6137 135.921 55.6137 135.921 56.4848 135.869C61.7143 135.691 64.8234 136.297 69.4791 138.861C70.1268 138.543 70.7744 138.225 71.4417 137.898C72.0816 135.947 72.0816 135.947 72.423 134.044C73.7183 134.362 75.0136 134.68 76.3481 135.008C76.0243 136.279 75.7005 137.551 75.3668 138.861C76.6407 137.754 76.6407 137.754 77.3294 135.008C79.7581 135.484 79.7581 135.484 82.2358 135.971C82.2358 135.335 82.2358 134.699 82.2358 134.044C79.6452 133.726 77.0546 133.408 74.3856 133.081C74.3856 131.809 74.3856 130.538 74.3856 129.227C75.6808 128.592 76.9761 127.956 78.3107 127.301Z" fill="#54504D"/>
<path d="M155.832 1.10101C156.156 1.10101 156.48 1.10101 156.814 1.10101C156.814 8.73079 156.814 16.3606 156.814 24.2216C152.928 24.6984 152.928 24.6984 148.963 25.1849C148.874 26.5242 148.874 26.5242 148.783 27.8906C148.701 29.0443 148.619 30.1979 148.534 31.3865C148.454 32.5377 148.375 33.6889 148.292 34.8749C147.982 37.7086 147.982 37.7086 147.001 38.6719C144.355 38.7424 141.734 38.7609 139.089 38.7321C137.972 38.7256 137.972 38.7256 136.833 38.7189C134.989 38.7076 133.144 38.6903 131.3 38.6719C130.972 36.4443 130.645 34.2165 130.319 31.9886C130.137 30.748 129.955 29.5075 129.767 28.2293C129.338 25.1849 129.338 25.1849 129.338 24.2216C124.115 23.9368 124.115 23.9368 119.525 26.1483C116.887 26.2687 116.887 26.2687 114.618 26.1483C113.971 24.5587 113.323 22.9692 112.656 21.3315C113.627 21.0136 114.599 20.6957 115.6 20.3681C115.6 19.7323 115.6 19.0965 115.6 18.4414C116.315 18.4638 117.031 18.4861 117.769 18.5092C127.31 18.6711 136.565 17.6814 146.019 16.5147C146.343 13.6535 146.667 10.7924 147.001 7.84451C152.766 9.6508 152.766 9.6508 153.87 10.7346C153.94 12.3589 153.952 13.9859 153.931 15.6116C153.922 16.497 153.913 17.3824 153.904 18.2947C153.893 18.9789 153.881 19.6632 153.87 20.3681C154.517 20.3681 155.165 20.3681 155.832 20.3681C155.832 14.01 155.832 7.65184 155.832 1.10101Z" fill="#38352F"/>
<path d="M46.5377 107.717C47.2876 107.797 48.0375 107.876 48.8101 107.957C50.4245 108.129 52.0386 108.303 53.6524 108.48C56.1782 108.757 58.7047 109.026 61.2316 109.293C68.4233 110.056 75.6124 110.839 82.7999 111.639C84.7327 111.854 86.6659 112.066 88.5991 112.277C90.9334 112.534 93.2671 112.796 95.5999 113.066C96.6366 113.18 97.6732 113.294 98.7414 113.411C99.6346 113.513 100.528 113.614 101.448 113.719C103.801 113.813 105.527 113.589 107.749 112.85C108.073 112.532 108.397 112.215 108.731 111.887C111.043 111.974 113.354 112.125 115.661 112.308C116.927 112.407 118.193 112.505 119.498 112.606C120.968 112.727 120.968 112.727 122.469 112.85C122.469 113.804 122.469 114.758 122.469 115.74C124.964 114.841 127.458 113.937 129.951 113.031C130.65 112.779 131.35 112.528 132.071 112.269C135.308 111.088 138.358 109.866 141.443 108.323C144.057 107.07 144.057 107.07 147.001 107.07C147.001 107.706 147.001 108.342 147.001 108.997C143.996 110.242 140.99 111.486 137.985 112.73C137.137 113.081 136.289 113.433 135.415 113.795C133.776 114.473 132.135 115.149 130.494 115.822C128.838 116.505 127.191 117.206 125.547 117.915C123.45 118.63 123.45 118.63 119.525 118.63C118.877 120.856 118.229 123.081 117.562 125.374C116.914 125.374 116.267 125.374 115.6 125.374C115.114 126.805 115.114 126.805 114.618 128.264C112.84 128.451 111.062 128.63 109.283 128.806C108.292 128.907 107.302 129.007 106.281 129.111C105.47 129.149 104.66 129.188 103.824 129.227C103.5 128.909 103.176 128.592 102.843 128.264C101.208 128.225 99.5713 128.223 97.9364 128.264C99.2317 127.946 100.527 127.628 101.862 127.301C101.376 125.393 101.376 125.393 100.88 123.447C102.176 123.447 103.471 123.447 104.805 123.447C105.291 122.017 105.291 122.017 105.787 120.557C103.52 120.557 101.253 120.557 98.9177 120.557C98.4319 119.127 98.4319 119.127 97.9364 117.667C94.6245 118.809 92.3949 119.859 90.0861 122.484C90.6512 120.186 91.2855 117.988 92.0487 115.74C91.4318 115.692 90.8149 115.644 90.1793 115.594C69.252 113.937 69.252 113.937 59.9308 112.369C57.3279 111.978 54.7519 111.668 52.1341 111.405C51.3313 111.325 50.5285 111.244 49.7013 111.161C48.1174 111.006 46.5329 110.857 44.9477 110.717C41.3029 110.359 39.2171 110.064 36.1154 108.034C39.7714 106.837 42.79 107.297 46.5377 107.717Z" fill="#0E0E0C"/>
<path d="M140.132 5.91777C140.132 9.41475 140.132 12.9117 140.132 16.5147C135.88 17.0035 131.628 17.4824 127.375 17.9597C126.177 18.0976 124.979 18.2354 123.745 18.3774C117.718 19.049 111.852 19.5834 105.787 19.4048C105.76 17.8193 105.741 16.2338 105.725 14.6482C105.714 13.7652 105.703 12.8823 105.691 11.9726C105.787 9.77119 105.787 9.77119 106.768 8.80784C109.57 8.41562 112.357 8.07949 115.17 7.78427C116.329 7.65295 116.329 7.65295 117.51 7.51897C121.298 7.11128 125.001 6.83837 128.812 6.88489C132.779 6.88059 136.035 5.83034 140.132 5.91777Z" fill="#D5D5D5"/>
<path d="M156.814 0.13764C156.49 6.8137 156.166 13.4898 155.832 20.3681C155.185 20.3681 154.537 20.3681 153.87 20.3681C153.546 17.189 153.222 14.01 152.888 10.7346C150.46 9.78084 150.46 9.78084 147.982 8.80785C147.658 11.3511 147.334 13.8944 147.001 16.5147C141.79 18.5776 136.959 18.847 131.423 19.0435C130.56 19.0808 129.697 19.118 128.809 19.1564C126.696 19.2466 124.582 19.3267 122.469 19.4048C127.899 15.8508 133.819 16.4208 140.132 16.5147C139.646 11.7461 139.646 11.7461 139.15 6.88113C136.884 6.88113 134.617 6.88113 132.281 6.88113C131.958 7.51695 131.634 8.15276 131.3 8.80785C131.3 8.17203 131.3 7.53622 131.3 6.88113C126.767 7.19904 122.233 7.51695 117.562 7.84449C118.857 7.20867 120.153 6.57286 121.487 5.91778C119.868 5.59987 118.249 5.28196 116.581 4.95442C116.581 4.63651 116.581 4.31861 116.581 3.99107C117.733 3.7992 117.733 3.7992 118.908 3.60346C119.901 3.43333 120.893 3.2632 121.917 3.08792C122.907 2.92027 123.897 2.75263 124.918 2.5799C127.305 2.30759 127.305 2.30759 128.356 1.101C137.683 -0.447389 147.402 0.0681733 156.814 0.13764Z" fill="#423E37"/>
<path d="M35.1341 107.07C37.0771 107.547 37.0771 107.547 39.0593 108.034C39.0593 108.351 39.0593 108.669 39.0593 108.997C39.7899 109.074 40.5206 109.152 41.2734 109.232C65.9635 111.859 65.9635 111.859 76.5129 113.422C80.6969 114.012 84.8949 114.415 89.1048 114.777C89.1048 118.031 88.6631 118.566 86.7129 121.039C84.9859 123.241 84.1331 124.603 83.2171 127.301C84.2835 127.388 84.2835 127.388 85.3713 127.478C90.2541 127.893 95.0777 128.332 99.899 129.227C99.899 129.863 99.899 130.499 99.899 131.154C100.547 131.472 101.194 131.79 101.862 132.117C101.376 133.548 101.376 133.548 100.88 135.008C96.8917 135.685 93.9715 136.025 90.0861 135.008C87.4548 135.379 87.4548 135.379 85.1797 135.971C85.1797 135.335 85.1797 134.699 85.1797 134.044C84.532 134.044 83.8844 134.044 83.2171 134.044C83.2171 133.408 83.2171 132.773 83.2171 132.117C81.2742 132.117 79.3312 132.117 77.3294 132.117C78.6505 126.022 81.5309 121.744 85.1797 116.704C84.3694 116.656 83.5591 116.608 82.7243 116.559C74.3693 116.024 66.0879 115.192 57.7859 114.127C55.7807 113.871 53.7745 113.625 51.7681 113.379C50.4666 113.215 49.1653 113.05 47.864 112.884C46.713 112.739 45.562 112.594 44.3761 112.444C40.8416 111.857 37.5777 110.987 34.1528 109.96C34.4767 109.007 34.8005 108.053 35.1341 107.07Z" fill="#3B3734"/>
<path d="M42.3098 126.277C45.5645 127.045 48.4477 127.514 51.816 127.301C52.1398 128.572 52.4636 129.844 52.7973 131.154C52.7973 130.518 52.7973 129.882 52.7973 129.227C53.7687 128.909 54.7402 128.592 55.7411 128.264C56.065 128.582 56.3888 128.9 56.7224 129.227C58.9471 129.431 61.1768 129.583 63.4074 129.709C70.9673 130.14 70.9673 130.14 74.3855 131.154C74.3855 131.79 74.3855 132.426 74.3855 133.081C76.9761 133.399 79.5667 133.717 82.2358 134.044C82.2358 134.68 82.2358 135.316 82.2358 135.971C81.2644 136.289 80.2929 136.607 79.292 136.934C78.6443 137.888 77.9967 138.842 77.3294 139.824C76.0341 139.188 74.7388 138.553 73.4043 137.898C74.0519 137.898 74.6996 137.898 75.3668 137.898C74.8811 136.467 74.8811 136.467 74.3855 135.008C73.4141 135.325 72.4426 135.643 71.4417 135.971C71.9274 137.401 71.9274 137.401 72.423 138.861C70.8284 139.523 70.8284 139.523 68.4978 139.824C66.5353 138.861 64.5727 137.898 62.6101 136.934C59.9835 136.427 57.4338 136.197 54.7598 135.971C54.436 134.699 54.1122 133.428 53.7786 132.117C53.7786 133.389 53.7786 134.661 53.7786 135.971C52.7973 138.138 52.7973 138.138 51.816 139.824C50.1969 139.824 48.5777 139.824 46.9096 139.824C46.9096 138.871 46.9096 137.917 46.9096 136.934C46.2619 136.298 45.6143 135.663 44.947 135.008C44.947 134.69 44.947 134.372 44.947 134.044C42.0326 133.567 42.0326 133.567 39.0593 133.081C39.0593 133.717 39.0593 134.352 39.0593 135.008C39.7069 135.643 40.3546 136.279 41.0218 136.934C37.947 137.94 37.1068 137.834 34.1528 136.934C34.4767 135.663 34.8005 134.391 35.1341 133.081C35.7818 133.081 36.4294 133.081 37.0967 133.081C37.7636 130.771 37.7636 130.771 38.078 128.264C37.4303 127.628 36.7827 126.992 36.1154 126.337C38.6528 125.092 39.6007 125.593 42.3098 126.277Z" fill="#A3A4A4"/>
<path d="M156.814 23.2582C153.783 24.9581 152.66 25.1849 148.963 25.1849C148.874 26.5242 148.874 26.5242 148.783 27.8906C148.701 29.0442 148.619 30.1979 148.534 31.3865C148.454 32.5377 148.375 33.6888 148.292 34.8749C147.982 37.7085 147.982 37.7085 147.001 38.6719C144.355 38.7424 141.734 38.7609 139.089 38.7321C138.345 38.7277 137.6 38.7234 136.833 38.7189C134.989 38.7075 133.144 38.6902 131.3 38.6719C130.273 35.082 130.246 31.803 130.319 28.075C131.614 28.075 132.909 28.075 134.244 28.075C134.244 28.7108 134.244 29.3466 134.244 30.0017C137.968 29.0694 137.968 29.0694 141.113 27.1116C139.17 26.4758 137.227 25.84 135.225 25.1849C135.225 25.8207 135.225 26.4565 135.225 27.1116C133.93 26.7937 132.635 26.4758 131.3 26.1482C132.272 26.1482 133.243 26.1482 134.244 26.1482C134.244 25.5124 134.244 24.8766 134.244 24.2215C136.835 24.5394 139.425 24.8573 142.094 25.1849C142.094 24.5491 142.094 23.9133 142.094 23.2582C147.054 20.337 151.551 21.9539 156.814 23.2582Z" fill="#3E3B34"/>
<path d="M90.0861 134.044C92.6767 134.362 95.2673 134.68 97.9364 135.008C97.9364 136.279 97.9364 137.551 97.9364 138.861C95.6696 138.861 93.4029 138.861 91.0674 138.861C90.4198 140.768 89.7721 142.676 89.1048 144.641C91.1415 145.174 92.8766 145.604 94.9926 145.604C96.3053 145.908 97.6146 146.227 98.9177 146.568C98.9177 147.204 98.9177 147.839 98.9177 148.495C99.5653 148.495 100.213 148.495 100.88 148.495C100.233 149.766 99.585 151.038 98.9177 152.348C97.2986 152.03 95.6795 151.712 94.0113 151.385C93.6874 152.656 93.3636 153.928 93.03 155.238C92.0585 154.92 91.087 154.602 90.0861 154.275C90.7338 154.275 91.3814 154.275 92.0487 154.275C92.0487 153.639 92.0487 153.003 92.0487 152.348C91.0772 152.348 90.1058 152.348 89.1048 152.348C88.1334 152.03 87.1619 151.712 86.161 151.385C86.161 150.431 86.161 149.477 86.161 148.495C85.8372 148.177 85.5133 147.859 85.1797 147.531C85.1797 149.121 85.1797 150.71 85.1797 152.348C81.0086 153.713 78.5869 152.534 74.3856 151.385C74.7094 150.113 75.0332 148.841 75.3668 147.531C75.9538 147.71 76.5407 147.889 77.1454 148.073C79.453 148.707 79.453 148.707 82.2358 147.531C82.2358 146.895 82.2358 146.26 82.2358 145.604C80.9405 145.922 79.6452 146.24 78.3107 146.568C78.3107 145.296 78.3107 144.025 78.3107 142.714C80.5775 143.032 82.8442 143.35 85.1797 143.678C85.2607 143.161 85.3416 142.645 85.425 142.112C86.4198 139.02 88.1938 136.681 90.0861 134.044Z" fill="#4C4742"/>
<path d="M109.712 4.95443C106.474 5.59025 103.235 6.22606 99.899 6.88114C99.5751 9.4244 99.2513 11.9677 98.9177 14.588C97.9462 14.588 96.9747 14.588 95.9738 14.588C95.9738 15.5417 95.9738 16.4954 95.9738 17.4781C96.9453 17.4781 97.9168 17.4781 98.9177 17.4781C99.2415 19.7034 99.5653 21.9288 99.899 24.2216C101.476 24.2048 101.476 24.2048 103.084 24.1877C104.455 24.1787 105.826 24.1699 107.197 24.1613C107.891 24.1533 108.585 24.1452 109.3 24.1369C111.073 24.1286 112.846 24.1713 114.618 24.2216C114.942 24.5395 115.266 24.8574 115.6 25.1849C115.6 24.867 115.6 24.5491 115.6 24.2216C121.2 23.2654 126.604 23.1573 132.281 23.2582C131.266 25.6351 131.266 25.6351 129.338 28.075C126.694 28.5286 124.672 28.663 122.035 28.5792C120.97 28.5724 120.97 28.5724 119.884 28.5655C117.617 28.5449 115.352 28.4904 113.085 28.4362C111.555 28.4203 110.025 28.4065 108.495 28.3948C97.341 28.2644 97.341 28.2644 94.9925 27.1116C94.9073 23.7802 94.8548 20.449 94.8086 17.1168C94.7839 16.168 94.7592 15.2193 94.7338 14.2418C94.7243 13.3353 94.7148 12.4287 94.7051 11.4947C94.6896 10.6573 94.6742 9.8198 94.6583 8.95697C94.7686 8.27195 94.8789 7.58692 94.9925 6.88114C99.8044 3.73184 104.276 3.62034 109.712 4.95443Z" fill="#4D4943"/>
<path d="M30.2277 102.253C32.4359 102.39 34.6437 102.531 36.8514 102.675C38.6957 102.792 38.6957 102.792 40.5772 102.912C43.9657 103.217 43.9657 103.217 45.8899 103.702C49.0845 104.465 52.3461 104.503 55.6185 104.662C60.2977 104.892 64.8667 105.255 69.4791 106.107C69.4791 106.425 69.4791 106.743 69.4791 107.07C70.142 107.048 70.8048 107.025 71.4877 107.002C72.8007 106.976 72.8007 106.976 74.1402 106.95C75.4381 106.916 75.4381 106.916 76.7621 106.882C79.4034 107.078 80.9592 107.681 83.2171 108.997C83.2171 109.633 83.2171 110.269 83.2171 110.924C77.3784 112.045 72.2176 111.663 66.3359 110.961C65.3943 110.855 64.4526 110.749 63.4825 110.64C61.5027 110.416 59.5234 110.187 57.5446 109.955C54.5117 109.599 51.4775 109.255 48.4428 108.914C46.5159 108.694 44.5891 108.473 42.6624 108.252C41.7547 108.148 40.847 108.045 39.9119 107.938C39.0698 107.839 38.2278 107.74 37.3602 107.637C36.2506 107.508 36.2506 107.508 35.1185 107.375C33.1716 107.07 33.1716 107.07 30.2277 106.107C30.2277 104.835 30.2277 103.564 30.2277 102.253Z" fill="#A4A09B"/>
<path d="M12.5646 140.788C19.5094 141.384 26.0682 143.068 32.8041 144.788C45.5169 148.027 58.2608 150.893 71.1434 153.404C76.5561 154.462 81.8698 155.557 87.1423 157.165C87.1423 157.483 87.1423 157.801 87.1423 158.128C81.8371 159.165 77.629 158.85 72.3578 157.601C71.2451 157.353 71.2451 157.353 70.1099 157.1C67.7503 156.57 65.395 156.025 63.0394 155.479C61.4854 155.127 59.931 154.775 58.3764 154.425C56.0799 153.908 53.7839 153.389 51.4892 152.863C46.8657 151.805 42.233 150.819 37.5835 149.876C31.9431 148.702 26.499 147.201 21.0282 145.424C19.7873 145.03 19.7873 145.03 18.5213 144.628C16.5338 143.996 14.5488 143.356 12.5646 142.714C12.5646 142.079 12.5646 141.443 12.5646 140.788Z" fill="#635F57"/>
<path d="M92.0487 115.74C101.344 116.147 110.41 116.64 119.525 118.63C118.877 120.856 118.229 123.081 117.562 125.374C116.914 125.374 116.267 125.374 115.6 125.374C115.276 126.328 114.952 127.281 114.618 128.264C112.84 128.451 111.062 128.63 109.283 128.806C107.797 128.957 107.797 128.957 106.281 129.111C105.065 129.168 105.065 129.168 103.824 129.227C103.5 128.909 103.176 128.592 102.843 128.264C101.208 128.225 99.5713 128.223 97.9364 128.264C99.2317 127.946 100.527 127.628 101.862 127.301C101.538 126.029 101.214 124.757 100.88 123.447C102.176 123.447 103.471 123.447 104.805 123.447C105.129 122.494 105.453 121.54 105.787 120.557C103.52 120.557 101.253 120.557 98.9177 120.557C98.5939 119.603 98.27 118.65 97.9364 117.667C94.6245 118.809 92.3949 119.859 90.0861 122.484C90.6512 120.186 91.2855 117.988 92.0487 115.74Z" fill="#36332F"/>
<path d="M24.34 122.484C24.34 123.12 24.34 123.756 24.34 124.411C25.3924 124.391 26.4449 124.371 27.5292 124.35C30.3728 124.397 32.4711 124.537 35.1341 125.374C35.1341 126.01 35.1341 126.646 35.1341 127.301C34.1627 127.778 34.1627 127.778 33.1716 128.264C32.8477 129.218 32.5239 130.171 32.1903 131.154C32.8379 131.79 33.4856 132.426 34.1529 133.081C33.829 134.035 33.5052 134.988 33.1716 135.971C16.6812 134.138 16.6812 134.138 12.5646 132.117C12.5646 131.482 12.5646 130.846 12.5646 130.191C13.2122 130.191 13.8599 130.191 14.5271 130.191C14.7903 129.615 15.0534 129.038 15.3244 128.445C17.43 124.637 19.6857 122.484 24.34 122.484Z" fill="#737270"/>
<path d="M113.637 130.191C114.608 130.509 115.58 130.827 116.581 131.154C114.788 135.998 112.291 140.461 109.834 145.002C109.195 146.194 109.195 146.194 108.543 147.411C106.073 151.998 103.53 156.529 100.88 161.018C94.278 161.233 88.575 160.97 82.2358 159.091C82.2358 158.774 82.2358 158.456 82.2358 158.128C87.7086 157.099 92.4357 157.332 97.9364 158.128C98.2741 157.212 98.2741 157.212 98.6187 156.277C100.388 152.178 102.516 148.308 104.683 144.4C105.109 143.603 105.535 142.806 105.975 141.984C106.396 141.227 106.817 140.469 107.251 139.689C107.629 138.998 108.007 138.307 108.397 137.596C110.008 135.605 111.118 135.355 113.637 135.008C113.637 133.418 113.637 131.828 113.637 130.191Z" fill="#6C685F"/>
<path d="M147.001 3.99107C147.001 8.12387 147.001 12.2567 147.001 16.5147C140.377 18.6823 140.377 18.6823 136.46 18.8403C135.637 18.8776 134.815 18.9148 133.968 18.9532C132.708 18.9979 132.708 18.9979 131.423 19.0435C130.129 19.0994 130.129 19.0994 128.809 19.1564C126.696 19.2466 124.582 19.3267 122.469 19.4048C127.899 15.8508 133.819 16.4208 140.132 16.5147C139.646 11.7461 139.646 11.7461 139.15 6.88114C136.884 6.88114 134.617 6.88114 132.281 6.88114C131.958 7.51696 131.634 8.15277 131.3 8.80786C131.3 8.17204 131.3 7.53623 131.3 6.88114C126.767 7.19905 122.233 7.51696 117.562 7.8445C120.765 6.27212 122.141 5.65818 125.458 5.30816C126.207 5.22744 126.956 5.14673 127.728 5.06356C128.889 4.94993 128.889 4.94993 130.073 4.83401C130.832 4.75081 131.591 4.66761 132.373 4.58188C137.276 4.07317 142.072 3.91375 147.001 3.99107Z" fill="#6A5E3C"/>
<path d="M75.3093 116.61C77.0682 116.626 77.0682 116.626 78.8627 116.644C80.6254 116.657 80.6254 116.657 82.4237 116.67C83.3332 116.681 84.2426 116.692 85.1797 116.704C83.3374 121.454 81.5289 126.049 77.3294 129.227C73.5711 129.603 70.2035 129.084 66.5353 128.264C67.5067 127.628 68.4782 126.992 69.4791 126.337C68.1838 126.337 66.8885 126.337 65.554 126.337C65.554 125.702 65.554 125.066 65.554 124.411C67.1731 124.093 68.7922 123.775 70.4604 123.447C70.6021 122.513 70.7438 121.58 70.8897 120.617C71.617 116.73 71.617 116.73 75.3093 116.61Z" fill="#F5F5F5"/>
<path d="M61.6288 130.191C63.0189 130.165 64.4091 130.146 65.7993 130.131C66.9605 130.114 66.9605 130.114 68.1452 130.097C70.3691 130.187 72.2551 130.545 74.3855 131.154C74.3855 131.79 74.3855 132.426 74.3855 133.081C76.9761 133.399 79.5667 133.717 82.2358 134.044C82.2358 134.68 82.2358 135.316 82.2358 135.971C81.2644 136.289 80.2929 136.607 79.292 136.934C78.3205 138.365 78.3205 138.365 77.3294 139.824C76.0341 139.189 74.7388 138.553 73.4043 137.898C74.0519 137.898 74.6996 137.898 75.3668 137.898C75.043 136.944 74.7192 135.99 74.3855 135.008C73.4141 135.325 72.4426 135.643 71.4417 135.971C71.7655 136.925 72.0893 137.878 72.423 138.861C70.8284 139.523 70.8284 139.523 68.4978 139.824C66.5353 138.861 64.5727 137.898 62.6101 136.934C59.9835 136.427 57.4338 136.197 54.7598 135.971C54.7598 134.699 54.7598 133.428 54.7598 132.117C58.16 131.641 58.16 131.641 61.6288 131.154C61.6288 130.836 61.6288 130.518 61.6288 130.191Z" fill="#8D8D8C"/>
<path d="M53.7786 131.154C55.0739 131.472 56.3692 131.79 57.7037 132.117C57.3799 132.753 57.0561 133.389 56.7224 134.044C56.0748 134.044 55.4271 134.044 54.7598 134.044C54.7598 134.68 54.7598 135.316 54.7598 135.971C55.3746 135.96 55.9894 135.949 56.6228 135.937C57.4247 135.928 58.2267 135.92 59.053 135.911C59.8499 135.9 60.6468 135.888 61.4678 135.877C63.5914 135.971 63.5914 135.971 65.554 136.934C66.1673 138.921 66.1673 138.921 66.5353 140.788C65.24 140.788 63.9447 140.788 62.6101 140.788C62.934 142.059 63.2578 143.331 63.5914 144.641C66.5058 145.118 66.5058 145.118 69.4791 145.604C68.8315 146.876 68.1838 148.148 67.5166 149.458C63.1449 148.504 63.1449 148.504 58.685 147.531C58.3612 146.26 58.0373 144.988 57.7037 143.678C56.7322 143.36 55.7608 143.042 54.7598 142.714C54.436 140.489 54.1122 138.264 53.7786 135.971C52.8071 135.653 51.8356 135.335 50.8347 135.008C51.4823 135.008 52.13 135.008 52.7973 135.008C53.1211 133.736 53.4449 132.464 53.7786 131.154Z" fill="#524E49"/>
<path d="M38.078 132.117C44.4638 132.591 44.4638 132.591 46.7869 134.947C47.505 136.24 48.2015 137.544 48.8721 138.861C49.8436 138.861 50.8151 138.861 51.816 138.861C51.1683 138.225 50.5207 137.589 49.8534 136.934C51.1487 136.934 52.444 136.934 53.7786 136.934C54.1024 138.842 54.4262 140.749 54.7598 142.714C56.0551 143.032 57.3504 143.35 58.685 143.678C58.3612 144.631 58.0373 145.585 57.7037 146.568C54.7893 146.25 51.8749 145.932 48.8721 145.604C48.8721 144.969 48.8721 144.333 48.8721 143.678C48.1435 143.876 47.4149 144.075 46.6642 144.28C43.6484 144.684 42.5646 144.274 40.0406 142.714C40.6882 141.443 41.3359 140.171 42.0031 138.861C40.384 137.271 38.7649 135.682 37.0967 134.044C37.4205 133.408 37.7444 132.773 38.078 132.117Z" fill="#918A6D"/>
<path d="M13.5459 149.458C15.039 149.735 16.5311 150.017 18.023 150.301C18.854 150.457 19.6851 150.614 20.5413 150.775C26.9053 152.152 33.0676 154.182 39.2433 156.201C40.0218 156.452 40.8004 156.703 41.6026 156.961C42.7325 157.33 42.7325 157.33 43.8852 157.707C44.5609 157.926 45.2366 158.146 45.9328 158.373C47.9778 159.123 49.8814 160.027 51.816 161.018C51.816 161.654 51.816 162.29 51.816 162.945C44.2428 161.601 36.8899 159.715 29.4917 157.646C28.4153 157.35 27.3388 157.053 26.2297 156.747C21.3063 155.382 16.4293 153.961 11.5833 152.348C12.2309 151.394 12.8786 150.44 13.5459 149.458Z" fill="#5A5650"/>
<path d="M99.899 130.191C101.518 130.191 103.137 130.191 104.805 130.191C103.834 130.668 103.834 130.668 102.843 131.154C102.843 131.79 102.843 132.426 102.843 133.081C103.814 132.763 104.786 132.445 105.787 132.117C105.787 135.008 105.787 135.008 105.235 137.476C104.56 139.822 104.56 139.822 105.787 141.751C105.463 142.387 105.139 143.023 104.805 143.678C103.51 143.36 102.215 143.042 100.88 142.714C100.88 143.35 100.88 143.986 100.88 144.641C97.4533 144.737 94.4093 144.428 91.0674 143.678C91.1901 141.871 91.1901 141.871 92.0487 139.824C93.9987 139.146 95.9618 138.503 97.9364 137.898C98.2602 136.944 98.5841 135.99 98.9177 135.008C99.5653 134.372 100.213 133.736 100.88 133.081C100.556 132.127 100.233 131.173 99.899 130.191Z" fill="#5C5542"/>
<path d="M119.525 118.63C120.496 118.63 121.468 118.63 122.469 118.63C121.994 123.596 119.342 127.123 116.581 131.154C115.609 130.836 114.638 130.518 113.637 130.191C113.637 131.78 113.637 133.37 113.637 135.008C112.665 134.69 111.694 134.372 110.693 134.044C111.017 133.408 111.341 132.773 111.674 132.117C110.971 132.011 110.268 131.904 109.544 131.794C106.368 131.308 103.195 130.81 100.022 130.311C98.3614 130.06 98.3614 130.06 96.6676 129.803C95.6114 129.635 94.5552 129.468 93.467 129.295C92.4906 129.144 91.5142 128.992 90.5082 128.836C88.1236 128.264 88.1236 128.264 86.161 126.337C88.2053 126.311 90.2496 126.293 92.294 126.277C93.4325 126.266 94.5709 126.255 95.7438 126.243C98.3711 126.321 100.357 126.572 102.843 127.301C107.033 128.049 110.511 128.605 114.618 127.301C114.942 126.665 115.266 126.029 115.6 125.374C116.247 125.374 116.895 125.374 117.562 125.374C117.704 124.619 117.845 123.864 117.991 123.086C118.543 120.557 118.543 120.557 119.525 118.63Z" fill="#5D5A52"/>
<path d="M78.3107 127.301C78.3107 130.191 78.3107 130.191 77.3294 132.117C79.2724 132.117 81.2153 132.117 83.2171 132.117C83.2171 132.753 83.2171 133.389 83.2171 134.044C84.5124 134.044 85.8077 134.044 87.1423 134.044C87.4661 134.044 87.7899 134.044 88.1236 134.044C88.4812 138.14 87.6929 140.388 85.1797 143.678C82.2358 144.641 82.2358 144.641 80.2119 144.099C77.4966 142.121 77.0884 140.105 76.3481 136.934C76.672 136.298 76.9958 135.663 77.3294 135.008C78.9485 135.325 80.5677 135.643 82.2358 135.971C82.2358 135.335 82.2358 134.699 82.2358 134.044C79.6452 133.726 77.0547 133.408 74.3856 133.081C74.3856 131.809 74.3856 130.538 74.3856 129.227C75.6809 128.592 76.9762 127.956 78.3107 127.301Z" fill="#6B6865"/>
<path d="M50.2827 125.092C51.4844 125.26 52.6861 125.428 53.9242 125.602C55.7951 125.876 55.7951 125.876 57.7037 126.157C58.9509 126.329 60.1982 126.501 61.4832 126.678C71.6129 128.128 71.6129 128.128 76.3481 130.191C73.1551 132.281 72.8317 132.326 69.2951 131.816C68.5185 131.711 67.7418 131.605 66.9416 131.497C66.1599 131.384 65.3781 131.271 64.5727 131.154C63.1624 130.991 61.7518 130.831 60.3409 130.672C57.7315 130.325 55.3151 129.948 52.7973 129.227C52.7973 129.863 52.7973 130.499 52.7973 131.154C51.8258 130.836 50.8543 130.518 49.8534 130.191C50.5011 130.191 51.1487 130.191 51.816 130.191C51.4922 129.555 51.1683 128.919 50.8347 128.264C48.3276 127.886 48.3276 127.886 45.4376 127.782C42.4631 127.632 42.4631 127.632 40.0406 127.301C39.7167 126.665 39.3929 126.029 39.0593 125.374C43.0474 124.358 46.2184 124.519 50.2827 125.092Z" fill="#4B4745"/>
<path d="M114.618 4.95438C114.618 5.27229 114.618 5.5902 114.618 5.91774C112.999 5.91774 111.38 5.91774 109.712 5.91774C109.712 6.55355 109.712 7.18937 109.712 7.84445C106.474 8.16236 103.235 8.48027 99.899 8.80781C99.899 12.9406 99.899 17.0734 99.899 21.3314C103.461 21.3314 107.023 21.3314 110.693 21.3314C111.017 22.2852 111.341 23.2389 111.674 24.2215C109.733 24.4084 107.791 24.5876 105.848 24.7634C104.766 24.864 103.685 24.9646 102.571 25.0682C101.689 25.1067 100.807 25.1452 99.899 25.1849C98.9177 24.2215 98.9177 24.2215 98.8564 20.7896C98.8766 19.6967 98.8968 18.6039 98.9177 17.478C97.9462 17.478 96.9747 17.478 95.9738 17.478C95.9738 16.5243 95.9738 15.5706 95.9738 14.5879C96.9453 14.5879 97.9168 14.5879 98.9177 14.5879C98.8974 13.3362 98.8772 12.0844 98.8564 10.7947C98.8353 9.4902 98.8475 8.18398 98.9177 6.8811C102.131 3.72609 110.28 4.87966 114.618 4.95438Z" fill="#31302C"/>
<path d="M109.773 8.74762C111.2 8.77742 111.2 8.77742 112.656 8.80783C112.656 9.76155 112.656 10.7153 112.656 11.6979C114.275 11.6979 115.894 11.6979 117.562 11.6979C117.886 12.3337 118.21 12.9695 118.543 13.6246C116.924 13.9425 115.305 14.2604 113.637 14.588C113.313 13.9522 112.989 13.3163 112.656 12.6613C112.656 13.615 112.656 14.5687 112.656 15.5513C113.627 15.5513 114.599 15.5513 115.6 15.5513C115.6 16.505 115.6 17.4588 115.6 18.4414C112.445 19.9898 109.284 19.4601 105.787 19.4047C105.76 17.8193 105.741 16.2338 105.725 14.6482C105.714 13.7652 105.703 12.8823 105.691 11.9726C105.839 8.56955 106.234 8.81853 109.773 8.74762Z" fill="#CAC9CC"/>
<path d="M121.487 7.84448C121.811 10.0698 122.135 12.2952 122.469 14.588C123.116 14.588 123.764 14.588 124.431 14.588C125.744 14.8912 127.053 15.2102 128.356 15.5513C126.615 17.7151 125.821 18.394 122.978 18.7236C122.102 18.6901 121.225 18.6566 120.322 18.622C119.438 18.5959 118.554 18.5699 117.643 18.543C116.968 18.5095 116.294 18.4759 115.6 18.4414C115.6 17.4877 115.6 16.534 115.6 15.5513C114.628 15.5513 113.657 15.5513 112.656 15.5513C112.656 14.5976 112.656 13.6439 112.656 12.6613C113.951 12.9792 115.246 13.2971 116.581 13.6246C115.453 12.374 115.453 12.374 112.656 11.6979C112.656 10.7442 112.656 9.79046 112.656 8.80784C115.557 7.38368 118.291 7.78636 121.487 7.84448Z" fill="#9B96AD"/>
<path d="M130.179 0.991638C130.955 0.996683 131.731 1.00173 132.531 1.00693C133.788 1.01158 133.788 1.01158 135.07 1.01633C135.951 1.02441 136.832 1.03248 137.74 1.04079C138.625 1.04514 139.509 1.04949 140.421 1.05396C142.614 1.06536 144.807 1.08123 147.001 1.101C146.677 2.05473 146.353 3.00845 146.019 3.99107C126.115 6.8745 126.115 6.8745 116.581 4.95443C116.581 4.63652 116.581 4.31861 116.581 3.99107C117.733 3.79921 117.733 3.79921 118.908 3.60347C119.901 3.43334 120.893 3.26321 121.917 3.08793C122.907 2.92028 123.897 2.75263 124.918 2.57991C127.274 2.08551 127.921 1.12711 130.179 0.991638Z" fill="#413E37"/>
<path d="M132.281 23.2582C131.27 25.6372 131.27 25.6372 129.338 28.075C126.672 28.5158 124.623 28.6406 121.966 28.5454C121.252 28.5386 120.537 28.5317 119.801 28.5247C117.52 28.4978 115.242 28.4373 112.962 28.376C111.416 28.3519 109.869 28.3299 108.322 28.3102C104.532 28.2571 100.744 28.174 96.9551 28.075C96.9551 27.7571 96.9551 27.4392 96.9551 27.1116C101.812 26.7937 106.67 26.4758 111.674 26.1483C111.674 25.5125 111.674 24.8766 111.674 24.2216C112.646 24.2216 113.617 24.2216 114.618 24.2216C114.942 24.5395 115.266 24.8574 115.6 25.1849C115.6 24.867 115.6 24.5491 115.6 24.2216C121.2 23.2654 126.604 23.1573 132.281 23.2582Z" fill="#69665F"/>
<path d="M60.4022 113.513C61.4951 113.662 61.4951 113.662 62.6101 113.814C62.934 114.449 63.2578 115.085 63.5914 115.74C62.2961 117.33 61.0008 118.919 59.6663 120.557C60.3139 120.875 60.9616 121.193 61.6288 121.521C61.305 122.474 60.9812 123.428 60.6476 124.411C59.3523 124.411 58.057 124.411 56.7224 124.411C56.7224 125.046 56.7224 125.682 56.7224 126.337C54.4557 126.019 52.1889 125.701 49.8534 125.374C56.2262 113.979 56.2262 113.979 60.4022 113.513Z" fill="#EDEDED"/>
<path d="M12.5646 140.788C19.4583 141.437 25.9831 143.006 32.6809 144.701C33.7688 144.973 34.8566 145.244 35.9774 145.524C38.6413 146.189 41.304 146.858 43.9657 147.531C40.4616 149.825 38.194 149.986 34.1529 149.458C30.3481 148.514 26.6469 147.316 22.9294 146.086C21.9307 145.764 20.9321 145.443 19.9031 145.111C17.4538 144.321 15.008 143.522 12.5646 142.714C12.5646 142.079 12.5646 141.443 12.5646 140.788Z" fill="#524F49"/>
<path d="M35.1341 107.07C35.1341 107.706 35.1341 108.342 35.1341 108.997C36.1056 109.633 37.0771 110.269 38.078 110.924C37.0863 110.943 36.0946 110.963 35.0728 110.984C30.7568 111.55 28.7618 113.884 25.9844 117.001C24.2245 118.745 22.639 119.476 20.4149 120.557C18.5014 122.204 18.5014 122.204 16.735 124.049C15.8319 124.962 15.8319 124.962 14.9105 125.893C14.4601 126.358 14.0098 126.822 13.5459 127.301C12.8982 126.983 12.2506 126.665 11.5833 126.337C12.3138 125.637 12.3138 125.637 13.059 124.922C16.5282 121.562 19.8874 118.177 23.0521 114.536C29.639 107.07 29.639 107.07 35.1341 107.07Z" fill="#595551"/>
<path d="M78.3107 142.714C81.2251 143.032 84.1395 143.35 87.1423 143.678C85.8965 150.357 85.8965 150.357 85.1797 152.348C81.0086 153.713 78.5869 152.534 74.3856 151.385C74.7094 150.113 75.0332 148.841 75.3668 147.531C75.9538 147.71 76.5407 147.889 77.1454 148.073C79.453 148.707 79.453 148.707 82.2358 147.531C82.2358 146.895 82.2358 146.26 82.2358 145.604C80.9405 145.922 79.6452 146.24 78.3107 146.568C78.3107 145.296 78.3107 144.025 78.3107 142.714Z" fill="#A8A493"/>
<path d="M124.431 123.447C125.403 123.447 126.374 123.447 127.375 123.447C127.46 127.24 127.513 131.033 127.559 134.827C127.584 135.905 127.608 136.984 127.634 138.095C127.643 139.129 127.653 140.163 127.662 141.228C127.686 142.658 127.686 142.658 127.709 144.117C127.375 146.568 127.375 146.568 126.008 148.347C124.431 149.458 124.431 149.458 122.469 149.458C122.624 148.768 122.78 148.079 122.94 147.369C123.435 144.722 123.648 142.221 123.76 139.535C123.801 138.594 123.843 137.653 123.885 136.684C123.923 135.713 123.962 134.743 124.002 133.743C124.065 132.259 124.065 132.259 124.13 130.746C124.234 128.313 124.334 125.88 124.431 123.447Z" fill="#20201C"/>
<path d="M147.001 3.99107C147.001 8.12387 147.001 12.2567 147.001 16.5147C146.677 16.5147 146.353 16.5147 146.019 16.5147C146.019 13.9714 146.019 11.4282 146.019 8.80786C145.088 8.66877 144.157 8.52969 143.198 8.38639C140.132 7.8445 140.132 7.8445 138.169 6.88114C136.207 6.84262 134.243 6.83927 132.281 6.88114C131.958 7.51696 131.634 8.15277 131.3 8.80786C131.3 8.17204 131.3 7.53623 131.3 6.88114C126.767 7.19905 122.233 7.51696 117.562 7.8445C120.765 6.27212 122.141 5.65818 125.458 5.30816C126.207 5.22744 126.956 5.14673 127.728 5.06356C128.889 4.94993 128.889 4.94993 130.073 4.83401C130.832 4.75081 131.591 4.66761 132.373 4.58188C137.276 4.07317 142.072 3.91375 147.001 3.99107Z" fill="#5F5432"/>
<path d="M85.1797 116.704C83.6626 121.47 80.9896 125.761 77.3294 129.227C74.0176 129.709 74.0176 129.709 71.4417 129.227C71.9274 128.81 72.4132 128.393 72.9136 127.963C74.7115 126.34 74.7115 126.34 74.3856 123.447C75.6808 122.811 76.9761 122.176 78.3107 121.521C78.3107 120.567 78.3107 119.613 78.3107 118.63C81.2546 116.704 81.2546 116.704 85.1797 116.704Z" fill="#EEEEEE"/>
<path d="M24.34 122.484C24.34 123.12 24.34 123.756 24.34 124.411C25.3924 124.391 26.4449 124.371 27.5292 124.35C30.3729 124.397 32.4711 124.537 35.1341 125.374C35.1341 126.01 35.1341 126.646 35.1341 127.301C34.1627 127.778 34.1627 127.778 33.1716 128.264C32.8478 129.218 32.5239 130.171 32.1903 131.154C32.8379 131.79 33.4856 132.426 34.1529 133.081C33.829 134.035 33.5052 134.988 33.1716 135.971C31.8763 135.971 30.581 135.971 29.2464 135.971C29.2464 134.699 29.2464 133.428 29.2464 132.117C28.275 131.8 27.3035 131.482 26.3026 131.154C27.274 131.154 28.2455 131.154 29.2464 131.154C28.1189 129.904 28.1189 129.904 25.3213 129.227C25.9689 129.227 26.6166 129.227 27.2839 129.227C27.6077 128.274 27.9315 127.32 28.2651 126.337C24.7031 126.337 21.141 126.337 17.471 126.337C19.5907 123.216 20.5284 122.484 24.34 122.484Z" fill="#A5A5A5"/>
<path d="M69.4791 114.777C72.7174 115.095 75.9556 115.413 79.292 115.74C79.292 116.058 79.292 116.376 79.292 116.704C77.0252 117.022 74.7584 117.34 72.423 117.667C71.7753 119.575 71.1277 121.482 70.4604 123.447C68.8413 123.765 67.2222 124.083 65.554 124.411C65.554 125.046 65.554 125.682 65.554 126.337C67.1731 126.019 68.7922 125.701 70.4604 125.374C70.1366 126.01 69.8128 126.646 69.4791 127.301C65.3838 128.601 61.8846 128.025 57.7037 127.301C57.7037 126.983 57.7037 126.665 57.7037 126.337C58.5537 126.198 59.4038 126.059 60.2796 125.916C65.035 123.755 66.9951 120.159 69.4791 115.74C69.4791 115.422 69.4791 115.105 69.4791 114.777Z" fill="#D9D6D6"/>
<path d="M49.8534 136.934C51.1487 136.934 52.444 136.934 53.7786 136.934C54.1024 138.842 54.4262 140.749 54.7599 142.714C56.0551 143.032 57.3504 143.35 58.685 143.678C58.3612 144.631 58.0373 145.585 57.7037 146.568C54.7893 146.25 51.8749 145.932 48.8721 145.604C48.5483 144.333 48.2245 143.061 47.8909 141.751C47.2432 141.115 46.5956 140.479 45.9283 139.824C47.8712 139.506 49.8142 139.188 51.816 138.861C51.1683 138.225 50.5207 137.589 49.8534 136.934Z" fill="#867E5D"/>
<path d="M113.637 130.191C114.608 130.509 115.58 130.827 116.581 131.154C114.78 136.012 112.288 140.501 109.834 145.063C109.408 145.865 108.982 146.668 108.543 147.495C106.203 151.859 103.759 156.013 100.88 160.055C100.233 159.737 99.585 159.419 98.9177 159.091C99.2744 158.499 99.6311 157.906 99.9986 157.295C101.61 154.608 103.208 151.913 104.805 149.217C105.648 147.818 105.648 147.818 106.507 146.391C107.039 145.491 107.57 144.59 108.117 143.663C108.611 142.835 109.104 142.008 109.612 141.155C110.968 138.699 110.968 138.699 110.693 135.008C111.665 135.008 112.636 135.008 113.637 135.008C113.637 133.418 113.637 131.828 113.637 130.191Z" fill="#AEABA3"/>
<path d="M145.038 76.2428C145.362 76.2428 145.686 76.2428 146.019 76.2428C146.019 83.8726 146.019 91.5024 146.019 99.3633C148.286 99.3633 150.553 99.3633 152.888 99.3633C153.212 99.9992 153.536 100.635 153.87 101.29C150.303 103.531 147.226 103.373 143.076 103.217C143.076 101.945 143.076 100.674 143.076 99.3633C143.723 99.3633 144.371 99.3633 145.038 99.3633C145.038 91.7336 145.038 84.1038 145.038 76.2428Z" fill="#95938E"/>
<path d="M34.1529 155.238C40.4989 156.357 46.0227 158.248 51.816 161.018C51.816 161.654 51.816 162.29 51.816 162.945C45.3901 161.825 39.3091 160.311 33.1716 158.128C33.4954 157.174 33.8192 156.221 34.1529 155.238Z" fill="#4C4842"/>
<path d="M147.001 28.075C147.324 28.075 147.648 28.075 147.982 28.075C148.008 29.6604 148.027 31.246 148.043 32.8316C148.055 33.7145 148.066 34.5974 148.078 35.5071C147.982 37.7085 147.982 37.7085 147.001 38.6719C144.355 38.7424 141.734 38.7609 139.089 38.7321C137.972 38.7256 137.972 38.7256 136.833 38.7189C134.989 38.7076 133.144 38.6903 131.3 38.6719C134.403 36.6409 135.722 36.4194 139.334 36.1431C140.219 36.0711 141.103 35.999 142.014 35.9248C142.688 35.8776 143.362 35.8305 144.057 35.7818C144.36 34.689 144.664 33.5962 144.977 32.4703C146.019 29.0383 146.019 29.0383 147.001 28.075Z" fill="#54524B"/>
<path d="M90.0861 134.044C92.6767 134.362 95.2673 134.68 97.9364 135.008C97.9364 136.279 97.9364 137.551 97.9364 138.861C95.6696 138.861 93.4029 138.861 91.0674 138.861C90.4198 140.133 89.7721 141.404 89.1048 142.714C87.8095 142.396 86.5142 142.079 85.1797 141.751C86.7988 139.208 88.4179 136.664 90.0861 134.044Z" fill="#A09E9B"/>
<path d="M10.602 127.301C10.9258 128.254 11.2497 129.208 11.5833 130.191C10.1765 132.159 10.1765 132.159 8.21012 134.225C7.56374 134.914 6.91735 135.603 6.25138 136.313C5.49052 137.098 5.49052 137.098 4.71429 137.898C6.65724 138.533 8.60018 139.169 10.602 139.824C7.72856 140.765 5.73862 140.867 2.75172 140.788C2.75172 142.695 2.75172 144.603 2.75172 146.568C2.10407 146.568 1.45642 146.568 0.789149 146.568C0.216092 143.136 -0.0335683 141.223 0.789149 137.898C3.70651 133.978 7.03288 130.648 10.602 127.301Z" fill="#65635B"/>
<path d="M34.1528 124.411C34.8005 124.411 35.4481 124.411 36.1154 124.411C36.1154 125.364 36.1154 126.318 36.1154 127.301C38.706 127.619 41.2966 127.936 43.9657 128.264C43.9657 128.582 43.9657 128.9 43.9657 129.227C43.1966 129.366 42.4275 129.506 41.6351 129.649C39.0944 130.073 39.0944 130.073 37.0967 131.154C36.4568 133.105 36.4568 133.105 36.1154 135.008C35.4678 135.008 34.8201 135.008 34.1528 135.008C33.829 135.643 33.5052 136.279 33.1716 136.934C33.1716 135.98 33.1716 135.027 33.1716 134.044C32.2001 133.726 31.2286 133.408 30.2277 133.081C30.2277 132.445 30.2277 131.809 30.2277 131.154C30.8754 131.154 31.523 131.154 32.1903 131.154C32.5141 129.882 32.8379 128.611 33.1716 127.301C33.8192 127.301 34.4669 127.301 35.1341 127.301C34.8103 126.347 34.4865 125.393 34.1528 124.411Z" fill="#74726F"/>
<path d="M65.554 137.898C68.4978 138.861 68.4978 138.861 70.4604 141.751C73.4575 142.919 73.4575 142.919 76.3481 143.678C74.9375 145.243 74.9375 145.243 72.423 146.568C69.3839 146.244 66.5175 145.494 63.5914 144.641C63.2676 143.369 62.9438 142.098 62.6101 140.788C63.5816 140.47 64.5531 140.152 65.554 139.824C65.554 139.188 65.554 138.553 65.554 137.898Z" fill="#383330"/>
<path d="M38.078 125.374C40.0291 125.607 40.0291 125.607 42.3098 126.217C45.5762 127.024 48.4239 127.516 51.816 127.301C51.816 128.254 51.816 129.208 51.816 130.191C51.1683 130.191 50.5207 130.191 49.8534 130.191C49.8534 130.827 49.8534 131.462 49.8534 132.117C50.5011 132.435 51.1487 132.753 51.816 133.081C51.1683 133.081 50.5207 133.081 49.8534 133.081C49.5296 134.035 49.2058 134.988 48.8721 135.971C48.2245 135.335 47.5768 134.699 46.9096 134.044C47.2334 133.726 47.5572 133.408 47.8908 133.081C45.2882 132.045 42.706 131.063 40.0406 130.191C40.6882 129.873 41.3359 129.555 42.0031 129.227C40.0602 128.592 38.1172 127.956 36.1154 127.301C36.7631 126.665 37.4107 126.029 38.078 125.374Z" fill="#757371"/>
<path d="M95.9738 161.982C97.9168 161.982 99.8597 161.982 101.862 161.982C101.862 164.207 101.862 166.432 101.862 168.725C103.157 168.407 104.452 168.089 105.787 167.762C104.559 171.378 103.269 171.847 99.899 173.542C99.2513 173.542 98.6037 173.542 97.9364 173.542C97.2888 171.952 96.6411 170.363 95.9738 168.725C97.2691 168.725 98.5644 168.725 99.899 168.725C99.899 167.453 99.899 166.182 99.899 164.872C99.2513 164.872 98.6037 164.872 97.9364 164.872C97.9364 164.236 97.9364 163.6 97.9364 162.945C97.2888 162.627 96.6411 162.309 95.9738 161.982Z" fill="#1F1E1B"/>
<path d="M137.188 5.91779C138.159 5.91779 139.131 5.91779 140.132 5.91779C140.132 9.41477 140.132 12.9118 140.132 16.5147C137.217 16.5147 134.303 16.5147 131.3 16.5147C131.624 15.561 131.948 14.6073 132.281 13.6246C133.901 13.3067 135.52 12.9888 137.188 12.6613C137.006 11.7274 136.824 10.7936 136.636 9.83142C136.494 8.85783 136.353 7.88424 136.207 6.88114C136.53 6.56323 136.854 6.24533 137.188 5.91779Z" fill="#D8D8D8"/>
<path d="M137.188 6.88115C137.188 8.78859 137.188 10.696 137.188 12.6613C135.569 12.9792 133.95 13.2971 132.281 13.6246C131.958 14.5784 131.634 15.5321 131.3 16.5147C130.976 16.5147 130.652 16.5147 130.319 16.5147C130.319 13.3356 130.319 10.1566 130.319 6.88115C134.244 5.91779 134.244 5.91779 137.188 6.88115Z" fill="#9690AC"/>
<path d="M155.832 118.63C156.156 118.63 156.48 118.63 156.814 118.63C156.92 120.94 156.998 123.244 157.059 125.555C157.092 126.203 157.125 126.852 157.159 127.521C157.229 131.065 156.906 132.937 154.958 135.96C152.888 137.898 152.888 137.898 150.926 137.898C150.742 135.188 150.742 135.188 150.926 132.117C151.391 131.69 151.857 131.263 152.336 130.823C154.456 128.618 154.573 126.714 155.035 123.748C155.191 122.791 155.346 121.833 155.506 120.847C155.614 120.115 155.721 119.384 155.832 118.63Z" fill="#79746B"/>
<path d="M91.0674 137.898C92.0389 137.898 93.0104 137.898 94.0113 137.898C94.0113 138.533 94.0113 139.169 94.0113 139.824C93.0398 140.301 93.0398 140.301 92.0487 140.788C91.7249 141.741 91.401 142.695 91.0674 143.678C92.6865 143.36 94.3056 143.042 95.9738 142.714C95.9738 143.35 95.9738 143.986 95.9738 144.641C97.593 144.641 99.2121 144.641 100.88 144.641C101.204 144.005 101.528 143.369 101.862 142.714C101.862 143.35 101.862 143.986 101.862 144.641C102.509 144.959 103.157 145.277 103.824 145.604C103.5 146.24 103.176 146.876 102.843 147.531C100.862 147.249 98.8819 146.967 96.9015 146.684C94.9127 146.406 94.9127 146.406 93.03 147.531C92.7062 146.895 92.3823 146.26 92.0487 145.604C90.7534 145.604 89.4581 145.604 88.1236 145.604C88.7394 142.783 89.6801 140.44 91.0674 137.898Z" fill="#4B463E"/>
<path d="M109.712 4.95443C106.474 5.59025 103.235 6.22606 99.899 6.88114C99.5751 9.4244 99.2513 11.9677 98.9177 14.588C97.6224 14.588 96.3271 14.588 94.9925 14.588C94.7051 8.75517 94.7051 8.75517 94.9925 6.88114C99.8044 3.73184 104.276 3.62034 109.712 4.95443Z" fill="#5C594F"/>
<path d="M49.8534 114.777C49.1096 115.248 49.1096 115.248 48.3508 115.729C47.7133 116.15 47.0758 116.571 46.4189 117.005C45.7814 117.418 45.1439 117.832 44.487 118.258C43.9912 118.699 43.4953 119.14 42.9844 119.594C42.9844 120.548 42.9844 121.501 42.9844 122.484C42.0031 123.447 42.0031 123.447 39.4886 123.507C38.6993 123.488 37.91 123.468 37.0967 123.447C38.611 119.216 40.0761 116.961 43.9044 114.536C46.3364 113.668 47.4232 114.08 49.8534 114.777Z" fill="#F4F4F4"/>
<path d="M127.375 3.02768C126.586 3.30585 125.796 3.58402 124.983 3.87061C122.338 4.69681 122.338 4.69681 121.487 6.8811C117.762 8.34382 113.649 7.90888 109.712 7.84446C109.712 6.57283 109.712 5.3012 109.712 3.99103C111.918 3.64064 114.126 3.30162 116.336 2.96747C117.565 2.77747 118.795 2.58747 120.061 2.39171C122.959 2.11171 124.686 2.07457 127.375 3.02768Z" fill="#484538"/>
<path d="M41.0219 148.495C48.0223 148.991 54.7776 149.882 61.6288 151.385C61.6288 152.02 61.6288 152.656 61.6288 153.311C54.2948 153.671 48.0661 152.387 41.0219 150.421C41.0219 149.785 41.0219 149.15 41.0219 148.495Z" fill="#5B5750"/>
<path d="M14.5271 135.008C15.2557 135.484 15.9843 135.961 16.735 136.453C19.4956 138.205 19.4956 138.205 23.3587 137.898C23.6825 139.169 24.0064 140.441 24.34 141.751C15.929 141.889 15.929 141.889 12.5646 140.788C12.2407 139.516 11.9169 138.244 11.5833 136.934C12.5548 136.934 13.5262 136.934 14.5271 136.934C14.5271 136.298 14.5271 135.663 14.5271 135.008Z" fill="#3F3A33"/>
<path d="M73.4043 131.154C73.7281 131.79 74.0519 132.426 74.3855 133.081C76.2454 133.529 76.2454 133.529 78.372 133.683C79.6471 133.802 80.9221 133.921 82.2358 134.044C82.2358 134.68 82.2358 135.316 82.2358 135.971C81.2644 136.289 80.2929 136.607 79.292 136.934C78.3205 138.365 78.3205 138.365 77.3294 139.824C76.0341 139.189 74.7388 138.553 73.4043 137.898C74.0519 137.898 74.6996 137.898 75.3668 137.898C75.043 136.944 74.7192 135.99 74.3855 135.008C73.4141 135.325 72.4426 135.643 71.4417 135.971C71.7655 136.925 72.0893 137.878 72.423 138.861C71.7753 138.861 71.1277 138.861 70.4604 138.861C70.5009 138.106 70.5414 137.351 70.5831 136.573C70.7423 133.889 70.7423 133.889 68.4978 132.117C70.117 131.8 71.7361 131.482 73.4043 131.154Z" fill="#A7A8A7"/>
<path d="M42.9844 112.85C42.9844 116.979 40.7749 118.485 38.078 121.521C37.7542 122.156 37.4303 122.792 37.0967 123.447C34.1823 123.129 31.2679 122.811 28.2651 122.484C29.5604 121.848 30.8557 121.212 32.1903 120.557C32.8379 119.902 33.4856 119.246 34.1528 118.57C36.2699 116.557 37.2648 116.356 40.0406 115.74C41.7384 114.316 41.7384 114.316 42.9844 112.85Z" fill="#D1CECE"/>
<path d="M108.731 111.887C115.531 112.364 115.531 112.364 122.469 112.85C122.469 113.804 122.469 114.758 122.469 115.74C117.131 115.95 112.782 115.841 107.749 113.814C108.073 113.178 108.397 112.542 108.731 111.887Z" fill="#37342E"/>
<path d="M85.1797 141.751C88.1235 142.714 88.1235 142.714 89.1048 144.641C91.0916 145.269 91.0916 145.269 93.03 145.604C92.7061 147.512 92.3823 149.419 92.0487 151.385C90.1057 151.702 88.1628 152.02 86.161 152.348C86.161 149.35 86.6087 146.624 87.1423 143.678C86.4946 143.678 85.847 143.678 85.1797 143.678C85.1797 143.042 85.1797 142.406 85.1797 141.751Z" fill="#5A554F"/>
<path d="M82.2358 145.604C82.2358 146.24 82.2358 146.876 82.2358 147.531C81.5882 147.531 80.9405 147.531 80.2733 147.531C79.9494 148.167 79.6256 148.803 79.292 149.458C78.6848 149.259 78.0776 149.06 77.4521 148.856C76.7639 148.737 76.0758 148.617 75.3668 148.494C74.7192 149.13 74.0715 149.766 73.4043 150.421C70.8284 150.06 70.8284 150.06 68.4978 149.458C69.9109 145.874 69.9109 145.874 72.055 144.822C75.5443 144.551 78.7759 145.095 82.2358 145.604Z" fill="#433E39"/>
<path d="M112.656 12.6613C115.084 13.615 115.084 13.615 117.562 14.588C117.562 15.5417 117.562 16.4954 117.562 17.4781C118.21 17.1602 118.857 16.8423 119.525 16.5147C119.201 15.8789 118.877 15.2431 118.543 14.588C119.272 14.7668 120.001 14.9456 120.751 15.1299C123.401 15.5437 124.869 15.408 127.375 14.588C127.699 15.2238 128.023 15.8596 128.356 16.5147C125.105 18.6429 124.093 18.658 120.322 18.5618C119.438 18.5445 118.554 18.5271 117.643 18.5092C116.968 18.4868 116.294 18.4645 115.6 18.4414C115.6 17.4877 115.6 16.534 115.6 15.5514C114.628 15.5514 113.657 15.5514 112.656 15.5514C112.656 14.5976 112.656 13.6439 112.656 12.6613Z" fill="#A09CAF"/>
<path d="M60.6476 143.678C65.0192 144.631 65.0192 144.631 69.4791 145.604C68.8315 146.876 68.1838 148.148 67.5166 149.458C63.1449 148.504 63.1449 148.504 58.685 147.531C59.3326 146.26 59.9803 144.988 60.6476 143.678Z" fill="#969076"/>
<path d="M100.88 9.77124C102.499 9.77124 104.118 9.77124 105.787 9.77124C105.787 12.9503 105.787 16.1294 105.787 19.4048C107.082 19.7227 108.377 20.0406 109.712 20.3682C106.797 20.3682 103.883 20.3682 100.88 20.3682C100.88 18.7786 100.88 17.1891 100.88 15.5514C102.176 15.5514 103.471 15.5514 104.805 15.5514C104.482 14.5977 104.158 13.6439 103.824 12.6613C104.148 12.0255 104.472 11.3897 104.805 10.7346C103.51 10.4167 102.215 10.0988 100.88 9.77124Z" fill="#1C1B17"/>
<path d="M17.471 122.484C17.7948 123.12 18.1186 123.756 18.4523 124.411C15.8628 128.459 13.1883 131.7 9.62071 135.008C10.2684 135.643 10.916 136.279 11.5833 136.934C10.288 136.934 8.99269 136.934 7.65814 136.934C8.66706 130.001 12.0573 126.618 17.471 122.484Z" fill="#3B3733"/>
<path d="M129.338 108.034C129.661 108.669 129.985 109.305 130.319 109.96C128.052 110.596 125.785 111.232 123.45 111.887C123.774 113.159 124.097 114.43 124.431 115.74C123.783 115.74 123.136 115.74 122.469 115.74C122.469 114.787 122.469 113.833 122.469 112.85C119.878 112.85 117.287 112.85 114.618 112.85C114.294 112.215 113.971 111.579 113.637 110.924C114.195 110.876 114.753 110.829 115.327 110.781C120.222 110.315 124.653 109.501 129.338 108.034Z" fill="#95918B"/>
<path d="M108.731 111.887C109.054 112.841 109.378 113.794 109.712 114.777C104.207 114.459 98.7018 114.141 93.03 113.814C93.03 113.496 93.03 113.178 93.03 112.85C98.6358 110.86 102.879 110.923 108.731 111.887Z" fill="#8B8783"/>
<path d="M140.132 7.84448C143.046 8.32134 143.046 8.32134 146.019 8.80784C146.019 11.3511 146.019 13.8944 146.019 16.5147C144.4 16.5147 142.781 16.5147 141.113 16.5147C141.113 14.9252 141.113 13.3356 141.113 11.6979C141.761 11.38 142.408 11.0621 143.076 10.7346C142.104 10.4166 141.133 10.0987 140.132 9.77119C140.132 9.13538 140.132 8.49956 140.132 7.84448Z" fill="#1F1E1B"/>
<path d="M99.899 129.227C99.899 129.863 99.899 130.499 99.899 131.154C100.547 131.472 101.194 131.79 101.862 132.117C101.538 133.071 101.214 134.025 100.88 135.008C98.9373 135.325 96.9944 135.643 94.9925 135.971C93.8886 132.358 93.8886 132.358 94.9925 130.191C97.9364 129.227 97.9364 129.227 99.899 129.227Z" fill="#3D3936"/>
<path d="M115.6 18.4414C116.247 18.4414 116.895 18.4414 117.562 18.4414C117.562 19.0772 117.562 19.713 117.562 20.3681C118.857 20.686 120.153 21.0039 121.487 21.3315C121.163 21.9474 120.84 22.5634 120.506 23.198C119.453 24.9613 119.453 24.9613 119.525 26.1483C117.906 26.1483 116.286 26.1483 114.618 26.1483C113.971 24.5587 113.323 22.9692 112.656 21.3315C113.627 21.0136 114.599 20.6957 115.6 20.3681C115.6 19.7323 115.6 19.0965 115.6 18.4414Z" fill="#3F3D35"/>
<path d="M139.15 2.06433C139.15 2.38224 139.15 2.70015 139.15 3.02769C133.322 3.50455 133.322 3.50455 127.375 3.99104C127.375 4.62686 127.375 5.26267 127.375 5.91776C123.813 5.59985 120.251 5.28194 116.581 4.9544C116.581 4.63649 116.581 4.31859 116.581 3.99104C124.192 2.34376 131.365 1.82423 139.15 2.06433Z" fill="#2C2A26"/>
<path d="M85.1797 116.704C84.0161 119.955 82.9465 122.144 80.2733 124.411C79.6256 123.775 78.978 123.139 78.3107 122.484C78.6345 121.848 78.9583 121.212 79.292 120.557C78.6443 120.239 77.9967 119.921 77.3294 119.594C80.3333 117.066 80.9913 116.704 85.1797 116.704Z" fill="#E6E6E6"/>
<path d="M109.712 135.971C110.359 135.971 111.007 135.971 111.674 135.971C111.2 140.937 108.548 144.463 105.787 148.495C104.815 148.177 103.844 147.859 102.843 147.531C103.938 145.6 105.044 143.674 106.155 141.751C107.077 140.142 107.077 140.142 108.018 138.5C108.577 137.665 109.136 136.831 109.712 135.971Z" fill="#635F56"/>
<path d="M25.3213 136.934C25.8273 137.093 26.3332 137.252 26.8545 137.416C29.9663 138.043 32.948 137.957 36.1154 137.898C36.1154 138.851 36.1154 139.805 36.1154 140.788C34.4963 141.106 32.8772 141.423 31.209 141.751C31.209 141.115 31.209 140.479 31.209 139.824C29.9137 140.142 28.6184 140.46 27.2839 140.788C27.2839 140.152 27.2839 139.516 27.2839 138.861C25.9886 139.179 24.6933 139.497 23.3587 139.824C24.0064 138.871 24.654 137.917 25.3213 136.934Z" fill="#A59C76"/>
<path d="M119.525 118.63C120.496 118.63 121.468 118.63 122.469 118.63C121.903 123.211 119.966 126.309 117.562 130.191C117.238 130.191 116.914 130.191 116.581 130.191C117.422 121.933 117.422 121.933 119.525 118.63Z" fill="#7D786F"/>
<path d="M117.562 18.4414C121.365 19.2843 121.365 19.2843 122.469 20.3681C123.541 20.3482 124.614 20.3284 125.719 20.3079C129.177 20.3654 130.383 20.7034 133.263 22.2948C131.037 22.6701 128.808 23.0281 126.578 23.3786C125.337 23.5798 124.096 23.781 122.817 23.9882C119.525 24.2215 119.525 24.2215 116.581 22.2948C117.876 21.9769 119.171 21.659 120.506 21.3315C119.534 21.0136 118.563 20.6957 117.562 20.3681C117.562 19.7323 117.562 19.0965 117.562 18.4414Z" fill="#302D27"/>
<path d="M38.078 132.117C40.3448 132.435 42.6115 132.753 44.947 133.081C45.2708 134.67 45.5946 136.26 45.9283 137.898C43.1684 138.138 43.1684 138.138 40.0406 137.898C38.2007 135.971 38.2007 135.971 37.0967 134.044C37.4205 133.408 37.7444 132.773 38.078 132.117Z" fill="#7B7A79"/>
<path d="M96.9551 119.594C99.8695 119.912 102.784 120.23 105.787 120.557C105.463 121.829 105.139 123.1 104.805 124.411C101.891 124.093 98.9766 123.775 95.9738 123.447C96.2977 122.176 96.6215 120.904 96.9551 119.594Z" fill="#9D9B99"/>
<path d="M99.899 110.924C99.5752 111.559 99.2513 112.195 98.9177 112.85C95.0318 112.85 91.1459 112.85 87.1423 112.85C86.8184 112.215 86.4946 111.579 86.161 110.924C90.3609 108.862 95.4739 109.87 99.899 110.924Z" fill="#A5A09B"/>
<path d="M87.1423 111.887C86.1418 113.351 86.1418 113.351 84.1984 114.777C81.5773 114.83 79.24 114.744 76.6548 114.476C75.966 114.417 75.2773 114.358 74.5676 114.297C72.8702 114.15 71.1744 113.984 69.4791 113.814C69.4791 113.496 69.4791 113.178 69.4791 112.85C75.3303 110.138 80.9286 111.157 87.1423 111.887Z" fill="#1B1A18"/>
<path d="M135.225 25.1849C137.492 25.5028 139.759 25.8207 142.094 26.1483C140.929 28.075 140.929 28.075 139.15 30.0017C136.513 30.2425 136.513 30.2425 134.244 30.0017C134.244 29.3659 134.244 28.7301 134.244 28.075C132.949 27.7571 131.653 27.4392 130.319 27.1116C131.938 27.1116 133.557 27.1116 135.225 27.1116C135.225 26.4758 135.225 25.84 135.225 25.1849Z" fill="#292721"/>
<path d="M152.152 22.1744C153.028 22.3706 153.903 22.5668 154.805 22.769C155.468 22.9304 156.131 23.0919 156.814 23.2582C153.783 24.9582 152.66 25.1849 148.963 25.1849C148.639 25.8207 148.316 26.4565 147.982 27.1116C147.982 25.84 147.982 24.5684 147.982 23.2582C147.658 23.894 147.334 24.5298 147.001 25.1849C145.705 25.1849 144.41 25.1849 143.076 25.1849C143.076 24.5491 143.076 23.9133 143.076 23.2582C146.434 21.1785 148.34 21.2879 152.152 22.1744Z" fill="#5B5751"/>
<path d="M140.132 4.95442C138.169 6.88113 138.169 6.88113 135.103 7.00155C134.172 6.96181 133.241 6.92208 132.281 6.88113C131.958 7.51695 131.634 8.15276 131.3 8.80785C131.3 8.17203 131.3 7.53622 131.3 6.88113C126.767 7.19904 122.233 7.51695 117.562 7.84449C124.601 4.38925 132.383 4.83173 140.132 4.95442Z" fill="#7D6E47"/>
<path d="M57.7037 145.604C58.0275 146.24 58.3513 146.876 58.685 147.531C60.9631 147.924 63.2547 148.248 65.554 148.494C65.554 149.448 65.554 150.402 65.554 151.385C61.9919 150.749 58.4298 150.113 54.7598 149.458C54.7598 148.504 54.7598 147.55 54.7598 146.568C55.7313 146.25 56.7028 145.932 57.7037 145.604Z" fill="#3F3B36"/>
<path d="M45.9283 143.678C46.8997 143.678 47.8712 143.678 48.8721 143.678C48.8721 144.314 48.8721 144.949 48.8721 145.604C50.4913 145.287 52.1104 144.969 53.7786 144.641C53.7786 145.913 53.7786 147.184 53.7786 148.495C51.5118 148.812 49.245 149.13 46.9096 149.458C46.9096 148.822 46.9096 148.186 46.9096 147.531C46.2619 147.213 45.6143 146.895 44.947 146.568C45.2708 145.614 45.5946 144.66 45.9283 143.678Z" fill="#403C36"/>
<path d="M115.6 125.374C115.923 125.374 116.247 125.374 116.581 125.374C116.581 127.281 116.581 129.189 116.581 131.154C115.609 130.836 114.638 130.518 113.637 130.191C113.637 131.78 113.637 133.37 113.637 135.008C112.665 134.69 111.694 134.372 110.693 134.044C111.017 133.408 111.341 132.773 111.674 132.117C111.027 131.8 110.379 131.482 109.712 131.154C109.712 130.2 109.712 129.247 109.712 128.264C110.501 128.145 111.29 128.026 112.104 127.903C112.934 127.704 113.763 127.505 114.618 127.301C114.942 126.665 115.266 126.029 115.6 125.374Z" fill="#524E47"/>
<path d="M52.7973 106.107C55.3731 105.926 55.3731 105.926 57.7037 106.107C57.7037 106.743 57.7037 107.378 57.7037 108.034C58.999 107.716 60.2943 107.398 61.6288 107.07C62.2765 108.024 62.9241 108.978 63.5914 109.96C59.3817 109.642 55.172 109.324 50.8347 108.997C51.4823 108.043 52.13 107.089 52.7973 106.107Z" fill="#95918C"/>
<path d="M147.982 23.2582C148.105 25.5462 148.105 25.5462 147.982 28.075C147.334 28.7108 146.687 29.3466 146.019 30.0017C145.629 31.9171 145.295 33.845 145.038 35.7818C144.714 35.7818 144.39 35.7818 144.057 35.7818C143.733 32.2849 143.409 28.7879 143.076 25.1849C146.019 23.2582 146.019 23.2582 147.982 23.2582Z" fill="#2F2E28"/>
<path d="M25.3213 138.861C25.9689 138.861 26.6166 138.861 27.2839 138.861C27.547 139.457 27.8101 140.053 28.0811 140.667C29.2028 143.003 29.2028 143.003 32.1903 144.641C27.3141 144.146 23.0739 143.452 18.4523 141.751C21.3961 140.788 21.3961 140.788 24.34 141.751C24.6638 140.797 24.9876 139.844 25.3213 138.861Z" fill="#2E2925"/>
<path d="M147.001 107.07C147.001 107.706 147.001 108.342 147.001 108.997C142.791 110.586 138.581 112.176 134.244 113.814C133.596 113.178 132.949 112.542 132.281 111.887C134.18 111.078 136.082 110.277 137.985 109.479C139.044 109.032 140.103 108.584 141.193 108.124C144.057 107.07 144.057 107.07 147.001 107.07Z" fill="#191A16"/>
<path d="M29.2464 139.824C29.8941 139.824 30.5417 139.824 31.209 139.824C31.209 140.46 31.209 141.096 31.209 141.751C32.8281 141.433 34.4472 141.115 36.1154 140.788C36.4392 142.059 36.7631 143.331 37.0967 144.641C35.4776 144.959 33.8585 145.277 32.1903 145.604C32.1903 144.969 32.1903 144.333 32.1903 143.678C30.895 143.36 29.5997 143.042 28.2651 142.714C28.589 141.761 28.9128 140.807 29.2464 139.824Z" fill="#3F3A34"/>
<path d="M87.1423 127.301C87.4661 127.936 87.7899 128.572 88.1236 129.227C89.095 129.545 90.0665 129.863 91.0674 130.191C91.0674 131.144 91.0674 132.098 91.0674 133.081C89.1245 134.035 87.1815 134.988 85.1797 135.971C85.5035 134.381 85.8273 132.792 86.161 131.154C85.5133 130.836 84.8657 130.518 84.1984 130.191C85.1699 129.873 86.1414 129.555 87.1423 129.227C87.1423 128.592 87.1423 127.956 87.1423 127.301Z" fill="#484441"/>
<path d="M154.851 123.447C155.175 124.401 155.499 125.355 155.832 126.337C153.543 130.833 153.543 130.833 150.926 132.117C150.926 129.892 150.926 127.667 150.926 125.374C152.221 124.738 153.516 124.102 154.851 123.447Z" fill="#656058"/>
<path d="M154.851 117.667C155.175 117.667 155.499 117.667 155.832 117.667C155.832 119.575 155.832 121.482 155.832 123.447C155.205 123.666 154.577 123.884 153.931 124.11C151.64 125.232 151.64 125.232 151.171 127.903C151.09 128.658 151.009 129.413 150.926 130.191C150.602 130.191 150.278 130.191 149.945 130.191C149.822 123.688 149.822 123.688 150.926 121.521C151.897 121.521 152.869 121.521 153.87 121.521C154.193 120.249 154.517 118.977 154.851 117.667Z" fill="#47443C"/>
<path d="M131.3 110.924C131.3 111.877 131.3 112.831 131.3 113.814C129.033 114.449 126.767 115.085 124.431 115.74C124.107 114.469 123.783 113.197 123.45 111.887C126.108 110.582 128.365 110.861 131.3 110.924Z" fill="#504F4A"/>
<path d="M126.394 157.165C122.832 159.39 119.27 161.615 115.6 163.908C115.6 161.018 115.6 161.018 116.964 159.648C117.566 159.226 118.168 158.804 118.789 158.369C119.381 157.937 119.973 157.505 120.583 157.059C122.469 156.201 122.469 156.201 126.394 157.165Z" fill="#75716A"/>
<path d="M27.2839 153.311C32.7187 153.904 32.7187 153.904 35.0115 155.78C35.5579 156.465 35.5579 156.465 36.1154 157.165C31.7873 158.153 29.3187 158.164 25.3213 156.201C25.9689 155.248 26.6166 154.294 27.2839 153.311Z" fill="#524F48"/>
<path d="M31.209 126.337C30.5816 126.457 29.9542 126.576 29.3078 126.699C28.6399 126.897 27.972 127.096 27.2839 127.301C26.96 127.936 26.6362 128.572 26.3026 129.227C21.931 128.274 21.931 128.274 17.471 127.301C17.471 126.983 17.471 126.665 17.471 126.337C22.1743 124.997 26.4511 125.676 31.209 126.337Z" fill="#706E6C"/>
<path d="M92.0487 115.74C94.6393 115.74 97.2299 115.74 99.899 115.74C99.899 117.012 99.899 118.284 99.899 119.594C99.2513 119.594 98.6037 119.594 97.9364 119.594C97.9364 118.958 97.9364 118.322 97.9364 117.667C94.6245 118.809 92.3949 119.859 90.0861 122.484C90.6512 120.186 91.2855 117.988 92.0487 115.74Z" fill="#2F2C28"/>
<path d="M137.188 107.07C137.512 108.342 137.835 109.613 138.169 110.924C135.902 111.559 133.636 112.195 131.3 112.85C131.3 112.215 131.3 111.579 131.3 110.924C130.329 110.606 129.357 110.288 128.356 109.96C131.271 109.007 134.185 108.053 137.188 107.07Z" fill="#595755"/>
<path d="M115.6 18.4414C115.6 19.0772 115.6 19.713 115.6 20.3681C114.952 21.0039 114.304 21.6397 113.637 22.2948C113.637 22.9306 113.637 23.5665 113.637 24.2215C112.989 24.2215 112.342 24.2215 111.674 24.2215C111.351 23.5857 111.027 22.9499 110.693 22.2948C108.155 21.8437 108.155 21.8437 105.235 21.6927C103.745 21.5847 103.745 21.5847 102.226 21.4745C101.074 21.4037 101.074 21.4037 99.899 21.3315C99.899 21.0136 99.899 20.6957 99.899 20.3681C102.148 20.0454 104.396 19.7246 106.645 19.4048C108.524 19.1365 108.524 19.1365 110.44 18.8629C113.637 18.4414 113.637 18.4414 115.6 18.4414Z" fill="#6C5E35"/>
<path d="M147.001 7.84448C148.62 8.16239 150.239 8.4803 151.907 8.80784C151.907 9.76156 151.907 10.7153 151.907 11.6979C150.612 11.6979 149.317 11.6979 147.982 11.6979C147.982 14.2412 147.982 16.7844 147.982 19.4048C147.01 19.4048 146.039 19.4048 145.038 19.4048C145.686 19.0868 146.333 18.7689 147.001 18.4414C147.001 14.9444 147.001 11.4474 147.001 7.84448Z" fill="#25241F"/>
<path d="M27.2839 114.777C27.9315 115.731 28.5791 116.684 29.2464 117.667C28.5988 118.939 27.9511 120.21 27.2839 121.521C25.6647 121.521 24.0456 121.521 22.3774 121.521C23.6462 118.742 24.9871 116.827 27.2839 114.777Z" fill="#CECBCB"/>
<path d="M45.131 107.492C46.7305 107.639 46.7305 107.639 48.3623 107.789C49.5861 107.91 49.5861 107.91 50.8347 108.034C46.6541 110.347 43.8099 110.256 39.0593 109.96C38.0878 109.324 37.1163 108.689 36.1154 108.034C39.4782 106.933 41.6214 107.158 45.131 107.492Z" fill="#20201D"/>
<path d="M86.161 154.275C87.066 154.379 87.066 154.379 87.9894 154.485C89.1791 154.62 89.1791 154.62 90.3928 154.756C91.5711 154.89 91.5711 154.89 92.7732 155.027C95.1093 155.284 95.1093 155.284 97.9364 155.238C97.6126 155.874 97.2888 156.51 96.9551 157.165C94.169 157.738 91.907 158.189 89.1048 158.128C87.1423 156.803 87.1423 156.803 86.161 155.238C86.161 154.92 86.161 154.602 86.161 154.275Z" fill="#383430"/>
<path d="M33.1716 144.641C34.6031 144.777 36.034 144.919 37.4647 145.063C38.6601 145.18 38.6601 145.18 39.8796 145.3C42.0031 145.604 42.0031 145.604 43.9657 146.568C44.2895 145.932 44.6134 145.296 44.947 144.641C44.947 145.277 44.947 145.913 44.947 146.568C46.2423 147.204 47.5376 147.839 48.8721 148.495C43.4075 148.032 38.4012 147.243 33.1716 145.604C33.1716 145.287 33.1716 144.969 33.1716 144.641Z" fill="#292522"/>
<path d="M12.5646 131.154C18.3836 130.789 22.841 132.016 28.2651 134.044C24.9123 135.141 23.2981 134.849 19.8629 134.225C18.9104 134.06 17.9579 133.894 16.9765 133.724C14.5271 133.081 14.5271 133.081 12.5646 131.154Z" fill="#AAAAA8"/>
<path d="M56.7224 113.814C56.7224 117.478 55.6059 118.416 53.2879 121.219C52.6504 121.998 52.0129 122.777 51.356 123.579C50.8602 124.171 50.3643 124.764 49.8534 125.374C48.5581 125.056 47.2628 124.738 45.9283 124.411C47.2337 123.397 47.2337 123.397 48.5655 122.363C51.7216 119.795 54.1832 116.966 56.7224 113.814Z" fill="#B2ABAB"/>
<path d="M56.6688 128.802C57.3746 129.082 58.0804 129.361 58.8077 129.649C59.5185 129.926 60.2294 130.203 60.9619 130.488C61.5058 130.708 62.0497 130.928 62.6101 131.154C59.6663 132.117 59.6663 132.117 56.6611 131.997C55.7099 132.037 54.7586 132.076 53.7786 132.117C52.8071 133.548 52.8071 133.548 51.816 135.008C51.816 134.054 51.816 133.1 51.816 132.117C51.1683 131.8 50.5207 131.482 49.8534 131.154C50.8249 131.154 51.7964 131.154 52.7973 131.154C52.7973 130.518 52.7973 129.882 52.7973 129.227C54.7599 128.264 54.7599 128.264 56.6688 128.802Z" fill="#AFB0B0"/>
<path d="M110.693 117.667C113.284 117.985 115.874 118.303 118.543 118.63C118.22 119.584 117.896 120.538 117.562 121.521C116.267 121.203 114.972 120.885 113.637 120.557C113.313 121.193 112.989 121.829 112.656 122.484C112.008 121.848 111.36 121.212 110.693 120.557C110.693 119.603 110.693 118.65 110.693 117.667Z" fill="#3F3931"/>
<path d="M58.3783 104.541C59.8412 104.702 59.8412 104.702 61.3337 104.865C62.0787 104.957 62.8238 105.049 63.5914 105.143C63.5914 105.779 63.5914 106.415 63.5914 107.07C61.6485 107.388 59.7055 107.706 57.7037 108.034C57.7037 107.398 57.7037 106.762 57.7037 106.107C55.1131 106.107 52.5225 106.107 49.8534 106.107C53.3356 103.828 54.3442 104.075 58.3783 104.541Z" fill="#B0ABA5"/>
<path d="M65.554 137.898C66.5255 138.215 67.4969 138.533 68.4978 138.861C69.6631 141.33 69.6631 141.33 70.4604 143.678C67.8698 143.36 65.2792 143.042 62.6101 142.714C62.6101 142.079 62.6101 141.443 62.6101 140.788C63.5816 140.47 64.5531 140.152 65.554 139.824C65.554 139.188 65.554 138.553 65.554 137.898Z" fill="#2D2925"/>
<path d="M62.6101 132.117C60.8929 134.044 60.8929 134.044 58.685 135.971C57.3897 135.971 56.0944 135.971 54.7598 135.971C54.7598 134.699 54.7598 133.428 54.7598 132.117C57.988 131.061 59.3847 131.347 62.6101 132.117Z" fill="#868685"/>
<path d="M87.1423 114.777C88.1137 115.095 89.0852 115.413 90.0861 115.74C88.1432 118.602 86.2002 121.463 84.1984 124.411C83.8746 123.775 83.5508 123.139 83.2171 122.484C83.541 121.53 83.8648 120.576 84.1984 119.594C84.8461 119.594 85.4937 119.594 86.161 119.594C86.4848 118.004 86.8086 116.415 87.1423 114.777Z" fill="#2D2922"/>
<path d="M76.3481 133.081C79.2625 133.558 79.2625 133.558 82.2358 134.044C82.2358 134.68 82.2358 135.316 82.2358 135.971C81.2644 136.289 80.2929 136.607 79.292 136.934C78.3205 138.365 78.3205 138.365 77.3294 139.824C76.0341 139.188 74.7388 138.553 73.4043 137.898C74.0519 137.898 74.6996 137.898 75.3668 137.898C75.6907 136.308 76.0145 134.719 76.3481 133.081Z" fill="#AFAFAF"/>
<path d="M17.471 135.008C19.7378 135.325 22.0045 135.643 24.34 135.971C23.236 137.476 23.236 137.476 21.3961 138.861C18.2683 138.56 18.2683 138.56 15.5084 137.898C16.1561 136.944 16.8037 135.99 17.471 135.008Z" fill="#A69E75"/>
<path d="M74.3856 129.227C75.0332 129.863 75.6809 130.499 76.3481 131.154C70.0679 132.34 70.0679 132.34 67.0872 131.214C66.5813 130.877 66.0753 130.539 65.554 130.191C68.5108 128.739 71.1305 129.056 74.3856 129.227Z" fill="#383432"/>
<path d="M44.0884 126.759C45.1636 127.036 46.2388 127.313 47.3465 127.598C48.1738 127.818 49.0011 128.038 49.8534 128.264C49.8534 128.582 49.8534 128.9 49.8534 129.227C47.9311 129.118 46.0095 128.995 44.0884 128.866C43.0182 128.799 41.9481 128.732 40.8455 128.663C38.078 128.264 38.078 128.264 36.1154 126.337C39.0464 124.899 40.9744 125.946 44.0884 126.759Z" fill="#B7B7B6"/>
<path d="M117.562 10.7346C119.505 11.2114 119.505 11.2114 121.487 11.6979C121.163 13.2875 120.84 14.877 120.506 16.5147C119.534 16.8326 118.563 17.1505 117.562 17.4781C116.645 14.578 116.537 13.7532 117.562 10.7346Z" fill="#8680A0"/>
<path d="M101.862 162.945C102.287 163.422 102.712 163.899 103.149 164.39C104.803 166.155 104.803 166.155 107.749 165.835C107.425 167.107 107.102 168.378 106.768 169.688C106.444 169.053 106.12 168.417 105.787 167.762C104.491 168.08 103.196 168.397 101.862 168.725C101.862 166.818 101.862 164.91 101.862 162.945Z" fill="#48453F"/>
<path d="M70.4604 145.604C71.7557 146.24 73.051 146.876 74.3855 147.531C73.4141 148.962 73.4141 148.962 72.423 150.421C71.1277 150.103 69.8324 149.785 68.4978 149.458C69.1455 148.186 69.7931 146.915 70.4604 145.604Z" fill="#B3A772"/>
<path d="M91.0674 137.898C92.0389 137.898 93.0104 137.898 94.0113 137.898C94.0113 138.533 94.0113 139.169 94.0113 139.824C93.0398 140.301 93.0398 140.301 92.0487 140.788C91.8362 141.741 91.8362 141.741 91.6194 142.714C91.4372 143.35 91.2551 143.986 91.0674 144.641C90.0959 144.959 89.1245 145.277 88.1236 145.604C88.7394 142.783 89.6801 140.44 91.0674 137.898Z" fill="#342F2B"/>
<path d="M113.637 130.191C114.608 130.509 115.58 130.827 116.581 131.154C114.741 135.73 114.741 135.73 113.637 137.898C112.989 137.898 112.342 137.898 111.674 137.898C111.351 136.944 111.027 135.99 110.693 135.008C111.665 135.008 112.636 135.008 113.637 135.008C113.637 133.418 113.637 131.828 113.637 130.191Z" fill="#8A867D"/>
<path d="M120.506 123.447C121.477 123.447 122.449 123.447 123.45 123.447C122.204 127.218 120.985 129.026 117.562 131.154C119.402 125.615 119.402 125.615 120.506 123.447Z" fill="#5B5954"/>
<path d="M94.9925 145.604C96.2878 145.922 97.5831 146.24 98.9177 146.568C98.5939 147.522 98.27 148.475 97.9364 149.458C96.3173 149.458 94.6982 149.458 93.03 149.458C93.6776 148.186 94.3253 146.915 94.9925 145.604Z" fill="#CFC07B"/>
<path d="M123.45 144.641C125.393 145.118 125.393 145.118 127.375 145.604C127.051 146.558 126.727 147.512 126.394 148.495C124.37 149.157 124.37 149.157 122.469 149.458C122.792 147.868 123.116 146.279 123.45 144.641Z" fill="#2F2E28"/>
<path d="M53.7786 137.898C56.693 138.374 56.693 138.374 59.6663 138.861C59.3425 139.815 59.0186 140.768 58.685 141.751C56.6611 142.413 56.6611 142.413 54.7598 142.714C54.436 141.125 54.1122 139.535 53.7786 137.898Z" fill="#322E2B"/>
<path d="M10.602 133.081C13.6685 133.442 13.6685 133.442 16.4897 134.044C15.5084 135.971 15.5084 135.971 13.6685 136.693C11.5833 136.934 11.5833 136.934 8.63943 135.008C9.28708 134.372 9.93473 133.736 10.602 133.081Z" fill="#9F9772"/>
<path d="M53.7786 131.154C55.0739 131.472 56.3692 131.79 57.7037 132.117C57.3799 132.753 57.0561 133.389 56.7224 134.044C56.0748 134.044 55.4271 134.044 54.7598 134.044C55.0837 134.998 55.4075 135.952 55.7411 136.934C54.122 136.616 52.5029 136.298 50.8347 135.971C51.4823 135.653 52.13 135.335 52.7973 135.008C53.4372 133.057 53.4372 133.057 53.7786 131.154Z" fill="#63605C"/>
<path d="M82.2358 124.411C82.5597 125.364 82.8835 126.318 83.2171 127.301C84.5124 127.301 85.8077 127.301 87.1423 127.301C87.1423 127.936 87.1423 128.572 87.1423 129.227C85.5231 129.863 83.904 130.499 82.2358 131.154C82.2358 128.929 82.2358 126.703 82.2358 124.411Z" fill="#2D2A26"/>
<path d="M131.3 116.704C130.976 117.658 130.652 118.611 130.319 119.594C129.995 118.958 129.671 118.322 129.338 117.667C128.366 118.303 127.395 118.939 126.394 119.594C125.422 119.594 124.451 119.594 123.45 119.594C123.45 118.958 123.45 118.322 123.45 117.667C127.988 115.62 127.988 115.62 131.3 116.704Z" fill="#3D3C37"/>
<path d="M42.9844 100.327C42.6606 101.28 42.3368 102.234 42.0031 103.217C39.1819 103.337 39.1819 103.337 36.1154 103.217C35.4678 102.581 34.8201 101.945 34.1528 101.29C37.1541 100.766 39.9304 100.327 42.9844 100.327Z" fill="#BFBBB7"/>
<path d="M89.1048 144.641C91.0478 145.118 91.0478 145.118 93.03 145.604C92.7062 146.558 92.3823 147.512 92.0487 148.495C90.7534 148.495 89.4581 148.495 88.1236 148.495C88.4474 147.223 88.7712 145.951 89.1048 144.641Z" fill="#BAB9B7"/>
<path d="M97.9364 140.788C99.2317 141.423 100.527 142.059 101.862 142.714C101.538 143.35 101.214 143.986 100.88 144.641C99.2611 144.641 97.642 144.641 95.9738 144.641C96.6215 143.369 97.2691 142.098 97.9364 140.788Z" fill="#C9BA7A"/>
<path d="M92.0487 139.824C93.9916 140.301 93.9916 140.301 95.9738 140.788C95.65 141.741 95.3262 142.695 94.9925 143.678C93.6973 143.678 92.402 143.678 91.0674 143.678C91.3912 142.406 91.7151 141.134 92.0487 139.824Z" fill="#B5B4B2"/>
<path d="M3.733 136.934C7.13316 138.365 7.13316 138.365 10.602 139.824C7.46541 140.851 5.0504 140.859 1.77043 140.788C2.41808 139.516 3.06573 138.244 3.733 136.934Z" fill="#54504C"/>
<path d="M27.2839 135.008C29.0969 135.335 29.0969 135.335 31.2703 135.911C32.3499 136.192 32.3499 136.192 33.4514 136.479C34.2843 136.704 34.2843 136.704 35.1341 136.934C35.1341 137.252 35.1341 137.57 35.1341 137.898C32.8674 138.215 30.6006 138.533 28.2651 138.861C28.2651 138.225 28.2651 137.589 28.2651 136.934C27.6175 136.616 26.9698 136.298 26.3026 135.971C26.6264 135.653 26.9502 135.335 27.2839 135.008Z" fill="#534E42"/>
<path d="M16.4897 126.337C18.3028 126.665 18.3028 126.665 20.4762 127.24C21.5558 127.522 21.5558 127.522 22.6572 127.809C23.4902 128.034 23.4902 128.034 24.34 128.264C24.34 128.582 24.34 128.9 24.34 129.227C21.7494 129.545 19.1588 129.863 16.4897 130.191C16.1659 129.237 15.8421 128.283 15.5084 127.301C15.8322 126.983 16.1561 126.665 16.4897 126.337Z" fill="#A3A2A1"/>
<path d="M69.4791 114.777C70.1268 114.777 70.7744 114.777 71.4417 114.777C70.9785 118.87 68.5307 120.75 65.554 123.447C66.7305 120.477 67.9846 117.607 69.4791 114.777Z" fill="#B2ADAD"/>
</svg>
