<svg width="109" height="158" viewBox="0 0 109 158" fill="none" xmlns="http://www.w3.org/2000/svg">
<path d="M22 58C22.66 58.33 23.32 58.66 24 59C24.8174 62.5423 25.1379 65.295 24.4375 68.875C23 71 23 71 19.875 71.8125C18.4519 71.9053 18.4519 71.9053 17 72C16.34 71.01 15.68 70.02 15 69C14.01 69.33 13.02 69.66 12 70C17.9829 74.4061 23.9842 78.7348 30.2227 82.7734C32 84 32 84 34 86C35.9836 86.7141 37.9832 87.3862 40 88C38.68 88.33 37.36 88.66 36 89C35.67 91.31 35.34 93.62 35 96C37.97 98.31 40.94 100.62 44 103C43.2163 102.216 42.4325 101.433 41.625 100.625C40.0833 99.0833 38.5417 97.5417 37 96C37 95.01 37 94.02 37 93C37.5775 93.3094 38.155 93.6188 38.75 93.9375C40.8748 94.9409 42.7229 95.4642 45 96C49.9343 97.3107 53.3209 99.5094 57.125 102.812C57.6368 103.239 58.1485 103.665 58.6758 104.104C61.8916 106.836 64.7284 109.441 67 113C67.2184 115.941 67.2228 118.424 66.9883 121.328C66.9168 122.513 66.9168 122.513 66.8438 123.721C66.6866 126.232 66.4994 128.741 66.3125 131.25C66.2045 132.953 66.0984 134.656 65.9941 136.359C65.8896 137.974 65.7836 139.589 65.6758 141.203C65.5991 142.353 65.5991 142.353 65.5208 143.526C65.1189 148.881 65.1189 148.881 64 150C63.9591 152.333 63.9576 154.667 64 157C58.6059 157.551 55.7516 155.948 51.625 152.75C51.0263 152.304 50.4276 151.858 49.8108 151.398C48.5285 150.44 47.251 149.476 45.978 148.506C43.9922 146.994 41.9927 145.503 39.9883 144.016C32.5999 138.524 25.2621 132.964 17.9922 127.316C16.0124 125.784 14.0177 124.27 12.0078 122.777C11.0977 122.088 10.1877 121.398 9.25 120.688C8.45078 120.093 7.65156 119.499 6.82812 118.887C2.13399 114.042 3.77751 105.122 3.86328 98.7617C3.90563 96.8411 3.95145 94.9205 4 93C4.02368 91.8948 4.04737 90.7896 4.07178 89.6509C4.16813 86.1387 4.3262 82.6341 4.5 79.125C4.52812 78.002 4.55623 76.879 4.5852 75.7219C5.05788 67.9725 5.05788 67.9725 7.7251 65.2192C9.76882 63.9233 11.7701 62.9325 14 62C14.8121 61.5385 15.6242 61.077 16.4609 60.6016C18.278 59.6745 20.1386 58.8344 22 58Z" fill="#4A494A"/>
<path d="M67 63C71.8122 66.1318 76.4219 69.5383 81 73C81.9281 73.7 82.8562 74.3999 83.8125 75.1211C89.526 79.6188 94.9025 84.5103 100.187 89.5C100.86 90.1048 101.533 90.7096 102.226 91.3328C106.789 95.7606 106.789 95.7606 107.42 99.4727C107.425 101.693 107.309 103.803 107 106C106.67 106 106.34 106 106 106C106 103.69 106 101.38 106 99C105.422 99.3506 104.845 99.7013 104.25 100.063C102 101 102 101 100.172 100.438C97.2255 99.844 95.7113 100.71 93 101.938C89.5215 103.502 87.9369 104 84 104C84 103.34 84 102.68 84 102C78.6391 101.463 78.6391 101.463 74 103.5C73.67 103.995 73.34 104.49 73 105C70.7522 102.948 69.9978 101.993 69 99C69 98.67 69 98.34 69 98C68.0719 97.8144 68.0719 97.8144 67.125 97.625C65 97 65 97 63 95C63.66 95 64.32 95 65 95C64.67 94.34 64.34 93.68 64 93C62.515 92.505 62.515 92.505 61 92C66.5624 86.8084 73.5996 84.3083 81 83C80.505 82.01 80.505 82.01 80 81C72.6428 82.2129 65.949 84.3291 59 87C57.515 87.495 57.515 87.495 56 88C55.67 88.66 55.34 89.32 55 90C54.951 89.3735 54.902 88.747 54.8516 88.1016C54.7768 87.2843 54.702 86.467 54.625 85.625C54.5554 84.8129 54.4858 84.0008 54.4141 83.1641C54.1711 80.7967 54.1711 80.7967 52 79C51.375 76.875 51.375 76.875 51 75C50.67 76.98 50.34 78.96 50 81C49.67 81 49.34 81 49 81C49 78.36 49 75.72 49 73C47.845 73.0825 46.69 73.165 45.5 73.25C41.4801 73.1855 38.1423 72.6503 34.5664 70.7539C31.1129 66.887 31.8863 60.9188 32 56C44.8351 51.8089 55.7297 56.3799 67 63Z" fill="#717074"/>
<path d="M0 0C17.49 0 34.98 0 53 0C54.125 12.375 54.125 12.375 54.0977 17.7617C54.0944 18.8993 54.0912 20.0369 54.0879 21.209C54.0753 22.9308 54.0753 22.9308 54.0625 24.6875C54.058 25.8779 54.0535 27.0684 54.0488 28.2949C54.0372 31.1967 54.0208 34.0983 54 37C53.67 37 53.34 37 53 37C52.2608 24.9751 51.897 13.0487 52 1C45.73 1.33 39.46 1.66 33 2C33 2.33 33 2.66 33 3C25.7657 3.88071 18.6582 4.12571 11.375 4.0625C10.3708 4.05799 9.36664 4.05348 8.33203 4.04883C5.88796 4.03719 3.44401 4.02084 1 4C1 4.66 1 5.32 1 6C2.24523 5.83629 3.49047 5.67258 4.77344 5.50391C13.3616 4.64509 22.0047 4.89517 30.625 4.9375C32.4102 4.94252 34.1953 4.94709 35.9805 4.95117C40.3203 4.9621 44.6602 4.97932 49 5C49.8912 13.6887 50.1162 22.2686 50 31C49.1832 31.0501 48.3664 31.1002 47.5249 31.1519C43.8077 31.3846 40.0914 31.6297 36.375 31.875C35.0898 31.9536 33.8046 32.0323 32.4805 32.1133C31.2365 32.1971 29.9926 32.2809 28.7109 32.3672C27.5693 32.4405 26.4277 32.5138 25.2515 32.5894C21.9201 33.0101 19.1043 33.7251 16 35C15.67 35.66 15.34 36.32 15 37C11 39 11 39 1 39C0.67 26.13 0.34 13.26 0 0Z" fill="#333332"/>
<path d="M22 1C31.9 1 41.8 1 52 1C52.8238 13.0474 53.0895 24.9231 53 37C46.07 37 39.14 37 32 37C31.9259 43.9627 31.9727 50.7197 32.7773 57.6328C33.1345 61.4296 33.0615 65.1891 33 69C37.9721 71.243 42.8635 71.7631 48.2344 72.4375C49.147 72.6231 50.0597 72.8088 51 73C51.33 73.66 51.66 74.32 52 75C52.66 74.67 53.32 74.34 54 74C54.9925 79.7069 55.1048 85.2141 55 91C55.66 91 56.32 91 57 91C55.9345 93.1309 54.7084 94.3659 53 96C53.66 97.65 54.32 99.3 55 101C54.4638 100.711 53.9275 100.423 53.375 100.125C49.9972 98.525 46.539 97.3169 42.875 96.5625C40.4869 95.8461 38.9121 94.5706 37 93C39.1015 96.9818 41.3691 99.3504 45 102C44.67 102.66 44.34 103.32 44 104C40.7 101.36 37.4 98.72 34 96C34.8125 92.5625 34.8125 92.5625 36 89C36.99 88.67 37.98 88.34 39 88C38.175 87.7938 37.35 87.5875 36.5 87.375C32.8346 85.935 30.4195 84.1988 27.3594 81.7852C23.5662 78.9152 19.5405 76.4 15.5391 73.832C13 72 13 72 11 69C13.475 68.505 13.475 68.505 16 68C16.33 69.32 16.66 70.64 17 72C19.97 71.01 19.97 71.01 23 70C23.6545 66.9457 24.1026 64.526 23.5 61.4375C22.8219 56.7757 23.1466 52.3134 23.4375 47.625C23.4897 46.6982 23.5419 45.7713 23.5957 44.8164C23.7246 42.5439 23.8615 40.2719 24 38C19.05 38 14.1 38 9 38C9 37.67 9 37.34 9 37C10.98 37 12.96 37 15 37C15.2269 36.3606 15.4537 35.7212 15.6875 35.0625C17 33 17 33 19.1094 32.4062C22.5874 31.9174 26.0586 31.6416 29.5625 31.4375C30.2605 31.395 30.9586 31.3526 31.6777 31.3088C37.7873 30.9622 43.8813 30.8957 50 31C49.8917 29.6929 49.8917 29.6929 49.7812 28.3594C49.6884 27.1683 49.5956 25.9772 49.5 24.75C49.4072 23.5898 49.3144 22.4297 49.2188 21.2344C48.9395 15.8296 49 10.4119 49 5C33.16 5.33 17.32 5.66 1 6C1 5.34 1 4.68 1 4C8.26 3.67 15.52 3.34 23 3C22.67 2.34 22.34 1.68 22 1Z" fill="#242221"/>
<path d="M81 81C81 81.99 81 82.98 81 84C79.6968 84.3635 79.6968 84.3635 78.3672 84.7344C69.6313 87.2606 69.6313 87.2606 62 92C63.32 92.33 64.64 92.66 66 93C65.67 93.99 65.34 94.98 65 96C68.0103 96.9342 68.8665 97.0445 72 96C71.4741 96.8662 71.4741 96.8662 70.9375 97.75C69.8508 100.358 70.0693 101.394 71 104C71.99 104 72.98 104 74 104C74.66 103.01 75.32 102.02 76 101C78.64 101.33 81.28 101.66 84 102C84 102.66 84 103.32 84 104C85.4463 103.441 85.4463 103.441 86.9219 102.871C88.1977 102.393 89.4738 101.915 90.75 101.438C91.3842 101.191 92.0184 100.944 92.6719 100.689C96.2458 99.3678 98.3832 98.8128 102 100C103.32 99.67 104.64 99.34 106 99C106.495 104.445 106.495 104.445 107 110C105.886 110.248 104.773 110.495 103.625 110.75C102.429 111.162 101.232 111.575 100 112C99.5669 112.93 99.5669 112.93 99.125 113.879C96.711 118.43 90.5845 120.154 86 122C83.2303 122.652 80.8555 122.89 78 123C78.99 122.505 78.99 122.505 80 122C76.9851 122 75.1314 122.52 72.3125 123.5C71.5043 123.778 70.696 124.057 69.8633 124.344C69.2484 124.56 68.6335 124.777 68 125C67.8571 117.571 67.8571 117.571 69 114C68.4431 113.794 67.8863 113.588 67.3125 113.375C64.6939 111.818 63.1647 109.888 61.293 107.516C59.4517 105.357 57.2211 103.754 55 102C53.1875 99.75 53.1875 99.75 52 98C53.293 95.1156 54.6594 93.1278 57 91C56.34 90.67 55.68 90.34 55 90C57.8758 86.7807 60.2323 85.2485 64.3125 83.875C65.2793 83.5489 66.2461 83.2227 67.2422 82.8867C68.1523 82.5941 69.0623 82.3015 70 82C70.7038 81.7589 71.4077 81.5179 72.1328 81.2695C75.4103 80.2125 77.7421 79.6968 81 81Z" fill="#363434"/>
<path d="M22 1C31.9 1 41.8 1 52 1C52.8238 13.0474 53.0895 24.9231 53 37C46.07 37 39.14 37 32 37C31.67 39.97 31.34 42.94 31 46C30.34 46.99 29.68 47.98 29 49C25.9399 46.96 25.2284 46.3073 24 43C24 41.35 24 39.7 24 38C19.05 38 14.1 38 9 38C9 37.67 9 37.34 9 37C10.98 37 12.96 37 15 37C15.2269 36.3606 15.4537 35.7212 15.6875 35.0625C17 33 17 33 19.1094 32.4062C22.5874 31.9174 26.0586 31.6416 29.5625 31.4375C30.2605 31.395 30.9586 31.3526 31.6777 31.3088C37.7873 30.9622 43.8813 30.8957 50 31C49.8917 29.6929 49.8917 29.6929 49.7812 28.3594C49.6884 27.1683 49.5956 25.9772 49.5 24.75C49.4072 23.5898 49.3144 22.4297 49.2188 21.2344C48.9395 15.8296 49 10.4119 49 5C33.16 5.33 17.32 5.66 1 6C1 5.34 1 4.68 1 4C8.26 3.67 15.52 3.34 23 3C22.67 2.34 22.34 1.68 22 1Z" fill="#13100A"/>
<path d="M109 131C109 134.63 109 138.26 109 142C105.003 144.174 100.987 146.307 96.9517 148.409C95.5868 149.126 94.2272 149.853 92.8735 150.591C83.2374 155.834 76.1766 158.177 65 157C65 154.69 65 152.38 65 150C65.9088 149.648 66.8176 149.296 67.7539 148.934C80.1742 144.075 92.275 138.771 103.828 132.066C106 131 106 131 109 131Z" fill="#242322"/>
<path d="M0 0C17.49 0 34.98 0 53 0C54.125 12.375 54.125 12.375 54.0977 17.7617C54.0944 18.8993 54.0912 20.0369 54.0879 21.209C54.0753 22.9308 54.0753 22.9308 54.0625 24.6875C54.058 25.8779 54.0535 27.0684 54.0488 28.2949C54.0372 31.1967 54.0208 34.0983 54 37C53.67 37 53.34 37 53 37C52.2608 24.9751 51.897 13.0487 52 1C45.73 1.33 39.46 1.66 33 2C33 2.33 33 2.66 33 3C25.7657 3.88071 18.6582 4.12571 11.375 4.0625C10.3708 4.05799 9.36664 4.05348 8.33203 4.04883C5.88796 4.03719 3.44401 4.02084 1 4C1 4.66 1 5.32 1 6C1.99 6 2.98 6 4 6C4.83931 15.0225 5.12225 23.9402 5 33C6.42313 32.7525 6.42313 32.7525 7.875 32.5C12.5764 31.8146 17.26 31.9142 22 32C22 32.33 22 32.66 22 33C21.0306 33.2887 20.0612 33.5775 19.0625 33.875C15.8934 34.6421 15.8934 34.6421 15 37C11 39 11 39 1 39C0.67 26.13 0.34 13.26 0 0Z" fill="#32302E"/>
<path d="M85 86C83.35 86.33 81.7 86.66 80 87C79.7731 87.8869 79.5463 88.7738 79.3125 89.6875C77.8281 93.4338 75.976 95.3373 73 98C75.97 98.495 75.97 98.495 79 99C77.35 100.98 75.7 102.96 74 105C73.01 104.67 72.02 104.34 71 104C69 99.7895 69 99.7895 69 98C68.3813 97.8763 67.7625 97.7525 67.125 97.625C65 97 65 97 63 95C63.66 95 64.32 95 65 95C64.67 94.34 64.34 93.68 64 93C63.01 92.67 62.02 92.34 61 92C66.3869 87.3613 66.3869 87.3613 70 87C70.99 87.33 71.98 87.66 73 88C75.2124 87.4295 75.2124 87.4295 77.5 86.5C81.6667 84.8889 81.6667 84.8889 85 86Z" fill="#69686A"/>
<path d="M22 58C22.66 58.33 23.32 58.66 24 59C24.8174 62.5423 25.1379 65.295 24.4375 68.875C23 71 23 71 19.875 71.8125C18.4519 71.9053 18.4519 71.9053 17 72C16.34 71.01 15.68 70.02 15 69C14.01 69.33 13.02 69.66 12 70C12 70.99 12 71.98 12 73C11.9794 73.8456 11.9588 74.6913 11.9375 75.5625C11.8278 78.0091 11.8278 78.0091 13 80C12.01 80 11.02 80 10 80C9.92652 78.9346 9.92652 78.9346 9.85156 77.8477C9.73941 76.469 9.73941 76.469 9.625 75.0625C9.55539 74.146 9.48578 73.2295 9.41406 72.2852C9.2091 71.154 9.2091 71.154 9 70C8.34 69.67 7.68 69.34 7 69C7.06641 67.2383 7.06641 67.2383 8 65C10.322 63.5293 12.4693 62.3446 14.9375 61.1875C15.584 60.8633 16.2304 60.5391 16.8965 60.2051C18.5639 59.3965 20.2801 58.69 22 58Z" fill="#3A3838"/>
<path d="M32 56C32.33 56.99 32.66 57.98 33 59C34.32 59 35.64 59 37 59C36.67 61.31 36.34 63.62 36 66C36.9694 66.1238 37.9388 66.2475 38.9375 66.375C41.9358 66.8103 44.9058 67.3342 47.875 67.9375C49.0158 68.1676 49.0158 68.1676 50.1797 68.4023C50.7804 68.5996 51.3811 68.7968 52 69C53.6073 72.2145 53.0575 75.4361 53 79C52.34 77.68 51.68 76.36 51 75C50.67 76.98 50.34 78.96 50 81C49.67 81 49.34 81 49 81C49 78.36 49 75.72 49 73C47.845 73.0825 46.69 73.165 45.5 73.25C41.4801 73.1855 38.1423 72.6503 34.5664 70.7539C31.1129 66.887 31.8863 60.9188 32 56Z" fill="#575658"/>
<path d="M88 91C90.4164 91.4833 92.6583 92.2194 95 93C94.67 94.32 94.34 95.64 94 97C91.525 96.505 91.525 96.505 89 96C89 96.99 89 97.98 89 99C86.69 99 84.38 99 82 99C81.67 99.99 81.34 100.98 81 102C80.01 101.67 79.02 101.34 78 101C77.67 100.34 77.34 99.68 77 99C74.9754 98.3479 74.9754 98.3479 73 98C73.625 96.125 73.625 96.125 75 94C79.111 92.1314 82.5347 91.8962 87 92C87.33 91.67 87.66 91.34 88 91Z" fill="#818183"/>
<path d="M32 17C31.67 18.32 31.34 19.64 31 21C22.6438 21.7548 14.39 22.1361 6 22C6 20.68 6 19.36 6 18C7.32 18 8.64 18 10 18C10.33 18.66 10.66 19.32 11 20C11.33 19.34 11.66 18.68 12 18C18.5602 16.5091 25.3098 16.9095 32 17Z" fill="#8A8A8A"/>
<path d="M13 100C14.9736 102.96 15.2166 103.913 15.625 107.25C16.846 113.08 20.2199 115.74 25 119C27.9409 120.795 30.9213 122.454 34 124C33.34 124.99 32.68 125.98 32 127C27.7667 125.571 24.852 123.484 21.4375 120.625C20.5081 119.854 19.5787 119.083 18.6211 118.289C16.3122 116.273 14.1338 114.199 12 112C12.66 112 13.32 112 14 112C13.67 108.04 13.34 104.08 13 100Z" fill="#3D3C3D"/>
<path d="M85 86C84.001 86.3493 83.002 86.6987 81.9727 87.0586C80.6692 87.5181 79.3658 87.9777 78.0625 88.4375C77.0735 88.7827 77.0735 88.7827 76.0645 89.1348C72.7767 90.1197 72.7767 90.1197 70 92C70.66 92.33 71.32 92.66 72 93C71.67 94.32 71.34 95.64 71 97C68.6875 97.6875 68.6875 97.6875 66 98C64.1875 96.5625 64.1875 96.5625 63 95C63.66 95 64.32 95 65 95C64.67 94.34 64.34 93.68 64 93C63.01 92.67 62.02 92.34 61 92C66.3869 87.3613 66.3869 87.3613 70 87C70.99 87.33 71.98 87.66 73 88C75.2124 87.4295 75.2124 87.4295 77.5 86.5C81.6667 84.8889 81.6667 84.8889 85 86Z" fill="#4C4B49"/>
<path d="M24 43C24.99 43.495 24.99 43.495 26 44C26.33 44.99 26.66 45.98 27 47C27.66 47.33 28.32 47.66 29 48C29.66 47.34 30.32 46.68 31 46C31.33 49.3 31.66 52.6 32 56C28 58 28 58 24 58C24 53.05 24 48.1 24 43Z" fill="#2C2B29"/>
<path d="M67 114C67.66 114 68.32 114 69 114C68.67 117.63 68.34 121.26 68 125C70.97 124.01 73.94 123.02 77 122C74.1667 124.833 72.6455 125.719 69 127C68.8788 128.216 68.7577 129.431 68.6328 130.684C68.464 132.268 68.2947 133.853 68.125 135.438C68.0464 136.24 67.9677 137.042 67.8867 137.869C67.6615 139.922 67.3378 141.963 67 144C66.34 144.33 65.68 144.66 65 145C65.1182 140.906 65.2424 136.813 65.3723 132.72C65.4157 131.327 65.4573 129.934 65.4973 128.541C65.555 126.54 65.6192 124.54 65.6836 122.539C65.7203 121.335 65.7569 120.13 65.7947 118.889C66 116 66 116 67 114Z" fill="#272525"/>
<path d="M87 86C87.66 86.66 88.32 87.32 89 88C89.66 88.1238 90.32 88.2475 91 88.375C93 89 93 89 94.25 91.0625C94.4975 91.7019 94.745 92.3413 95 93C92 93 92 93 89.9375 92.4375C87.9326 91.7699 87.9326 91.7699 86 93C84.2964 93.2262 82.5867 93.4089 80.875 93.5625C79.9649 93.6463 79.0548 93.7301 78.1172 93.8164C77.0692 93.9073 77.0692 93.9073 76 94C77.75 90.125 77.75 90.125 80 89C80 88.34 80 87.68 80 87C83 86 83 86 87 86Z" fill="#727174"/>
<path d="M43.5625 15.9375C44.6969 15.9581 45.8312 15.9787 47 16C46.67 17.32 46.34 18.64 46 20C44.0633 20.1952 42.1256 20.3809 40.1875 20.5625C39.1086 20.6669 38.0296 20.7713 36.918 20.8789C34 21 34 21 31 20C31.33 19.01 31.66 18.02 32 17C33.1344 17.0206 34.2687 17.0412 35.4375 17.0625C39.522 16.9908 39.478 16.0092 43.5625 15.9375Z" fill="#6F3637"/>
<path d="M33 67C33.5337 67.3184 34.0673 67.6368 34.6172 67.9648C37.5224 69.2269 39.969 69.3803 43.125 69.5625C48.8056 69.9028 48.8056 69.9028 51 71C50.67 74.3 50.34 77.6 50 81C49.67 81 49.34 81 49 81C49 78.36 49 75.72 49 73C47.845 73.0825 46.69 73.165 45.5 73.25C40.607 73.285 37.1315 71.4613 33 69C33 68.34 33 67.68 33 67Z" fill="#403E40"/>
<path d="M53 56C50 58 50 58 47.25 57.5C43.3057 56.8932 40.7719 57.8125 37 59C35.68 59 34.36 59 33 59C33 58.01 33 57.02 33 56C40.1878 53.195 45.8513 53.6657 53 56Z" fill="#848387"/>
<path d="M99 115C92.6711 119.259 85.9614 123.746 78 123C80.8385 120.162 84.313 118.903 87.9375 117.313C88.6665 116.979 89.3954 116.646 90.1465 116.303C95.641 113.88 95.641 113.88 99 115Z" fill="#3D3B3C"/>
<path d="M28.5625 38.9375C29.7691 38.9684 29.7691 38.9684 31 39C31.25 45.625 31.25 45.625 29 49C26 47 26 47 25.25 43.4375C25.1675 42.3031 25.085 41.1688 25 40C26 39 26 39 28.5625 38.9375Z" fill="#0E0A02"/>
<path d="M80 83C72.9379 86.8135 65.5747 89.4042 58 92C58.33 91.01 58.66 90.02 59 89C61.4605 87.8197 63.8261 86.8178 66.375 85.875C67.0608 85.6107 67.7466 85.3465 68.4531 85.0742C76.7188 81.9063 76.7188 81.9063 80 83Z" fill="#151413"/>
<path d="M24 66C24.33 66 24.66 66 25 66C25.375 68.25 25.375 68.25 25 71C22.3125 73.4375 22.3125 73.4375 19 75C15.6483 74.3764 14.3916 73.4592 12.1875 70.875C11.7956 70.2563 11.4038 69.6375 11 69C12.65 68.67 14.3 68.34 16 68C16.33 69.32 16.66 70.64 17 72C20.0038 71.3046 20.0038 71.3046 23 70C23.9688 67.9676 23.9688 67.9676 24 66Z" fill="#2C2A2A"/>
<path d="M88 82C87.1956 82.2888 86.3913 82.5775 85.5625 82.875C82.8674 83.7326 82.8674 83.7326 82 86C80.0742 86.8867 80.0742 86.8867 77.6875 87.6875C76.9076 87.9595 76.1277 88.2315 75.3242 88.5117C72.8173 89.0384 71.3987 88.8179 69 88C73.2938 85.4237 77.1803 83.4571 82 82C84.4909 80.7545 85.4108 81.2233 88 82Z" fill="#616163"/>
<path d="M85 93C84.67 93.66 84.34 94.32 84 95C84.66 95 85.32 95 86 95C85.67 95.66 85.34 96.32 85 97C84.01 96.67 83.02 96.34 82 96C79.6532 96.6176 77.3185 97.2834 75 98C74.34 98 73.68 98 73 98C73.625 96.125 73.625 96.125 75 94C78.6504 92.3335 81.184 91.5323 85 93Z" fill="#CACACB"/>
<path d="M92 92C92.99 92.33 93.98 92.66 95 93C94.67 94.32 94.34 95.64 94 97C92.02 97 90.04 97 88 97C87.67 96.34 87.34 95.68 87 95C86.01 94.34 85.02 93.68 84 93C87.0967 91.1199 88.5801 90.7865 92 92Z" fill="#97979A"/>
<path d="M83 86C84.32 86 85.64 86 87 86C87.66 86.66 88.32 87.32 89 88C89.66 88.1238 90.32 88.2475 91 88.375C93 89 93 89 94.25 91.0625C94.4975 91.7019 94.745 92.3413 95 93C92 93 92 93 89.9375 92.4375C87.9326 91.7699 87.9326 91.7699 86 93C86.33 91.68 86.66 90.36 87 89C85.68 88.67 84.36 88.34 83 88C83 87.34 83 86.68 83 86Z" fill="#7F7E82"/>
<path d="M34 8.99998C34 9.98998 34 10.98 34 12C30.37 12 26.74 12 23 12C23 11.01 23 10.02 23 8.99998C27.0505 7.64982 29.792 8.37913 34 8.99998Z" fill="#737373"/>
<path d="M85 86C78.2681 88.7053 72.254 90.5243 65 91C65.33 90.01 65.66 89.02 66 88C68.9439 86.8225 69.8995 86.9665 73 88C75.2124 87.4295 75.2124 87.4295 77.5 86.5C81.6667 84.8889 81.6667 84.8889 85 86Z" fill="#525152"/>
<path d="M6 18C7.32 18 8.64 18 10 18C10.33 18.66 10.66 19.32 11 20C12.32 20 13.64 20 15 20C15.99 20.66 16.98 21.32 18 22C14.04 22 10.08 22 6 22C6 20.68 6 19.36 6 18Z" fill="#767575"/>
<path d="M32 56C31.67 57.65 31.34 59.3 31 61C30.01 61 29.02 61 28 61C28 60.34 28 59.68 28 59C27.01 59.495 27.01 59.495 26 60C26 61.32 26 62.64 26 64C25.34 64 24.68 64 24 64C23.67 62.02 23.34 60.04 23 58C29.75 56 29.75 56 32 56Z" fill="#110F0C"/>
<path d="M72 147C72.66 147.33 73.32 147.66 74 148C73.0306 148.557 72.0612 149.114 71.0625 149.688C67.8101 151.68 67.8101 151.68 67.125 154.75C67.0837 155.493 67.0425 156.235 67 157C66.34 157 65.68 157 65 157C65 154.69 65 152.38 65 150C67.3037 148.933 69.6402 147.936 72 147Z" fill="#1E1D1B"/>
<path d="M107 97C107 99.97 107 102.94 107 106C106.67 106 106.34 106 106 106C106 103.69 106 101.38 106 99C105.402 99.3506 104.804 99.7013 104.188 100.063C102 101 102 101 99 100C101.466 96.8849 103.108 96.6845 107 97Z" fill="#585758"/>
<path d="M101 100C100 102 100 102 98.2227 102.703C97.1534 102.974 97.1534 102.974 96.0625 103.25C95.3522 103.441 94.642 103.632 93.9102 103.828C92.9646 103.913 92.9646 103.913 92 104C91.34 103.34 90.68 102.68 90 102C91.2661 101.468 92.5381 100.95 93.8125 100.437C94.5202 100.147 95.2279 99.8574 95.957 99.5586C98 99 98 99 101 100Z" fill="#434243"/>
<path d="M67 114C67.66 114 68.32 114 69 114C68.1964 122.036 68.1964 122.036 66 126C65.973 124.375 65.9536 122.75 65.9375 121.125C65.9259 120.22 65.9143 119.315 65.9023 118.383C66 116 66 116 67 114Z" fill="#2D2B2A"/>
<path d="M69 99C71.475 99.495 71.475 99.495 74 100C74.33 101.32 74.66 102.64 75 104C74.01 104.495 74.01 104.495 73 105C70.7522 102.948 69.9978 101.993 69 99Z" fill="#5C5B5C"/>
<path d="M36 93C36.5569 93.7425 37.1137 94.485 37.6875 95.25C39.9303 97.9171 42.2207 99.9156 45 102C44.67 102.66 44.34 103.32 44 104C42.6529 103.125 41.3226 102.224 40 101.312C39.2575 100.814 38.515 100.315 37.75 99.8008C36 98 36 98 35.75 95.293C35.8325 94.5363 35.915 93.7796 36 93Z" fill="#161514"/>
<path d="M43 70C48.75 69.875 48.75 69.875 51 71C50.67 74.3 50.34 77.6 50 81C49.67 81 49.34 81 49 81C48.67 78.36 48.34 75.72 48 73C45.525 72.01 45.525 72.01 43 71C43 70.67 43 70.34 43 70Z" fill="#484648"/>
<path d="M80 88C80.33 88.99 80.66 89.98 81 91C82.32 91.33 83.64 91.66 85 92C82.03 92.66 79.06 93.32 76 94C78 90 78 90 80 88Z" fill="#7E7E80"/>
<path d="M67 88C64.03 89.32 61.06 90.64 58 92C59 89 59 89 60.8125 87.75C63 87 63 87 67 88Z" fill="#0D0C0B"/>
<path d="M37 93C38.9375 93.75 38.9375 93.75 41 95C41.75 97.125 41.75 97.125 42 99C40.0625 98.25 40.0625 98.25 38 97C37.25 94.875 37.25 94.875 37 93Z" fill="#413F41"/>
</svg>
