<svg width="160" height="140" viewBox="0 0 160 140" fill="none" xmlns="http://www.w3.org/2000/svg">
<path d="M73.0527 1.3142C73.5037 3.65175 73.838 6.01224 74.1152 8.3767C74.1975 9.06554 74.2799 9.75439 74.3647 10.4641C74.5975 12.4137 74.8252 14.3639 75.0527 16.3142C75.2591 17.6895 75.4669 19.0646 75.6777 20.4392C76.0242 24.0198 76.0896 27.4622 76.0761 31.0564C76.0727 32.228 76.0693 33.3996 76.0659 34.6067C76.0593 35.9469 76.0593 35.9469 76.0527 37.3142C71.8242 38.4627 67.5948 39.6075 63.3652 40.7517C62.167 41.0772 60.9688 41.4027 59.7343 41.738C57.9989 42.2069 57.9989 42.2069 56.2285 42.6853C54.6338 43.1173 54.6338 43.1173 53.007 43.5581C50.3654 44.2342 47.7316 44.8096 45.0527 45.3142C45.2164 46.2642 45.3801 47.2143 45.5488 48.1931C46.2183 52.8795 46.1619 57.5269 46.1152 62.2517C46.1107 63.1263 46.1061 64.001 46.1015 64.9021C46.0898 67.0395 46.0719 69.1769 46.0527 71.3142C47.4139 71.407 47.4139 71.407 48.8027 71.5017C53.0527 72.3142 53.0527 72.3142 65.0527 77.3142C65.3827 68.0742 65.7127 58.8342 66.0527 49.3142C70.819 47.5268 75.3976 45.8364 80.2402 44.3767C81.3513 44.0403 82.4625 43.7038 83.6074 43.3572C84.7443 43.013 85.8813 42.6688 87.0527 42.3142C89.3236 41.6061 91.5944 40.8978 93.8652 40.1892C98.5728 38.7446 103.247 37.3913 108.053 36.3142C109.661 35.8811 109.661 35.8811 111.303 35.4392C125.136 34.9781 139.637 45.4157 149.631 54.197C151.944 56.3112 151.944 56.3112 154.287 57.8064C156.624 59.5361 157.679 60.7276 159.053 63.3142C159.281 66.0793 159.355 68.6235 159.279 71.3806C159.268 72.1711 159.256 72.9616 159.245 73.776C159.2 76.2896 159.131 78.8014 159.053 81.3142C159.029 82.1146 159.005 82.915 158.98 83.7397C158.827 88.4773 158.615 93.2098 158.363 97.9431C158.237 100.368 158.132 102.794 158.027 105.22C157.947 106.773 157.866 108.325 157.783 109.877C157.755 110.597 157.727 111.318 157.698 112.061C157.577 114.068 157.577 114.068 157.053 117.314C154.053 119.314 154.053 119.314 152.24 119.189C150.053 118.314 150.053 118.314 147.115 116.189C144.347 114.084 144.347 114.084 141.932 114.474C136.977 115.92 132.248 117.934 127.471 119.875C126.691 120.186 125.911 120.497 125.107 120.818C124.401 121.105 123.694 121.392 122.966 121.687C121.053 122.314 121.053 122.314 118.053 122.314C118.053 125.944 118.053 129.574 118.053 133.314C114.011 135.335 112.425 135.838 108.053 135.314C105.771 133.732 105.771 133.732 103.553 131.502C99.6765 127.793 95.7313 124.397 91.4902 121.127C90.3088 120.203 89.1278 119.278 87.9472 118.353C85.8924 116.746 83.8332 115.145 81.7651 113.555C79.3884 111.722 77.0322 109.864 74.6777 108.002C73.9216 107.427 73.1654 106.853 72.3864 106.261C67.1597 102.082 67.1597 102.082 66.5761 97.8962C66.7334 97.0442 66.8906 96.1921 67.0527 95.3142C54.3439 103.829 54.3439 103.829 44.2675 115.084C42.0527 117.314 42.0527 117.314 38.4472 117.888C33.1168 117.537 28.5366 115.331 23.7402 113.127C22.8183 112.717 21.8963 112.307 20.9465 111.885C18.3086 110.709 15.6799 109.514 13.0527 108.314C11.7823 107.743 10.5115 107.172 9.24017 106.603C6.83749 105.521 4.44124 104.427 2.05267 103.314C1.49992 100.489 1.35904 99.0641 2.05267 96.3142C8.50853 86.7659 19.6741 77.2779 30.0527 72.3142C30.7127 72.3142 31.3727 72.3142 32.0527 72.3142C32.0527 64.7242 32.0527 57.1342 32.0527 49.3142C26.0692 50.9116 26.0692 50.9116 20.0873 52.5151C10.6674 55.0121 10.6674 55.0121 7.05267 55.3142C4.05267 53.3142 4.05267 53.3142 3.34491 50.4443C3.19304 49.2425 3.04118 48.0407 2.88471 46.8025C2.80017 46.156 2.71563 45.5096 2.62853 44.8435C2.45186 43.4733 2.28164 42.1022 2.11737 40.7305C1.868 38.6503 1.59993 36.5732 1.32807 34.4958C0.553529 28.4032 -0.0443252 22.4685 0.0526747 16.3142C17.5246 11.2799 35.1872 7.12933 52.9013 3.05419C55.5126 2.44102 58.1094 1.79413 60.705 1.11889C64.872 0.117267 69.1048 -0.659725 73.0527 1.3142Z" fill="#34373C"/>
<path d="M73.0527 1.3142C73.5037 3.65175 73.838 6.01224 74.1152 8.3767C74.1975 9.06554 74.2799 9.75439 74.3647 10.4641C74.5975 12.4137 74.8252 14.3639 75.0527 16.3142C75.2591 17.6895 75.4669 19.0646 75.6777 20.4392C76.0242 24.0198 76.0896 27.4622 76.0761 31.0564C76.0727 32.228 76.0693 33.3996 76.0659 34.6067C76.0593 35.9469 76.0593 35.9469 76.0527 37.3142C71.8242 38.4627 67.5948 39.6075 63.3652 40.7517C62.167 41.0772 60.9688 41.4027 59.7343 41.738C57.9989 42.2069 57.9989 42.2069 56.2285 42.6853C54.6338 43.1173 54.6338 43.1173 53.007 43.5581C50.3654 44.2342 47.7316 44.8096 45.0527 45.3142C45.2164 46.2642 45.3801 47.2143 45.5488 48.1931C46.2183 52.8795 46.1619 57.5269 46.1152 62.2517C46.1107 63.1263 46.1061 64.001 46.1015 64.9021C46.0898 67.0395 46.0719 69.1769 46.0527 71.3142C47.0749 71.4263 48.0971 71.5385 49.1503 71.654C52.9602 72.2986 55.9638 73.3315 59.4902 74.8767C60.5408 75.3317 61.5913 75.7868 62.6738 76.2556C63.8513 76.7796 63.8513 76.7796 65.0527 77.3142C65.0527 77.9742 65.0527 78.6342 65.0527 79.3142C65.7127 79.3142 66.3727 79.3142 67.0527 79.3142C68.9768 91.5005 68.9768 91.5005 65.9057 95.9914C62.8523 99.1608 59.3058 101.679 55.6899 104.167C53.497 105.704 51.495 107.416 49.4902 109.189C48.8701 109.724 48.2501 110.259 47.6113 110.81C45.8296 112.427 45.8296 112.427 44.0527 115.252C42.0527 117.314 42.0527 117.314 38.5722 117.705C33.1202 117.557 28.6283 115.373 23.7402 113.127C22.8183 112.717 21.8963 112.307 20.9465 111.885C18.3086 110.709 15.6799 109.514 13.0527 108.314C11.7823 107.743 10.5115 107.172 9.24017 106.603C6.83749 105.521 4.44124 104.427 2.05267 103.314C1.49992 100.489 1.35904 99.0641 2.05267 96.3142C8.50853 86.7659 19.6741 77.2779 30.0527 72.3142C30.7127 72.3142 31.3727 72.3142 32.0527 72.3142C32.0527 64.7242 32.0527 57.1342 32.0527 49.3142C26.0692 50.9116 26.0692 50.9116 20.0873 52.5151C10.6674 55.0121 10.6674 55.0121 7.05267 55.3142C4.05267 53.3142 4.05267 53.3142 3.34491 50.4443C3.19304 49.2425 3.04118 48.0407 2.88471 46.8025C2.80017 46.156 2.71563 45.5096 2.62853 44.8435C2.45186 43.4733 2.28164 42.1022 2.11737 40.7305C1.868 38.6503 1.59993 36.5732 1.32807 34.4958C0.553529 28.4032 -0.0443252 22.4685 0.0526747 16.3142C17.5246 11.2799 35.1872 7.12933 52.9013 3.05419C55.5126 2.44102 58.1094 1.79413 60.705 1.11889C64.872 0.117267 69.1048 -0.659725 73.0527 1.3142Z" fill="#0C0D0E"/>
<path d="M119.053 36.3142C131.75 40.5581 142.028 47.5888 152.053 56.3142C152.795 56.9368 153.538 57.5594 154.303 58.2009C154.942 58.7746 155.581 59.3482 156.24 59.9392C156.791 60.4265 157.341 60.9137 157.908 61.4158C159.658 64.3186 159.229 67.0086 159.053 70.3142C153.732 72.2865 148.407 74.2473 143.08 76.2009C140.978 76.9737 138.879 77.75 136.78 78.529C133.415 79.7775 130.047 81.0153 126.678 82.2517C125.603 82.6532 124.528 83.0546 123.42 83.4683C122.404 83.8389 121.388 84.2096 120.342 84.5915C119.441 84.924 118.541 85.2565 117.614 85.5991C114.877 86.3632 112.874 86.6739 110.053 86.3142C108.238 85.0041 108.238 85.0041 106.557 83.1658C105.922 82.4944 105.288 81.823 104.634 81.1313C103.968 80.4079 103.302 79.6845 102.615 78.9392C94.0978 70.0468 85.2627 62.6499 74.0527 57.3142C74.287 55.4548 74.287 55.4548 75.0527 53.3142C79.1872 50.5465 84.0417 48.6676 89.0527 49.3142C88.2483 49.0667 87.4439 48.8192 86.6152 48.5642C85.7695 48.1517 84.9239 47.7392 84.0527 47.3142C83.3925 45.2361 83.3925 45.2361 83.0527 43.3142C85.7187 42.5204 88.3855 41.7292 91.0527 40.9392C91.7965 40.7175 92.5403 40.4958 93.3066 40.2673C97.0187 39.1698 100.729 38.1291 104.49 37.2126C109.923 35.8425 113.397 35.1239 119.053 36.3142Z" fill="#2E2E2E"/>
<path d="M45.0527 45.3142C46.0329 51.0026 46.1722 56.4872 46.1152 62.2517C46.1107 63.1263 46.1061 64.001 46.1015 64.9021C46.0898 67.0395 46.0719 69.1769 46.0527 71.3142C47.0749 71.4264 48.0971 71.5385 49.1503 71.6541C52.9602 72.2986 55.9638 73.3315 59.4902 74.8767C60.5408 75.3317 61.5913 75.7868 62.6738 76.2556C63.4588 76.605 64.2438 76.9543 65.0527 77.3142C65.0527 77.9742 65.0527 78.6342 65.0527 79.3142C65.7127 79.3142 66.3727 79.3142 67.0527 79.3142C68.9768 91.5005 68.9768 91.5005 65.9057 95.9915C62.8523 99.1608 59.3058 101.679 55.6899 104.167C53.497 105.704 51.495 107.416 49.4902 109.189C48.8701 109.724 48.2501 110.259 47.6113 110.81C45.8296 112.427 45.8296 112.427 44.0527 115.252C42.0527 117.314 42.0527 117.314 38.5722 117.705C33.1202 117.557 28.6283 115.373 23.7402 113.127C22.8183 112.717 21.8963 112.307 20.9465 111.885C18.3086 110.709 15.6799 109.514 13.0527 108.314C11.7823 107.743 10.5115 107.172 9.24017 106.603C6.83749 105.521 4.44124 104.427 2.05267 103.314C1.49992 100.489 1.35904 99.0642 2.05267 96.3142C8.50853 86.7659 19.6741 77.2779 30.0527 72.3142C30.7127 72.3142 31.3727 72.3142 32.0527 72.3142C32.0527 64.7242 32.0527 57.1342 32.0527 49.3142C31.3927 48.9842 30.7327 48.6542 30.0527 48.3142C31.989 47.8099 33.9268 47.3109 35.8652 46.8142C36.9441 46.5358 38.0231 46.2573 39.1347 45.9705C42.0527 45.3142 42.0527 45.3142 45.0527 45.3142Z" fill="#272727"/>
<path d="M158.053 81.3142C158.383 81.3142 158.713 81.3142 159.053 81.3142C159.103 85.5826 159.139 89.8508 159.163 94.1194C159.173 95.5683 159.186 97.0172 159.204 98.4661C159.38 113.555 159.38 113.555 157.053 120.314C156.053 121.314 156.053 121.314 154.205 121.412C152.154 121.379 150.103 121.347 148.053 121.314C147.723 120.324 147.393 119.334 147.053 118.314C138.403 119.206 138.403 119.206 130.24 121.939C126.2 123.682 123.414 123.544 119.053 123.314C120.043 129.254 120.043 129.254 121.053 135.314C117.83 137.83 115.637 139.231 111.553 139.814C107.278 139.204 105.457 137.969 102.053 135.314C100.929 134.446 100.929 134.446 99.7831 133.56C98.217 132.348 96.6566 131.129 95.1035 129.9C93.4701 128.637 91.7707 127.46 90.0527 126.314C90.0527 125.654 90.0527 124.994 90.0527 124.314C88.5677 123.819 88.5677 123.819 87.0527 123.314C86.0527 122.314 85.0527 121.314 84.0527 120.314C83.0008 119.634 81.9489 118.953 80.8652 118.252C79.937 117.612 79.0089 116.973 78.0527 116.314C78.0527 115.654 78.0527 114.994 78.0527 114.314C77.2483 114.046 76.4439 113.778 75.6152 113.502C74.7695 113.11 73.9239 112.718 73.0527 112.314C72.5577 110.829 72.5577 110.829 72.0527 109.314C70.4072 108.597 68.7385 107.931 67.0527 107.314C66.3927 106.654 65.7327 105.994 65.0527 105.314C61.7666 105.649 60.0606 106.923 57.7402 109.185C57.1395 109.76 56.5388 110.334 55.9199 110.926C55.3037 111.528 54.6875 112.131 54.0527 112.752C52.8276 113.942 51.5986 115.129 50.3652 116.31C49.8251 116.838 49.2849 117.366 48.7285 117.91C45.2143 120.855 42.0707 121.807 37.4477 121.684C32.3349 120.895 27.6888 118.583 22.9902 116.502C21.9402 116.05 20.8903 115.598 19.8085 115.133C17.7833 114.26 15.7627 113.376 13.7475 112.48C12.1121 111.772 10.4599 111.101 8.78363 110.496C6.86908 109.802 6.86908 109.802 4.05267 108.314C3.37665 105.721 3.37665 105.721 3.05267 103.314C6.5328 104.729 10.0116 106.146 13.4902 107.564C14.4641 107.96 15.4379 108.356 16.4413 108.763C21.7127 110.914 26.9397 113.121 32.1059 115.515C35.6449 116.968 38.4139 117.771 42.0527 116.314C44.691 113.853 46.9414 111.198 49.2519 108.427C52.1731 105.03 55.4922 102.328 59.0527 99.6267C59.6169 99.1931 60.1811 98.7595 60.7624 98.3127C64.7749 95.3142 64.7749 95.3142 67.0527 95.3142C67.1558 96.2836 67.2589 97.253 67.3652 98.2517C69.004 103.837 73.8397 106.604 78.2958 109.968C81.6089 112.507 84.8213 115.172 88.0527 117.814C89.4182 118.924 90.7841 120.033 92.1503 121.142C106.716 132.978 106.716 132.978 108.053 134.314C111.074 134.137 114.049 133.695 117.053 133.314C117.383 129.684 117.713 126.054 118.053 122.314C121.798 120.78 125.548 119.261 129.303 117.752C130.898 117.095 130.898 117.095 132.525 116.426C133.55 116.016 134.575 115.607 135.631 115.185C136.573 114.803 137.516 114.421 138.487 114.027C141.252 113.259 142.427 113.247 145.053 114.314C146.022 115.015 146.991 115.717 147.99 116.439C151.191 118.875 151.191 118.875 156.053 117.314C156.713 105.434 157.373 93.5542 158.053 81.3142Z" fill="#DDDDDD"/>
<path d="M69.0527 15.3142C69.0527 18.9442 69.0527 22.5742 69.0527 26.3142C67.9801 26.5962 66.9075 26.8782 65.8024 27.1687C61.7486 28.2345 57.695 29.3007 53.6413 30.3669C51.9008 30.8247 50.1602 31.2824 48.4196 31.74C46.7286 32.1846 45.0377 32.6293 43.3468 33.0741C41.6711 33.5149 39.9953 33.9552 38.3194 34.3951C34.3969 35.4264 30.4775 36.4668 26.5649 37.5349C25.5289 37.8164 25.5289 37.8164 24.472 38.1036C22.6225 38.6074 20.7742 39.1154 18.926 39.6238C16.0527 40.3142 16.0527 40.3142 13.0527 40.3142C12.7227 36.6842 12.3927 33.0542 12.0527 29.3142C18.5702 27.3171 25.0889 25.4903 31.7089 23.8689C32.5779 23.6536 33.4468 23.4382 34.3421 23.2163C37.0784 22.5383 39.8154 21.8634 42.5527 21.1892C46.1888 20.2935 49.8241 19.3946 53.4589 18.4939C54.2922 18.2897 55.1254 18.0856 55.9839 17.8752C66.3168 15.3142 66.3168 15.3142 69.0527 15.3142Z" fill="#347BE2"/>
<path d="M74.0527 53.3142C80.7615 56.2832 86.3037 59.8267 91.9238 64.5447C94.1309 66.4424 94.1309 66.4424 97.0527 68.3142C97.0527 68.9742 97.0527 69.6342 97.0527 70.3142C97.6508 70.5823 98.2489 70.8505 98.8652 71.1267C101.051 72.3134 102.466 73.4102 104.053 75.3142C104.053 75.9742 104.053 76.6342 104.053 77.3142C104.713 77.3142 105.373 77.3142 106.053 77.3142C106.589 77.9948 107.125 78.6755 107.678 79.3767C110.013 81.7236 110.013 81.7236 113.689 81.1306C118.159 80.4411 122.089 78.9333 126.24 77.1892C133.271 74.3439 140.356 71.7698 147.553 69.3767C148.467 69.0704 149.381 68.7641 150.323 68.4485C156.791 66.3142 156.791 66.3142 159.053 66.3142C159.053 67.6342 159.053 68.9542 159.053 70.3142C153.732 72.2865 148.407 74.2473 143.08 76.2009C140.978 76.9737 138.879 77.75 136.78 78.5291C133.415 79.7775 130.047 81.0153 126.678 82.2517C125.065 82.8539 125.065 82.8539 123.42 83.4683C122.404 83.8389 121.388 84.2096 120.342 84.5916C119.441 84.9241 118.541 85.2565 117.614 85.5991C114.877 86.3632 112.874 86.6739 110.053 86.3142C108.238 85.0042 108.238 85.0042 106.557 83.1658C105.922 82.4944 105.288 81.8231 104.634 81.1313C103.968 80.4079 103.302 79.6845 102.615 78.9392C94.0978 70.0469 85.2627 62.6499 74.0527 57.3142C74.0527 55.9942 74.0527 54.6742 74.0527 53.3142Z" fill="#1C1D1D"/>
<path d="M67.0527 85.3142C67.8516 89.0629 68.1573 90.7202 67.0527 94.3142C63.5927 98.0224 59.7348 101.027 55.6899 104.07C53.5505 105.696 51.5141 107.423 49.4902 109.189C48.562 109.992 48.562 109.992 47.6152 110.81C45.8294 112.433 45.8294 112.433 43.9902 115.252C42.0527 117.314 42.0527 117.314 38.3027 117.627C37.2302 117.524 36.1577 117.42 35.0527 117.314C35.0527 116.654 35.0527 115.994 35.0527 115.314C35.8287 115.098 36.6047 114.881 37.4042 114.658C40.8783 112.895 41.1821 111.448 42.4277 107.814C46.2727 97.8553 51.3054 90.1969 61.0527 85.3142C64.6527 84.1142 64.6527 84.1142 67.0527 85.3142Z" fill="#181818"/>
<path d="M155.053 106.314C155.053 109.284 155.053 112.254 155.053 115.314C155.713 115.314 156.373 115.314 157.053 115.314C156.723 116.304 156.393 117.294 156.053 118.314C153.99 119.127 153.99 119.127 151.053 119.314C149.175 118.13 147.557 116.818 145.896 115.345C144.091 114.119 144.091 114.119 141.904 114.435C136.979 115.953 132.243 117.936 127.471 119.875C126.691 120.186 125.911 120.497 125.107 120.818C124.401 121.105 123.694 121.392 122.966 121.688C121.053 122.314 121.053 122.314 118.053 122.314C118.053 125.944 118.053 129.574 118.053 133.314C116.733 133.314 115.413 133.314 114.053 133.314C114.14 131.73 114.249 130.147 114.365 128.564C114.423 127.682 114.481 126.801 114.541 125.892C115.155 122.801 115.79 121.516 118.053 119.314C120.424 118.221 122.656 117.331 125.115 116.502C126.548 115.994 127.98 115.485 129.412 114.974C130.164 114.709 130.916 114.444 131.691 114.17C136.573 112.401 141.384 110.439 146.199 108.499C151.724 106.314 151.724 106.314 155.053 106.314Z" fill="#272828"/>
<path d="M45.0527 45.3142C47.4153 59.1946 47.4153 59.1946 44.3652 63.9392C42.0527 65.3142 42.0527 65.3142 39.5527 65.3767C36.0718 63.8973 34.9416 62.6198 33.0527 59.3142C32.6346 56.6707 32.429 54.0975 32.3261 51.4236C32.2359 50.7275 32.1456 50.0314 32.0527 49.3142C31.3927 48.9842 30.7327 48.6542 30.0527 48.3142C31.989 47.8099 33.9268 47.3109 35.8652 46.8142C36.9441 46.5358 38.0231 46.2573 39.1347 45.9705C42.0527 45.3142 42.0527 45.3142 45.0527 45.3142Z" fill="#2D2D2D"/>
<path d="M2.05267 100.314C14.0291 99.4945 21.8894 102.812 31.0527 110.314C33.6399 112.31 36.0842 113.936 39.0527 115.314C37.7327 115.314 36.4127 115.314 35.0527 115.314C34.7227 115.974 34.3927 116.634 34.0527 117.314C11.2514 107.601 11.2514 107.601 2.05267 103.314C2.05267 102.324 2.05267 101.334 2.05267 100.314Z" fill="#212121"/>
<path d="M158.053 81.3142C158.383 81.3142 158.713 81.3142 159.053 81.3142C159.103 85.5826 159.139 89.8508 159.163 94.1194C159.173 95.5683 159.186 97.0172 159.204 98.4661C159.38 113.555 159.38 113.555 157.053 120.314C156.053 121.314 156.053 121.314 154.205 121.412C152.154 121.379 150.103 121.347 148.053 121.314C147.723 120.324 147.393 119.334 147.053 118.314C138.403 119.206 138.403 119.206 130.24 121.939C126.2 123.682 123.414 123.544 119.053 123.314C119.053 126.614 119.053 129.914 119.053 133.314C118.723 133.314 118.393 133.314 118.053 133.314C118.053 129.684 118.053 126.054 118.053 122.314C121.798 120.78 125.548 119.261 129.303 117.752C130.898 117.095 130.898 117.095 132.525 116.426C134.063 115.812 134.063 115.812 135.631 115.185C136.573 114.803 137.516 114.421 138.487 114.027C141.252 113.259 142.427 113.247 145.053 114.314C146.507 115.366 146.507 115.366 147.99 116.439C151.191 118.875 151.191 118.875 156.053 117.314C156.713 105.434 157.373 93.5542 158.053 81.3142Z" fill="#BBBBBC"/>
<path d="M39.0527 25.3142C39.0527 26.3042 39.0527 27.2942 39.0527 28.3142C38.3927 28.3142 37.7327 28.3142 37.0527 28.3142C36.7227 29.9642 36.3927 31.6142 36.0527 33.3142C35.7227 32.6542 35.3927 31.9942 35.0527 31.3142C34.6402 31.768 34.2277 32.2217 33.8027 32.6892C29.661 36.535 25.5024 36.7692 20.0527 37.3142C19.7227 35.9942 19.3927 34.6742 19.0527 33.3142C18.0627 33.3142 17.0727 33.3142 16.0527 33.3142C16.3827 32.3242 16.7127 31.3342 17.0527 30.3142C19.8183 29.1814 19.8183 29.1814 23.3027 28.1892C25.012 27.6903 25.012 27.6903 26.7558 27.1814C31.0301 26.0571 34.6175 25.3142 39.0527 25.3142Z" fill="#4188EC"/>
<path d="M67.0527 98.3142C68.0906 99.9575 69.0884 101.627 70.0527 103.314C71.0427 103.974 72.0327 104.634 73.0527 105.314C73.3827 106.304 73.7127 107.294 74.0527 108.314C74.5477 108.809 75.0427 109.304 75.5527 109.814C77.0527 111.314 77.0527 111.314 78.0527 114.314C75.6152 113.502 75.6152 113.502 73.0527 112.314C72.7227 111.324 72.3927 110.334 72.0527 109.314C70.4072 108.597 68.7385 107.931 67.0527 107.314C66.3927 106.654 65.7327 105.994 65.0527 105.314C61.724 105.648 59.9737 106.991 57.5995 109.256C56.9808 109.839 56.362 110.422 55.7245 111.023C54.7732 111.941 54.7732 111.941 53.8027 112.877C53.153 113.492 52.5033 114.108 51.8339 114.742C50.2339 116.26 48.6405 117.784 47.0527 119.314C46.3927 118.984 45.7327 118.654 45.0527 118.314C48.0323 114.217 51.4553 111.153 55.3456 107.963C57.3067 106.323 57.3067 106.323 58.0527 103.314C63.4015 98.3142 63.4015 98.3142 67.0527 98.3142Z" fill="#E7E7E7"/>
<path d="M69.0527 15.3142C69.0527 18.9442 69.0527 22.5742 69.0527 26.3142C67.0727 26.6442 65.0927 26.9742 63.0527 27.3142C62.2531 24.0272 61.9561 22.604 63.0527 19.3142C61.4027 19.3142 59.7527 19.3142 58.0527 19.3142C58.0527 20.3042 58.0527 21.2942 58.0527 22.3142C57.3476 22.1402 56.6424 21.9662 55.916 21.7869C52.8517 21.281 50.3211 21.4176 47.2402 21.7517C45.7764 21.9045 45.7764 21.9045 44.2831 22.0603C43.1791 22.186 43.1791 22.186 42.0527 22.3142C44.7242 20.5332 45.9997 19.9392 48.9941 19.2791C49.7424 19.1095 50.4907 18.94 51.2617 18.7654C52.0383 18.5959 52.815 18.4264 53.6152 18.2517C66.8394 15.3142 66.8394 15.3142 69.0527 15.3142Z" fill="#266DD5"/>
<path d="M73.0527 106.314C78.2758 109.627 82.9863 113.427 87.7402 117.377C88.4988 118.001 89.2574 118.626 90.039 119.269C93.1639 121.854 96.2241 124.404 99.0527 127.314C93.2719 126.438 88.0586 124.669 84.0527 120.314C82.5367 119.448 82.5367 119.448 80.9902 118.564C77.3391 115.768 77.122 113.674 76.0527 109.314C75.0627 108.984 74.0727 108.654 73.0527 108.314C73.0527 107.654 73.0527 106.994 73.0527 106.314Z" fill="#C9C9C9"/>
<path d="M77.0527 82.3142C79.9245 83.6578 82.3574 85.191 84.8652 87.1267C88.5425 89.9348 92.2771 92.6398 96.0527 95.3142C95.0627 95.8092 95.0627 95.8092 94.0527 96.3142C93.7227 97.3042 93.3927 98.2942 93.0527 99.3142C88.2631 96.7785 84.7681 94.3392 81.0527 90.3142C80.0704 89.2968 79.078 88.2882 78.0527 87.3142C77.7227 87.3142 77.3927 87.3142 77.0527 87.3142C77.0527 85.6642 77.0527 84.0142 77.0527 82.3142Z" fill="#46494F"/>
<path d="M1.05267 15.3142C3.05267 15.6267 3.05267 15.6267 5.05267 16.3142C5.38267 16.9742 5.71267 17.6342 6.05267 18.3142C5.39267 18.3142 4.73267 18.3142 4.05267 18.3142C4.21767 18.9536 4.38267 19.593 4.55267 20.2517C5.65539 27.0059 5.25388 32.8482 3.05267 39.3142C2.72267 39.3142 2.39267 39.3142 2.05267 39.3142C1.71382 36.794 1.38147 34.2732 1.05267 31.7517C0.957283 31.0472 0.861892 30.3428 0.763611 29.6169C0.188181 25.1574 -0.132977 20.822 0.0526732 16.3142C0.382673 15.9842 0.712673 15.6542 1.05267 15.3142Z" fill="#2D2D2D"/>
<path d="M67.0527 95.3142C67.0527 96.3042 67.0527 97.2942 67.0527 98.3142C65.877 98.438 65.877 98.438 64.6777 98.5642C61.9052 99.0423 61.9052 99.0423 60.7402 101.377C60.5133 102.016 60.2864 102.655 60.0527 103.314C59.3927 103.314 58.7327 103.314 58.0527 103.314C58.0527 103.974 58.0527 104.634 58.0527 105.314C56.3332 106.853 54.5508 108.322 52.7402 109.752C48.2088 113.325 48.2088 113.325 44.0527 117.314C43.3927 116.984 42.7327 116.654 42.0527 116.314C47.2831 110.104 52.6025 104.571 59.0527 99.6267C59.6162 99.1931 60.1798 98.7595 60.7604 98.3127C64.7778 95.3142 64.7778 95.3142 67.0527 95.3142Z" fill="#AAAAAA"/>
<path d="M56.0527 105.314C56.7127 105.644 57.3727 105.974 58.0527 106.314C56.3456 108.021 54.6382 109.728 52.9277 111.431C51.3878 112.978 49.8728 114.549 48.3652 116.127C45.3735 118.957 43.4743 120.077 39.4277 120.752C34.4224 120.103 30.4302 117.737 26.0527 115.314C29.0527 114.314 29.0527 114.314 31.1152 115.252C35.6588 116.895 39.3219 117.645 44.0527 116.314C48.5828 113.288 52.3289 109.256 56.0527 105.314Z" fill="#C7C7C7"/>
<path d="M42.0527 22.3142C43.3727 22.3142 44.6927 22.3142 46.0527 22.3142C46.3827 23.3042 46.7127 24.2942 47.0527 25.3142C50.0227 25.3142 52.9927 25.3142 56.0527 25.3142C56.3827 26.3042 56.7127 27.2942 57.0527 28.3142C53.5878 29.0437 50.5884 29.3142 47.0527 29.3142C46.7227 29.9742 46.3927 30.6342 46.0527 31.3142C44.7327 31.3142 43.4127 31.3142 42.0527 31.3142C42.0527 30.6542 42.0527 29.9942 42.0527 29.3142C41.3927 28.9842 40.7327 28.6542 40.0527 28.3142C40.7127 26.3342 41.3727 24.3542 42.0527 22.3142Z" fill="#609DEF"/>
<path d="M108.053 38.3142C108.053 39.3042 108.053 40.2942 108.053 41.3142C107.063 41.3142 106.073 41.3142 105.053 41.3142C105.053 41.9742 105.053 42.6342 105.053 43.3142C95.6427 44.8313 95.6427 44.8313 91.0527 42.3142C94.1724 40.2343 96.5028 39.5265 100.115 38.6267C101.179 38.3547 102.242 38.0827 103.338 37.8025C106.053 37.3142 106.053 37.3142 108.053 38.3142Z" fill="#37393A"/>
<path d="M24.0527 22.3142C23.0627 23.7992 23.0627 23.7992 22.0527 25.3142C23.7027 25.3142 25.3527 25.3142 27.0527 25.3142C27.0527 25.6442 27.0527 25.9742 27.0527 26.3142C24.7644 26.8699 22.4719 27.4084 20.1777 27.9392C18.9015 28.2408 17.6253 28.5425 16.3105 28.8533C15.2354 29.0054 14.1603 29.1575 13.0527 29.3142C12.3927 28.6542 11.7327 27.9942 11.0527 27.3142C11.4277 25.1892 11.4277 25.1892 12.0527 23.3142C13.4877 22.9502 14.9258 22.5983 16.3652 22.2517C17.1657 22.0545 17.9662 21.8573 18.791 21.654C21.0527 21.3142 21.0527 21.3142 24.0527 22.3142Z" fill="#121823"/>
<path d="M154.053 106.314C154.383 106.314 154.713 106.314 155.053 106.314C155.053 109.284 155.053 112.254 155.053 115.314C155.713 115.314 156.373 115.314 157.053 115.314C156.723 116.304 156.393 117.294 156.053 118.314C152.94 119.282 151.573 119.571 148.596 118.099C147.818 117.531 147.041 116.962 146.24 116.377C145.45 115.811 144.66 115.245 143.846 114.662C143.254 114.217 142.662 113.772 142.053 113.314C143.373 112.984 144.693 112.654 146.053 112.314C146.053 112.974 146.053 113.634 146.053 114.314C147.043 113.984 148.033 113.654 149.053 113.314C149.383 112.324 149.713 111.334 150.053 110.314C151.043 110.644 152.033 110.974 153.053 111.314C153.383 109.664 153.713 108.014 154.053 106.314Z" fill="#252626"/>
<path d="M154.053 106.314C154.053 109.284 154.053 112.254 154.053 115.314C153.393 113.994 152.733 112.674 152.053 111.314C151.393 110.984 150.733 110.654 150.053 110.314C150.053 112.294 150.053 114.274 150.053 116.314C148.733 115.654 147.413 114.994 146.053 114.314C146.053 113.654 146.053 112.994 146.053 112.314C143.413 112.644 140.773 112.974 138.053 113.314C140.949 110.963 143.706 109.479 147.178 108.127C148.481 107.61 148.481 107.61 149.81 107.084C152.053 106.314 152.053 106.314 154.053 106.314Z" fill="#1C1D1D"/>
<path d="M71.0527 0.314198C71.7127 0.974198 72.3727 1.6342 73.0527 2.3142C70.3051 3.01308 67.5554 3.6986 64.8027 4.3767C64.0254 4.57586 63.2481 4.77502 62.4472 4.98021C61.6931 5.16391 60.939 5.3476 60.162 5.53685C59.4708 5.70967 58.7795 5.88248 58.0673 6.06054C55.7582 6.35128 54.2287 6.12594 52.0527 5.3142C51.7227 4.6542 51.3927 3.9942 51.0527 3.3142C65.4096 -0.312812 65.4096 -0.312812 71.0527 0.314198Z" fill="#313131"/>
<path d="M5.05267 37.3142C7.47747 40.9514 7.4393 43.1712 7.67767 47.5017C7.75244 48.774 7.8272 50.0463 7.90424 51.3572C7.95322 52.333 8.0022 53.3088 8.05267 54.3142C9.04267 54.6442 10.0327 54.9742 11.0527 55.3142C6.30267 54.4392 6.30267 54.4392 4.05267 53.3142C3.63861 51.0291 3.63861 51.0291 3.42767 48.2517C3.35291 47.3326 3.27814 46.4135 3.20111 45.4666C3.15213 44.7563 3.10314 44.046 3.05267 43.3142C3.71267 43.3142 4.37267 43.3142 5.05267 43.3142C5.05267 41.3342 5.05267 39.3542 5.05267 37.3142Z" fill="#252525"/>
<path d="M37.0527 28.3142C40.9196 28.8513 43.0233 29.8998 46.0527 32.3142C43.6177 33.0121 41.1804 33.6977 38.7402 34.3767C38.0499 34.5759 37.3596 34.775 36.6484 34.9802C31.3925 36.4275 31.3925 36.4275 28.0527 35.3142C30.1444 33.2225 31.2351 32.4629 34.1152 31.9392C35.0742 31.6298 35.0742 31.6298 36.0527 31.3142C36.3827 30.3242 36.7127 29.3342 37.0527 28.3142Z" fill="#2F79E3"/>
<path d="M51.0527 5.31421C51.0527 5.97421 51.0527 6.63421 51.0527 7.31421C49.3063 7.84715 47.5554 8.36512 45.8027 8.87671C44.8281 9.16675 43.8536 9.45679 42.8495 9.75562C40.0774 10.3093 38.6375 10.3991 36.0527 9.31421C35.7227 8.65421 35.3927 7.99421 35.0527 7.31421C36.9661 6.78169 38.8836 6.26362 40.8027 5.75171C41.87 5.46167 42.9374 5.17163 44.037 4.87281C46.896 4.34323 48.3686 4.3305 51.0527 5.31421Z" fill="#313131"/>
<path d="M33.6152 30.2517C34.8217 30.2826 34.8217 30.2826 36.0527 30.3142C35.7227 31.3042 35.3927 32.2942 35.0527 33.3142C35.0527 32.6542 35.0527 31.9942 35.0527 31.3142C34.6402 31.768 34.2277 32.2217 33.8027 32.6892C29.661 36.535 25.5024 36.7692 20.0527 37.3142C20.0527 35.9942 20.0527 34.6742 20.0527 33.3142C20.7629 33.1814 21.4732 33.0487 22.205 32.9119C23.1241 32.7353 24.0432 32.5587 24.9902 32.3767C26.365 32.1157 26.365 32.1157 27.7675 31.8494C30.5602 31.1954 30.662 30.3237 33.6152 30.2517Z" fill="#5495EC"/>
<path d="M68.0527 99.3142C73.722 102.895 78.8573 107.084 84.0527 111.314C82.4433 112.111 82.4433 112.111 80.0527 112.314C77.7612 110.806 75.8473 109.354 73.8027 107.564C73.2484 107.108 72.6941 106.652 72.123 106.181C70.6986 104.967 69.3677 103.646 68.0527 102.314C68.0527 101.324 68.0527 100.334 68.0527 99.3142Z" fill="#2C2D2E"/>
<path d="M65.0527 28.3142C65.7952 28.4998 66.5377 28.6855 67.3027 28.8767C67.8802 29.0211 68.4577 29.1655 69.0527 29.3142C69.0527 29.9742 69.0527 30.6342 69.0527 31.3142C64.2103 32.6501 60.1183 33.5675 55.0527 33.3142C56.0427 32.9842 57.0327 32.6542 58.0527 32.3142C58.0527 30.9942 58.0527 29.6742 58.0527 28.3142C61.281 27.2381 61.9528 27.3749 65.0527 28.3142Z" fill="#363940"/>
<path d="M5.05267 104.314C8.3696 105.595 11.6804 106.89 14.9902 108.189C15.9357 108.554 16.8812 108.919 17.8554 109.295C18.7545 109.649 19.6536 110.004 20.58 110.369C21.4127 110.694 22.2453 111.018 23.1032 111.353C25.0527 112.314 25.0527 112.314 26.0527 114.314C20.5191 113.809 16.4924 112.358 11.6152 109.752C10.6609 109.258 10.6609 109.258 9.68744 108.754C8.13773 107.95 6.59449 107.133 5.05267 106.314C5.05267 105.654 5.05267 104.994 5.05267 104.314Z" fill="#BDBDBD"/>
<path d="M97.0527 124.314C100.415 124.922 102.398 126.131 105.053 128.252C107.627 130.298 110.064 131.933 113.053 133.314C113.053 133.644 113.053 133.974 113.053 134.314C109.198 134.716 107.511 134.634 104.279 132.381C103.421 131.554 102.562 130.728 101.678 129.877C100.804 129.053 99.9297 128.229 99.0292 127.381C97.0527 125.314 97.0527 125.314 97.0527 124.314Z" fill="#303131"/>
<path d="M67.0527 98.3142C68.1104 99.9449 69.1054 101.617 70.0527 103.314C71.6351 105.066 71.6351 105.066 73.0527 106.314C70.1777 106.002 70.1777 106.002 67.0527 105.314C66.3927 104.324 65.7327 103.334 65.0527 102.314C64.4545 102.624 63.8564 102.933 63.2402 103.252C61.0527 104.314 61.0527 104.314 58.0527 105.314C58.0527 104.654 58.0527 103.994 58.0527 103.314C63.4098 98.3142 63.4098 98.3142 67.0527 98.3142Z" fill="#C9C9C9"/>
<path d="M108.053 36.3142C109.703 36.3142 111.353 36.3142 113.053 36.3142C112.723 37.3042 112.393 38.2942 112.053 39.3142C111.393 38.9842 110.733 38.6542 110.053 38.3142C110.053 38.9742 110.053 39.6342 110.053 40.3142C111.373 40.9742 112.693 41.6342 114.053 42.3142C111.578 43.7992 111.578 43.7992 109.053 45.3142C108.723 44.3242 108.393 43.3342 108.053 42.3142C107.063 41.9842 106.073 41.6542 105.053 41.3142C106.043 41.3142 107.033 41.3142 108.053 41.3142C107.723 40.3242 107.393 39.3342 107.053 38.3142C107.383 37.6542 107.713 36.9942 108.053 36.3142Z" fill="#242425"/>
<path d="M145.053 114.314C146.803 115.877 146.803 115.877 148.053 117.314C147.473 117.291 146.893 117.268 146.295 117.244C141.365 117.13 137.744 117.678 133.053 119.314C130.885 118.873 130.885 118.873 129.053 118.314C130.963 117.446 132.881 116.595 134.803 115.752C135.87 115.276 136.937 114.8 138.037 114.31C141.086 113.303 142.193 112.978 145.053 114.314Z" fill="#A7A7A7"/>
<path d="M99.0527 127.314C100.366 128.292 101.678 129.272 102.99 130.252C103.721 130.797 104.452 131.342 105.205 131.904C107.053 133.314 107.053 133.314 108.053 134.314C109.744 134.225 111.432 134.068 113.115 133.877C114.034 133.775 114.953 133.673 115.9 133.568C116.966 133.442 116.966 133.442 118.053 133.314C118.053 134.304 118.053 135.294 118.053 136.314C114.135 137.724 111.043 137.378 107.053 136.314C104.105 134.255 101.444 132.004 99.0527 129.314C99.0527 128.654 99.0527 127.994 99.0527 127.314Z" fill="#BABABA"/>
<path d="M119.053 129.314C121.053 132.314 121.053 132.314 120.99 134.314C119.597 137.286 118.039 138.016 115.053 139.314C111.365 139.627 111.365 139.627 108.053 139.314C107.393 138.654 106.733 137.994 106.053 137.314C111.993 136.819 111.993 136.819 118.053 136.314C118.383 134.004 118.713 131.694 119.053 129.314Z" fill="#E6E6E6"/>
<path d="M41.0527 109.314C40.7227 110.964 40.3927 112.614 40.0527 114.314C38.4027 114.314 36.7527 114.314 35.0527 114.314C34.3927 112.994 33.7327 111.674 33.0527 110.314C35.9809 109.338 38.0088 109.232 41.0527 109.314Z" fill="#5C5C5C"/>
<path d="M89.0527 119.314C92.7955 121.696 96.0299 124.059 99.0527 127.314C95.119 126.752 92.2209 125.758 89.0527 123.314C89.0527 121.994 89.0527 120.674 89.0527 119.314Z" fill="#B8B9B8"/>
<path d="M69.0527 105.314C72.1825 105.65 73.0533 106.315 75.2402 108.689C77.0527 111.314 77.0527 111.314 78.0527 114.314C75.6152 113.502 75.6152 113.502 73.0527 112.314C72.7227 111.324 72.3927 110.334 72.0527 109.314C71.0627 108.984 70.0727 108.654 69.0527 108.314C69.0527 107.324 69.0527 106.334 69.0527 105.314Z" fill="#DBDBDB"/>
<path d="M24.0527 22.3142C20.0974 25.0709 16.8284 25.846 12.0527 26.3142C12.0527 25.3242 12.0527 24.3342 12.0527 23.3142C13.4877 22.9502 14.9258 22.5983 16.3652 22.2517C17.1657 22.0545 17.9662 21.8573 18.791 21.654C21.0527 21.3142 21.0527 21.3142 24.0527 22.3142Z" fill="#929191"/>
<path d="M5.05267 31.3142C5.38267 31.3142 5.71267 31.3142 6.05267 31.3142C5.72267 35.2742 5.39267 39.2342 5.05267 43.3142C4.39267 43.3142 3.73267 43.3142 3.05267 43.3142C2.99844 41.8771 2.95978 40.4395 2.92767 39.0017C2.90447 38.2012 2.88127 37.4007 2.85736 36.5759C3.05267 34.3142 3.05267 34.3142 5.05267 31.3142Z" fill="#131313"/>
<path d="M39.0527 25.3142C39.0527 26.3042 39.0527 27.2942 39.0527 28.3142C35.4227 28.9742 31.7927 29.6342 28.0527 30.3142C28.0527 29.6542 28.0527 28.9942 28.0527 28.3142C28.7127 28.3142 29.3727 28.3142 30.0527 28.3142C30.0527 27.6542 30.0527 26.9942 30.0527 26.3142C33.206 25.6135 35.7799 25.3142 39.0527 25.3142Z" fill="#629EEF"/>
<path d="M71.0527 0.314224C71.7127 0.974224 72.3727 1.63422 73.0527 2.31422C68.6435 3.41651 64.5688 3.39077 60.0527 3.31422C63.555 -0.0480053 66.312 -0.124726 71.0527 0.314224Z" fill="#222222"/>
<path d="M116.053 121.314C116.383 121.314 116.713 121.314 117.053 121.314C117.053 125.274 117.053 129.234 117.053 133.314C116.063 133.314 115.073 133.314 114.053 133.314C114.194 131.689 114.341 130.064 114.49 128.439C114.571 127.534 114.653 126.629 114.736 125.697C115.053 123.314 115.053 123.314 116.053 121.314Z" fill="#222224"/>
<path d="M90.0527 124.314C94.4924 125.71 96.9578 127.875 100.053 131.314C100.383 131.974 100.713 132.634 101.053 133.314C97.092 131.572 93.3083 129.167 90.0527 126.314C90.0527 125.654 90.0527 124.994 90.0527 124.314Z" fill="#E1E1E1"/>
<path d="M142.053 112.314C143.373 112.314 144.693 112.314 146.053 112.314C146.053 112.974 146.053 113.634 146.053 114.314C147.043 113.984 148.033 113.654 149.053 113.314C149.053 114.304 149.053 115.294 149.053 116.314C150.043 115.984 151.033 115.654 152.053 115.314C152.713 116.634 153.373 117.954 154.053 119.314C150.861 118.682 148.54 117.558 145.803 115.814C145.096 115.371 144.39 114.927 143.662 114.47C143.131 114.089 142.6 113.707 142.053 113.314C142.053 112.984 142.053 112.654 142.053 112.314Z" fill="#363636"/>
<path d="M84.0527 45.3142C84.3827 46.3042 84.7127 47.2942 85.0527 48.3142C81.3027 49.4392 81.3027 49.4392 79.0527 48.3142C79.0527 47.6542 79.0527 46.9942 79.0527 46.3142C78.3927 45.9842 77.7327 45.6542 77.0527 45.3142C79.7193 43.9809 81.2195 44.6432 84.0527 45.3142Z" fill="#545455"/>
<path d="M56.0527 21.3142C56.0527 21.9742 56.0527 22.6342 56.0527 23.3142C53.1467 24.5708 51.2566 25.3142 48.0527 25.3142C47.7227 24.3242 47.3927 23.3342 47.0527 22.3142C52.6777 20.1892 52.6777 20.1892 56.0527 21.3142Z" fill="#5998ED"/>
<path d="M73.0527 106.314C76.7955 108.696 80.0299 111.059 83.0527 114.314C81.4027 114.314 79.7527 114.314 78.0527 114.314C77.7845 113.51 77.5164 112.705 77.2402 111.877C76.8483 111.031 76.4564 110.185 76.0527 109.314C75.0627 108.984 74.0727 108.654 73.0527 108.314C73.0527 107.654 73.0527 106.994 73.0527 106.314Z" fill="#B8B8B8"/>
<path d="M52.0527 107.314C52.7127 107.644 53.3727 107.974 54.0527 108.314C50.7527 111.284 47.4527 114.254 44.0527 117.314C43.3927 116.984 42.7327 116.654 42.0527 116.314C44.7122 112.67 47.0872 110.458 51.0527 108.314C51.3827 107.984 51.7127 107.654 52.0527 107.314Z" fill="#B4B4B4"/>
<path d="M76.0527 46.3142C77.0427 46.3142 78.0327 46.3142 79.0527 46.3142C79.0527 46.9742 79.0527 47.6342 79.0527 48.3142C79.7127 48.6442 80.3727 48.9742 81.0527 49.3142C77.2228 51.1165 74.2715 51.5104 70.0527 51.3142C70.3827 50.6542 70.7127 49.9942 71.0527 49.3142C73.0327 49.3142 75.0127 49.3142 77.0527 49.3142C76.7227 48.3242 76.3927 47.3342 76.0527 46.3142Z" fill="#212122"/>
<path d="M42.0527 23.3142C41.7227 24.6342 41.3927 25.9542 41.0527 27.3142C41.7127 27.6442 42.3727 27.9742 43.0527 28.3142C41.7327 28.3142 40.4127 28.3142 39.0527 28.3142C39.0527 26.9942 39.0527 25.6742 39.0527 24.3142C37.0727 24.3142 35.0927 24.3142 33.0527 24.3142C33.0527 23.9842 33.0527 23.6542 33.0527 23.3142C36.4308 22.4697 38.7273 22.2058 42.0527 23.3142Z" fill="#246AD3"/>
<path d="M42.0527 22.3142C43.0427 22.3142 44.0327 22.3142 45.0527 22.3142C44.7227 24.6242 44.3927 26.9342 44.0527 29.3142C43.7227 28.6542 43.3927 27.9942 43.0527 27.3142C42.3927 27.3142 41.7327 27.3142 41.0527 27.3142C41.3827 25.6642 41.7127 24.0142 42.0527 22.3142Z" fill="#3F87EC"/>
<path d="M0.0526733 17.3142C1.53767 18.3042 1.53767 18.3042 3.05267 19.3142C3.24017 22.9392 3.24017 22.9392 3.05267 26.3142C2.39267 26.3142 1.73267 26.3142 1.05267 26.3142C0.722673 23.3442 0.392673 20.3742 0.0526733 17.3142Z" fill="#181818"/>
<path d="M92.0527 43.3142C92.0527 43.9742 92.0527 44.6342 92.0527 45.3142C88.6777 45.4392 88.6777 45.4392 85.0527 45.3142C84.3927 44.6542 83.7327 43.9942 83.0527 43.3142C86.378 42.2058 88.6745 42.4697 92.0527 43.3142Z" fill="#4E4E4E"/>
<path d="M110.053 35.3142C111.491 35.4288 112.928 35.5563 114.365 35.6892C115.566 35.7936 115.566 35.7936 116.791 35.9001C119.053 36.3142 119.053 36.3142 122.053 38.3142C118.748 39.438 117.002 39.2098 113.803 37.8767C113.096 37.5892 112.39 37.3018 111.662 37.0056C111.131 36.7775 110.6 36.5493 110.053 36.3142C110.053 35.9842 110.053 35.6542 110.053 35.3142Z" fill="#4E4F50"/>
<path d="M33.6152 30.2517C34.8217 30.2826 34.8217 30.2826 36.0527 30.3142C35.7227 31.3042 35.3927 32.2942 35.0527 33.3142C35.0527 32.6542 35.0527 31.9942 35.0527 31.3142C34.6814 31.8298 34.3102 32.3455 33.9277 32.8767C32.0527 34.3142 32.0527 34.3142 28.8652 34.0017C27.937 33.7748 27.0089 33.548 26.0527 33.3142C26.692 33.0048 27.3314 32.6955 27.9902 32.3767C32.0406 30.2901 32.0406 30.2901 33.6152 30.2517Z" fill="#64A0EE"/>
<path d="M78.0527 114.314C79.7027 114.314 81.3527 114.314 83.0527 114.314C83.3827 115.964 83.7127 117.614 84.0527 119.314C81.6152 118.502 81.6152 118.502 79.0527 117.314C78.7227 116.324 78.3927 115.334 78.0527 114.314Z" fill="#DCDCDC"/>
<path d="M44.0527 75.3142C45.6152 76.5642 45.6152 76.5642 47.0527 78.3142C46.7402 80.5017 46.7402 80.5017 46.0527 82.3142C44.7327 81.9842 43.4127 81.6542 42.0527 81.3142C42.3827 80.6955 42.7127 80.0767 43.0527 79.4392C44.1946 77.404 44.1946 77.404 44.0527 75.3142Z" fill="#0F0F0F"/>
<path d="M102.053 44.3142C102.053 45.3042 102.053 46.2942 102.053 47.3142C100.733 47.6442 99.4127 47.9742 98.0527 48.3142C97.3927 46.9942 96.7327 45.6742 96.0527 44.3142C99.0527 43.3142 99.0527 43.3142 102.053 44.3142Z" fill="#232325"/>
<path d="M32.0527 31.3142C33.0427 31.3142 34.0327 31.3142 35.0527 31.3142C35.3827 32.3042 35.7127 33.2942 36.0527 34.3142C31.4277 36.4392 31.4277 36.4392 28.0527 35.3142C30.0527 33.3142 30.0527 33.3142 32.0527 32.3142C32.0527 31.9842 32.0527 31.6542 32.0527 31.3142Z" fill="#3981E5"/>
<path d="M35.0527 9.31421C35.0527 9.97421 35.0527 10.6342 35.0527 11.3142C32.2644 12.3469 31.1849 12.3593 28.3027 11.3767C27.5602 11.0261 26.8177 10.6755 26.0527 10.3142C26.0527 9.98421 26.0527 9.65421 26.0527 9.31421C29.4308 8.46966 31.7273 8.20576 35.0527 9.31421Z" fill="#343434"/>
<path d="M84.0527 88.3142C84.7127 88.6442 85.3727 88.9742 86.0527 89.3142C86.6777 91.8767 86.6777 91.8767 87.0527 94.3142C85.0727 92.9942 83.0927 91.6742 81.0527 90.3142C82.0427 89.6542 83.0327 88.9942 84.0527 88.3142Z" fill="#505358"/>
<path d="M23.0527 29.3142C22.7227 30.3042 22.3927 31.2942 22.0527 32.3142C20.0727 32.6442 18.0927 32.9742 16.0527 33.3142C16.3827 32.3242 16.7127 31.3342 17.0527 30.3142C19.0527 29.3142 19.0527 29.3142 23.0527 29.3142Z" fill="#619EEE"/>
</svg>
