<svg width="416" height="393" viewBox="0 0 416 393" fill="none" xmlns="http://www.w3.org/2000/svg">
<path d="M415.231 179.488C415.571 183.233 415.8 187.009 415.915 190.812L414.915 190.842C414.972 192.721 415 194.608 415 196.5C415 198.392 414.972 200.279 414.915 202.158L415.915 202.188C415.8 205.991 415.571 209.767 415.231 213.513L414.235 213.422C413.894 217.187 413.439 220.922 412.874 224.623L413.863 224.774C413.29 228.528 412.605 232.248 411.811 235.93L410.834 235.719C410.038 239.411 409.132 243.065 408.119 246.678L409.082 246.948C408.057 250.6 406.925 254.211 405.687 257.777L404.742 257.45C403.506 261.011 402.164 264.528 400.721 267.996L401.644 268.381C400.188 271.877 398.63 275.325 396.971 278.721L396.073 278.282C394.42 281.666 392.668 284.998 390.821 288.274L391.692 288.765C389.833 292.061 387.878 295.301 385.83 298.482L384.989 297.94C382.952 301.104 380.822 304.209 378.604 307.251L379.412 307.84C377.184 310.895 374.868 313.887 372.465 316.813L371.692 316.179C369.307 319.085 366.836 321.927 364.284 324.699L365.02 325.377C362.461 328.157 359.821 330.868 357.103 333.508L356.406 332.79C353.709 335.409 350.935 337.957 348.088 340.43L348.744 341.185C345.893 343.661 342.968 346.064 339.974 348.389L339.36 347.599C336.393 349.902 333.357 352.129 330.255 354.277L330.825 355.099C327.722 357.247 324.554 359.316 321.324 361.302L320.8 360.451C317.601 362.418 314.341 364.303 311.024 366.105L311.501 366.984C308.186 368.784 304.813 370.5 301.386 372.13L300.957 371.227C297.566 372.839 294.123 374.365 290.629 375.803L291.009 376.728C287.522 378.163 283.985 379.511 280.402 380.768L280.071 379.825C276.53 381.067 272.944 382.22 269.315 383.281L269.596 384.241C265.981 385.298 262.324 386.265 258.627 387.138L258.397 386.165C254.75 387.027 251.064 387.797 247.343 388.474L247.521 389.457C243.818 390.13 240.08 390.711 236.309 391.195L236.182 390.203C232.467 390.681 228.721 391.066 224.946 391.354L225.022 392.351C221.272 392.638 217.493 392.831 213.69 392.928L213.664 391.928C211.782 391.976 209.894 392 208 392C206.106 392 204.218 391.976 202.336 391.928L202.31 392.928C198.507 392.831 194.728 392.638 190.978 392.351L191.054 391.354C187.279 391.066 183.533 390.681 179.818 390.203L179.691 391.195C175.92 390.711 172.182 390.13 168.479 389.457L168.657 388.474C164.936 387.797 161.25 387.027 157.603 386.165L157.373 387.138C153.676 386.265 150.019 385.298 146.404 384.241L146.685 383.281C143.056 382.22 139.47 381.067 135.929 379.825L135.598 380.768C132.015 379.511 128.478 378.163 124.991 376.728L125.371 375.803C121.877 374.365 118.434 372.839 115.043 371.227L114.614 372.13C111.187 370.5 107.814 368.784 104.499 366.984L104.976 366.105C101.659 364.303 98.3988 362.418 95.2002 360.451L94.6763 361.302C91.4462 359.316 88.2781 357.247 85.1754 355.099L85.7446 354.277C82.6428 352.129 79.6067 349.902 76.6397 347.599L76.0264 348.389C73.0319 346.064 70.1074 343.661 67.2563 341.185L67.9121 340.43C65.0646 337.957 62.2908 335.409 59.5941 332.79L58.8975 333.508C56.1795 330.868 53.5393 328.157 50.9805 325.377L51.7163 324.699C49.1641 321.927 46.6934 319.085 44.3075 316.179L43.5346 316.813C41.1324 313.887 38.8159 310.895 36.5885 307.84L37.3965 307.251C35.1779 304.209 33.0483 301.104 31.0112 297.94L30.1704 298.482C28.1222 295.301 26.167 292.061 24.3082 288.765L25.1792 288.274C23.3315 284.998 21.5797 281.666 19.9273 278.282L19.0287 278.721C17.3705 275.325 15.8118 271.877 14.3562 268.38L15.2795 267.996C13.8358 264.528 12.4941 261.011 11.2578 257.449L10.3131 257.777C9.07527 254.211 7.94259 250.6 6.91846 246.948L7.88134 246.678C6.86841 243.065 5.96226 239.411 5.16627 235.719L4.18873 235.93C3.39475 232.248 2.70977 228.528 2.13713 224.774L3.1257 224.623C2.56117 220.922 2.1064 217.187 1.76462 213.422L0.768712 213.512C0.428686 209.767 0.199894 205.991 0.0854704 202.188L1.08502 202.158C1.02847 200.279 1 198.392 1 196.5C1 194.608 1.02847 192.721 1.08502 190.842L0.0854718 190.812C0.199896 187.009 0.42869 183.233 0.768719 179.487L1.76462 179.578C2.10641 175.813 2.56118 172.078 3.12571 168.377L2.13715 168.226C2.70978 164.472 3.39476 160.752 4.18875 157.07L5.16628 157.281C5.96227 153.589 6.86842 149.935 7.88135 146.322L6.91848 146.052C7.9426 142.4 9.07529 138.789 10.3131 135.223L11.2578 135.55C12.4941 131.989 13.8358 128.472 15.2795 125.004L14.3563 124.619C15.8118 121.123 17.3705 117.675 19.0287 114.279L19.9273 114.718C21.5797 111.334 23.3315 108.002 25.1792 104.726L24.3082 104.235C26.167 100.939 28.1222 97.6988 30.1704 94.5182L31.0112 95.0596C33.0483 91.896 35.1779 88.7914 37.3965 85.7489L36.5885 85.1597C38.8159 82.1051 41.1325 79.1129 43.5346 76.1866L44.3075 76.8211C46.6934 73.9146 49.1641 71.0733 51.7163 68.3005L50.9805 67.6233C53.5393 64.8433 56.1795 62.1319 58.8975 59.4924L59.5941 60.2098C62.2908 57.5911 65.0646 55.0434 67.9121 52.57L67.2563 51.8151C70.1074 49.3385 73.0319 46.9362 76.0264 44.6114L76.6397 45.4013C79.6067 43.0978 82.6428 40.8707 85.7446 38.7232L85.1754 37.901C88.2781 35.7528 91.4462 33.684 94.6763 31.6976L95.2002 32.5494C98.3989 30.5824 101.659 28.6966 104.976 26.895L104.499 26.0162C107.814 24.2161 111.187 22.4998 114.614 20.8703L115.044 21.7734C118.434 20.1614 121.877 18.6349 125.371 17.1967L124.991 16.272C128.478 14.8365 132.015 13.4888 135.598 12.2317L135.929 13.1753C139.47 11.9333 143.056 10.7801 146.685 9.71867L146.404 8.75888C150.019 7.70154 153.676 6.73483 157.373 5.86154L157.603 6.83475C161.25 5.97302 164.936 5.20267 168.657 4.52644L168.479 3.54255C172.182 2.8696 175.92 2.28943 179.691 1.80471L179.818 2.79655C183.533 2.31897 187.279 1.93447 191.054 1.64562L190.978 0.64853C194.728 0.361574 198.507 0.168596 202.31 0.0720915L202.336 1.07177C204.218 1.02403 206.106 1 208 1C209.894 1 211.782 1.02403 213.664 1.07177L213.69 0.072093C217.493 0.168598 221.272 0.361577 225.022 0.648535L224.946 1.64562C228.721 1.93447 232.467 2.31898 236.182 2.79656L236.309 1.80472C240.08 2.28944 243.818 2.86961 247.521 3.54256L247.343 4.52645C251.064 5.20268 254.75 5.97303 258.397 6.83476L258.627 5.86155C262.324 6.73484 265.981 7.70156 269.596 8.7589L269.315 9.71869C272.944 10.7801 276.53 11.9333 280.071 13.1753L280.402 12.2317C283.985 13.4888 287.522 14.8366 291.009 16.272L290.629 17.1967C294.123 18.6349 297.566 20.1615 300.957 21.7734L301.386 20.8703C304.813 22.4998 308.186 24.2161 311.501 26.0162L311.024 26.895C314.341 28.6966 317.601 30.5824 320.8 32.5494L321.324 31.6976C324.554 33.684 327.722 35.7528 330.825 37.901L330.255 38.7232C333.357 40.8707 336.393 43.0978 339.36 45.4013L339.974 44.6114C342.968 46.9362 345.893 49.3385 348.744 51.8151L348.088 52.57C350.935 55.0434 353.709 57.5911 356.406 60.2098L357.103 59.4925C359.821 62.1319 362.461 64.8433 365.02 67.6233L364.284 68.3005C366.836 71.0733 369.307 73.9146 371.693 76.8211L372.465 76.1866C374.868 79.1129 377.184 82.1051 379.412 85.1597L378.604 85.7489C380.822 88.7914 382.952 91.896 384.989 95.0596L385.83 94.5182C387.878 97.6989 389.833 100.939 391.692 104.235L390.821 104.726C392.668 108.002 394.42 111.334 396.073 114.718L396.971 114.279C398.63 117.675 400.188 121.123 401.644 124.62L400.721 125.004C402.164 128.472 403.506 131.989 404.742 135.551L405.687 135.223C406.925 138.789 408.057 142.4 409.082 146.052L408.119 146.322C409.132 149.935 410.038 153.589 410.834 157.281L411.811 157.07C412.605 160.752 413.29 164.472 413.863 168.226L412.874 168.377C413.439 172.078 413.894 175.813 414.235 179.578L415.231 179.488Z" stroke="white" stroke-width="2" stroke-dasharray="12 12 12 12"/>
</svg>
