<svg width="310" height="298" viewBox="0 0 310 298" fill="none" xmlns="http://www.w3.org/2000/svg">
<path d="M309.725 140.045C309.847 142.021 309.928 144.008 309.969 146.005L305.97 146.087C305.99 147.055 306 148.027 306 149C306 149.973 305.99 150.944 305.97 151.913L309.969 151.995C309.928 153.992 309.847 155.979 309.725 157.955L305.732 157.709C305.613 159.647 305.454 161.574 305.256 163.491L309.235 163.902C309.029 165.89 308.783 167.866 308.497 169.83L304.539 169.254C304.26 171.175 303.941 173.084 303.584 174.979L307.515 175.72C307.145 177.68 306.736 179.628 306.288 181.561L302.391 180.657C301.953 182.546 301.477 184.42 300.963 186.28L304.819 187.345C304.288 189.266 303.718 191.173 303.111 193.063L299.303 191.839C298.709 193.684 298.078 195.514 297.411 197.328L301.165 198.709C300.476 200.58 299.75 202.433 298.987 204.268L295.293 202.733C294.55 204.521 293.77 206.293 292.955 208.046L296.582 209.732C295.743 211.538 294.867 213.325 293.956 215.092L290.4 213.258C289.513 214.98 288.591 216.682 287.635 218.364L291.112 220.34C290.128 222.071 289.11 223.781 288.057 225.47L284.663 223.354C283.638 224.998 282.581 226.62 281.491 228.221L284.798 230.471C283.678 232.117 282.526 233.739 281.341 235.338L278.127 232.957C276.974 234.513 275.79 236.046 274.576 237.556L277.693 240.063C276.446 241.613 275.168 243.139 273.86 244.64L270.844 242.012C269.572 243.472 268.27 244.907 266.939 246.318L269.849 249.063C268.484 250.509 267.09 251.93 265.668 253.324L262.868 250.467C261.485 251.822 260.075 253.152 258.638 254.455L261.325 257.418C259.852 258.753 258.351 260.061 256.825 261.341L254.255 258.276C252.771 259.52 251.261 260.736 249.727 261.925L252.176 265.087C250.604 266.305 249.007 267.493 247.386 268.652L245.06 265.398C243.485 266.524 241.886 267.621 240.264 268.688L242.464 272.029C240.804 273.121 239.121 274.183 237.416 275.214L235.346 271.792C233.69 272.793 232.012 273.765 230.313 274.706L232.25 278.205C230.512 279.167 228.753 280.098 226.973 280.997L225.17 277.426C223.441 278.299 221.693 279.141 219.926 279.95L221.592 283.587C219.786 284.414 217.961 285.208 216.118 285.969L214.591 282.272C212.803 283.01 210.998 283.716 209.175 284.389L210.56 288.142C208.698 288.829 206.819 289.483 204.923 290.103L203.68 286.301C201.841 286.902 199.985 287.47 198.115 288.004L199.213 291.85C197.304 292.396 195.379 292.907 193.439 293.382L192.486 289.498C190.609 289.958 188.717 290.385 186.812 290.777L187.618 294.695C185.677 295.095 183.721 295.46 181.753 295.789L181.093 291.844C179.186 292.163 177.266 292.447 175.335 292.697L175.848 296.664C173.88 296.918 171.9 297.137 169.91 297.32L169.544 293.336C167.619 293.513 165.683 293.655 163.737 293.761L163.956 297.755C161.979 297.864 159.992 297.936 157.996 297.973L157.923 293.973C156.951 293.991 155.977 294 155 294C154.024 294 153.049 293.991 152.077 293.973L152.004 297.973C150.008 297.936 148.021 297.864 146.044 297.755L146.263 293.761C144.317 293.655 142.381 293.513 140.456 293.336L140.09 297.32C138.1 297.137 136.12 296.918 134.152 296.664L134.665 292.697C132.734 292.447 130.814 292.163 128.907 291.844L128.247 295.789C126.279 295.46 124.323 295.095 122.382 294.695L123.188 290.777C121.283 290.385 119.391 289.958 117.514 289.498L116.561 293.382C114.621 292.907 112.696 292.396 110.787 291.85L111.885 288.004C110.015 287.47 108.159 286.902 106.32 286.301L105.077 290.103C103.181 289.483 101.302 288.829 99.4399 288.142L100.825 284.389C99.0025 283.716 97.1966 283.01 95.4086 282.272L93.8821 285.969C92.0388 285.208 90.214 284.414 88.4085 283.587L90.0742 279.95C88.3069 279.141 86.5586 278.299 84.83 277.426L83.0272 280.997C81.2474 280.098 79.488 279.167 77.7498 278.205L79.6874 274.706C77.9883 273.765 76.3101 272.793 74.6536 271.792L72.5838 275.215C70.8787 274.183 69.196 273.121 67.5365 272.029L69.7357 268.688C68.1141 267.621 66.5152 266.524 64.94 265.398L62.6142 268.652C60.9928 267.493 59.3956 266.305 57.8238 265.087L60.2731 261.925C58.7386 260.736 57.2289 259.52 55.7448 258.276L53.1751 261.341C51.6486 260.061 50.1484 258.753 48.6754 257.418L51.362 254.455C49.925 253.152 48.5146 251.822 47.1318 250.467L44.3319 253.324C42.9098 251.93 41.5161 250.509 40.1515 249.063L43.061 246.318C41.7304 244.907 40.4284 243.472 39.1557 242.012L36.1405 244.64C34.8323 243.139 33.5542 241.613 32.3073 240.063L35.4241 237.556C34.2097 236.046 33.0257 234.513 31.8729 232.957L28.6589 235.338C27.4742 233.739 26.3215 232.117 25.2018 230.472L28.5086 228.221C27.4191 226.62 26.3617 224.998 25.3373 223.354L21.9427 225.47C20.8903 223.781 19.8718 222.071 18.8879 220.34L22.3654 218.364C21.4094 216.682 20.4872 214.98 19.5995 213.259L16.0444 215.092C15.1331 213.325 14.2573 211.538 13.4177 209.732L17.0449 208.046C16.2299 206.293 15.4502 204.521 14.7065 202.733L11.013 204.268C10.25 202.433 9.52385 200.58 8.83546 198.709L12.5893 197.328C11.9219 195.514 11.291 193.684 10.6975 191.839L6.88952 193.063C6.28163 191.173 5.71182 189.266 5.18096 187.345L9.03655 186.28C8.52281 184.42 8.0466 182.546 7.60874 180.657L3.71214 181.561C3.26386 179.628 2.85466 177.681 2.48536 175.72L6.41625 174.979C6.05919 173.084 5.7405 171.175 5.46099 169.254L1.50268 169.83C1.21684 167.866 0.970838 165.89 0.765484 163.902L4.74431 163.491C4.54637 161.574 4.38727 159.647 4.26777 157.709L0.275351 157.955C0.153458 155.979 0.0716487 153.992 0.0306944 151.995L4.02985 151.913C4.00998 150.945 4 149.973 4 149C4 148.027 4.00998 147.056 4.02985 146.087L0.0306923 146.005C0.0716453 144.008 0.153453 142.021 0.275345 140.045L4.26776 140.291C4.38726 138.353 4.54637 136.426 4.74431 134.509L0.765476 134.098C0.970829 132.11 1.21683 130.134 1.50267 128.17L5.46098 128.746C5.74049 126.825 6.05917 124.916 6.41623 123.021L2.48535 122.28C2.85464 120.32 3.26384 118.372 3.71212 116.439L7.60872 117.343C8.04658 115.454 8.52279 113.58 9.03653 111.72L5.18094 110.655C5.7118 108.734 6.28161 106.827 6.8895 104.937L10.6974 106.161C11.291 104.316 11.9219 102.486 12.5893 100.672L8.83543 99.2908C9.52383 97.4204 10.25 95.5671 11.013 93.7318L14.7065 95.2674C15.4502 93.4787 16.2299 91.7074 17.0448 89.9544L13.4176 88.2682C14.2572 86.4622 15.1331 84.6753 16.0444 82.9082L19.5995 84.7415C20.4871 83.0203 21.4094 81.3183 22.3654 79.6364L18.8879 77.6598C19.8717 75.9288 20.8903 74.2187 21.9426 72.5303L25.3373 74.646C26.3616 73.0025 27.419 71.3799 28.5085 69.7792L25.2018 67.5285C26.3215 65.8834 27.4742 64.2609 28.6588 62.6618L31.8729 65.0429C33.0257 63.4869 34.2097 61.9536 35.4241 60.4438L32.3073 57.9368C33.5542 56.3865 34.8322 54.8606 36.1405 53.3598L39.1557 55.9882C40.4283 54.5282 41.7304 53.0926 43.061 51.6822L40.1515 48.9373C41.5161 47.4908 42.9098 46.0702 44.3319 44.6764L47.1318 47.533C48.5146 46.1777 49.925 44.8482 51.362 43.5454L48.6754 40.5819C50.1484 39.2465 51.6486 37.9386 53.1751 36.659L55.7448 39.7244C57.2289 38.4803 58.7386 37.2636 60.2731 36.0751L57.8238 32.9127C59.3956 31.6952 60.9928 30.5067 62.6142 29.3479L64.94 32.6022C66.5152 31.4765 68.114 30.3795 69.7357 29.3121L67.5365 25.9709C69.196 24.8786 70.8787 23.8165 72.5838 22.7855L74.6535 26.2084C76.3101 25.2067 77.9883 24.2351 79.6874 23.2943L77.7498 19.7949C79.488 18.8325 81.2474 17.9016 83.0272 17.003L84.83 20.5737C86.5586 19.7009 88.3069 18.8594 90.0742 18.0499L88.4085 14.4132C90.214 13.5862 92.0388 12.7918 93.8821 12.0308L95.4086 15.728C97.1966 14.9898 99.0024 14.2838 100.825 13.6107L99.4399 9.85832C101.302 9.17079 103.181 8.51681 105.077 7.89715L106.32 11.6992C108.159 11.098 110.015 10.53 111.885 9.99579L110.787 6.14956C112.696 5.60421 114.621 5.09329 116.561 4.61753L117.514 8.50238C119.391 8.04185 121.283 7.61511 123.188 7.22287L122.382 3.30505C124.323 2.90523 126.279 2.54037 128.247 2.21121L128.907 6.15641C130.814 5.83743 132.734 5.5528 134.665 5.30322L134.152 1.33621C136.12 1.08188 138.1 0.863064 140.09 0.680436L140.456 4.66371C142.381 4.48707 144.317 4.34514 146.263 4.23857L146.044 0.244557C148.021 0.136292 150.008 0.0636453 152.004 0.0272721L152.077 4.02661C153.049 4.0089 154.023 4 155 4C155.976 4 156.951 4.0089 157.923 4.02661L157.996 0.0272709C159.992 0.0636431 161.979 0.136289 163.956 0.244552L163.737 4.23857C165.683 4.34513 167.619 4.48707 169.544 4.6637L169.91 0.680429C171.9 0.863057 173.88 1.08188 175.848 1.3362L175.335 5.30321C177.266 5.55279 179.186 5.83742 181.093 6.1564L181.753 2.2112C183.721 2.54036 185.676 2.90522 187.618 3.30504L186.812 7.22286C188.717 7.6151 190.609 8.04184 192.486 8.50237L193.439 4.61752C195.379 5.09328 197.304 5.60421 199.213 6.14955L198.115 9.99578C199.985 10.53 201.841 11.098 203.68 11.6992L204.923 7.89714C206.819 8.5168 208.698 9.17078 210.56 9.85831L209.175 13.6107C210.998 14.2838 212.803 14.9898 214.591 15.728L216.118 12.0308C217.961 12.7918 219.786 13.5862 221.592 14.4132L219.926 18.0499C221.693 18.8594 223.441 19.7009 225.17 20.5737L226.973 17.003C228.753 17.9016 230.512 18.8325 232.25 19.7949L230.313 23.2943C232.012 24.2351 233.69 25.2067 235.346 26.2084L237.416 22.7855C239.121 23.8165 240.804 24.8786 242.463 25.9709L240.264 29.3121C241.886 30.3795 243.485 31.4765 245.06 32.6022L247.386 29.3478C249.007 30.5067 250.604 31.6952 252.176 32.9127L249.727 36.0751C251.261 37.2636 252.771 38.4803 254.255 39.7244L256.825 36.659C258.351 37.9386 259.852 39.2465 261.325 40.5819L258.638 43.5454C260.075 44.8482 261.485 46.1777 262.868 47.533L265.668 44.6764C267.09 46.0702 268.484 47.4908 269.849 48.9372L266.939 51.6822C268.27 53.0926 269.572 54.5282 270.844 55.9881L273.86 53.3598C275.168 54.8606 276.446 56.3865 277.693 57.9367L274.576 60.4438C275.79 61.9536 276.974 63.4869 278.127 65.0429L281.341 62.6618C282.526 64.2608 283.678 65.8834 284.798 67.5285L281.491 69.7791C282.581 71.3799 283.638 73.0024 284.663 74.646L288.057 72.5302C289.11 74.2187 290.128 75.9288 291.112 77.6597L287.635 79.6363C288.591 81.3182 289.513 83.0202 290.4 84.7415L293.956 82.9081C294.867 84.6752 295.743 86.4622 296.582 88.2681L292.955 89.9544C293.77 91.7074 294.55 93.4786 295.293 95.2673L298.987 93.7317C299.75 95.567 300.476 97.4203 301.165 99.2908L297.411 100.672C298.078 102.486 298.709 104.316 299.303 106.161L303.11 104.937C303.718 106.827 304.288 108.734 304.819 110.655L300.963 111.72C301.477 113.58 301.953 115.454 302.391 117.343L306.288 116.439C306.736 118.372 307.145 120.319 307.515 122.28L303.584 123.021C303.941 124.916 304.259 126.825 304.539 128.746L308.497 128.17C308.783 130.134 309.029 132.11 309.235 134.098L305.256 134.509C305.454 136.426 305.613 138.353 305.732 140.291L309.725 140.045Z" stroke="black" stroke-width="8" stroke-dasharray="6 6"/>
</svg>
