<svg width="245" height="263" viewBox="0 0 245 263" fill="none" xmlns="http://www.w3.org/2000/svg">
<path d="M185.243 0.881341C189.269 0.829014 193.295 0.793054 197.321 0.759908C199.221 0.740555 201.121 0.714192 203.02 0.6802C214.511 0.478787 224.278 0.518455 234.188 7.125C236 9 236 9 236 11C236.66 11 237.32 11 238 11C238 11.99 238 12.98 238 14C238.66 14 239.32 14 240 14C240.103 14.9487 240.206 15.8975 240.312 16.875C240.685 20.2911 240.685 20.2911 244 22C244.374 24.7494 244.374 24.7494 244.372 28.3093C244.378 29.2849 244.378 29.2849 244.383 30.2802C244.391 32.4514 244.377 34.6218 244.363 36.793C244.364 38.3215 244.365 39.8499 244.367 41.3784C244.369 45.4696 244.351 49.5604 244.326 53.6515C244.313 56.1812 244.304 58.7109 244.297 61.2406C243.932 182.854 243.932 182.854 215 213C198.154 227.538 178.743 232.996 156.766 231.828C154.992 231.658 153.22 231.474 151.449 231.273C143.667 230.405 137.535 230.305 131 235C128.264 237.357 125.626 239.799 122.992 242.27C110.134 254.184 97.0163 262.623 78.9492 262.305C62.963 261.071 42.1904 252.949 30.625 241.688C26.0944 234.195 24.7702 226.478 26.6875 217.938C29.9848 210.558 33.8462 205.889 40.3047 200.957C42.2522 199.117 42.2522 199.117 42.1133 196.512C40.5692 193.028 38.5435 191.971 35.3125 190C17.2496 178.843 8.18485 162.153 2.72656 142.219C-2.42069 119.416 1.7302 95.8149 9 74C9.38027 72.8579 9.76054 71.7158 10.1523 70.5391C15.9429 54.4347 25.4331 41.4472 37 29C37.8295 28.0719 37.8295 28.0719 38.6758 27.125C46.0269 19.2449 55.4475 13.5733 64.9375 8.625C65.5323 8.30346 66.1271 7.98192 66.74 7.65063C79.1333 1.45971 92.7882 1.53545 106.289 1.48828C108.159 1.47134 110.029 1.45318 111.899 1.43388C116.817 1.38662 121.735 1.35675 126.654 1.33044C131.496 1.3012 136.338 1.2541 141.18 1.20898C149.85 1.13061 158.52 1.08318 167.19 1.04993C173.208 1.02354 179.226 0.963883 185.243 0.881341Z" fill="#333333"/>
<path d="M185.243 0.881341C189.269 0.829014 193.295 0.793054 197.321 0.759908C199.221 0.740555 201.121 0.714192 203.02 0.6802C214.511 0.478787 224.278 0.518455 234.188 7.125C236 9 236 9 236 11C236.66 11 237.32 11 238 11C238 11.99 238 12.98 238 14C238.66 14 239.32 14 240 14C240.103 14.9487 240.206 15.8975 240.312 16.875C240.685 20.2911 240.685 20.2911 244 22C244.374 24.7494 244.374 24.7494 244.372 28.3093C244.378 29.2849 244.378 29.2849 244.383 30.2802C244.391 32.4514 244.377 34.6218 244.363 36.793C244.364 38.3215 244.365 39.8499 244.367 41.3784C244.369 45.4696 244.351 49.5604 244.326 53.6515C244.313 56.1812 244.304 58.7109 244.297 61.2406C243.932 182.854 243.932 182.854 215 213C198.154 227.538 178.743 232.996 156.766 231.828C154.992 231.658 153.22 231.474 151.449 231.273C143.667 230.405 137.535 230.305 131 235C128.264 237.357 125.626 239.799 122.992 242.27C110.134 254.184 97.0163 262.623 78.9492 262.305C62.963 261.071 42.1904 252.949 30.625 241.688C26.0944 234.195 24.7702 226.478 26.6875 217.938C29.9848 210.558 33.8462 205.889 40.3047 200.957C42.2522 199.117 42.2522 199.117 42.1133 196.512C40.5692 193.028 38.5435 191.971 35.3125 190C17.2496 178.843 8.18485 162.153 2.72656 142.219C-2.42069 119.416 1.7302 95.8149 9 74C9.38027 72.8579 9.76054 71.7158 10.1523 70.5391C15.9429 54.4347 25.4331 41.4472 37 29C37.8295 28.0719 37.8295 28.0719 38.6758 27.125C46.0269 19.2449 55.4475 13.5733 64.9375 8.625C65.5323 8.30346 66.1271 7.98192 66.74 7.65063C79.1333 1.45971 92.7882 1.53545 106.289 1.48828C108.159 1.47134 110.029 1.45318 111.899 1.43388C116.817 1.38662 121.735 1.35675 126.654 1.33044C131.496 1.3012 136.338 1.2541 141.18 1.20898C149.85 1.13061 158.52 1.08318 167.19 1.04993C173.208 1.02354 179.226 0.963883 185.243 0.881341ZM180.008 28.9961C176.721 30.6394 173.641 30.8014 170 31C170.33 31.99 170.66 32.98 171 34C170.423 34.2475 169.845 34.495 169.25 34.75C166.638 36.201 164.938 37.728 163 40C162.875 40.611 162.75 41.222 162.621 41.8516C161.786 44.7415 160.249 46.2531 158.25 48.5C154.108 53.4417 150.539 58.5728 147.062 64C146.528 64.8347 145.993 65.6693 145.441 66.5293C144.276 68.349 143.11 70.1686 141.944 71.9883C138.644 77.1003 135.288 82.1738 131.919 87.2402C131.154 88.3916 130.391 89.5439 129.629 90.6973C107.561 124.113 107.561 124.113 97 127C93.8829 127.421 90.8299 127.477 87.6875 127.438C86.8466 127.429 86.0058 127.421 85.1394 127.412C75.5547 127.152 68.7459 124.564 61.7461 117.902C58.9199 114.823 56.8373 111.753 55 108C54.4103 106.828 54.4103 106.828 53.8086 105.633C48.9468 93.9441 48.1489 72.7095 52.9077 60.7114C53.8698 58.7605 54.9092 56.8816 56 55C58.0993 51.2063 58.0993 51.2063 59.3008 47.1055C61.456 40.6157 70.573 34.9105 76.5195 31.9219C97.373 24.1716 125.187 26.6207 147.125 25.875C149.56 25.7882 151.995 25.701 154.43 25.6133C160.286 25.4033 166.143 25.1992 172 25C172 24.34 172 23.68 172 23C163.854 21.9078 155.725 21.726 147.52 21.5781C146.784 21.5643 146.048 21.5504 145.291 21.5361C141.397 21.4633 137.504 21.3958 133.61 21.3325C129.631 21.2668 125.652 21.1821 121.673 21.0929C118.575 21.0272 115.477 20.9761 112.378 20.9286C110.913 20.9037 109.448 20.8735 107.984 20.8374C95.2387 20.5321 83.0208 21.6311 71.625 27.8125C70.9507 28.1651 70.2765 28.5176 69.5818 28.8809C64.6803 31.4981 60.2121 34.3619 56 38C55.3 38.5582 54.6001 39.1163 53.8789 39.6914C32.131 57.7455 23.153 84.7511 20 112C18.5477 130.287 21.6912 149.758 33.8125 164.152C45.5126 176.442 59.4352 181.815 75.75 185.312C77.5289 185.708 77.5289 185.708 79.3437 186.111C82.2271 186.751 85.1123 187.38 88 188C88 188.66 88 189.32 88 190C86.3212 191.376 84.5781 192.674 82.8125 193.938C78.8277 196.825 75.0104 199.802 71.3179 203.056C64.8452 208.759 58.0052 213.305 50.6367 217.77C46.5287 220.262 42.695 222.921 39 226C39 226.66 39 227.32 39 228C40.8311 228.654 40.8311 228.654 42.6992 229.32C51.4106 232.461 59.9049 235.742 68.2734 239.715C71.8198 241.386 75.2645 242.797 79 244C80.2169 244.413 81.4337 244.825 82.6875 245.25C88.3317 245.895 93.1365 241.397 97.4375 238.199C98.2831 237.473 99.1287 236.748 100 236C100 235.34 100 234.68 100 234C101.65 233.34 103.3 232.68 105 232C105 231.34 105 230.68 105 230C105.785 229.679 105.785 229.679 106.586 229.352C109.982 227.45 112.711 224.939 115.625 222.375C116.878 221.295 118.132 220.216 119.387 219.137C121.578 217.244 123.742 215.332 125.895 213.395C132.072 208.033 132.072 208.033 136.5 207.875C138.232 208.432 138.232 208.432 140 209C141.622 209.328 143.247 209.639 144.875 209.938C147.351 210.434 149.806 210.951 152.254 211.574C163.831 214.494 177.183 213.408 188 208C188 207.34 188 206.68 188 206C189.207 205.969 189.207 205.969 190.438 205.938C196.273 204.402 200.699 201.467 204.088 196.36C206.764 191.746 208.918 186.905 211 182C211.285 181.338 211.57 180.675 211.864 179.993C217.619 166.379 220.776 152.454 222.039 137.746C222.123 136.791 222.207 135.837 222.293 134.853C223.145 124.808 223.701 114.758 224.125 104.688C224.188 103.238 224.188 103.238 224.251 101.758C225.007 83.7376 225.216 65.7226 225.25 47.6875C225.258 45.7773 225.258 45.7773 225.266 43.8285C225.277 40.2228 225.274 36.6174 225.266 33.0117C225.27 31.9244 225.274 30.8371 225.278 29.7168C225.271 28.7257 225.265 27.7347 225.259 26.7136C225.257 25.8472 225.256 24.9808 225.254 24.0882C225.191 21.7799 225.191 21.78 223 20C207.579 17.535 193.188 21.0027 180.008 28.9961ZM57 47C57 50 57 50 55.6875 51.3867C54.125 52.5911 52.5625 53.7956 51 55C52.4425 51.6341 54.3326 49.4895 57 47Z" fill="black"/>
<path d="M198 23C195.525 23.99 195.525 23.99 193 25C193.99 25.99 193.99 25.99 195 27C192.895 30.956 190.675 33.3485 187.125 36.0625C186.282 36.7135 185.439 37.3645 184.57 38.0352C183.722 38.6836 182.874 39.332 182 40C178.792 42.4725 175.97 44.9425 173.312 48C172.44 48.99 172.44 48.99 171.551 50C170.055 51.9292 169.085 53.826 168 56C165.502 57.5821 162.939 58.6082 160 59C159.34 58.34 158.68 57.68 158 57C158 57.66 158 58.32 158 59C157.34 59.6394 156.68 60.2788 156 60.9375C153.652 62.8801 153.652 62.8801 154 66C153.01 66.66 152.02 67.32 151 68C149.907 69.9828 148.894 72.0104 147.938 74.0625C145.213 79.8937 145.213 79.8937 143 81C142.29 82.9849 141.63 84.988 141 87C140.227 88.8122 139.426 90.6129 138.602 92.4023C131.209 108.632 124.435 125.011 118.221 141.727C117.216 144.421 116.182 147.099 115.137 149.777C110.974 160.953 109.596 174.271 113.18 185.793C115.726 191.102 118.963 195.725 123 200C117.995 199.445 114.346 197.115 110.125 194.562C109.379 194.119 108.633 193.675 107.865 193.218C102.864 190.213 98.0076 187.034 93.1875 183.75C79.7493 174.588 79.7493 174.588 64 172C63.34 172.33 62.68 172.66 62 173C62.6559 176.61 62.6559 176.61 64 180C51.7208 176.76 42.7807 168.609 36 158C30.0306 146.95 25.5144 134.646 25 122C24.9484 121.074 24.8969 120.149 24.8438 119.195C23.9687 89.9526 36.0118 63.7501 55.75 42.75C66.5402 32.365 80.8059 23.8938 96 23C93.1753 24.8831 90.7095 25.963 87.5625 27.1875C76.4868 31.7701 67.5574 37.6194 59 46C58.282 46.7025 57.564 47.4051 56.8242 48.1289C55.2012 49.7389 53.5926 51.36 52 53C53.32 52.01 54.64 51.02 56 50C56.33 50.66 56.66 51.32 57 52C55.8017 55.0814 54.526 58.0433 52.9321 60.9424C47.8692 72.1186 49.2851 92.5056 53.0625 103.875C57.5521 114.313 64.1427 121.681 74.6914 126.137C78.9739 127.254 82.967 127.368 87.375 127.375C88.5932 127.412 88.5932 127.412 89.8359 127.449C97.0084 127.484 102.005 125.532 107.477 120.906C118.763 108.265 127.881 93.8791 137.008 79.6445C140.711 73.8796 144.472 68.1538 148.25 62.4375C148.912 61.4259 149.574 60.4143 150.255 59.3721C153.733 54.1254 157.284 49.2883 161.644 44.7385C163.153 42.8035 163.444 41.3585 164 39C166.438 36.25 166.438 36.25 169 34C169.66 34 170.32 34 171 34C170.67 33.01 170.34 32.02 170 31C170.583 30.9252 171.165 30.8505 171.766 30.7734C178.329 29.7209 183.582 27.4604 189.434 24.3398C194.338 21.7794 194.338 21.7794 198 23Z" fill="#7B7B7B"/>
<path d="M210 21C207.605 24.764 205.144 27.8564 202 31C202 31.66 202 32.32 202 33C202.99 33.495 202.99 33.495 204 34C203.722 34.8972 203.722 34.8972 203.438 35.8125C202.779 38.1641 202.779 38.1641 204 41C201 43 201 43 199 44C200.149 45.2981 200.149 45.2981 203 46C203.495 47.485 203.495 47.485 204 49C203.34 49.66 202.68 50.32 202 51C202.99 52.485 202.99 52.485 204 54C204.047 56.8828 204.047 56.8828 203.75 60.125C203.662 61.2001 203.575 62.2752 203.484 63.3828C203.325 64.2465 203.165 65.1102 203 66C202.01 66.495 202.01 66.495 201 67C201 64.69 201 62.38 201 60C200.01 60.495 200.01 60.495 199 61C198.593 63.3216 198.256 65.6569 198 68C197.34 68 196.68 68 196 68C196 70.97 196 73.94 196 77C195.01 77 194.02 77 193 77C193 74.69 193 72.38 193 70C193.66 70 194.32 70 195 70C195 67.03 195 64.06 195 61C194.34 61 193.68 61 193 61C193 63.64 193 66.28 193 69C192.34 69 191.68 69 191 69C191 71.31 191 73.62 191 76C189.515 76.495 189.515 76.495 188 77C188.114 78.6467 188.241 80.2924 188.375 81.9375C188.479 83.3123 188.479 83.3123 188.586 84.7148C188.791 85.846 188.791 85.846 189 87C189.66 87.33 190.32 87.66 191 88C191 89.98 191 91.96 191 94C191.66 94 192.32 94 193 94C193 96.31 193 98.62 193 101C193.66 101 194.32 101 195 101C195 98.03 195 95.06 195 92C194.34 92 193.68 92 193 92C193 89.69 193 87.38 193 85C193.99 85 194.98 85 196 85C196 87.64 196 90.28 196 93C196.66 93 197.32 93 198 93C198.33 94.98 198.66 96.96 199 99C200.98 99.495 200.98 99.495 203 100C200.753 102.247 199 103.025 196 104C195.34 103.67 194.68 103.34 194 103C194.33 103.99 194.66 104.98 195 106C194.34 106.99 193.68 107.98 193 109C193.66 109.66 194.32 110.32 195 111C194.505 111.784 194.01 112.567 193.5 113.375C191.835 115.786 191.835 115.786 192 118C193.98 118.99 193.98 118.99 196 120C196.99 119.01 197.98 118.02 199 117C200.485 117.495 200.485 117.495 202 118C199.419 122.069 196.623 125.705 193.453 129.332C188.079 134.965 188.079 134.965 186 142C185.361 142.103 184.721 142.206 184.062 142.312C183.382 142.539 182.701 142.766 182 143C181.505 144.485 181.505 144.485 181 146C180.01 146 179.02 146 178 146C177.01 146.33 176.02 146.66 175 147C176.65 147.66 178.3 148.32 180 149C178.25 153.875 178.25 153.875 176 155C175.34 155.66 174.68 156.32 174 157C171.938 156.812 171.938 156.812 170 156C169.67 155.01 169.34 154.02 169 153C168.856 153.577 168.711 154.155 168.562 154.75C168.377 155.492 168.191 156.235 168 157C167.856 157.701 167.711 158.402 167.562 159.125C167 161 167 161 165 163C164.01 162.01 163.02 161.02 162 160C161.67 160.99 161.34 161.98 161 163C160.34 163.33 159.68 163.66 159 164C157.431 165.945 156.118 167.764 155 170C154.34 169.67 153.68 169.34 153 169C153.99 171.475 153.99 171.475 155 174C154.01 174.33 153.02 174.66 152 175C151.34 174.67 150.68 174.34 150 174C149.67 174.66 149.34 175.32 149 176C149 175.34 149 174.68 149 174C148.34 174 147.68 174 147 174C147.99 176.475 147.99 176.475 149 179C147.02 179.99 147.02 179.99 145 181C145.99 181.99 146.98 182.98 148 184C146.35 185.65 144.7 187.3 143 189C141 187 141 187 140 184C139.484 183.484 138.969 182.969 138.438 182.438C137.963 181.963 137.489 181.489 137 181C137 180.34 137 179.68 137 179C135.577 178.072 135.577 178.072 134.125 177.125C131.17 175.115 130.097 174.291 129 171C129 170.34 129 169.68 129 169C128.34 168.67 127.68 168.34 127 168C126.188 166.125 126.188 166.125 126 164C127.438 162.25 127.438 162.25 129 161C127.35 160.34 125.7 159.68 124 159C124 157.35 124 155.7 124 154C123.34 153.67 122.68 153.34 122 153C122.33 152.67 122.66 152.34 123 152C122.67 151.34 122.34 150.68 122 150C122.66 150 123.32 150 124 150C124.495 149.01 124.495 149.01 125 148C125.495 147.01 125.495 147.01 126 146C125.34 145.67 124.68 145.34 124 145C124.495 144.01 124.495 144.01 125 143C125.144 142.361 125.289 141.721 125.438 141.062C126 139 126 139 128 136C127.67 135.34 127.34 134.68 127 134C127.66 134 128.32 134 129 134C130.002 130.417 130.002 130.417 129 127C129.66 127 130.32 127 131 127C131.33 125.02 131.66 123.04 132 121C132.66 121 133.32 121 134 121C135.002 117.417 135.002 117.417 134 114C134.66 114 135.32 114 136 114C136.33 112.02 136.66 110.04 137 108C137.66 108 138.32 108 139 108C139.33 107.34 139.66 106.68 140 106C139.505 105.505 139.505 105.505 139 105C139.99 104.505 139.99 104.505 141 104C141 103.34 141 102.68 141 102C140.34 101.67 139.68 101.34 139 101C139.66 101 140.32 101 141 101C141.103 100.051 141.206 99.1025 141.312 98.125C142 95 142 95 145 93C144.505 92.01 144.505 92.01 144 91C144.66 91 145.32 91 146 91C146 90.01 146 89.02 146 88C146 87.34 146 86.68 146 86C145.34 86 144.68 86 144 86C144 86.66 144 87.32 144 88C142.515 87.505 142.515 87.505 141 87C143.197 79.2112 147.516 72.6539 152 66C152.718 64.7766 153.426 63.5472 154.125 62.3125C156 59 156 59 158 56C158.99 56.495 158.99 56.495 160 57C163.158 57 165.192 56.4041 168 55C169.019 53.3446 170.016 51.6762 171 50C175.911 43.4431 181.858 38.5136 188.427 33.7183C190.002 32.5442 191.508 31.2782 193 30C193 29.01 193 28.02 193 27C193 26.01 193 25.02 193 24C198.498 21.5008 203.994 20.818 210 21Z" fill="#4C4C4C"/>
<path d="M109.852 20.9883C111.361 21.012 112.871 21.0349 114.381 21.0569C117.526 21.1051 120.671 21.1604 123.815 21.2214C127.824 21.2991 131.832 21.3635 135.841 21.4231C138.952 21.4701 142.063 21.5217 145.174 21.5751C146.651 21.6003 148.129 21.6246 149.606 21.6479C157.122 21.7711 164.542 21.9935 172 23C172 23.66 172 24.32 172 25C171.394 25.0206 170.787 25.0412 170.163 25.0625C163.703 25.2832 157.244 25.5119 150.784 25.7446C148.391 25.8299 145.998 25.9133 143.605 25.9946C126.693 26.5712 109.861 27.5721 93 29C90.7502 29.1876 88.5003 29.3749 86.2505 29.562C84.5003 29.708 82.7502 29.8539 81 30C84.5699 27.2642 87.84 25.68 92 24C70.2925 29.481 53.4151 42.7284 41.6211 61.7578C28.3286 84.065 22.266 110.347 28 136C31.277 147.038 35.4267 158.054 44 166C44.8544 167.146 45.7086 168.291 46.5625 169.438C50.6028 174.299 56.3291 176.495 62 179C61.67 178.34 61.34 177.68 61 177C61.3125 174.438 61.3125 174.438 62 172C65.8503 170.075 69.9256 171.087 74 172C83.1936 175.533 91.2038 180.998 99.3064 186.505C108.602 192.814 118.006 199.152 129 202C134.427 203.428 139.075 205.365 144 208C141.101 209.044 139.694 208.939 136.582 208.32C132.999 207.657 132.999 207.657 130.262 209.555C129.412 210.32 128.563 211.086 127.687 211.875C126.282 213.114 126.282 213.114 124.848 214.379C123.908 215.244 122.968 216.109 122 217C121.091 217.813 120.182 218.627 119.246 219.465C117.585 220.953 115.932 222.449 114.289 223.957C107.518 230 107.518 230 105 230C105 230.66 105 231.32 105 232C103.35 232.66 101.7 233.32 100 234C100 234.66 100 235.32 100 236C90.4059 244.234 90.4059 244.234 84.7422 245.508C82.6389 245.288 80.971 244.768 79 244C78.2072 243.754 77.4144 243.508 76.5976 243.254C70.4357 241.218 64.633 238.455 58.7925 235.654C52.3583 232.609 45.7476 230.256 39 228C40.4001 224.591 41.8142 223.17 44.9648 221.301C45.7596 220.818 46.5544 220.336 47.3733 219.839C48.2195 219.335 49.0657 218.831 49.9375 218.312C57.5085 213.675 64.2834 208.815 71 203C76.8962 198.193 82.8772 193.515 89 189C85.5393 187.523 82.2144 186.513 78.5351 185.738C58.3943 181.331 40.3186 175.277 28.5 157.188C15.8389 133.51 18.6312 106.069 26.125 81.1875C34.8664 57.2748 50.8316 37.7729 73.9101 26.5898C85.775 21.3387 97.0328 20.7236 109.852 20.9883Z" fill="#141111"/>
<path d="M214.5 42.1251C215.476 42.1128 216.452 42.1006 217.457 42.088C218.855 42.0851 218.855 42.0851 220.281 42.0821C221.138 42.078 221.994 42.0739 222.877 42.0697C225 42.3126 225 42.3126 227 44.3126C227.254 46.4008 227.254 46.4008 227.259 49.0262C227.265 50.0172 227.271 51.0083 227.278 52.0294C227.274 53.1167 227.27 54.204 227.266 55.3243C227.268 56.4597 227.271 57.5951 227.274 58.765C227.278 62.5101 227.265 66.255 227.25 70.0001C227.248 71.2762 227.245 72.5524 227.243 73.8672C227.203 91.5921 226.889 109.291 226.125 127C226.086 127.929 226.047 128.859 226.006 129.816C225.739 135.987 225.394 142.149 225 148.313C224.94 149.31 224.88 150.308 224.819 151.336C224.628 154.399 224.408 157.459 224.18 160.52C224.122 161.47 224.065 162.42 224.006 163.4C223.934 164.276 223.862 165.152 223.789 166.054C223.733 166.83 223.677 167.605 223.62 168.404C223 170.313 223 170.313 221.076 171.454C220.391 171.737 219.706 172.021 219 172.313C218.34 172.973 217.68 173.633 217 174.313C216.031 174.148 215.061 173.983 214.062 173.813C210.837 172.929 210.837 172.929 208 175.313C208 176.303 208 177.293 208 178.313C206.188 178.125 206.188 178.125 204 177.313C202.438 174.938 202.438 174.938 201 172.313C199.418 170.561 199.418 170.561 198 169.313C196.02 170.303 196.02 170.303 194 171.313C194 172.303 194 173.293 194 174.313C192.02 175.303 192.02 175.303 190 176.313C190.33 178.293 190.66 180.273 191 182.313C190.01 182.313 189.02 182.313 188 182.313C187.34 182.973 186.68 183.633 186 184.313C186.66 185.303 187.32 186.293 188 187.313C187.01 187.313 186.02 187.313 185 187.313C184.67 188.633 184.34 189.953 184 191.313C181 191.313 181 191.313 179.188 189.688C178.466 189.234 177.744 188.78 177 188.313C174.087 189.012 171.67 189.977 169 191.313C169 192.303 169 193.293 169 194.313C167.02 195.303 167.02 195.303 165 196.313C165.33 197.303 165.66 198.293 166 199.313C164.515 200.303 164.515 200.303 163 201.313C162.07 202.324 161.174 203.367 160.312 204.438C159.549 205.386 158.786 206.335 158 207.313C155 205.313 155 205.313 154 202.313C153.34 201.983 152.68 201.653 152 201.313C152.33 202.303 152.66 203.293 153 204.313C152.34 204.643 151.68 204.973 151 205.313C150.876 204.529 150.753 203.745 150.625 202.938C150.209 200.172 150.209 200.172 148 198.313C148.495 197.323 148.495 197.323 149 196.313C151.64 196.313 154.28 196.313 157 196.313C156.484 195.714 155.969 195.116 155.438 194.5C154.963 193.778 154.489 193.056 154 192.313C154.33 191.323 154.66 190.333 155 189.313C155.66 189.643 156.32 189.973 157 190.313C159.102 187.444 159.102 187.444 160 184.313C160.99 184.313 161.98 184.313 163 184.313C163 183.323 163 182.333 163 181.313C163.99 181.643 164.98 181.973 166 182.313C166.33 182.313 166.66 182.313 167 182.313C167.66 182.313 168.32 182.313 169 182.313C168.938 181.364 168.876 180.415 168.812 179.438C168.905 177.891 168.905 177.891 169 176.313C170.485 175.323 170.485 175.323 172 174.313C172.66 175.633 173.32 176.953 174 178.313C177.379 177.186 178.473 176.308 180.125 173.188C180.414 172.569 180.702 171.95 181 171.313C179.35 170.983 177.7 170.653 176 170.313C177.812 168.313 177.812 168.313 180 166.313C180.99 166.313 181.98 166.313 183 166.313C184.646 164.917 184.646 164.917 186 163.313C186.33 162.983 186.66 162.653 187 162.313C187.33 161.488 187.66 160.663 188 159.813C190.045 155.558 193.54 152.645 196.941 149.461C198.886 147.431 199.876 145.85 201 143.313C201.99 141.828 201.99 141.828 203 140.313C202.402 140.643 201.804 140.973 201.188 141.313C199 142.313 199 142.313 196 142.313C195.01 141.653 194.02 140.993 193 140.313C193.33 139.364 193.66 138.415 194 137.438C195.102 134.542 195.102 134.542 195 132.313C194.01 131.818 194.01 131.818 193 131.313C193.495 130.694 193.99 130.075 194.5 129.438C196.192 127.474 196.192 127.474 196 125.313C196.577 125.189 197.155 125.065 197.75 124.938C200.023 124.306 201.925 123.424 204 122.313C202.68 121.983 201.36 121.653 200 121.313C200 119.333 200 117.353 200 115.313C199.34 115.313 198.68 115.313 198 115.313C197.505 111.848 197.505 111.848 197 108.313C196.67 108.313 196.34 108.313 196 108.313C195.67 110.293 195.34 112.273 195 114.313C195.66 114.313 196.32 114.313 197 114.313C197 117.283 197 120.253 197 123.313C196.34 123.313 195.68 123.313 195 123.313C195 121.003 195 118.693 195 116.313C194.34 116.313 193.68 116.313 193 116.313C193 114.333 193 112.353 193 110.313C192.01 109.983 191.02 109.653 190 109.313C190 106.013 190 102.713 190 99.3126C190.66 98.9826 191.32 98.6526 192 98.3126C192.407 95.991 192.744 93.6557 193 91.3126C193.66 91.3126 194.32 91.3126 195 91.3126C195 88.6726 195 86.0326 195 83.3126C195.66 83.3126 196.32 83.3126 197 83.3126C197 86.2826 197 89.2526 197 92.3126C196.34 92.3126 195.68 92.3126 195 92.3126C195.495 95.2826 195.495 95.2826 196 98.3126C196.33 98.3126 196.66 98.3126 197 98.3126C197.33 95.6726 197.66 93.0326 198 90.3126C198.66 90.3126 199.32 90.3126 200 90.3126C200 88.0026 200 85.6926 200 83.3126C200.99 82.9826 201.98 82.6526 203 82.3126C203.495 85.2826 203.495 85.2826 204 88.3126C204.221 86.1889 204.427 84.0635 204.625 81.9376C204.741 80.7542 204.857 79.5709 204.977 78.3516C204.984 77.3487 204.992 76.3459 205 75.3126C204.34 74.6526 203.68 73.9926 203 73.3126C203.66 72.3226 204.32 71.3326 205 70.3126C204.505 69.3226 204.505 69.3226 204 68.3126C202.68 68.6426 201.36 68.9726 200 69.3126C200.33 67.6626 200.66 66.0126 201 64.3126C202.32 63.9826 203.64 63.6526 205 63.3126C204.752 61.8894 204.752 61.8894 204.5 60.4376C204 57.3126 204 57.3126 204 55.3126C203.505 53.8276 203.505 53.8276 203 52.3126C204.53 51.1081 206.06 49.9037 207.59 48.6993C209.272 47.2557 209.272 47.2557 210 44.3126C207.69 44.6426 205.38 44.9726 203 45.3126C202.505 44.3226 202.505 44.3226 202 43.3126C205.77 41.4274 210.352 42.1278 214.5 42.1251ZM200 166.313C199.67 166.973 199.34 167.633 199 168.313C199.99 167.983 200.98 167.653 202 167.313C201.34 166.983 200.68 166.653 200 166.313ZM173 174.313C175 175.313 175 175.313 175 175.313L173 174.313Z" fill="#3E3E3E"/>
<path d="M210 21C207.605 24.764 205.144 27.8564 202 31C202 31.66 202 32.32 202 33C202.99 33.495 202.99 33.495 204 34C203.722 34.8972 203.722 34.8972 203.438 35.8125C202.779 38.1641 202.779 38.1641 204 41C201 43 201 43 199 44C200.149 45.2981 200.149 45.2981 203 46C203.495 47.485 203.495 47.485 204 49C203.34 49.66 202.68 50.32 202 51C202.99 52.485 202.99 52.485 204 54C204.047 56.8828 204.047 56.8828 203.75 60.125C203.662 61.2001 203.575 62.2752 203.484 63.3828C203.325 64.2465 203.165 65.1102 203 66C202.01 66.495 202.01 66.495 201 67C201 64.69 201 62.38 201 60C200.01 60.495 200.01 60.495 199 61C198.593 63.3216 198.256 65.6569 198 68C197.34 68 196.68 68 196 68C196 70.97 196 73.94 196 77C195.01 77 194.02 77 193 77C193 74.69 193 72.38 193 70C193.66 70 194.32 70 195 70C195 67.03 195 64.06 195 61C194.34 61 193.68 61 193 61C193 63.64 193 66.28 193 69C192.34 69 191.68 69 191 69C191 71.31 191 73.62 191 76C190.01 76.33 189.02 76.66 188 77C188.114 78.6467 188.241 80.2924 188.375 81.9375C188.479 83.3123 188.479 83.3123 188.586 84.7148C188.791 85.846 188.791 85.846 189 87C189.99 87.495 189.99 87.495 191 88C191 89.98 191 91.96 191 94C191.66 94 192.32 94 193 94C193 96.31 193 98.62 193 101C193.66 101 194.32 101 195 101C195 98.03 195 95.06 195 92C194.34 92 193.68 92 193 92C193 89.69 193 87.38 193 85C193.99 85 194.98 85 196 85C196 87.64 196 90.28 196 93C196.66 93 197.32 93 198 93C198.33 94.98 198.66 96.96 199 99C200.98 99.495 200.98 99.495 203 100C200.753 102.247 199 103.025 196 104C195.34 103.67 194.68 103.34 194 103C194.33 103.99 194.66 104.98 195 106C194.34 106.99 193.68 107.98 193 109C193.66 109.66 194.32 110.32 195 111C194.505 111.784 194.01 112.567 193.5 113.375C191.835 115.786 191.835 115.786 192 118C193.98 118.99 193.98 118.99 196 120C196.99 119.01 197.98 118.02 199 117C200.485 117.495 200.485 117.495 202 118C199.419 122.069 196.623 125.705 193.453 129.332C188.079 134.965 188.079 134.965 186 142C185.361 142.103 184.721 142.206 184.062 142.312C183.382 142.539 182.701 142.766 182 143C181.505 144.485 181.505 144.485 181 146C180.01 146 179.02 146 178 146C177.01 146.33 176.02 146.66 175 147C176.65 147.66 178.3 148.32 180 149C178.25 153.875 178.25 153.875 176 155C175.34 155.66 174.68 156.32 174 157C171.938 156.812 171.938 156.812 170 156C169.67 155.01 169.34 154.02 169 153C168.856 153.577 168.711 154.155 168.562 154.75C168.377 155.492 168.191 156.235 168 157C167.856 157.701 167.711 158.402 167.562 159.125C167 161 167 161 165 163C164.01 162.01 163.02 161.02 162 160C161.67 160.99 161.34 161.98 161 163C160.34 163.33 159.68 163.66 159 164C157.431 165.945 156.118 167.764 155 170C154.34 169.67 153.68 169.34 153 169C153.99 171.475 153.99 171.475 155 174C154.01 174.33 153.02 174.66 152 175C151.34 174.67 150.68 174.34 150 174C149.67 174.66 149.34 175.32 149 176C149 175.34 149 174.68 149 174C148.34 174 147.68 174 147 174C147.99 176.475 147.99 176.475 149 179C147.02 179.99 147.02 179.99 145 181C145.99 181.99 146.98 182.98 148 184C146.35 185.65 144.7 187.3 143 189C141 187 141 187 140 184C139.484 183.484 138.969 182.969 138.438 182.438C137.963 181.963 137.489 181.489 137 181C137 180.34 137 179.68 137 179C135.577 178.072 135.577 178.072 134.125 177.125C131.17 175.115 130.097 174.291 129 171C129 170.34 129 169.68 129 169C128.34 168.67 127.68 168.34 127 168C128.65 168.33 130.3 168.66 132 169C132 169.99 132 170.98 132 172C132.454 171.546 132.907 171.092 133.375 170.625C134.583 169.417 135.792 168.208 137 167C137.66 167.66 138.32 168.32 139 169C141.993 167.902 142.846 167.323 144.25 164.375C144.497 163.591 144.745 162.807 145 162C144.34 161.34 143.68 160.68 143 160C143 159.01 143 158.02 143 157C143.99 157.33 144.98 157.66 146 158C146 158.66 146 159.32 146 160C146.99 160.33 147.98 160.66 149 161C149 162.65 149 164.3 149 166C149.99 165.67 150.98 165.34 152 165C152 164.01 152 163.02 152 162C154.375 159.438 154.375 159.438 157 157C157.99 156.01 157.99 156.01 159 155C159.99 155.99 159.99 155.99 161 157C161 156.34 161 155.68 161 155C161 154.01 161 153.02 161 152C162.65 151.67 164.3 151.34 166 151C166.144 150.216 166.289 149.432 166.438 148.625C167 146 167 146 168 144C166.35 143.67 164.7 143.34 163 143C163.33 142.34 163.66 141.68 164 141C166.333 141 168.667 141 171 141C171 140.34 171 139.68 171 139C170.34 139 169.68 139 169 139C169.495 137.515 169.495 137.515 170 136C170.99 136.66 171.98 137.32 173 138C173.224 135.075 173.224 135.075 172 133C169.983 131.866 169.983 131.866 168 131C168.375 128.562 168.375 128.562 169 126C169.66 125.67 170.32 125.34 171 125C171.33 126.65 171.66 128.3 172 130C172.99 129.67 173.98 129.34 175 129C175.124 129.804 175.248 130.609 175.375 131.438C175.581 132.283 175.787 133.129 176 134C176.99 134.495 176.99 134.495 178 135C178 133.68 178 132.36 178 131C178.66 131 179.32 131 180 131C180 130.01 180 129.02 180 128C179.01 127.01 179.01 127.01 178 126C178.375 123.375 178.375 123.375 179 121C178.051 121.041 177.103 121.082 176.125 121.125C172.534 120.981 172.386 120.386 170 118C169.67 117.01 169.34 116.02 169 115C170.32 115.33 171.64 115.66 173 116C172.464 115.443 171.928 114.886 171.375 114.312C170.694 113.168 170.694 113.168 170 112C170.812 109.25 170.812 109.25 172 107C171.01 106.67 170.02 106.34 169 106C169 105.34 169 104.68 169 104C168.01 103.67 167.02 103.34 166 103C166 102.34 166 101.68 166 101C168.475 100.505 168.475 100.505 171 100C170.01 99.67 169.02 99.34 168 99C168 97.35 168 95.7 168 94C168.66 93.67 169.32 93.34 170 93C169.67 92.01 169.34 91.02 169 90C166.842 90.9473 166.842 90.9473 165 93C165 91.35 165 89.7 165 88C165.66 87.67 166.32 87.34 167 87C166.67 86.01 166.34 85.02 166 84C165.092 84.825 164.185 85.65 163.25 86.5C160.464 89.033 160.127 89 156 89C156 88 156 87 156 86C154.68 85.67 153.36 85.34 152 85C152 84.01 152 83.02 152 82C154.817 79.2882 157.321 78.4995 161.125 77.875C166.296 77.0895 166.296 77.0895 169.875 73.4375C170.927 72.2309 170.927 72.2309 172 71C173.32 71 174.64 71 176 71C175.67 69.35 175.34 67.7 175 66C174.01 66 173.02 66 172 66C172.375 64.0625 172.375 64.0625 173 62C173.66 61.67 174.32 61.34 175 61C174.118 58.1178 174.118 58.1178 173 56C174.412 55.0136 175.83 54.0362 177.25 53.0625C178.039 52.5172 178.828 51.972 179.641 51.4102C181.844 50.0934 183.544 49.5937 186 49C187.242 47.0999 187.242 47.0999 188 45C188.33 44.34 188.66 43.68 189 43C188.505 41.515 188.505 41.515 188 40C188.26 37.2285 188.704 36.2613 190.812 34.4023C191.534 33.9189 192.256 33.4355 193 32.9375C196.402 30.718 196.402 30.718 198 27C201.428 23.2126 204.602 20.0185 210 21ZM166 104C166 104.99 166 105.98 166 107C165.34 106.67 164.68 106.34 164 106C164.66 105.34 165.32 104.68 166 104ZM175 128C177 129 177 129 177 129L175 128Z" fill="#494949"/>
<path d="M183 28C179.045 30.7567 175.776 31.5318 171 32C171 32.66 171 33.32 171 34C169.286 35.566 167.466 36.9493 165.629 38.3672C163.718 40.2828 163.633 41.421 163 44C161.81 45.5481 160.548 47.0412 159.25 48.5C153.512 55.3141 148.808 62.7345 144.016 70.2305C143.506 71.0273 142.996 71.8241 142.471 72.645C141.498 74.2025 140.551 75.7766 139.632 77.3667C139.208 78.0926 138.784 78.8185 138.348 79.5664C137.803 80.5343 137.803 80.5343 137.246 81.5217C136 83 136 83 132.188 83.75C116.723 82.1166 98.519 66.744 87 57C86.1047 56.3039 86.1047 56.3039 85.1914 55.5938C82.4261 51.8945 83.3746 46.3415 84 42C90.7074 33.4061 107.461 32.7179 117.493 31.3787C128.445 30.1962 139.497 30.3114 150.5 30.25C153.089 30.2218 155.677 30.1918 158.266 30.1602C164.51 30.0874 170.755 30.0351 177 30C177 29.34 177 28.68 177 28C180.75 26.875 180.75 26.875 183 28Z" fill="#4A4A4A"/>
<path d="M74 34C72.8573 36.7008 71.5852 38.4801 69.6445 40.7266C63.2373 48.3262 59.3172 58.4224 57 68C58.0617 68.4029 58.0617 68.4029 59.1448 68.814C62.1032 70.0429 64.8641 71.4564 67.6836 72.9766C68.7689 73.5609 69.8542 74.1453 70.9724 74.7473C72.1159 75.367 73.2594 75.9866 74.4375 76.625C75.6257 77.266 76.8139 77.9068 78.0022 78.5476C83.8666 81.7167 89.6885 84.9384 95.4375 88.3125C101.721 91.9766 108.249 95.0365 114.871 98.0325C115.652 98.3904 116.433 98.7484 117.238 99.1172C117.94 99.4328 118.642 99.7485 119.365 100.074C121 101 121 101 122 103C118.052 108.659 113.992 114.196 109.5 119.438C108.83 120.22 108.159 121.002 107.469 121.809C101.405 127.191 95.6121 128.687 87.625 128.5C86.3694 128.48 86.3694 128.48 85.0884 128.459C74.9573 128.12 68.3175 125.163 60.9687 118.125C58.0375 114.961 55.8705 111.885 54 108C53.6081 107.22 53.2162 106.44 52.8125 105.637C47.9428 93.9528 47.1498 72.7074 51.9077 60.7114C52.8698 58.7605 53.9092 56.8816 55 55C57.0911 51.1665 57.0911 51.1665 58.3828 47.0469C59.9404 41.8813 68.4218 34 74 34ZM57 47C57 50 57 50 55.6875 51.3867C54.125 52.5911 52.5625 53.7956 51 55C52.4425 51.6341 54.3326 49.4895 57 47Z" fill="#1F1F1F"/>
<path d="M96 24C95.224 24.2681 94.448 24.5362 93.6484 24.8125C80.306 29.6527 69.1514 35.9027 59 46C58.2846 46.7012 57.5691 47.4025 56.832 48.125C55.2054 49.7354 53.5946 51.3579 52 53C53.32 52.01 54.64 51.02 56 50C56.33 50.66 56.66 51.32 57 52C55.8017 55.0814 54.526 58.0433 52.9321 60.9424C47.8692 72.1186 49.2851 92.5056 53.0625 103.875C57.5774 114.372 64.1137 121.415 74.5352 126.152C79.6495 127.404 84.6327 127.209 89.875 127.125C90.9449 127.116 92.0148 127.107 93.1172 127.098C95.745 127.074 98.3724 127.041 101 127C99.1528 131.167 96.457 133.137 92.75 135.625C92.1893 136.019 91.6285 136.414 91.0508 136.82C82.7914 142.466 74.7929 143.004 65 142C54.4104 138.566 47.8145 131.179 42 122C37.6781 113.369 35.6081 104.547 35.625 94.9375C35.6244 94.1184 35.6239 93.2993 35.6233 92.4553C35.7712 84.1191 37.2372 75.5255 41 68C39.68 68.66 38.36 69.32 37 70C41.1619 58.8685 48.7911 50.3286 57 42C57.6574 41.3297 58.3148 40.6594 58.9922 39.9687C66.8225 32.5753 84.8308 19.9652 96 24Z" fill="#DADADA"/>
<path d="M203 23C195.445 32.2819 195.445 32.2819 190.688 35.625C190.131 36.0788 189.574 36.5325 189 37C188.833 39.8714 188.833 39.8714 189.688 41.9375C190 44 190 44 188.688 46.0625C188.131 46.7019 187.574 47.3413 187 48C186.34 48.99 185.68 49.98 185 51C184.237 51.1444 183.474 51.2888 182.688 51.4375C179.305 52.1455 177.555 53.7367 175 56C175.33 56.33 175.66 56.66 176 57C175.714 58.6754 175.382 60.3439 175 62C174.34 62 173.68 62 173 62C173.33 62.99 173.66 63.98 174 65C174.66 65 175.32 65 176 65C176.495 67.97 176.495 67.97 177 71C176.01 71.66 175.02 72.32 174 73C174 72.34 174 71.68 174 71C172.35 72.32 170.7 73.64 169 75C169.33 75.66 169.66 76.32 170 77C168.515 77.1547 168.515 77.1547 167 77.3125C162.655 77.9509 158.991 79.1422 155 81C154.222 83.0396 154.222 83.0396 154 85C154.99 85 155.98 85 157 85C157.66 85.33 158.32 85.66 159 86C157.515 86.495 157.515 86.495 156 87C157.678 87.9662 157.678 87.9662 160 88C162.246 86.5318 164.024 84.8415 166 83C166.99 83.495 166.99 83.495 168 84C167.67 85.32 167.34 86.64 167 88C166.34 88 165.68 88 165 88C165.495 88.99 165.495 88.99 166 90C168.475 89.505 168.475 89.505 171 89C171 92 171 92 170 94C169.34 94 168.68 94 168 94C168.267 95.9849 168.267 95.9849 169 98C169.99 98.33 170.98 98.66 172 99C171.67 99.66 171.34 100.32 171 101C169.35 101 167.7 101 166 101C167.32 102.65 168.64 104.3 170 106C168.938 107.5 168.938 107.5 167 109C163.312 109.188 163.312 109.188 160 109C160.573 106.133 160.861 105.139 163 103C162.34 102.34 161.68 101.68 161 101C159.515 101.495 159.515 101.495 158 102C158 102.66 158 103.32 158 104C158.66 104.33 159.32 104.66 160 105C159.227 106.361 159.227 106.361 158.438 107.75C156.882 111.266 157.011 111.595 158 115C157.062 117.75 157.062 117.75 156 120C155.505 119.01 155.505 119.01 155 118C152.525 118.495 152.525 118.495 150 119C150 119.66 150 120.32 150 121C151.279 121.021 152.558 121.041 153.875 121.063C154.594 121.074 155.314 121.086 156.055 121.098C158.082 121.127 158.082 121.127 160 120C160.33 121.32 160.66 122.64 161 124C158 125 158 125 155 125C153.309 126.98 151.642 128.979 150 131C149.34 131 148.68 131 148 131C147.67 130.01 147.34 129.02 147 128C145.35 128.99 143.7 129.98 142 131C141.876 130.072 141.753 129.144 141.625 128.188C141.185 124.861 141.185 124.861 139 122C136.437 121.27 136.437 121.27 134 121C134.186 120.216 134.371 119.433 134.562 118.625C135.26 116.029 135.26 116.029 134 114C134.66 114 135.32 114 136 114C136.33 112.02 136.66 110.04 137 108C137.66 108 138.32 108 139 108C139.495 107.01 139.495 107.01 140 106C139.67 105.67 139.34 105.34 139 105C139.99 104.505 139.99 104.505 141 104C141 103.34 141 102.68 141 102C140.34 101.67 139.68 101.34 139 101C139.66 101 140.32 101 141 101C141.103 100.051 141.206 99.1025 141.312 98.125C142 95 142 95 145 93C144.67 92.34 144.34 91.68 144 91C144.66 91 145.32 91 146 91C146 90.01 146 89.02 146 88C146 87.34 146 86.68 146 86C145.34 86 144.68 86 144 86C144 86.66 144 87.32 144 88C143.01 87.67 142.02 87.34 141 87C143.197 79.2112 147.516 72.6539 152 66C152.718 64.7766 153.426 63.5472 154.125 62.3125C156 59 156 59 158 56C158.66 56.33 159.32 56.66 160 57C163.158 57 165.192 56.4041 168 55C169.019 53.3446 170.016 51.6762 171 50C175.911 43.4431 181.858 38.5136 188.427 33.7183C190.002 32.5442 191.508 31.2782 193 30C193 29.01 193 28.02 193 27C193 26.01 193 25.02 193 24C196.782 22.1631 198.946 21.8416 203 23ZM166 104C165.01 105.485 165.01 105.485 164 107C164.99 106.67 165.98 106.34 167 106C166.67 105.34 166.34 104.68 166 104ZM155 113C156 115 156 115 156 115L155 113Z" fill="#515151"/>
<path d="M109.852 20.9883C111.361 21.012 112.871 21.0349 114.381 21.0569C117.526 21.1051 120.671 21.1604 123.815 21.2214C127.824 21.2991 131.832 21.3635 135.841 21.4231C138.952 21.4701 142.063 21.5217 145.174 21.5751C146.651 21.6003 148.129 21.6246 149.606 21.6479C157.122 21.7711 164.542 21.9935 172 23C172 23.66 172 24.32 172 25C171.394 25.0206 170.787 25.0412 170.163 25.0625C163.703 25.2832 157.244 25.5119 150.784 25.7446C148.391 25.8299 145.998 25.9133 143.605 25.9946C126.693 26.5712 109.861 27.5721 93 29C90.7502 29.1876 88.5003 29.3749 86.2505 29.562C84.5003 29.708 82.7502 29.8539 81 30C84.5699 27.2642 87.84 25.68 92 24C70.2925 29.481 53.4151 42.7284 41.6211 61.7578C28.3286 84.065 22.266 110.347 28 136C31.277 147.038 35.4267 158.054 44 166C44.8544 167.146 45.7086 168.291 46.5625 169.438C50.6028 174.299 56.3291 176.495 62 179C61.67 178.34 61.34 177.68 61 177C61.3125 174.438 61.3125 174.438 62 172C65.844 170.078 69.9354 171.068 74 172C82.2057 175.366 89.811 179.808 97 185C86.8659 190.685 72.2674 184.722 61.9145 181.868C48.338 177.826 36.2986 169.124 28.5 157.188C15.8389 133.51 18.6312 106.069 26.125 81.1875C34.8664 57.2748 50.8316 37.7729 73.9101 26.5898C85.775 21.3387 97.0328 20.7236 109.852 20.9883Z" fill="#2F2D2D"/>
<path d="M67 208C67.33 208.66 67.66 209.32 68 210C69.65 209.67 71.3 209.34 73 209C73.495 210.485 73.495 210.485 74 212C75.794 212.885 75.794 212.885 78 213.438C82.0994 214.678 85.891 216.235 89.7812 218.016C93.1326 219.503 96.555 220.747 100 222C100 224.31 100 226.62 100 229C101.32 229.33 102.64 229.66 104 230C103.34 231.32 102.68 232.64 102 234C101.34 234 100.68 234 100 234C100 234.66 100 235.32 100 236C90.4059 244.234 90.4059 244.234 84.7422 245.508C82.6389 245.288 80.971 244.768 79 244C78.2072 243.754 77.4145 243.508 76.5977 243.254C70.4357 241.218 64.633 238.455 58.7925 235.654C52.3583 232.609 45.7476 230.256 39 228C40.4281 224.485 42.0167 223.018 45.2109 221.02C46.0437 220.496 46.8764 219.972 47.7344 219.432C49.0415 218.63 49.0415 218.63 50.375 217.812C51.2387 217.267 52.1023 216.721 52.9922 216.158C56.6838 213.859 59.7611 212.011 64 211C65.7303 209.521 65.7303 209.521 67 208Z" fill="#898989"/>
<path d="M144 86C145.32 86 146.64 86 148 86C147.427 88.8672 147.139 89.8615 145 92C145.495 92.99 145.495 92.99 146 94C145.01 94.66 144.02 95.32 143 96C142.308 97.8472 142.308 97.8472 142 100C140.879 105.884 138.32 110.02 135 115C135 115.99 135 116.98 135 118C133.801 120.603 132.447 123.099 131.094 125.625C129.791 128.018 129.791 128.018 130 131C129.474 132.021 129.474 132.021 128.938 133.062C128.628 133.702 128.319 134.341 128 135C128.33 135.66 128.66 136.32 129 137C128.34 137 127.68 137 127 137C127.021 138.134 127.041 139.269 127.063 140.438C127 144 127 144 126 145C126.33 145.66 126.66 146.32 127 147C125.667 148.333 124.333 149.667 123 151C123.33 151.99 123.66 152.98 124 154C124 154.66 124 155.32 124 156C124.66 156.33 125.32 156.66 126 157C125.34 157 124.68 157 124 157C124 157.66 124 158.32 124 159C125.65 159.66 127.3 160.32 129 161C128.67 161.66 128.34 162.32 128 163C127.648 164.329 127.312 165.662 127 167C127.66 167.33 128.32 167.66 129 168C129.717 169.982 130.383 171.984 131 174C131.495 174.99 131.495 174.99 132 176C126.25 177.125 126.25 177.125 124 176C124.023 176.603 124.046 177.207 124.07 177.828C124.097 179.027 124.097 179.027 124.125 180.25C124.148 181.039 124.171 181.828 124.195 182.641C123.983 185.207 123.287 186.792 122 189C122.66 189.66 123.32 190.32 124 191C125.215 194.287 126.212 197.586 127 201C121.447 199.654 118.107 195.552 115 191C108.694 179.547 109.171 166.962 112.633 154.578C114.806 147.612 117.351 140.798 120 134C120.449 132.84 120.898 131.681 121.361 130.486C127.105 115.784 133.383 101.328 140 87C141.32 87.33 142.64 87.66 144 88C144 87.34 144 86.68 144 86Z" fill="#242424"/>
<path d="M109.852 20.9883C111.361 21.012 112.871 21.0349 114.381 21.0569C117.526 21.1051 120.671 21.1604 123.815 21.2214C127.824 21.2991 131.832 21.3635 135.841 21.4231C138.952 21.4701 142.063 21.5217 145.174 21.5751C146.651 21.6003 148.129 21.6246 149.606 21.6479C157.122 21.7711 164.542 21.9935 172 23C172 23.66 172 24.32 172 25C171.394 25.0206 170.787 25.0412 170.163 25.0625C163.703 25.2832 157.244 25.5119 150.784 25.7446C148.391 25.8299 145.998 25.9133 143.605 25.9946C126.693 26.5712 109.861 27.5721 93 29C90.7502 29.1876 88.5003 29.3749 86.2505 29.562C84.5003 29.708 82.7502 29.854 81 30C84.5699 27.2642 87.8401 25.68 92 24C67.4935 30.1877 51.2556 45.9469 38 67C37.01 66.34 36.02 65.68 35 65C36.9068 58.3455 40.5712 54.1878 45 49C45.6677 48.1969 46.3355 47.3938 47.0234 46.5664C51.2471 41.6165 55.5711 37.5859 61 34C61.7605 33.4973 62.5211 32.9945 63.3047 32.4766C78.3692 22.995 92.3177 20.6263 109.852 20.9883Z" fill="#656565"/>
<path d="M90 196C90 196.66 90 197.32 90 198C92.475 198.495 92.475 198.495 95 199C95 199.66 95 200.32 95 201C95.7631 200.938 96.5262 200.876 97.3125 200.812C100 201 100 201 101.812 202.375C103 204 103 204 103 206C103.724 206.134 104.449 206.268 105.195 206.406C107.827 206.963 110.315 207.682 112.875 208.5C116.933 209.745 120.784 210.542 125 211C120.532 213.546 116.894 213.055 112 212C109.374 211.248 106.782 210.471 104.188 209.625C103.541 209.416 102.895 209.207 102.229 208.992C98.645 207.767 95.968 206.313 93 204C89.2358 203.261 85.8393 203 82 203C80.2488 204.417 80.2488 204.417 79 206C80.32 205.67 81.64 205.34 83 205C83 206.32 83 207.64 83 209C84.0828 209.093 84.0828 209.093 85.1875 209.187C88 210 88 210 90.1875 212.437C93.644 215.587 96.1189 215.888 100.625 216.605C104.514 217.252 107.214 218.214 110 221C113.099 220.678 113.099 220.678 116 220C114.631 223.149 113.125 225.048 110.5 227.25C109.587 228.031 109.587 228.031 108.656 228.828C107 230 107 230 105 230C105 230.66 105 231.32 105 232C104.34 232 103.68 232 103 232C103 231.34 103 230.68 103 230C102.01 229.67 101.02 229.34 100 229C100 226.69 100 224.38 100 222C98.9481 221.897 97.8963 221.794 96.8125 221.687C92.9537 220.992 91.2858 219.995 88 218C84.9565 216.671 81.9012 215.4 78.8203 214.162C74.1055 212.211 74.1055 212.211 73 210C72.2163 210 71.4325 210 70.625 210C69.0833 210 67.5417 210 66 210C64.3749 211.458 64.3749 211.458 63 213C62.34 212.34 61.68 211.68 61 211C63.3979 209.073 65.7997 207.152 68.2148 205.246C69.9521 203.845 71.6594 202.405 73.3164 200.91C78.8285 196.088 82.7276 195.043 90 196Z" fill="#3A3838"/>
<path d="M203 23C195.445 32.2819 195.445 32.2819 190.688 35.625C190.131 36.0788 189.574 36.5325 189 37C188.833 39.8714 188.833 39.8714 189.688 41.9375C190 44 190 44 188.688 46.0625C188.131 46.7019 187.574 47.3413 187 48C186.34 48.99 185.68 49.98 185 51C184.237 51.1444 183.474 51.2888 182.688 51.4375C179.305 52.1455 177.555 53.7367 175 56C175.495 56.495 175.495 56.495 176 57C175.714 58.6754 175.382 60.3439 175 62C173.68 61.67 172.36 61.34 171 61C170.34 61.99 169.68 62.98 169 64C168.34 63.67 167.68 63.34 167 63C163.284 64.5583 160.462 66.3935 158 69.625C157.34 70.4088 156.68 71.1925 156 72C155.01 72 154.02 72 153 72C153.66 72.33 154.32 72.66 155 73C154.67 73.66 154.34 74.32 154 75C152.68 75 151.36 75 150 75C150.66 75.33 151.32 75.66 152 76C151.67 76.99 151.34 77.98 151 79C150.34 79 149.68 79 149 79C147.776 81.0745 147.776 81.0745 148 84C147.01 84.495 147.01 84.495 146 85C145.34 84.67 144.68 84.34 144 84C144.298 77.1501 147.342 72.6592 151 67C151.514 66.1428 152.029 65.2855 152.559 64.4023C154.278 61.5359 156.131 58.7711 158 56C158.66 56.33 159.32 56.66 160 57C163.158 57 165.192 56.4041 168 55C169.019 53.3446 170.016 51.6762 171 50C175.911 43.4431 181.858 38.5136 188.427 33.7183C190.002 32.5442 191.508 31.2782 193 30C193 29.01 193 28.02 193 27C193 26.01 193 25.02 193 24C196.782 22.1631 198.946 21.8416 203 23Z" fill="#525252"/>
<path d="M199 60C199.66 60 200.32 60 201 60C201.33 61.98 201.66 63.96 202 66C202.33 64.02 202.66 62.04 203 60C203.66 60 204.32 60 205 60C205.33 62.31 205.66 64.62 206 67C206.66 67 207.32 67 208 67C208 69.31 208 71.62 208 74C208.66 74 209.32 74 210 74C210 76.97 210 79.94 210 83C209.34 83 208.68 83 208 83C207.67 85.64 207.34 88.28 207 91C206.67 91 206.34 91 206 91C206 88.03 206 85.06 206 82C206.66 82 207.32 82 208 82C207.67 80.02 207.34 78.04 207 76C205.032 77.9682 205.338 81.3481 205 84C204.67 84 204.34 84 204 84C204 79.38 204 74.76 204 70C203.67 72.31 203.34 74.62 203 77C202.34 77 201.68 77 201 77C201 78.98 201 80.96 201 83C201.66 83 202.32 83 203 83C203.33 85.31 203.66 87.62 204 90C204.33 90 204.66 90 205 90C205 92.64 205 95.28 205 98C204.01 98.495 204.01 98.495 203 99C203 96.69 203 94.38 203 92C202.34 92 201.68 92 201 92C200.67 89.69 200.34 87.38 200 85C200 89.95 200 94.9 200 100C199.34 99.67 198.68 99.34 198 99C198 97.02 198 95.04 198 93C197.34 93 196.68 93 196 93C195.67 90.69 195.34 88.38 195 86C194.67 86 194.34 86 194 86C193.67 87.98 193.34 89.96 193 92C193.66 92 194.32 92 195 92C195 94.97 195 97.94 195 101C194.34 101 193.68 101 193 101C193 98.69 193 96.38 193 94C192.34 94 191.68 94 191 94C191 92.02 191 90.04 191 88C190.01 87.67 189.02 87.34 188 87C188 83.7 188 80.4 188 77C188.66 76.67 189.32 76.34 190 76C190.407 73.6784 190.744 71.3431 191 69C191.66 69 192.32 69 193 69C193 66.36 193 63.72 193 61C193.66 61 194.32 61 195 61C195 63.97 195 66.94 195 70C194.34 70 193.68 70 193 70C193.33 71.98 193.66 73.96 194 76C194.33 76 194.66 76 195 76C195.33 73.36 195.66 70.72 196 68C196.66 68 197.32 68 198 68C197.979 66.8656 197.959 65.7312 197.938 64.5625C198 61 198 61 199 60Z" fill="#232323"/>
<path d="M83 201C83.8869 201.309 84.7737 201.619 85.6875 201.938C88.7995 203.026 88.7995 203.026 91.3125 203.375C93.8614 203.968 95.8789 204.79 98.25 205.875C106.538 209.636 113.873 211.505 123 212C122.505 211.01 122.505 211.01 122 210C124.31 210 126.62 210 129 210C127.356 211.694 125.688 213.35 124 215C123.481 215.539 122.961 216.078 122.426 216.633C117.91 220.99 114.228 221.972 108 222C107.67 221.01 107.34 220.02 107 219C104.613 217.964 104.613 217.964 101.75 217.312C100.796 217.061 99.8422 216.81 98.8594 216.551C96.1539 216.03 93.7457 215.895 91 216C90.67 215.01 90.34 214.02 90 213C88.1698 211.838 88.1698 211.838 86 210.938C82.1022 209.204 82.1022 209.204 81 207C80.01 206.67 79.02 206.34 78 206C79.65 204.35 81.3 202.7 83 201Z" fill="#231717"/>
<path d="M55.0625 143.75C60.8671 143.788 64.7563 144.608 70 147C70.9487 147.289 71.8975 147.577 72.875 147.875C85.5622 152.442 85.5622 152.442 89 157C89 158.32 89 159.64 89 161C81.9629 164.519 73.4766 161.506 66.5 159.188C65.7104 158.927 64.9209 158.667 64.1074 158.398C60.047 156.976 58.1574 156.157 55 153C59.62 153.66 64.24 154.32 69 155C69 155.66 69 156.32 69 157C69.99 157 70.98 157 72 157C71.67 155.35 71.34 153.7 71 152C70.01 151.67 69.02 151.34 68 151C67.67 151.99 67.34 152.98 67 154C66.67 153.01 66.34 152.02 66 151C65.34 150.67 64.68 150.34 64 150C63.67 151.32 63.34 152.64 63 154C62.67 152.35 62.34 150.7 62 149C60.8419 150.053 60.8419 150.053 60 152C59.34 152 58.68 152 58 152C58 150.35 58 148.7 58 147C56.68 147 55.36 147 54 147C54 148.98 54 150.96 54 153C51.0848 151.926 49.2219 151.222 47 149C47.8417 143.445 49.7703 143.823 55.0625 143.75Z" fill="#2A3031"/>
<path d="M224 28C224.33 28 224.66 28 225 28C225 44.83 225 61.66 225 79C224.505 77.515 224.505 77.515 224 76C223.457 76.2887 222.915 76.5775 222.355 76.875C221.64 77.2463 220.925 77.6175 220.188 78C219.48 78.3713 218.772 78.7425 218.043 79.125C216 80 216 80 213 80C212.505 78.515 212.505 78.515 212 77C212.33 76.34 212.66 75.68 213 75C212.505 73.515 212.505 73.515 212 72C212.33 71.34 212.66 70.68 213 70C212.34 69.34 211.68 68.68 211 68C213.983 66.4755 216.818 65.0606 220 64C219.505 62.515 219.505 62.515 219 61C219.66 61 220.32 61 221 61C221.66 59.02 222.32 57.04 223 55C221.02 55.99 221.02 55.99 219 57C218.67 56.34 218.34 55.68 218 55C215.983 53.8665 215.983 53.8665 214 53C214.516 52.4019 215.031 51.8037 215.562 51.1875C216.037 50.4656 216.511 49.7437 217 49C216.67 48.01 216.34 47.02 216 46C217.18 44.1758 217.18 44.1758 218.875 42.3125C219.429 41.6899 219.984 41.0673 220.555 40.4258C222 39 222 39 223 39C222.979 37.7419 222.959 36.4838 222.938 35.1875C222.891 32.3595 223.083 30.7508 224 28Z" fill="#3B3B3B"/>
<path d="M34 65C35.32 65.66 36.64 66.32 38 67C37.5411 68.03 37.0822 69.0599 36.6094 70.1211C29.4659 86.551 25.7842 102.53 25.9375 120.5C25.942 121.513 25.9465 122.526 25.9512 123.57C25.9628 126.047 25.9792 128.523 26 131C25.67 131 25.34 131 25 131C24.67 128.69 24.34 126.38 24 124C23.021 126.937 22.9621 128.054 23.375 131C23.4652 131.681 23.5555 132.361 23.6484 133.062C23.9903 135.207 23.9903 135.207 25 138C24.7243 140.009 24.3976 142.012 24 144C14.8299 127.163 20.3105 101.885 25.2031 84.5156C27.3256 77.5749 30.0965 71.1293 34 65Z" fill="#393939"/>
<path d="M198 23C196.35 23.66 194.7 24.32 193 25C193.66 25.66 194.32 26.32 195 27C191.846 32.89 187.219 36.0116 182 40C181.301 40.5981 180.603 41.1963 179.883 41.8125C175.086 45.8193 171.244 46.9711 165 47C166.886 42.7164 169.36 40.849 173 38C172.67 37.67 172.34 37.34 172 37C168.7 40.3 165.4 43.6 162 47C162 42.2415 163.34 39.7427 166.5 36.1875C169 34 169 34 171 34C170.67 33.01 170.34 32.02 170 31C170.583 30.9252 171.165 30.8505 171.766 30.7734C178.329 29.7209 183.582 27.4604 189.434 24.3398C194.338 21.7794 194.338 21.7794 198 23Z" fill="#848585"/>
<path d="M90 196C90 196.66 90 197.32 90 198C92.475 198.495 92.475 198.495 95 199C95 199.66 95 200.32 95 201C95.7631 200.938 96.5263 200.876 97.3125 200.813C100 201 100 201 101.812 202.375C103 204 103 204 103 206C103.724 206.134 104.449 206.268 105.195 206.406C107.827 206.963 110.315 207.682 112.875 208.5C116.933 209.745 120.784 210.542 125 211C120.532 213.546 116.894 213.055 112 212C109.374 211.248 106.782 210.471 104.188 209.625C103.541 209.416 102.895 209.207 102.229 208.992C98.645 207.767 95.968 206.313 93 204C89.2358 203.261 85.8393 203 82 203C80.2488 204.417 80.2488 204.417 79 206C80.32 205.67 81.64 205.34 83 205C82.67 206.32 82.34 207.64 82 209C81.2369 208.835 80.4738 208.67 79.6875 208.5C76.964 207.909 76.964 207.909 74 208C74.66 207.01 75.32 206.02 76 205C74.68 204.01 73.36 203.02 72 202C77.8334 196.525 82.0483 195.12 90 196Z" fill="#472626"/>
<path d="M172 23C172 23.66 172 24.32 172 25C171.394 25.0206 170.787 25.0412 170.163 25.0625C163.703 25.2832 157.244 25.5119 150.784 25.7446C148.391 25.8299 145.998 25.9133 143.605 25.9946C126.693 26.5712 109.861 27.5721 93 29C90.7502 29.1876 88.5003 29.3749 86.2505 29.562C84.5003 29.708 82.7502 29.854 81 30C90.417 20.583 118.434 23.3887 130.84 22.9397C134.324 22.8121 137.808 22.6694 141.291 22.5254C143.544 22.4392 145.797 22.3539 148.051 22.2695C149.584 22.2056 149.584 22.2056 151.148 22.1403C158.17 21.9005 165.013 22.2768 172 23Z" fill="#464646"/>
<path d="M65 31C65.66 31.33 66.32 31.66 67 32C67 32.99 67 33.98 67 35C65.3125 36.543 65.3125 36.543 63 38.1875C54.6482 44.4644 48.7841 51.3854 43.0781 60.0469C41.2266 62.6779 39.3511 64.8184 37 67C35.832 65.3125 35.832 65.3125 35 63C39.5646 51.5792 51.0018 40.7471 61 34C62.3376 33.0057 63.6719 32.007 65 31Z" fill="#595959"/>
<path d="M144 86C145.32 86 146.64 86 148 86C147.427 88.8672 147.139 89.8615 145 92C145.33 92.66 145.66 93.32 146 94C145.01 94.66 144.02 95.32 143 96C142.308 97.8472 142.308 97.8472 142 100C140.991 105.296 139.031 108.502 136 113C135.402 112.814 134.804 112.629 134.188 112.438C131.836 111.779 131.836 111.779 129 113C130.719 107.315 133.164 102.016 135.625 96.625C136.045 95.6982 136.465 94.7713 136.898 93.8164C137.93 91.5431 138.964 89.271 140 87C141.32 87.33 142.64 87.66 144 88C144 87.34 144 86.68 144 86Z" fill="#3A3A3A"/>
<path d="M121 201C123.064 201.257 125.126 201.531 127.188 201.812C128.91 202.039 128.91 202.039 130.668 202.27C134.049 203.011 136.145 204.097 139 206C140.654 206.698 142.317 207.375 144 208C141.083 209.05 139.534 208.928 136.375 208.438C135.261 208.293 134.147 208.149 133 208C132.34 208.66 131.68 209.32 131 210C120.689 212.421 112.462 209.782 103 206C103 205.67 103 205.34 103 205C107.833 204.917 112.237 205.047 117 206C118.32 204.35 119.64 202.7 121 201Z" fill="#181515"/>
<path d="M158 56C158.66 56.33 159.32 56.66 160 57C160.99 57 161.98 57 163 57C163.99 57 164.98 57 166 57C164.68 59.31 163.36 61.62 162 64C161.34 64 160.68 64 160 64C160 65.32 160 66.64 160 68C158.188 70.25 158.188 70.25 156 72C155.01 72 154.02 72 153 72C153.66 72.33 154.32 72.66 155 73C154.67 73.66 154.34 74.32 154 75C152.68 75 151.36 75 150 75C150.66 75.33 151.32 75.66 152 76C151.67 76.99 151.34 77.98 151 79C150.34 79 149.68 79 149 79C147.776 81.0745 147.776 81.0745 148 84C147.34 84.33 146.68 84.66 146 85C145.34 84.67 144.68 84.34 144 84C144.298 77.1501 147.342 72.6592 151 67C151.514 66.1428 152.029 65.2855 152.559 64.4023C154.278 61.5359 156.131 58.7711 158 56Z" fill="#636363"/>
<path d="M199 60C199.66 60 200.32 60 201 60C201.33 61.98 201.66 63.96 202 66C202.33 64.02 202.66 62.04 203 60C203.66 60 204.32 60 205 60C205.33 62.31 205.66 64.62 206 67C206.66 67 207.32 67 208 67C208 69.31 208 71.62 208 74C208.66 74 209.32 74 210 74C210 76.97 210 79.94 210 83C209.34 83 208.68 83 208 83C207.67 85.64 207.34 88.28 207 91C206.67 91 206.34 91 206 91C206 88.03 206 85.06 206 82C206.66 82 207.32 82 208 82C207.67 80.02 207.34 78.04 207 76C205.032 77.9682 205.338 81.3481 205 84C204.67 84 204.34 84 204 84C204.035 83.0126 204.07 82.0252 204.105 81.0078C204.133 79.7265 204.16 78.4452 204.188 77.125C204.222 75.8488 204.257 74.5727 204.293 73.2578C204.196 72.1827 204.1 71.1077 204 70C203.01 69.34 202.02 68.68 201 68C201 70.31 201 72.62 201 75C200.34 75 199.68 75 199 75C199.062 76.1138 199.124 77.2275 199.188 78.375C199.095 80.1694 199.095 80.1694 199 82C198.01 82.66 197.02 83.32 196 84C196 78.72 196 73.44 196 68C196.66 68 197.32 68 198 68C197.979 66.8656 197.959 65.7312 197.938 64.5625C198 61 198 61 199 60Z" fill="#272727"/>
<path d="M132 111C133.32 111.66 134.64 112.32 136 113C136 117.666 133.464 121.123 131.312 125.188C129.789 127.936 129.789 127.936 130 131C129.67 131.99 129.34 132.98 129 134C128.01 133.67 127.02 133.34 126 133C126.33 132.34 126.66 131.68 127 131C126.34 131 125.68 131 125 131C125 132.65 125 134.3 125 136C123.35 135.67 121.7 135.34 120 135C121.229 131.555 122.487 128.121 123.75 124.688C124.098 123.711 124.446 122.735 124.805 121.729C125.153 120.791 125.501 119.853 125.859 118.887C126.174 118.023 126.488 117.159 126.812 116.268C128.164 113.687 129.568 112.556 132 111Z" fill="#2B2B2B"/>
<path d="M203 23C198.058 29.0715 193.06 34.1347 186.574 38.5703C185.795 39.278 185.795 39.278 185 40C185 40.99 185 41.98 185 43C183.355 44.5 183.355 44.5 181.188 46C176.31 49.2867 176.31 49.2867 173.125 54.0625C171.587 56.7118 169.849 57.1004 167 58C170.537 47.1527 179.555 40.1685 188.478 33.667C190.036 32.5097 191.525 31.2611 193 30C193 29.01 193 28.02 193 27C193 26.01 193 25.02 193 24C196.782 22.1631 198.946 21.8416 203 23Z" fill="#5C5C5C"/>
<path d="M75 150C80.4598 150.662 85.1065 153.106 89 157C89 158.32 89 159.64 89 161C81.9629 164.519 73.4766 161.506 66.5 159.188C65.7104 158.927 64.9209 158.667 64.1074 158.398C60.047 156.976 58.1574 156.157 55 153C59.62 153.66 64.24 154.32 69 155C69 155.66 69 156.32 69 157C70.1138 156.66 70.1138 156.66 71.25 156.312C74 156 74 156 76.0625 157.375C76.7019 157.911 77.3412 158.448 78 159C80.1473 159.705 80.1473 159.705 82 160C81.3719 157.03 81.3719 157.03 80 154C77.49 152.561 77.49 152.561 75 152C75 151.34 75 150.68 75 150Z" fill="#23292B"/>
<path d="M96 24C95.224 24.2681 94.448 24.5363 93.6484 24.8125C78.7284 30.225 67.1418 37.6301 56 49.0625C54 51 54 51 52 51C52 50.34 52 49.68 52 49C52.66 49 53.32 49 54 49C53.67 48.01 53.34 47.02 53 46C62.4836 35.1911 74.4185 28.3337 88 24C88.6987 23.7731 89.3973 23.5463 90.1172 23.3125C92.343 22.9431 93.8692 23.3151 96 24Z" fill="#EFEFEF"/>
<path d="M121 181C121.195 183.018 121.391 185.036 121.586 187.055C121.864 189.227 121.864 189.227 124 191C125.215 194.287 126.212 197.586 127 201C121.412 199.645 118.31 195.419 115 191C113.163 187.805 112.795 185.697 113 182C115.928 181.024 117.956 180.918 121 181Z" fill="#2A2929"/>
<path d="M82 198C87.9129 198.643 93.3424 200.19 99 202C99 202.66 99 203.32 99 204C111.766 208.465 111.766 208.465 125 211C120.532 213.546 116.894 213.055 112 212C109.374 211.248 106.782 210.471 104.188 209.625C103.541 209.416 102.895 209.207 102.229 208.992C98.6388 207.765 95.9687 206.319 93 204C90.4122 202.883 87.7922 201.93 85.1445 200.965C83 200 83 200 82 198Z" fill="#F33839"/>
<path d="M50 69C50.925 72.1052 51.0715 74.7692 50.957 78C50.4634 92.3284 50.4634 92.3284 54.2227 105.988C54.4792 106.652 54.7357 107.316 55 108C54.67 108.66 54.34 109.32 54 110C53.3291 108.377 52.6634 106.751 52 105.125C51.6288 104.22 51.2575 103.315 50.875 102.383C50 100 50 100 50 98C49.34 98 48.68 98 48 98C44.165 89.2372 45.3059 82.141 47 73C47.66 73 48.32 73 49 73C49.33 71.68 49.66 70.36 50 69Z" fill="#9F9F9F"/>
<path d="M189.195 25.3867C189.791 25.5891 190.386 25.7915 191 26C190.276 26.4589 189.551 26.9178 188.805 27.3906C187.838 28.0042 186.871 28.6178 185.875 29.25C184.873 29.8855 183.872 30.521 182.84 31.1758C180.679 32.5641 178.55 33.978 176.438 35.4375C174 37 174 37 172 37C170.242 38.614 168.541 40.2912 166.875 42C165.965 42.9281 165.055 43.8563 164.117 44.8125C163.419 45.5344 162.72 46.2563 162 47C162 42.2415 163.34 39.7427 166.5 36.1875C169 34 169 34 171 34C170.67 33.01 170.34 32.02 170 31C170.961 30.8531 170.961 30.8531 171.941 30.7031C176.341 29.9426 180.064 29.2118 183.875 26.8125C187 25 187 25 189.195 25.3867Z" fill="#C0C0C0"/>
<path d="M126 167C126.99 167.33 127.98 167.66 129 168C130.125 170.938 130.125 170.938 131 174C131.33 174.66 131.66 175.32 132 176C126.25 177.125 126.25 177.125 124 176C124.035 176.626 124.07 177.253 124.105 177.898C124.133 178.716 124.16 179.533 124.188 180.375C124.222 181.187 124.257 181.999 124.293 182.836C124.196 183.55 124.1 184.264 124 185C123.01 185.66 122.02 186.32 121 187C120.691 186.361 120.381 185.721 120.062 185.062C119.165 183.064 119.165 183.064 118 182C117.34 181.34 116.68 180.68 116 180C116.639 179.691 117.279 179.381 117.938 179.062C119.936 178.165 119.936 178.165 121 177C121.66 176.34 122.32 175.68 123 175C123.362 173.674 123.697 172.341 124 171C124.33 170.67 124.66 170.34 125 170C124.67 169.34 124.34 168.68 124 168C124.66 167.67 125.32 167.34 126 167ZM111 179C113.475 179.99 113.475 179.99 116 181C114.68 182.32 113.36 183.64 112 185C111.67 183.02 111.34 181.04 111 179Z" fill="#333333"/>
<path d="M127 24C126.67 24.66 126.34 25.32 126 26C123.519 26.4522 121.13 26.7619 118.625 27C117.854 27.0798 117.082 27.1595 116.288 27.2417C104.548 28.4077 92.7685 29.185 81 30C90.1626 20.8374 114.969 23.7781 127 24Z" fill="#4B4B4B"/>
<path d="M34 65C35.32 65.66 36.64 66.32 38 67C36.8769 69.7508 35.7516 72.5006 34.625 75.25C34.3079 76.0273 33.9908 76.8046 33.6641 77.6055C33.3547 78.3596 33.0453 79.1137 32.7266 79.8906C32.4438 80.5819 32.161 81.2731 31.8696 81.9854C30.9861 84.0322 30.0155 86.0157 29 88C28.01 87.67 27.02 87.34 26 87C26.5361 79.1377 29.6465 71.5302 34 65Z" fill="#444444"/>
<path d="M116 220C114.631 223.149 113.125 225.048 110.5 227.25C109.892 227.771 109.283 228.292 108.656 228.828C107 230 107 230 105 230C105 230.66 105 231.32 105 232C104.34 232 103.68 232 103 232C103 231.34 103 230.68 103 230C102.01 229.67 101.02 229.34 100 229C100 226.69 100 224.38 100 222C100.687 221.939 101.374 221.879 102.082 221.816C102.983 221.733 103.884 221.649 104.812 221.562C106.152 221.441 106.152 221.441 107.52 221.316C110.531 220.932 112.929 220 116 220Z" fill="#656565"/>
<path d="M53 146C55.475 146.495 55.475 146.495 58 147C58 148.65 58 150.3 58 152C58.66 151.34 59.32 150.68 60 150C59.67 149.34 59.34 148.68 59 148C60.32 148.33 61.64 148.66 63 149C63 150.32 63 151.64 63 153C63.33 152.01 63.66 151.02 64 150C70.875 150.875 70.875 150.875 72 152C72.0406 153.666 72.0427 155.334 72 157C71.2987 156.867 70.5975 156.734 69.875 156.598C64.2595 155.552 58.6757 154.643 53 154C53 151.36 53 148.72 53 146Z" fill="#5B5D5E"/>
<path d="M64 121C65.0132 121.524 65.0132 121.524 66.0469 122.059C66.9389 122.514 67.8309 122.969 68.75 123.438C69.6317 123.89 70.5134 124.342 71.4219 124.809C75.5263 126.705 78.9086 127.123 83.4219 127.098C84.4467 127.094 85.4715 127.091 86.5273 127.088C88.1226 127.075 88.1226 127.075 89.75 127.062C90.8289 127.058 91.9079 127.053 93.0195 127.049C95.6797 127.037 98.3398 127.021 101 127C100.34 128.32 99.68 129.64 99 131C98.2988 130.794 97.5975 130.587 96.875 130.375C93.3621 129.917 91.3327 130.867 88 132C78.7788 132.838 71.4186 127.946 64 123C64 122.34 64 121.68 64 121Z" fill="#BFBFBF"/>
<path d="M113 213C115.333 213.037 117.667 213.048 120 213C116.83 216.26 113.601 219.222 110 222C108 221 108 221 106 219C104.016 218.286 102.017 217.614 100 217C104.773 212.068 106.198 211.996 113 213Z" fill="#1C1515"/>
<path d="M184 29C184.33 29.99 184.66 30.98 185 32C185.66 32.33 186.32 32.66 187 33C185.02 33.99 185.02 33.99 183 35C183 35.66 183 36.32 183 37C178.162 40.6044 173.137 43.677 167 44C170.107 39.7323 173.559 36.7962 177.75 33.6875C178.352 33.2331 178.954 32.7787 179.574 32.3105C181.045 31.2014 182.522 30.0999 184 29Z" fill="#929292"/>
<path d="M83 201C89.6052 202.468 89.6052 202.468 91.4375 204.938C92 207 92 207 92 210C87.614 212.193 87.614 212.193 84.8125 211.312C83 210 83 210 81 207C80.01 206.67 79.02 206.34 78 206C79.65 204.35 81.3 202.7 83 201Z" fill="#160F0F"/>
<path d="M203 60C203.66 60 204.32 60 205 60C205.33 62.31 205.66 64.62 206 67C206.66 67 207.32 67 208 67C208 69.31 208 71.62 208 74C208.66 74 209.32 74 210 74C210 76.97 210 79.94 210 83C209.34 83 208.68 83 208 83C207.67 85.64 207.34 88.28 207 91C206.67 91 206.34 91 206 91C206 88.03 206 85.06 206 82C206.66 82 207.32 82 208 82C207.67 80.02 207.34 78.04 207 76C205.032 77.9682 205.338 81.3481 205 84C204.67 84 204.34 84 204 84C204.012 83.1054 204.023 82.2108 204.035 81.2891C204.089 74.1182 203.918 67.1149 203 60Z" fill="#202020"/>
<path d="M73.832 203.254C74.5475 203.5 75.2629 203.746 76 204C76 204.99 76 205.98 76 207C76.66 207 77.32 207 78 207C80 209 80 209 80 211C80.33 211.99 80.66 212.98 81 214C78.6483 213.401 76.3141 212.731 74 212C73.67 211.34 73.34 210.68 73 210C72.2163 210 71.4325 210 70.625 210C69.0833 210 67.5417 210 66 210C64.3749 211.458 64.3749 211.458 63 213C62.34 212.34 61.68 211.68 61 211C62.5465 209.628 64.1129 208.278 65.6875 206.938C66.5576 206.183 67.4277 205.429 68.3242 204.652C71 203 71 203 73.832 203.254Z" fill="#4B4B4B"/>
<path d="M224 62C224.33 62 224.66 62 225 62C225 67.61 225 73.22 225 79C224.67 78.01 224.34 77.02 224 76C223.457 76.2887 222.915 76.5775 222.355 76.875C221.282 77.4319 221.282 77.4319 220.188 78C219.48 78.3713 218.772 78.7425 218.043 79.125C216 80 216 80 213 80C212.67 79.01 212.34 78.02 212 77C212.782 76.5037 213.565 76.0074 214.371 75.4961C220.041 72.0265 220.041 72.0265 223.953 66.9102C224.269 64.8229 224.269 64.8229 224 62Z" fill="#353535"/>
<path d="M127 137C127.99 137.33 128.98 137.66 130 138C129.67 138.66 129.34 139.32 129 140C129.99 140.33 130.98 140.66 132 141C131.484 141.392 130.969 141.784 130.438 142.188C129.726 143.085 129.726 143.085 129 144C129.352 146.429 129.352 146.429 130 149C129.632 151.635 129.188 153.623 128 156C126.68 156 125.36 156 124 156C124 155.34 124 154.68 124 154C123.34 153.67 122.68 153.34 122 153C122.33 152.67 122.66 152.34 123 152C122.67 151.34 122.34 150.68 122 150C122.66 150 123.32 150 124 150C124.33 149.34 124.66 148.68 125 148C125.33 147.34 125.66 146.68 126 146C125.34 145.67 124.68 145.34 124 145C124.33 144.34 124.66 143.68 125 143C125.165 142.34 125.33 141.68 125.5 141C126 139 126 139 127 137Z" fill="#3C3C3C"/>
<path d="M72 34C72.66 34.33 73.32 34.66 74 35C73.0306 35.7219 72.0613 36.4437 71.0625 37.1875C66.3838 41.15 63.2724 46.105 59.918 51.1719C58 54 58 54 56 56C55.67 55.34 55.34 54.68 55 54C55.9738 52.3179 56.977 50.6526 58 49C58.1328 48.358 58.2655 47.7161 58.4023 47.0547C60.1063 41.1968 67.0268 37.0324 72 34ZM57 47C57 50 57 50 55.6875 51.3867C54.125 52.5911 52.5625 53.7956 51 55C52.4425 51.6341 54.3326 49.4895 57 47Z" fill="#6E6E6E"/>
<path d="M151 67C151.33 67.99 151.66 68.98 152 70C153.5 71.6671 153.5 71.6671 155 73C154.67 73.66 154.34 74.32 154 75C152.68 75 151.36 75 150 75C150.66 75.33 151.32 75.66 152 76C151.67 76.99 151.34 77.98 151 79C150.34 79 149.68 79 149 79C147.776 81.0745 147.776 81.0745 148 84C147.34 84.33 146.68 84.66 146 85C145.34 84.67 144.68 84.34 144 84C144.296 77.1848 147.305 72.6165 151 67Z" fill="#606060"/>
<path d="M92 22C92 22.66 92 23.32 92 24C91.166 24.2307 90.332 24.4615 89.4727 24.6992C83.086 26.5501 77.4826 28.4922 71.9023 32.1445C69.5269 33.2128 68.4013 32.8717 66 32C68.6649 28.7397 72.1439 27.4331 75.9375 25.875C76.5582 25.6107 77.1789 25.3465 77.8184 25.0742C82.7795 22.9926 86.6308 21.8509 92 22Z" fill="#888888"/>
<path d="M144 86C145.32 86 146.64 86 148 86C147.427 88.8672 147.139 89.8615 145 92C145.33 92.66 145.66 93.32 146 94C139.25 96.125 139.25 96.125 137 95C138.875 89.25 138.875 89.25 140 87C141.32 87.33 142.64 87.66 144 88C144 87.34 144 86.68 144 86Z" fill="#424242"/>
<path d="M122 210C124.31 210 126.62 210 129 210C127.355 211.694 125.693 213.354 124 215C123.169 215.826 123.169 215.826 122.32 216.668C117.781 220.915 117.781 220.915 113.562 221.375C112.717 221.251 111.871 221.127 111 221C118.2 213.6 118.2 213.6 123 212C122.67 211.34 122.34 210.68 122 210Z" fill="#382424"/>
<path d="M203 69C203.66 69.33 204.32 69.66 205 70C205 72.31 205 74.62 205 77C205.99 76.34 206.98 75.68 208 75C208 77.31 208 79.62 208 82C207.34 82 206.68 82 206 82C205.814 83.2066 205.814 83.2066 205.625 84.4375C205.419 85.2831 205.213 86.1287 205 87C204.34 87.33 203.68 87.66 203 88C203 86.35 203 84.7 203 83C202.34 83 201.68 83 201 83C201 81.02 201 79.04 201 77C201.66 77 202.32 77 203 77C203 74.36 203 71.72 203 69Z" fill="#454545"/>
<path d="M171 49C169.554 54.5411 169.554 54.5411 167.188 56.5C164.241 57.1736 162.652 56.3261 160 55C161.152 52.532 162.048 50.9522 164 49C167.007 47.9331 167.852 47.9506 171 49Z" fill="#767676"/>
<path d="M90 203C92.9333 203.646 95.4722 204.599 98.1875 205.875C105.789 209.296 112.669 211.339 121 212C121 212.33 121 212.66 121 213C116.38 213.33 111.76 213.66 107 214C107 213.34 107 212.68 107 212C106.031 211.876 105.061 211.752 104.062 211.625C103.052 211.419 102.041 211.212 101 211C100.67 210.34 100.34 209.68 100 209C97.4727 208.344 97.4727 208.344 95 208C95 207.34 95 206.68 95 206C92.525 205.01 92.525 205.01 90 204C90 203.67 90 203.34 90 203Z" fill="#5D1818"/>
<path d="M101 195C105.75 195.875 105.75 195.875 108 197C108 197.66 108 198.32 108 199C108.66 199 109.32 199 110 199C109.34 200.65 108.68 202.3 108 204C107.01 203.67 106.02 203.34 105 203C105 202.01 105 201.02 105 200C104.01 200.33 103.02 200.66 102 201C98.8125 200.062 98.8125 200.062 96 199C96.9591 198.845 96.9591 198.845 97.9375 198.688C98.6181 198.461 99.2987 198.234 100 198C100.33 197.01 100.66 196.02 101 195Z" fill="#0C0707"/>
<path d="M40 55C41.32 55.33 42.64 55.66 44 56C42.5496 60.1096 40.4889 63.4326 38 67C37.01 66.34 36.02 65.68 35 65C36.1559 61.0879 37.3553 58.1255 40 55Z" fill="#515151"/>
<path d="M82 198C87.9129 198.643 93.3424 200.19 99 202C99 203.65 99 205.3 99 207C95.1039 205.511 91.409 203.756 87.6875 201.875C86.6189 201.336 85.5502 200.797 84.4492 200.242C83.641 199.832 82.8327 199.422 82 199C82 198.67 82 198.34 82 198Z" fill="#DF2A2A"/>
<path d="M75 152C79.75 152.75 79.75 152.75 82 155C82.125 157.625 82.125 157.625 82 160C76.25 159.25 76.25 159.25 74 157C74.375 154.375 74.375 154.375 75 152Z" fill="#6C4546"/>
<path d="M93 215C103.558 216.927 103.558 216.927 108 219C108 219.99 108 220.98 108 222C101.25 223.125 101.25 223.125 99 222C99 220 99 220 100 219C97.69 218.01 95.38 217.02 93 216C93 215.67 93 215.34 93 215Z" fill="#3E3B3B"/>
<path d="M156.766 209.477C160.748 210.409 164.84 209.956 168.906 209.84C171.908 209.995 173.486 210.429 176 212C167.122 213.92 158.712 213.285 150 211C150 210.67 150 210.34 150 210C154.519 208.87 154.519 208.87 156.766 209.477Z" fill="#1E1E1E"/>
<path d="M116 220C114.554 223.813 112.698 225.327 109 227C106.688 226.688 106.688 226.688 105 226C105 225.34 105 224.68 105 224C104.34 223.67 103.68 223.34 103 223C104.603 222.495 106.207 221.996 107.812 221.5C108.706 221.222 109.599 220.943 110.52 220.656C113 220 113 220 116 220Z" fill="#525050"/>
<path d="M203 23C200.192 25.9641 197.817 28.445 194 30C193 27 193 27 193 24C196.782 22.1631 198.946 21.8416 203 23Z" fill="#5D5D5D"/>
<path d="M126.5 202.187C129.137 203.044 130.257 203.89 132 206C126.681 208.055 126.681 208.055 123.688 207.812C123.131 207.544 122.574 207.276 122 207C121.67 206.01 121.34 205.02 121 204C124 202 124 202 126.5 202.187Z" fill="#070606"/>
<path d="M122 156C123.98 156.495 123.98 156.495 126 157C125.34 157 124.68 157 124 157C124 157.66 124 158.32 124 159C126.475 159.99 126.475 159.99 129 161C128.67 161.66 128.34 162.32 128 163C127.67 163.99 127.34 164.98 127 166C126.01 166.33 125.02 166.66 124 167C124 166.01 124 165.02 124 164C123.484 163.546 122.969 163.093 122.438 162.625C121.963 162.089 121.489 161.552 121 161C121.312 158.312 121.312 158.312 122 156Z" fill="#2B2B2B"/>
<path d="M191 26C190.276 26.4589 189.551 26.9178 188.805 27.3906C183.835 30.5445 178.877 33.7047 174 37C176.711 30.6739 183.724 23.5266 191 26Z" fill="#F0F0F0"/>
<path d="M103 205C110.425 204.3 115.451 206.629 122 210C117.833 211.793 114.253 210.012 110.25 208.563C109.204 208.198 109.204 208.198 108.137 207.826C106.421 207.227 104.71 206.615 103 206C103 205.67 103 205.34 103 205Z" fill="#641616"/>
<path d="M83 201C85.475 201.99 85.475 201.99 88 203C87.67 204.32 87.34 205.64 87 207C86.34 207 85.68 207 85 207C84.67 207.66 84.34 208.32 84 209C82 208 80 207 78 206C79.65 204.35 81.3 202.7 83 201Z" fill="#1E1717"/>
<path d="M46 96C46.66 96 47.32 96 48 96C48 96.66 48 97.32 48 98C48.66 98 49.32 98 50 98C50.5062 99.2684 51.0047 100.54 51.5 101.812C51.9177 102.874 51.9177 102.874 52.3438 103.957C53 106 53 106 53 109C50 108 50 108 48.832 106.293C48.4956 105.598 48.1591 104.903 47.8125 104.188C47.4683 103.5 47.1241 102.813 46.7695 102.105C46 100 46 100 46 96Z" fill="#D6D6D6"/>
<path d="M50 69C51.198 73.1466 50.8896 76.9937 50.5625 81.25C50.4842 82.3676 50.4842 82.3676 50.4043 83.5078C50.2752 85.3389 50.1383 87.1695 50 89C47.9678 85.5965 47.6311 82.6767 47.375 78.75C47.3002 77.6723 47.2255 76.5947 47.1484 75.4844C47.0995 74.6645 47.0505 73.8447 47 73C47.66 73 48.32 73 49 73C49.33 71.68 49.66 70.36 50 69Z" fill="#818181"/>
<path d="M134 101C136.31 101.33 138.62 101.66 141 102C141 102.66 141 103.32 141 104C138.75 106.188 138.75 106.188 136 108C133.688 107.75 133.688 107.75 132 107C132.66 105.02 133.32 103.04 134 101Z" fill="#323232"/>
<path d="M37 164C37.66 164.66 38.32 165.32 39 166C41.5835 166.167 41.5835 166.167 44 166C46 169.75 46 169.75 46 172C47.4583 173.625 47.4583 173.625 49 175C43.5951 173.48 40.0151 169.726 36 166C36.33 165.34 36.66 164.68 37 164Z" fill="#404040"/>
<path d="M64 121C65.0132 121.524 65.0132 121.524 66.0469 122.059C66.9389 122.514 67.8309 122.969 68.75 123.438C69.6317 123.89 70.5134 124.342 71.4219 124.809C75.8638 126.861 79.874 127.221 84.75 127.562C85.9205 127.646 87.0909 127.73 88.2969 127.816C89.1889 127.877 90.0809 127.938 91 128C91 128.33 91 128.66 91 129C72.3685 130.085 72.3685 130.085 65.3359 124.508C64 123 64 123 64 121Z" fill="#9C9D9D"/>
<path d="M64 150C70.875 150.875 70.875 150.875 72 152C72.0406 153.666 72.0427 155.334 72 157C69.2372 156.477 66.6739 155.891 64 155C64 153.35 64 151.7 64 150Z" fill="#606263"/>
<path d="M48 145C49.65 145 51.3 145 53 145C53.33 147.64 53.66 150.28 54 153C51.0848 151.926 49.2219 151.222 47 149C47.375 146.875 47.375 146.875 48 145Z" fill="#232A2B"/>
<path d="M90 216C94.3177 216.508 98.033 217.197 102 219C101.67 219.66 101.34 220.32 101 221C100.34 220.67 99.68 220.34 99 220C99 220.66 99 221.32 99 222C96.03 221.505 96.03 221.505 93 221C92.67 220.01 92.34 219.02 92 218C91.34 217.34 90.68 216.68 90 216Z" fill="#3A3839"/>
<path d="M191 85C191.66 85 192.32 85 193 85C193 87.31 193 89.62 193 92C193.66 92 194.32 92 195 92C195 94.97 195 97.94 195 101C194.34 101 193.68 101 193 101C193 98.69 193 96.38 193 94C192.34 94 191.68 94 191 94C191 91.03 191 88.06 191 85Z" fill="#1C1C1C"/>
<path d="M65 31C65.66 31.33 66.32 31.66 67 32C67 32.99 67 33.98 67 35C64.25 37.25 64.25 37.25 61 39C58.625 38.75 58.625 38.75 57 38C59.5162 35.3939 62.0513 33.1062 65 31Z" fill="#656565"/>
<path d="M95 199C97.0182 199.293 99.0365 199.586 101.055 199.879C103.081 200.168 103.081 200.168 105 199C105.66 199.66 106.32 200.32 107 201C106.67 201.66 106.34 202.32 106 203C106.66 203.66 107.32 204.32 108 205C105.688 205.188 105.688 205.188 103 205C101.979 204.021 100.979 203.02 100 202C97.3939 201.278 97.3939 201.278 95 201C95 200.34 95 199.68 95 199Z" fill="#1E0B0B"/>
<path d="M149 74C151.375 73.8125 151.375 73.8125 154 74C154.66 74.99 155.32 75.98 156 77C155.361 77.5981 154.721 78.1962 154.062 78.8125C151.797 80.9081 151.797 80.9081 151 84C150.34 84 149.68 84 149 84C149 83.34 149 82.68 149 82C148.01 81.67 147.02 81.34 146 81C146.99 80.34 147.98 79.68 149 79C150.019 78.019 151.024 77.023 152 76C151.01 75.67 150.02 75.34 149 75C149 74.67 149 74.34 149 74Z" fill="#4D4D4D"/>
<path d="M124 140C124.99 140.33 125.98 140.66 127 141C127 141.99 127 142.98 127 144C126.67 144.33 126.34 144.66 126 145C126.33 145.66 126.66 146.32 127 147C126.34 147.66 125.68 148.32 125 149C124.01 149 123.02 149 122 149C121.67 146.69 121.34 144.38 121 142C121.99 141.34 122.98 140.68 124 140Z" fill="#2A2A2A"/>
<path d="M198 70C198.66 70.33 199.32 70.66 200 71C200.625 73.0625 200.625 73.0625 201 75C200.34 75 199.68 75 199 75C199.062 76.1137 199.124 77.2275 199.188 78.375C199.095 80.1694 199.095 80.1694 199 82C198.01 82.66 197.02 83.32 196 84C196 81.69 196 79.38 196 77C196.66 77 197.32 77 198 77C198 74.69 198 72.38 198 70Z" fill="#454545"/>
<path d="M99 26C98.67 26.66 98.34 27.32 98 28C95.4531 28.6328 95.4531 28.6328 92.25 29.125C91.2033 29.2926 90.1566 29.4602 89.0781 29.6328C86.3438 29.959 83.7489 30.0713 81 30C85.6017 25.3983 92.888 25.7817 99 26Z" fill="#575757"/>
<path d="M176 35C177 38 177 38 176.375 40.0625C174.559 42.622 173 43.1953 170 44C169.01 43.67 168.02 43.34 167 43C167.566 42.5063 168.132 42.0126 168.715 41.5039C169.448 40.8632 170.182 40.2226 170.938 39.5625C171.668 38.9244 172.399 38.2863 173.152 37.6289C174.121 36.7746 175.087 35.9135 176 35Z" fill="#ACACAC"/>
<path d="M198 82C198.33 82 198.66 82 199 82C200.071 88.026 200.099 93.8891 200 100C199.34 99.67 198.68 99.34 198 99C196.905 93.7458 196.609 88.3582 197 83C197.33 82.67 197.66 82.34 198 82Z" fill="#2E2E2E"/>
<path d="M56 38C57.32 38.66 58.64 39.32 60 40C57.3116 42.2525 55.3536 43.8821 52 45C52 43.68 52 42.36 52 41C54 39.25 54 39.25 56 38Z" fill="#5D5D5D"/>
<path d="M218 20C220.375 19.875 220.375 19.875 223 20C225 22 225 22 225.125 24.625C225.084 25.4088 225.043 26.1925 225 27C223.02 26.34 221.04 25.68 219 25C219.33 24.01 219.66 23.02 220 22C219.34 21.34 218.68 20.68 218 20Z" fill="#373737"/>
<path d="M127 117C130.767 117 131.912 117.235 135 119C134.67 119.66 134.34 120.32 134 121C131.934 121.414 131.934 121.414 129.438 121.625C128.611 121.7 127.785 121.775 126.934 121.852C125.976 121.925 125.976 121.925 125 122C125.66 120.35 126.32 118.7 127 117Z" fill="#313131"/>
<path d="M173 84C171.02 84.99 171.02 84.99 169 86C169.99 86.66 170.98 87.32 172 88C171.196 88.2681 170.391 88.5363 169.562 88.8125C168.717 89.2044 167.871 89.5963 167 90C166.67 90.99 166.34 91.98 166 93C165.67 93 165.34 93 165 93C165 91.35 165 89.7 165 88C165.66 87.67 166.32 87.34 167 87C167 86.01 167 85.02 167 84C170.75 82.875 170.75 82.875 173 84Z" fill="#4A4A4A"/>
<path d="M143 81C143.66 81.33 144.32 81.66 145 82C144.67 82.66 144.34 83.32 144 84C145.32 83.67 146.64 83.34 148 83C148.99 84.485 148.99 84.485 150 86C149.01 86 148.02 86 147 86C146.67 86.66 146.34 87.32 146 88C146 87.34 146 86.68 146 86C145.34 86 144.68 86 144 86C144 86.66 144 87.32 144 88C143.01 87.67 142.02 87.34 141 87C141.66 85.02 142.32 83.04 143 81Z" fill="#4D4D4D"/>
<path d="M96 24C93.9246 24.8937 91.8393 25.7644 89.75 26.625C88.5898 27.1123 87.4297 27.5995 86.2344 28.1016C83 29 83 29 80.5781 28.1484C80.0573 27.7694 79.5366 27.3905 79 27C81.0791 26.2999 83.1635 25.6154 85.25 24.9375C86.4102 24.5546 87.5703 24.1718 88.7656 23.7773C91.8008 23.0479 93.157 22.8811 96 24Z" fill="#E9E9E9"/>
<path d="M210 21C206.375 26.875 206.375 26.875 203 28C202.312 26.1875 202.312 26.1875 202 24C204.141 20.6698 206.241 20.6952 210 21Z" fill="#505050"/>
<path d="M110 209C115.009 209.615 120.006 210.272 125 211C121.877 212.861 119.962 213.185 116.375 212.688C115.599 212.588 114.823 212.489 114.023 212.387C112 212 112 212 110 211C110 210.34 110 209.68 110 209Z" fill="#EE3131"/>
<path d="M53 146C55.475 146.495 55.475 146.495 58 147C57.67 148.98 57.34 150.96 57 153C55.68 153.33 54.36 153.66 53 154C53 151.36 53 148.72 53 146Z" fill="#4F5253"/>
<path d="M50 43C50.99 43.33 51.98 43.66 53 44C53.66 43.67 54.32 43.34 55 43C53.509 46.7952 51.243 48.6104 48 51C48.33 49.68 48.66 48.36 49 47C48.34 46.67 47.68 46.34 47 46C47.99 45.01 48.98 44.02 50 43Z" fill="#515151"/>
<path d="M77 28C73.3904 31.2911 70.8736 32.5466 66 33C67 30 67 30 68.6875 28.8125C71.5497 27.8069 73.9883 27.8631 77 28Z" fill="#797878"/>
<path d="M77 207C77.99 207.66 78.98 208.32 80 209C80 209.66 80 210.32 80 211C80.33 211.99 80.66 212.98 81 214C78.69 213.34 76.38 212.68 74 212C75.875 208.125 75.875 208.125 77 207Z" fill="#414040"/>
<path d="M134.188 205.938C135.085 206.463 135.085 206.463 136 207C132.167 209.706 129.675 210.326 125 210C130.342 204.289 130.342 204.289 134.188 205.938Z" fill="#181515"/>
<path d="M34 65C35.32 65.66 36.64 66.32 38 67C37.34 68.65 36.68 70.3 36 72C35.34 72 34.68 72 34 72C34 71.34 34 70.68 34 70C33.34 70 32.68 70 32 70C32.66 68.35 33.32 66.7 34 65Z" fill="#4A4A4A"/>
<path d="M101 229C101.99 229.33 102.98 229.66 104 230C103.34 231.32 102.68 232.64 102 234C101.34 234 100.68 234 100 234C100 234.66 100 235.32 100 236C99.01 235.67 98.02 235.34 97 235C98.75 230.125 98.75 230.125 101 229Z" fill="#7C7C7C"/>
<path d="M82 198C86.0561 198.468 89.4659 198.88 93 201C92 202 92 202 89.75 202.25C86.4643 201.951 84.6622 200.902 82 199C82 198.67 82 198.34 82 198Z" fill="#E43F3F"/>
<path d="M118 156C119.32 156.33 120.64 156.66 122 157C122 158.98 122 160.96 122 163C122.66 163.33 123.32 163.66 124 164C122.68 164.33 121.36 164.66 120 165C118.558 162.116 118.412 159.176 118 156Z" fill="#1C1C1C"/>
<path d="M207 75C207.33 75 207.66 75 208 75C208 77.31 208 79.62 208 82C207.34 82 206.68 82 206 82C205.67 82.99 205.34 83.98 205 85C204.805 78.9453 204.805 78.9453 205 77C205.66 76.34 206.32 75.68 207 75Z" fill="#3E3E3E"/>
<path d="M132 166C133.65 166.99 135.3 167.98 137 169C136.01 169.33 135.02 169.66 134 170C133.01 171.485 133.01 171.485 132 173C131.67 172.34 131.34 171.68 131 171C131.33 170.34 131.66 169.68 132 169C131.01 168.67 130.02 168.34 129 168C129.99 167.34 130.98 166.68 132 166Z" fill="#4F4F4F"/>
<path d="M124 160C126.475 160.495 126.475 160.495 129 161C128.67 161.66 128.34 162.32 128 163C127.67 163.99 127.34 164.98 127 166C126.01 166.33 125.02 166.66 124 167C124 164.69 124 162.38 124 160Z" fill="#383838"/>
<path d="M131 125C135.875 126.75 135.875 126.75 137 129C134.394 129.931 133.358 130.149 130.75 129.062C130.173 128.712 129.595 128.361 129 128C129.66 127.67 130.32 127.34 131 127C131 126.34 131 125.68 131 125Z" fill="#484848"/>
<path d="M156 60C157.98 60 159.96 60 162 60C162.33 60.66 162.66 61.32 163 62C162.67 62.66 162.34 63.32 162 64C161.34 64 160.68 64 160 64C159.67 64.66 159.34 65.32 159 66C159 65.34 159 64.68 159 64C158.34 63.67 157.68 63.34 157 63C156.67 62.01 156.34 61.02 156 60Z" fill="#6E6E6E"/>
<path d="M194 51C194.66 51.33 195.32 51.66 196 52C195.67 52.99 195.34 53.98 195 55C193.679 55.3776 192.342 55.7019 191 56C189.31 56.9602 187.638 57.9536 186 59C187.117 55.65 187.747 55.2066 190.562 53.3125C191.203 52.8755 191.844 52.4385 192.504 51.9883C192.998 51.6621 193.491 51.336 194 51Z" fill="#454545"/>
<path d="M163 49C163.99 49.66 164.98 50.32 166 51C165.67 52.32 165.34 53.64 165 55C163.68 55.33 162.36 55.66 161 56C161 52 161 52 163 49Z" fill="#686868"/>
<path d="M98 212C100.475 212.99 100.475 212.99 103 214C102.67 214.66 102.34 215.32 102 216C100.02 216 98.04 216 96 216C96.66 214.68 97.32 213.36 98 212Z" fill="#292424"/>
<path d="M127 148C127.99 149.32 128.98 150.64 130 152C129.34 153.32 128.68 154.64 128 156C126.68 156 125.36 156 124 156C124 155.34 124 154.68 124 154C124.66 153.67 125.32 153.34 126 153C126.656 150.473 126.656 150.473 127 148Z" fill="#434343"/>
<path d="M140 95C140.99 95.33 141.98 95.66 143 96C142.688 97.9375 142.688 97.9375 142 100C141.01 100.33 140.02 100.66 139 101C138.957 99.3339 138.959 97.6662 139 96C139.33 95.67 139.66 95.34 140 95Z" fill="#333333"/>
<path d="M48 98C48.66 98 49.32 98 50 98C50.99 101.3 51.98 104.6 53 108C49.946 106.473 49.3413 104.048 48 101C48 100.01 48 99.02 48 98Z" fill="#C5C5C5"/>
<path d="M145 77C145.66 77.33 146.32 77.66 147 78C147 78.99 147 79.98 147 81C147.66 81.33 148.32 81.66 149 82C148 84 148 84 146 85C145.34 84.67 144.68 84.34 144 84C144.33 81.69 144.66 79.38 145 77Z" fill="#575757"/>
<path d="M42 63C42.33 63.99 42.66 64.98 43 66C41.608 68.7839 39.8442 68.979 37 70C38.2498 66.3468 38.671 65.2193 42 63Z" fill="#CACACA"/>
<path d="M72 34C72.66 34.33 73.32 34.66 74 35C72.9072 36.033 71.8003 37.0511 70.6875 38.0625C70.0726 38.631 69.4577 39.1995 68.8242 39.7852C68.2222 40.1861 67.6202 40.587 67 41C66.01 40.67 65.02 40.34 64 40C66.64 38.02 69.28 36.04 72 34Z" fill="#7F7F7F"/>
<path d="M193 24C194.65 24.33 196.3 24.66 198 25C197.688 26.9375 197.688 26.9375 197 29C196.01 29.33 195.02 29.66 194 30C193 27 193 27 193 24Z" fill="#6A6A6A"/>
<path d="M92 22C92 22.66 92 23.32 92 24C89.36 24.33 86.72 24.66 84 25C83.67 24.34 83.34 23.68 83 23C86.0732 22.0894 88.801 21.9111 92 22Z" fill="#808080"/>
<path d="M115 217C116.32 217.66 117.64 218.32 119 219C115.772 221.152 114.716 221.201 111 221C112.32 219.68 113.64 218.36 115 217Z" fill="#3B3838"/>
<path d="M95 217C97.31 217.66 99.62 218.32 102 219C101.67 219.66 101.34 220.32 101 221C100.34 220.67 99.68 220.34 99 220C98.67 220.66 98.34 221.32 98 222C97.67 221.01 97.34 220.02 97 219C96.01 218.67 95.02 218.34 94 218C94.33 217.67 94.66 217.34 95 217Z" fill="#282626"/>
<path d="M94 209C94.99 209 95.98 209 97 209C96.25 210.938 96.25 210.938 95 213C92.875 213.75 92.875 213.75 91 214C92.875 210.125 92.875 210.125 94 209Z" fill="#120E0E"/>
<path d="M120 207C121.98 207 123.96 207 126 207C126.33 207.66 126.66 208.32 127 209C124.291 210.354 121.991 210.065 119 210C119.33 209.01 119.66 208.02 120 207Z" fill="#190A0A"/>
<path d="M82 205C82.33 205.99 82.66 206.98 83 208C80 209 80 209 77 208C76.01 208 75.02 208 74 208C76 206 76 206 78.5625 205.938C79.7691 205.968 79.7691 205.968 81 206C81.33 205.67 81.66 205.34 82 205Z" fill="#272626"/>
<path d="M125 125C125.66 125 126.32 125 127 125C127 125.66 127 126.32 127 127C127.66 127 128.32 127 129 127C128.67 127.66 128.34 128.32 128 129C125.438 129.625 125.438 129.625 123 130C123 129.01 123 128.02 123 127C123.66 127 124.32 127 125 127C125 126.34 125 125.68 125 125Z" fill="#232323"/>
<path d="M172.312 43.3125C172.869 43.5394 173.426 43.7663 174 44C169.569 47.0769 169.569 47.0769 166.688 46.6875C165.852 46.3472 165.852 46.3472 165 46C169.431 42.9231 169.431 42.9231 172.312 43.3125Z" fill="#8D8D8D"/>
<path d="M168 35C168.33 35.99 168.66 36.98 169 38C167.71 39.3756 166.373 40.7077 165 42C164.34 42 163.68 42 163 42C164.293 39.1156 165.659 37.1278 168 35Z" fill="#7A7A7A"/>
<path d="M81 28C81 28.66 81 29.32 81 30C79.1875 31.0625 79.1875 31.0625 77 32C76.01 31.67 75.02 31.34 74 31C76.5004 27.9995 76.7379 28 81 28Z" fill="#F5F5F5"/>
<path d="M107 24C107.33 24.66 107.66 25.32 108 26C104.492 27.6036 101.856 28.2204 98 28C99 26 99 26 100.848 25.3672C101.944 25.1236 101.944 25.1236 103.062 24.875C103.796 24.7074 104.529 24.5398 105.285 24.3672C105.851 24.246 106.417 24.1248 107 24Z" fill="#4F4F4F"/>
</svg>
