<svg width="25" height="25" viewBox="0 0 25 25" fill="none" xmlns="http://www.w3.org/2000/svg">
<mask id="mask0_66_7" style="mask-type:alpha" maskUnits="userSpaceOnUse" x="0" y="0" width="25" height="25">
<rect x="0.778273" y="0.157593" width="24" height="24" fill="#D9D9D9"/>
</mask>
<g mask="url(#mask0_66_7)">
<path d="M20.3783 21.1576L14.0783 14.8576C13.5783 15.2576 13.0033 15.5743 12.3533 15.8076C11.7033 16.0409 11.0116 16.1576 10.2783 16.1576C8.46161 16.1576 6.92411 15.5284 5.66577 14.2701C4.40744 13.0118 3.77827 11.4743 3.77827 9.65759C3.77827 7.84093 4.40744 6.30343 5.66577 5.04509C6.92411 3.78676 8.46161 3.15759 10.2783 3.15759C12.0949 3.15759 13.6324 3.78676 14.8908 5.04509C16.1491 6.30343 16.7783 7.84093 16.7783 9.65759C16.7783 10.3909 16.6616 11.0826 16.4283 11.7326C16.1949 12.3826 15.8783 12.9576 15.4783 13.4576L21.7783 19.7576L20.3783 21.1576ZM10.2783 14.1576C11.5283 14.1576 12.5908 13.7201 13.4658 12.8451C14.3408 11.9701 14.7783 10.9076 14.7783 9.65759C14.7783 8.40759 14.3408 7.34509 13.4658 6.47009C12.5908 5.59509 11.5283 5.15759 10.2783 5.15759C9.02827 5.15759 7.96577 5.59509 7.09077 6.47009C6.21577 7.34509 5.77827 8.40759 5.77827 9.65759C5.77827 10.9076 6.21577 11.9701 7.09077 12.8451C7.96577 13.7201 9.02827 14.1576 10.2783 14.1576Z" fill="#1C1B1F"/>
</g>
</svg>
