<svg width="371" height="350" viewBox="0 0 371 350" fill="none" xmlns="http://www.w3.org/2000/svg">
<path d="M370.066 157.329C370.479 161.213 370.757 165.135 370.896 169.089L369.897 169.124C369.965 171.075 370 173.034 370 175C370 176.966 369.965 178.925 369.897 180.876L370.896 180.911C370.757 184.865 370.479 188.787 370.066 192.671L369.072 192.565C368.656 196.477 368.103 200.35 367.417 204.181L368.401 204.357C367.705 208.246 366.873 212.092 365.909 215.889L364.94 215.643C363.975 219.444 362.879 223.197 361.654 226.897L362.604 227.211C361.365 230.955 359.996 234.645 358.503 238.277L357.578 237.896C356.089 241.518 354.474 245.081 352.74 248.58L353.636 249.024C351.889 252.551 350.02 256.014 348.035 259.408L347.172 258.903C345.198 262.279 343.108 265.587 340.908 268.821L341.735 269.383C339.524 272.634 337.202 275.812 334.774 278.911L333.987 278.294C331.577 281.369 329.063 284.367 326.449 287.283L327.193 287.951C324.571 290.875 321.85 293.717 319.033 296.472L318.334 295.757C315.542 298.488 312.656 301.133 309.681 303.688L310.333 304.447C307.356 307.003 304.291 309.469 301.142 311.841L300.54 311.042C297.423 313.389 294.223 315.644 290.946 317.8L291.496 318.636C288.218 320.792 284.864 322.851 281.436 324.809L280.94 323.941C277.555 325.874 274.099 327.708 270.576 329.438L271.016 330.335C267.498 332.063 263.914 333.687 260.268 335.203L259.884 334.28C256.284 335.777 252.624 337.17 248.907 338.452L249.233 339.398C245.534 340.674 241.779 341.843 237.973 342.9L237.705 341.937C233.954 342.978 230.153 343.911 226.306 344.73L226.514 345.708C222.686 346.523 218.813 347.226 214.9 347.814L214.751 346.825C210.904 347.403 207.018 347.869 203.096 348.219L203.185 349.215C199.294 349.562 195.369 349.796 191.413 349.913L191.383 348.913C189.43 348.971 187.468 349 185.5 349C183.532 349 181.57 348.971 179.617 348.913L179.587 349.913C175.631 349.796 171.706 349.562 167.815 349.215L167.904 348.219C163.982 347.869 160.096 347.403 156.249 346.825L156.1 347.814C152.187 347.226 148.314 346.523 144.486 345.708L144.694 344.73C140.847 343.911 137.046 342.978 133.294 341.937L133.027 342.9C129.221 341.843 125.466 340.674 121.767 339.398L122.093 338.452C118.376 337.17 114.716 335.777 111.116 334.28L110.732 335.203C107.086 333.687 103.502 332.063 99.9835 330.335L100.424 329.438C96.9012 327.708 93.4448 325.874 90.0597 323.941L89.5637 324.809C86.1364 322.851 82.7817 320.792 79.5043 318.636L80.0539 317.8C76.7765 315.644 73.5769 313.389 70.4597 311.042L69.8581 311.841C66.7092 309.469 63.6439 307.003 60.6672 304.447L61.3187 303.688C58.344 301.133 55.4582 298.488 52.6663 295.757L51.9671 296.472C49.1504 293.717 46.4287 290.875 43.8069 287.951L44.5514 287.283C41.9371 284.367 39.4227 281.369 37.0132 278.294L36.226 278.911C33.7981 275.812 31.476 272.634 29.2649 269.383L30.0917 268.821C27.8916 265.587 25.8021 262.279 23.828 258.903L22.9647 259.408C20.98 256.014 19.1114 252.551 17.3637 249.024L18.2597 248.58C16.5256 245.08 14.9114 241.518 13.4221 237.896L12.4973 238.277C11.0038 234.645 9.63515 230.955 8.39621 227.211L9.34558 226.897C8.12141 223.197 7.02468 219.444 6.06023 215.643L5.09095 215.889C4.12744 212.092 3.29514 208.246 2.59883 204.357L3.58318 204.181C2.89728 200.35 2.34414 196.477 1.92836 192.565L0.933961 192.671C0.521147 188.787 0.242945 184.865 0.103822 180.911L1.1032 180.876C1.03458 178.925 1 176.966 1 175C1 173.034 1.03458 171.075 1.1032 169.124L0.103823 169.089C0.242946 165.135 0.521147 161.213 0.933962 157.329L1.92836 157.435C2.34414 153.523 2.89728 149.65 3.58318 145.819L2.59883 145.643C3.29513 141.754 4.12743 137.908 5.09094 134.111L6.06023 134.357C7.02467 130.556 8.1214 126.803 9.34558 123.103L8.39621 122.789C9.63515 119.045 11.0038 115.355 12.4973 111.723L13.4221 112.104C14.9114 108.482 16.5256 104.92 18.2597 101.42L17.3637 100.976C19.1114 97.4491 20.9801 93.9862 22.9647 90.5922L23.828 91.097C25.8021 87.721 27.8916 84.4135 30.0917 81.1789L29.2649 80.6165C31.476 77.3657 33.7981 74.1884 36.226 71.0894L37.0132 71.7061C39.4227 68.6306 41.9371 65.6326 44.5514 62.7167L43.8069 62.0491C46.4287 59.1248 49.1505 56.2828 51.9671 53.5278L52.6663 54.2426C55.4582 51.5118 58.344 48.8667 61.3187 46.3121L60.6672 45.5534C63.6439 42.9971 66.7092 40.5309 69.8581 38.1594L70.4597 38.9582C73.5769 36.6107 76.7765 34.3564 80.0539 32.1998L79.5043 31.3644C82.7817 29.2079 86.1364 27.1486 89.5637 25.191L90.0596 26.0594C93.4448 24.1259 96.9012 22.2921 100.424 20.5624L99.9835 19.6648C103.502 17.9374 107.086 16.3133 110.732 14.7967L111.116 15.7201C114.716 14.2225 118.376 12.8304 122.093 11.5477L121.767 10.6025C125.466 9.32558 129.221 8.15669 133.027 7.09983L133.295 8.06337C137.046 7.02157 140.847 6.08918 144.694 5.27011L144.486 4.29204C148.314 3.47697 152.187 2.77356 156.1 2.18563L156.249 3.17453C160.096 2.59667 163.982 2.13093 167.904 1.78098L167.815 0.784939C171.706 0.437839 175.631 0.204083 179.587 0.0872101L179.617 1.08677C181.57 1.02907 183.532 1 185.5 1C187.468 1 189.43 1.02907 191.383 1.08677L191.413 0.0872101C195.369 0.204083 199.294 0.437838 203.185 0.784937L203.096 1.78098C207.018 2.13093 210.904 2.59667 214.751 3.17453L214.9 2.18563C218.813 2.77356 222.686 3.47697 226.514 4.29204L226.306 5.27011C230.153 6.08918 233.954 7.02157 237.706 8.06337L237.973 7.09983C241.779 8.1567 245.534 9.32559 249.233 10.6025L248.907 11.5477C252.624 12.8304 256.284 14.2225 259.884 15.7201L260.268 14.7968C263.914 16.3133 267.498 17.9374 271.016 19.6648L270.576 20.5624C274.099 22.2921 277.555 24.1259 280.94 26.0594L281.436 25.191C284.864 27.1486 288.218 29.2079 291.496 31.3644L290.946 32.1998C294.223 34.3563 297.423 36.6107 300.54 38.9582L301.142 38.1594C304.291 40.5309 307.356 42.9971 310.333 45.5535L309.681 46.3121C312.656 48.8667 315.542 51.5118 318.334 54.2426L319.033 53.5278C321.85 56.2828 324.571 59.1248 327.193 62.0491L326.449 62.7167C329.063 65.6326 331.577 68.6306 333.987 71.7061L334.774 71.0894C337.202 74.1884 339.524 77.3657 341.735 80.6165L340.908 81.179C343.108 84.4135 345.198 87.721 347.172 91.097L348.035 90.5922C350.02 93.9862 351.889 97.4491 353.636 100.976L352.74 101.42C354.474 104.92 356.089 108.482 357.578 112.104L358.503 111.723C359.996 115.355 361.365 119.045 362.604 122.789L361.654 123.103C362.879 126.803 363.975 130.556 364.94 134.357L365.909 134.111C366.873 137.908 367.705 141.754 368.401 145.643L367.417 145.819C368.103 149.65 368.656 153.523 369.072 157.435L370.066 157.329Z" stroke="#FFFBFB" stroke-width="2" stroke-dasharray="12 12 12 12"/>
</svg>
